<svg enable-background="new 0 0 414.3 413.1" viewBox="0 0 414.3 413.1" xmlns="http://www.w3.org/2000/svg"><circle cx="207.1" cy="207.1" fill="#fff" r="207.1"/><circle cx="207.1" cy="201.6" fill="#fff" r="196.4"/><path d="m409.7 211.7c0 90.4-66 172.3-159.1 193.1-108.8 24.3-217.7-45.2-241.2-153.9-23.7-108.9 42.9-215 151-240.9 8.6-2.1 13.1 1.5 11.5 9-.6 2.8-2.5 4.4-5 5.7-7.3 3.8-15.4 5.5-22.9 9-50.3 23.7-81.7 62.6-91 117.5-14 83.1 38.8 160.2 121.2 178.7 82.5 18.6 167.5-35.7 185.3-118.5 17.5-80.5-27.1-158.1-105.3-183.7-2.8-.9-5.4-2.2-8-3.5-3.7-2-5.2-6.4-3.8-10.5s4.5-5 8.3-4.3c12.2 2.3 24 6.1 35.3 11.1 65.2 29.3 105.2 79.1 120.1 149 2.7 12.4 3.7 25.1 3.6 42.2z" fill="#050302"/><path d="m242 174.1c0-.3 0-.6.1-.9 0-.2 0-.3 0-.5.3-7.6-1.9-15.4-6.7-22.4-6.9-10-16.2-19.8-27.6-30.9-9.8 9.6-16 17-24.2 25.2-6.4 6.5-10.1 14.3-11.1 22.4 0 .1 0 .3-.1.4 0 .3-.1.7-.1 1s0 .6-.1.9v.5c-.3 7.6 1.9 15.4 6.7 22.4 6.9 10 16.1 18.6 28.2 30.4 9.8-9.6 15.4-16.4 23.6-24.7 6.4-6.5 10.1-14.3 11.1-22.4 0-.1 0-.3.1-.4 0-.4 0-.7.1-1z" fill="#050302"/><path d="m134.2 106.4c-.1.2-.3.3-.5.5-36.9 37.8-36.4 98.2.8 135.4l22.1 21.6 21.5-22.1-21.4-20.9c-25.8-25.3-26.3-66.7-1-92.5l.5-.5 73.3-75.2-22.1-21.6z" fill="#050302"/><path d="m279.9 231.8c.1-.2.3-.3.5-.5 36.9-37.8 36.4-98.2-.8-135.4l-22.1-21.6-21.5 22.1 21.4 20.9c25.8 25.3 26.3 66.7 1 92.5-.2.2-.3.3-.5.5l-75 78.2 22.1 21.6z" fill="#050302"/><circle cx="210.7" cy="206.8" fill="none" r="184.2"/><g fill="#fff"><path d="m83.3 340.4c-1.4-1.4-2.5-2.9-3.3-4.5s-1-3.3-.9-5.1.7-3.7 1.7-5.7 2.6-4.1 4.6-6.3c2.5-2.7 5.1-4.6 7.8-5.7 2.6-1.1 5.2-1.5 7.7-1.1s4.7 1.6 6.7 3.5c2.1 2 3.5 4.2 4.1 6.6.6 2.3.3 4.8-.7 7.3s-2.8 5.1-5.3 7.8c-2.7 2.8-5.4 4.8-8 5.9-2.7 1.1-5.2 1.5-7.7 1-2.4-.5-4.7-1.7-6.7-3.7zm6.3-18.5c-3.5 3.7-5.6 7-6.4 10s-.1 5.4 2 7.4c1.3 1.2 2.8 1.9 4.5 1.9s3.6-.5 5.5-1.7 4-2.8 6.1-5c2.5-2.6 4.3-5.1 5.4-7.3s1.6-4.2 1.4-5.8c-.2-1.7-.9-3.1-2.1-4.2-1.1-1-2.3-1.7-3.5-1.9-1.3-.2-2.6-.1-4 .3s-2.8 1.2-4.3 2.3c-1.5 1-3.1 2.3-4.6 4z"/><path d="m110.1 361.2-8.7-5.6.7-1c.8.3 1.5.4 2 .3s.9-.3 1.3-.7.9-1 1.4-1.8l8.2-12.6c.5-.8.9-1.5 1.1-2s.2-1 .1-1.4c-.1-.5-.5-1-1.1-1.7l.7-1 9.8 6.4c2.1 1.4 3.7 2.7 4.7 4s1.5 2.5 1.5 3.7-.4 2.5-1.3 3.8c-.6 1-1.4 1.8-2.2 2.3s-1.6.9-2.5 1.1c-.7.1-1.3.2-2 .2-1 0-2.1-.3-3.3-.7-1.2-.5-2.5-1.2-3.8-2-1.3-.9-2.4-1.6-3.2-2.2l-2.6 3.9c-.7 1.1-1.2 2-1.4 2.6s-.2 1.1-.1 1.6.6 1.1 1.4 1.8zm10.4-21.8-6 9.2 2.3 1.5c1.2.8 2.3 1.3 3.1 1.6.9.3 1.7.4 2.4.3.8-.1 1.5-.3 2.1-.8.6-.4 1.2-1.1 1.7-1.9.6-.9.9-1.7 1-2.5s0-1.5-.3-2.1c-.3-.7-.7-1.3-1.3-1.9s-1.3-1.1-2.1-1.6c-1.1-.8-2.2-1.4-2.9-1.8z"/><path d="m143.4 352.3-3.8 8.7 3.6 1.6c.6.3 1.1.4 1.5.4s.8-.1 1.2-.4.8-.7 1.3-1.3l2 .9-3.1 7.1-2-.9c.1-.7.1-1.3.1-1.8s-.2-.9-.4-1.2-.7-.6-1.4-.9l-3.6-1.6-4.2 9.6 5.7 2.5c.7.3 1.3.5 1.8.6s1 .1 1.4 0 .9-.4 1.4-.8 1.2-1.1 2.2-2.2l2.1.9-3.2 6.2-18.9-8.3.5-1.1c.9.1 1.5.2 2 0 .5-.1.8-.4 1.2-.9.3-.4.7-1.1 1.1-2l6-13.8c.4-.9.6-1.6.7-2.1s0-1-.2-1.4-.7-.9-1.4-1.5l.5-1.1 18.9 8.3-2.4 5.6-2.1-.9c.1-1.2.1-2.1 0-2.8s-.3-1.2-.7-1.6-.9-.8-1.7-1.1z"/><path d="m164.7 385.2-10-2.5.3-1.2c.9 0 1.5-.1 2-.3.4-.2.8-.6 1-1 .3-.5.5-1.2.8-2.1l3.7-14.6c.2-1 .4-1.7.4-2.2s-.1-1-.4-1.4-.8-.8-1.6-1.2l.3-1.2 11.7 2.9c2.4.6 4.2 1.3 5.5 2.2s2.2 1.9 2.5 3.1c.4 1.1.4 2.5 0 4-.2.7-.4 1.3-.8 1.9-.3.5-.7 1-1.2 1.4s-1 .7-1.6 1-1.3.5-1.9.7c-.7.2-1.6.3-2.7.4v.2c.7.5 1.2 1.1 1.7 1.8.4.7.9 1.7 1.3 2.8l1.2 3.7c.3.9.5 1.6.8 2.1.2.5.5.9.9 1.2.3.3.8.6 1.4.9l-.3 1.2-6.2-1.5c-.5-1.1-1-2.6-1.5-4.6l-1.1-3.9c-.3-1.2-.7-2-1-2.6s-.7-1-1.1-1.3-1.1-.6-2.1-.8l-2.2-.6-1.2 4.6c-.3 1.3-.5 2.2-.5 2.9 0 .6.2 1.2.5 1.6s.9.8 1.9 1.2zm2.8-23.9-2.6 10.5 3.5.9c2.2.5 3.9.5 5.2-.1s2.2-1.9 2.6-3.7c.3-1.3.3-2.4 0-3.3s-.9-1.6-1.7-2.1-1.9-1-3.3-1.3c-1.4-.5-2.7-.7-3.7-.9z"/><path d="m200.3 390.8.1-1.2c.8-.1 1.4-.3 1.7-.4s.6-.3.7-.6c.2-.3.3-.6.3-1.1 0-.4 0-.9-.1-1.4s-.2-1.1-.4-1.8l-.4-1.8-10.4-.8-.6 1.2c-.4.9-.7 1.6-.9 2.1s-.2.9-.3 1.3c-.1.7.1 1.3.5 1.6.4.4 1 .7 2 1l-.1 1.2-9.4-.7.1-1.2c.6-.1 1.1-.2 1.5-.5s.8-.7 1.3-1.3c.4-.6 1-1.5 1.7-2.8l10.5-19.7 3.5.3 5.8 21.5c.3 1.1.6 1.9.8 2.5.2.5.5.9.8 1.2s.8.6 1.5.8l-.1 1.2zm-7.5-11 8.9.7-3.2-12z"/><path d="m219.4 390.9-.1-1.2c.7-.2 1.3-.4 1.7-.6s.7-.6.9-.9c.2-.4.3-.9.3-1.5s0-1.3-.1-2.2l-1.3-17.8-2.9.2c-.8.1-1.5.3-2 .6s-.9.9-1.3 1.6-.7 1.8-1 3.1l-2.3.2-.5-7 24-1.8.5 7-2.3.2c-.5-1.3-.9-2.2-1.4-2.9s-1-1.2-1.5-1.4c-.5-.3-1.2-.4-2.1-.3l-2.9.2 1.3 17.8c.1 1.3.2 2.2.4 2.8s.5 1 .9 1.3 1.2.5 2.2.6l.1 1.2z"/><path d="m253.3 386.1-9.8 2-.2-1.2c.8-.4 1.3-.8 1.6-1.1.3-.4.4-.8.5-1.4 0-.6-.1-1.3-.3-2.3l-3.1-14.7c-.2-1-.4-1.7-.7-2.2s-.6-.8-1-1.1c-.4-.2-1.1-.4-2-.4l-.2-1.2 9.8-2 .2 1.2c-.8.4-1.4.8-1.7 1.2s-.4.8-.4 1.4.1 1.3.3 2.2l3.1 14.7c.2 1 .4 1.7.7 2.2.2.5.6.9 1 1.1s1.1.4 1.9.4z"/><path d="m272.1 380.9c-2.2.8-4.3 1-6.2.7s-3.7-1.3-5.2-2.8c-1.5-1.6-2.8-3.8-3.9-6.7-.8-2.2-1.2-4.2-1.2-6s.3-3.4.9-4.8 1.5-2.6 2.7-3.6 2.6-1.7 4.2-2.3c2.4-.8 4.6-1.1 6.6-.8s3.7 1.3 5.2 2.8 2.7 3.6 3.6 6.2c1 2.9 1.4 5.5 1.2 7.8s-1 4.2-2.4 5.8c-1.3 1.7-3.2 2.9-5.5 3.7zm-11-10.8c1.3 3.6 2.8 6.2 4.7 7.7s3.8 1.9 6.1 1.1c2.1-.8 3.4-2.2 3.9-4.5.5-2.2.1-5-1.1-8.3-.9-2.6-2-4.6-3.1-6.1-1.2-1.4-2.4-2.3-3.6-2.7s-2.5-.3-3.8.1c-2.2.8-3.6 2.2-4.1 4.4-.6 2.1-.2 4.9 1 8.3z"/><path d="m305.8 356.9c-.5-.8-1-1.5-1.4-2.2s-.9-1.4-1.3-2.1l-4.3-7.5c-.5-.8-.9-1.5-1.3-1.9s-.8-.6-1.3-.7-1.1 0-2 .2l-.6-1.1 7.4-4.3.6 1.1c-.7.6-1.1 1.2-1.2 1.6-.2.4-.2.9 0 1.5.2.5.5 1.2 1 2.1l10.4 17.9-2.4 1.4-21.4-10.3c-.6-.3-1.2-.7-1.9-1.1l-.2.1c.5.8 1 1.5 1.4 2.2s.9 1.4 1.3 2.1l5.3 9.2c.5.8.9 1.5 1.3 1.9s.8.6 1.3.7 1.1 0 2-.2l.6 1.1-7.4 4.3-.6-1.1c.6-.6 1-1.1 1.2-1.6.2-.4.2-.9 0-1.5-.1-.5-.5-1.2-.9-2.1l-7.5-13c-.5-.8-.9-1.5-1.3-1.9s-.8-.6-1.3-.7-1.1 0-2 .2l-.6-1.1 6.3-3.7 16.4 8.2c1.8.9 3.2 1.6 4.2 2.2z"/><path d="m317.8 347.2c1.2.9 2.3 1.5 3.2 1.8 1 .3 1.9.3 2.9 0s2-.8 3.1-1.7c1.5-1.2 2.3-2.6 2.5-4 .1-1.4-.4-2.9-1.6-4.4-.8-1-1.6-1.6-2.5-2s-1.9-.5-3.2-.5c-1.2.1-2.9.3-5.1.9-2.1.5-3.9.8-5.3.8-1.5 0-2.7-.2-3.9-.7-1.1-.5-2.1-1.2-2.9-2.2-1.2-1.4-1.9-2.9-2.1-4.6-.2-1.6.1-3.2.9-4.9s2.1-3.2 3.7-4.6c1-.8 2-1.5 3-2.2s2.4-1.4 4-2.2l4.3 5.2-1.9 1.6c-1.2-.9-2.3-1.4-3.3-1.7s-1.9-.3-2.7 0-1.7.8-2.6 1.6c-.8.7-1.4 1.5-1.8 2.3-.4.9-.5 1.7-.4 2.7.1.9.6 1.8 1.3 2.7.8.9 1.6 1.5 2.4 1.9s1.8.5 3 .5c1.1 0 2.7-.3 4.6-.8 2.3-.5 4.2-.8 5.7-.9 1.5 0 2.9.2 4.1.6 1.3.5 2.4 1.3 3.4 2.5 1.1 1.3 1.8 2.6 2.2 3.9.3 1.3.4 2.5.1 3.7s-.8 2.4-1.6 3.5-1.9 2.2-3.1 3.2c-2 1.7-4.6 3.3-7.8 4.8l-4.4-5.2z"/></g></svg>