<svg enable-background="new 0 0 558.8 558.8" viewBox="0 0 558.8 558.8" xmlns="http://www.w3.org/2000/svg"><circle cx="279.4" cy="279.4" fill="#77b8a1" r="279.4"/><circle cx="279.4" cy="279.4" fill="#efebd8" r="251.9"/><path d="m279.4 443.7c-90.6 0-164.3-73.7-164.3-164.3s73.7-164.3 164.3-164.3 164.3 73.7 164.3 164.3-73.7 164.3-164.3 164.3zm0-325.5c-88.9 0-161.2 72.3-161.2 161.2s72.3 161.2 161.2 161.2 161.2-72.3 161.2-161.2-72.3-161.2-161.2-161.2z" fill="#e44523" stroke="#e54424" stroke-miterlimit="10" stroke-width="7"/><path d="m279.4 539.8c-143.6 0-260.5-116.8-260.5-260.4s116.9-260.5 260.5-260.5 260.5 116.9 260.5 260.5-116.9 260.4-260.5 260.4zm0-511.5c-138.4 0-251 112.6-251 251s112.6 251 251.1 251 251-112.6 251-251-112.7-251-251.1-251z" fill="#4c565e"/><circle cx="71.8" cy="273.4" fill="#e66723" r="9.4"/><circle cx="486.9" cy="273.4" fill="#e66723" r="9.4"/><g fill="#e44523"><path d="m400 235.7c-.1-.2-.2-.3-.3-.5 0 0 .2-.1.3-.2z"/><path d="m247.5 206.3-.8-1.3-1.4-2.7 31.8-55.1.8.2v110.3l-1-.2-.2.2.1-.2c-2.4-4.3-4.7-8.5-7.2-12.7-6.8-11.7-13.6-23.3-20.4-35l-.7-1.3c0-1-.4-1.7-1-2.2z"/><path d="m280.7 257.6c0-35.4 0-70.9.1-106.3 0-1.3 0-2.6 0-4.1 1.3.2 1.4 1.2 1.8 1.9 9.6 16.5 19 33 28.8 49.4 1.8 3 1.5 5.2-.2 7.7-1.1 1.3-2 2.9-2.6 4.5l-.6.9c-.4.6-.9 1.2-1.3 1.9-7.7 13.4-15.4 26.8-23.1 40.2-.8 1.5-1.1 3.3-2.9 3.9z"/><path d="m314 284.4c12-6.9 24-13.7 36.1-20.6 15.9-9.1 31.7-18.2 47.6-27.3l.5.7c0 .1 0 .3.1.4-9.9 17-19.9 34.1-29.7 51.2-.8 1.9-2.8 3.1-4.9 2.9-20.4-.1-40.9 0-62.1 0l5.1-2.9.6-.4 1.4-.8.8-.5c.2.1.4 0 .6-.2l.7-.5c1.1-.4 2.2-1.1 3.2-2z"/><path d="m255.9 291.7c-20 0-40.1-.1-60.1.1-3 0-5-.7-6.2-3.4l-.4-.6c-9.5-16.4-18.9-32.9-28.4-49.3l-1-1.7c1.5-.7 2.3.8 3.4.9l1.4.8.6.5.6.2.7.5 1.3.7c.5.4 1.1.8 1.6 1.1 23.1 13.3 46.2 26.6 69.3 40 5.9 3.2 12 6 17.2 10.2z"/><path d="m229.1 355.1 2.3-4.4c4.1-7 8.3-14 12.4-21.1 5.4-9.5 10.7-19 16.1-28.5.2-.5.4-1.6 1.2-.7.5.6.2 1.7.2 2.6 0 35.5.1 71.1.1 106.6 0 .4.2.9-.6 1.2-10.2-17.5-20.3-34.9-30.5-52.4l-.4-.5-.8-1.4z"/><path d="m311.9 324.4.3.7.4.6c1.7 3.5 3.7 6.9 5.8 10.2v.3l.2.1c1.2 2.1 2.3 4.1 3.5 6.2l.5.7 3 5.3.4.6v.1c.1.9.5 1.7 1.2 2.2.6 1.1 1.2 2.2 1.8 3.2-.1.2 0 .4.2.5v.1l-.1 1.3-29.1 50.3-2.9 5v-111.5l.7-.2v.2h.2l.5.6 4.9 8.7.5.6.4.7.4.5v.1c.1.8.5 1.6 1.2 2.1l.7 1.2c.8 2.1 2 4.1 3.4 5.9l.8 1.4.5.8c-.1.2 0 .5.2.6z"/><path d="m170.1 345.1-9.1 5-.7-.7c10.3-17.9 20.7-35.9 31.1-53.8.2-.3.4-.5.7-.7 7.4 0 14.9.1 22.3.1 13.4 0 26.9-.1 40.3-.1 2.4.5.1 1 0 1.5-9.8 5.6-19.7 11.1-29.4 16.7-18.5 10.6-36.9 21.3-55.2 32z"/><path d="m304 296.3-1.4-1.3c1.4 0 2.9-.1 4.3-.1l59.7-.1c7.5 12.8 15 25.6 22.5 38.4 2.7 4.6 5.4 9.2 8 13.8.5.9 1.9 2 .3 3.2-.5-.4-1-.8-1.5-1.2-18.9-10.9-37.8-21.8-56.7-32.7-11.7-6.7-23.5-13.3-35.2-20z"/><path d="m322.5 336.2-.7-1.2-.5-.7-.3-.6-.4-.6-2.3-4.1-.4-.5c.1-.2 0-.3-.1-.4-1.1-2.3-2.3-4.4-3.9-6.4-.1-.9-.6-1.6-1.3-2.1l-.7-1.2c-.6-1.7-1.5-3.3-2.7-4.6l-3.9-6.7c0-.5-.3-1.1-.8-1.3 0-.5-.3-1-.7-1.3l-2.3-4.1-.4-.5-.6-1.6.7-.1.6.3c.9.6 1.8 1.3 2.7 1.8 16.6 9.6 33.1 19.1 49.7 28.7 13.4 7.7 26.8 15.4 40.3 23l2 1.1c-.5 1.7-1.8.8-2.7.8-11.1 0-22.2 0-33.3 0-8.4-.1-16.9-.1-25.3-.2-1.5 0-2.9 0-3.6-1.6-.1-.7-.5-1.3-1.1-1.8l-.3-.7-.4-.6-2.3-4.1-.4-.5-3.5-6.1-.5-.7c.1-.5-.2-1.1-.6-1.4z"/><path d="m255.3 299.2 1.9-.8.1 1.3c-.2.1-.3.2-.2.4l-28.3 48.3-.3.7-.4.6-1.6 2.9c-.2 0-.3.2-.3.4v.1c-1 1.1-2.3.7-3.4.7-7.6.1-15.3.1-22.9.2h-38.6l1.8-1.6 2.1-1.3c.5.1 1.1-.2 1.3-.7 1.9-.8 3.8-1.9 5.4-3.1.6-.2 1.2-.5 1.8-.8 12.6-7.2 25.1-14.5 37.7-21.7 14.7-8.6 29.3-17.1 43.9-25.6z"/><path d="m199.9 217.2-.6-.3-.8-.5-.6-.3c-.5-.6-1.3-1-2.1-1.2l-3.4-2-.6-.4-.7-.3-.7-.4c-3.7-2.1-7.4-4.3-11-6.4-.6-.4-2-.8-.2-1.6 12.2.6 24.4.4 36.6.3 7.1.1 14.2.3 21.3.1 3.5-.1 6.3.4 7.5 4.1l.5.7.3.6.4.6c8.8 15.8 18.1 31.3 27.3 46.9l.7 1.8-.1.7c-3.5-1-5.8-4-9.1-5.2-7.9-4.6-15.9-9.3-23.8-13.8-13.4-7.7-26.9-15.3-40.4-23z"/><path d="m285.3 259.1-.7-.1c2-4.4 4.7-8.4 7.1-12.6 6.1-10.6 12.2-21.2 18.3-31.8l.6-.9c.5-.2.8-.7.8-1.3l.5-.8v-.1c.2 0 .3-.2.3-.3v-.1c.9-.9 1.5-2.1 1.9-3.3l.5-.8v-.1c.2 0 .4-.3.3-.5.8-1.5 2.4-2.3 4-2.1 7.9.1 15.8-.1 23.8-.1 11.6 0 23.2 0 34.8.1.9 0 2.3-1 2.6.8l-1.4.8c-.3-.1-.6.1-.7.4v.1l-.6.3c-1.1.3-2.1.9-2.9 1.7l-1.1.7c-1.5.8-3 1.4-4.4 2.2z"/><path d="m395.9 233.1c-.3 1.3-1.6 1.4-2.5 1.9-28.2 16.2-56.5 32.4-84.8 48.6-.3.2-.5.4-.7.6-1.3.4-2.5 1.1-3.5 2l-1.8.9-.7.5c-.5-.1-1.1.1-1.2-.6.7-.5 1.2-1.2 1.4-2 7.2-9.5 15.1-18.2 24.6-25.6 18.4-14.4 40.4-23.5 63.6-26.4 1.8 0 3.7 0 5.6.1z"/><path d="m181.9 210.1 2.8 1.6.5.4.7.4c.1.4.3.6.7.5l2.8 1.5.5.4 4.1 2.3c.2.5.7.7 1.2.7 0 .3.3.5.6.5h.1c.1.2.3.3.5.2.5.7 1.3 1.1 2.1 1.3.7.7 1.6 1.2 2.5 1.4 7.7 4.5 15.3 9.2 23 13.6 13 7.5 26 14.9 39 22.4l.8.5h.1c0 .2.2.3.4.3h.1c.5.6 1.2 1 2 1.1l.8.5c.7.7 1.6 1.2 2.6 1.5l.7.5c.1.2.3.3.5.2l.8.5.5.7-1.2.2c-38.8-4-70-21.4-93.2-53-1.3-1.8-1.3-1.8-.1-2.5l.7.5 2.7 1.5z"/><path d="m162 232.4c9.4 1.1 18.7 2.4 27.7 5.3 28.1 8.9 50.9 25.1 67.8 49.3-.9 1.4-1.5 0-2.1-.3-16.1-9.2-32.2-18.4-48.4-27.6-12.6-7.2-25.2-14.3-37.8-21.4l-3.4-2c-.7-.8-1.6-1.3-2.6-1.4-.2-.4-.7-.7-1.1-.7z"/><path d="m381.9 207.7c-6.2 10-14.2 18.3-23.1 25.8-17.6 14.8-38.8 24.6-61.5 28.4l-1.4.4-2.6.3c-.7-.2-1.6-.1-2.2.4h-5.1c.1-.1.2-.3.1-.4l1.2-.6c.5-.2 1-.4 1.5-.7 15.6-9 31.2-18.1 46.8-27.1 12.6-7.3 25.2-14.7 37.8-22.1l3.3-1.9.6-.4.8-.4c1.4-.3 2.3-1.9 3.8-1.7z"/><path d="m294 410.6c-17-36.6-17.8-73.3 0-110z"/><path d="m264.7 300.6c17.3 36.6 16.6 73.3 0 110.1z"/><path d="m159.9 350.8-.1-1.1c.1-.1.3-.2.4-.3l.7.7z"/><path d="m397.7 236.5h.8c-.1.2-.2.5-.3.7z"/></g><path d="m66.3 361.7 5.7-2.1 6.2-8.7-13.9 5.2-4.5-12 35.8-13.3 3.3 9-9.5 13.2 12.6-4.7 4.5 12.1-35.8 13.3z" fill="#4c565e"/><path d="m80.4 376.9 20-11.5 8.7-.5 11 19.1-4.7 7.6-20.4 11.8-7.8-.1-11.2-19.3zm10 9.1 2.2 3.8 13.3-7.8-2.2-3.8z" fill="#4c565e"/><path d="m122.9 388.5 16.5 20-3.5 8.3-23.4 19.2-8.2-9.9 20.8-17.1-2.8-3.4-20.8 17.1-8.2-9.9z" fill="#4c565e"/><path d="m126.6 430.8 7.6-8.2 13.1 12.2-7.6 8.2z" fill="#4c565e"/><path d="m179.2 441.4-13.9 36.8-11.1-7.6 1.2-3.5-6.4-4.4-2.9 2.4-11.2-7.6 20.7-18.4-2.4-1.7 6.4-9.3zm-23 14.6 2.8 1.9 3.2-7.6z" fill="#4c565e"/><path d="m173.9 474 13-27.9 11.6 5.4-11.3 24.4 12.6 5.9-4.8 10.3-20.8-9.7z" fill="#4c565e"/><path d="m213.1 498-12.2-4.1 12.1-36.2 12.2 4z" fill="#4c565e"/><path d="m238.4 492.5 1.8-8.8 12.6 2.5-2.6 12.7-5.3 6.5-21.8-4.4-2.6-7.3 4.9-24.4 5.2-5.7 21.9 4.4-2.3 11.2-13.2-2.7-3 15.1z" fill="#4c565e"/><path d="m257.5 468.9 25.9.9 3.9 8-1.1 30.3-12.8-.5 1-26.9-4.5-.2-1 26.9-12.8-.5z" fill="#4c565e"/><path d="m292.6 500.3-2.8-23.2 2.9-7.8 22.7-2.7 1.4 11.3-13.7 1.6.3 2.7 8.8-1 1.2 9.9-8.8 1 .3 2.8 13.7-1.6 1.4 11.3-22.7 2.7z" fill="#4c565e"/><path d="m316.7 466.5 26.2-7.5 6.2 6.4 6.5 22.7-2 7.5-26.4 7.6zm19.8 22.3 4.3-1.2-4.3-15-4.3 1.2z" fill="#4c565e"/><path d="m388.1 435.7 28.3 27.3-11.4 7.2-2.8-2.5-6.6 4.2 1 3.6-11.4 7.2-8.7-26.3-2.5 1.5-6-9.5zm4.2 26.9 2.8-1.8-5.7-5.9z" fill="#4c565e"/><path d="m421.8 458.5-25.7-28.2 19.2-17.4 8.4 3 8.2 9.1 1.2 7.9 3.2-2.9 7.6 8.4-9.5 8.7-9.5-4 6.4 7zm-5.8-25.5 3.3-3-2.8-3.1-3.3 3z" fill="#4c565e"/><path d="m446.4 392.4 21.7 15.7-7.5 10.4-21.7-15.7-2.6 3.6 21.7 15.7-7.5 10.4-30.9-22.4 25.5-35.3 7.7.7 25.5 18.5-7.5 10.4-21.8-15.6z" fill="#4c565e"/><path d="m486.7 375.5-5.7 11.5-34.2-17 5.7-11.5z" fill="#4c565e"/><path d="m482.5 367.3-22-8-5.6-6.1 7.8-21.5 10.7 3.9-4.7 13 2.6.9 3-8.3 9.4 3.4-3 8.3 2.6.9 4.7-13 10.7 3.9-7.8 21.5z" fill="#4c565e"/><path d="m479.4 320.6 1.9-9.6 6.4-2.7 10.7 2.2 6.5 5.2-4.5 22.3-11.1-2.3 2.7-13.4-2.7-.5-1.8 9-6.5 3.4-10.7-2.1-6.5-5.2 4.6-22.5 11.1 2.3-2.8 13.6z" fill="#4c565e"/><path d="m209.6 118.3-3.7-8.8-14.2-9.3 9.2 21.8-18.9 8-23.6-56 14.1-6 21.7 14-8.3-19.7 18.9-8 23.6 56z" fill="#4c565e"/><path d="m295.3 44.8 14.2 61-21.5-.3-1.6-5.7-12.4-.1-1.7 5.7-21.5-.3 11.1-42.8-4.7-.1.2-17.9zm-17.6 39.7 5.3.1-2.5-12.8z" fill="#4c565e"/><path d="m362.8 79.7-14.4-6.2c3-6.7 6.3-10.9 9.8-12.8 4.5-2.4 10.4-2 17.9 1.2 7.1 3.1 11.5 6.8 13.2 11.3 1.3 3.6.9 7.8-1.2 12.8-2.7 6.6-8.1 11.8-14.8 14.2l-12.9 4.9c-1.5.6-2.5 1-3.1 1.3-1 .4-2 1.1-2.8 1.8l20.2 8.7-5 11.6-38.5-16.5c3.9-9 10-15.2 18.4-18.6l14.7-6c3.7-1.4 6.7-4.2 8.3-7.8 1.9-4.3 1.5-7.1-1.2-8.2-2.9-1.2-5.4.7-7.6 5.9z" fill="#4c565e" stroke="#4d575f" stroke-miterlimit="10" stroke-width="4"/></svg>