<svg enable-background="new 0 0 113.8 113.8" viewBox="0 0 113.8 113.8" xmlns="http://www.w3.org/2000/svg"><circle cx="56.9" cy="56.9" fill="none" r="56.4" stroke="#009fe4" stroke-miterlimit="10"/><circle cx="56.6" cy="56.9" fill="#fff" r="56.5"/><g fill="#009fe4"><path d="m60.6.3c1.9.2 3.1.3 4.7.5 9.9 1.4 18.7 5.6 26.5 11.8 11.6 9.2 18.9 21.1 21 35.7 2.9 20.4-3.5 37.6-18.8 51.4-8.8 7.9-19.4 12.3-31.1 13.6-2.1.2-4.2.5-6.3.3-.1 0-.2-.1-.2-.2-.6-2.9-2.1-5.3-3.6-7.8-1.4-2.3-2.8-4.6-3.9-7-1.3-2.9-1.1-5.7.3-8.5 1.3-2.7 2.9-5.2 4.5-7.7.8-1.3 1.4-2.7 2.1-4.1.9-1.8.7-3.4-.1-5.1-1.4-3.2-3.3-6.1-5.2-9-3.1-4.8-3.1-9.4 0-14.3 1.8-2.8 3.5-5.6 5-8.6 1.1-2.3 1-4.3-.1-6.5-1.7-3.4-3.9-6.5-5.7-9.9-2-3.7-2.2-7.3-.1-11 1.5-2.6 3.1-5.3 4.6-7.9.9-1.6 1.8-3.3 2.1-5.2 0-.1.7-.6.7-.7.6.1.9 0 1.4 0 .8.1 1.5.2 2.2.2z"/><path d="m52 37.9c0 4.5-3.5 8-8 8-4.4 0-8.1-3.7-8-8 0-4.3 3.8-8 8.1-8s7.9 3.6 7.9 8z"/><path d="m44 68.3c4.5 0 8 3.5 8 8 0 4.4-3.7 8.1-8 8-4.3 0-8.1-3.8-8-8.1-.1-4.4 3.6-7.9 8-7.9z"/><path d="m57.1 113.1c31.2 0 56.5-25.3 56.5-56.5s-25.3-56.5-56.5-56.5"/></g><g fill="#fff"><path d="m70.9 18.4c0 4.4-3.6 8-8 8s-8-3.6-8.1-8c0-4.4 3.7-8.1 8.1-8.1 4.5.1 8 3.6 8 8.1z"/><path d="m70.9 93.4c0 4.4-3.6 8-8 8.1-4.3 0-8-3.7-8.1-8.1 0-4.4 3.7-8 8.1-8 4.5-.1 8 3.5 8 8z"/><path d="m70.9 57.7c0 4.5-3.5 8-8 8-4.4 0-8.1-3.6-8.1-8 0-4.3 3.7-8.1 8.1-8.1s8 3.7 8 8.1z"/></g></svg>