<svg enable-background="new 0 0 113.9 113.9" viewBox="0 0 113.9 113.9" xmlns="http://www.w3.org/2000/svg"><circle cx="57" cy="57" fill="#2490cf" r="56.7" stroke="#2690cf" stroke-miterlimit="10" stroke-width=".5"/><path d="m57 113.7c-31.3 0-56.7-25.4-56.7-56.7s25.3-56.7 56.7-56.7" fill="#fefeff" stroke="#2690cf" stroke-miterlimit="10" stroke-width=".5"/><path d="m56.5 99.8c-2 0-4 0-6 0-.6 0-1.3.1-1.5-.5-.3-.8-.3-1.6 0-2.4.1-.3.5-.4.8-.5.4-.1.8-.1 1.2-.2 1.4-.3 2-1 2-2.4 0-7.1 0-14.3 0-21.4 0-.1 0-.2 0-.3-2.8 2.8-5.5 5.5-8.2 8.2.5.2 1.1.2 1.7.2.8 0 1.2.4 1.2 1.2v2.8c0 1.1-.4 1.5-1.6 1.5-4.2 0-8.4 0-12.7 0-1.1 0-2.2 0-3.3 0-1 0-1.4-.4-1.4-1.3 0-1 0-2 0-3 0-.6.3-1.1 1-1.2 2.2-.1 3.9-1.3 5.4-2.8 5-5.1 10.1-10.1 15.1-15.1.5-.5.7-.8 0-1.4-5.1-5.2-10.2-10.4-15.4-15.6-1.4-1.4-3-2.4-5-2.4-.7 0-1.1-.5-1.1-1.2 0-1 0-2.1 0-3.1 0-.7.5-1.1 1.2-1.1h16.5c.9 0 1.3.4 1.3 1.3v2.9c0 .9-.4 1.4-1.3 1.4-.5 0-1.1 0-1.5.2l8.1 8.1c.1-.2 0-.5 0-.8 0-10.2 0-20.3 0-30.5 0-1.4-.2-1.7-1.6-2-.1-.4-.4-.4-.6-.4-1.8-.3-2.3-1-1.8-2.8.2-.7.5-1 1.3-1h6.3 6c3.2.1 6.4.5 9.4 1.8 2.7 1.1 4.9 2.9 5.7 5.9 1.1 4.1-.6 8.2-4.3 10.4-2.6 1.6-5.6 2.2-8.6 2.5-1.1.1-2.3.2-3.4.2-.5 0-.7.2-.7.7v15.9c0 .1.1.2.1.3 2.8-2.8 5.5-5.6 8.3-8.4-.6-.3-1.2-.2-1.7-.2-.9 0-1.3-.5-1.3-1.4s0-1.8 0-2.8.4-1.3 1.3-1.3h16.4c.9 0 1.3.4 1.3 1.3v2.8c0 .9-.4 1.3-1.3 1.4-1.6.1-3 .7-4.2 1.9-5.3 5.4-10.7 10.8-16.2 16.2-.6.6-.2.8.2 1.1 4.7 4.7 9.4 9.4 14.1 14.1.6.6 1.3 1.2 1.9 1.9 1.2 1.2 2.6 1.8 4.3 2 .8.1 1.2.5 1.2 1.2v3c0 .9-.5 1.3-1.4 1.3-5.4 0-10.8 0-16.2 0-1 0-1.4-.4-1.5-1.5 0-.9 0-1.8 0-2.8 0-.8.4-1.3 1.3-1.3.5 0 1.1 0 1.6-.2-2.7-2.7-5.5-5.4-8.3-8.2v1 19.9c0 2.4.5 2.9 2.8 3.3 1.3.2 1.5.5 1.4 2.3 0 .9-.4 1.2-1.6 1.2-2.2.1-4.5.1-6.7.1zm3.2-30.5c.3.3.4.4.6.6l9.5 9.5c.3.3.8.6.6 1.1-.2.6-.7.6-1.2.8-.7.3-1.7-.2-2.1.4-.3.6-.1 1.5-.1 2.3v.2c-.1.7.2.8.8.8h10 5.6c.3 0 .7.1.7-.5 0-.9 0-1.8 0-2.7 0-.4-.2-.4-.5-.5-2-.1-3.6-1-4.9-2.4-5.6-5.5-11.1-11-16.7-16.5-.4-.4-.4-.7 0-1.1 5.5-5.5 11.1-11 16.6-16.5 1-1 2.2-1.7 3.5-2.2.7-.3 1.6.2 1.9-.5s.1-1.5.1-2.3c0-.1 0-.3 0-.4.1-.6-.2-.7-.7-.7-1.6 0-3.1 0-4.7 0-3.7 0-7.3 0-11 0-.7 0-.9.2-.8.8.1.7 0 1.5 0 2.2 0 .5.1.6.6.6.7 0 1.4 0 2.1.2.9.3 1 .8.3 1.5-1.2 1.2-2.3 2.3-3.5 3.5-2.2 2.2-4.4 4.5-6.8 6.9 0-.6 0-.9 0-1.2 0-5.8 0-11.7 0-17.5 0-.3 0-.6 0-1-.1-.6.1-.8.7-.7.7.1 1.3 0 2 0 3.6-.2 7.1-.7 10.3-2.6 4.5-2.6 5.6-8.3 2.4-12.1-1.9-2.3-4.6-3.1-7.4-3.6-2.7-.5-5.5-.7-8.2-.6-3 .1-6 0-9 0-.5 0-.8.1-.8.7 0 .8 0 1.5 1.1 1.3.1 0 .3.1.5.1 2.1.4 2.6 1 2.6 3.1v32.6c0 .3.1.6-.1.9-.1 0-.2-.1-.2-.1-3.3-3.3-6.6-6.6-10-10-.5-.5-.2-.8.2-1.1.6-.3 1.3-.4 2-.3.6 0 .9-.1.9-.8-.1-.7-.1-1.3 0-2s-.2-.8-.9-.8c-4.5 0-9 0-13.4 0-.9 0-2.2-.4-2.7.2s-.1 1.8-.2 2.8v.1c0 .4.1.6.5.6 2 .1 3.6 1 5 2.3 5.5 5.5 11 11 16.6 16.5.4.4.5.7 0 1.2-5.5 5.5-11.1 11-16.6 16.5-1 1-2.1 1.6-3.4 2.1-.7.3-1.8-.1-2.1.7-.3.7 0 1.6-.1 2.4 0 .7.2.9.8.8h13.6c.9 0 2.1.4 2.5-.2.4-.5.1-1.7.2-2.6 0-.6-.1-.9-.8-.9-.5 0-1-.1-1.5-.2-.4-.1-.9-.2-1.1-.7s.3-.8.6-1.1c3.1-3.1 6.2-6.2 9.4-9.4.2-.2.3-.5.6-.4v.9 22.9c0 2.5-1.3 3.6-3.4 3.8-.7.1-.8.3-.8.9 0 .7.3.8.9.7h12.5c.7 0 .9-.2.9-.9 0-.6-.2-.8-.8-.9-2.9-.5-3.5-1.3-3.5-4.3 0-7.5 0-14.9 0-22.4.3.1.3-.2.3-.8z" fill="#312f6a"/><path d="m59.7 69.3v1.2 22.4c0 2.9.6 3.7 3.5 4.3.6.1.8.3.8.9 0 .7-.2.9-.9.9-4.2 0-8.3 0-12.5 0-.5 0-.9 0-.9-.7 0-.6.2-.9.8-.9 2.2-.2 3.4-1.2 3.4-3.8-.1-7.6 0-15.2 0-22.9 0-.3 0-.6 0-.9-.4-.1-.5.2-.6.4-3.1 3.1-6.2 6.2-9.4 9.4-.3.3-.8.6-.6 1.1s.7.6 1.1.7c.5.1 1 .2 1.5.2.7-.1.9.2.8.9-.1.9.3 2-.2 2.6s-1.7.2-2.5.2c-4.5 0-9.1 0-13.6 0-.7 0-.9-.2-.8-.8.1-.8-.2-1.7.1-2.4s1.4-.4 2.1-.7c1.2-.5 2.4-1.2 3.4-2.1 5.5-5.5 11-11 16.6-16.5.5-.5.4-.8 0-1.2-5.5-5.5-11-11-16.6-16.5-1.4-1.3-3-2.3-5-2.3-.4 0-.6-.2-.5-.6v-.1c0-.9-.3-2.2.2-2.8s1.8-.2 2.7-.2h13.4c.6 0 .9.1.9.8-.1.7-.1 1.3 0 2s-.2.9-.9.8c-.7 0-1.4 0-2 .3-.5.2-.8.5-.2 1.1l10 10c .1.1.2.1.2.1.2-.3.1-.6.1-.9 0-10.9 0-21.7 0-32.6 0-2.1-.5-2.8-2.6-3.1-.3-.5-.5-.5-.6-.5-1.1.2-1.1-.5-1.1-1.3 0-.6.2-.7.8-.7 3 0 6 .1 9 0 2.8-.1 5.5.1 8.2.6 2.8.5 5.5 1.4 7.4 3.6 3.2 3.8 2 9.5-2.4 12.1-3.2 1.9-6.7 2.4-10.3 2.6-.7 0-1.3.1-2 0-.6-.1-.8.1-.7.7v1 17.5 1.2c2.4-2.4 4.6-4.7 6.8-6.9 1.2-1.2 2.3-2.3 3.5-3.5.7-.7.5-1.1-.3-1.5-.7-.2-1.4-.3-2.1-.2-.5 0-.6-.2-.6-.6 0-.7.1-1.5 0-2.2s.2-.9.8-.8h11 4.7c.5 0 .8.1.7.7v.4c0 .8.2 1.6-.1 2.3s-1.3.3-1.9.5c-1.3.5-2.5 1.2-3.5 2.2-5.5 5.5-11.1 11-16.6 16.5-.4.4-.4.7 0 1.1 5.7 5.5 11.2 11.1 16.8 16.6 1.4 1.3 3 2.2 4.9 2.4.3 0 .5.1.5.5v2.7c0 .6-.3.5-.7.5-1.9 0-3.7 0-5.6 0-3.3 0-6.7 0-10 0-.7 0-.9-.2-.8-.8 0-.1 0-.1 0-.2 0-.8-.2-1.7.1-2.3s1.4-.1 2.1-.4c.5-.2 1-.2 1.2-.8.2-.5-.3-.8-.6-1.1-3.2-3.2-6.3-6.3-9.5-9.5-.5-.3-.6-.4-.9-.7zm-.1-45.2v6.3c0 .5 0 .8.6.8 2.7-.2 5.3-.6 7.6-2.1 4-2.5 3.9-7.6 0-10-2.3-1.4-4.9-1.8-7.5-2.1-.6-.1-.7.2-.7.7z" fill="#9fc428"/><path d="m59.6 24.1c0-2.1 0-4.2 0-6.4 0-.5.1-.8.7-.7 2.6.2 5.2.7 7.5 2.1 4 2.4 4 7.5 0 10-2.3 1.5-4.9 1.9-7.6 2.1-.6 0-.6-.3-.6-.8 0-2.1 0-4.2 0-6.3zm.9-.1v5.4c0 .6.2.8.8.7 2.2-.3 4.4-.8 6.3-2 3.1-2 2.9-6.5-.4-8.3-1.9-1-3.9-1.5-6.1-1.7-.6 0-.6.1-.6.6z" fill="#312f6a"/></svg>