<svg enable-background="new 0 0 113.4 113.4" viewBox="0 0 113.4 113.4" xmlns="http://www.w3.org/2000/svg"><path d="m113.4 56.7c0-31.3-25.4-56.7-56.7-56.7s-56.7 25.4-56.7 56.7" fill="#e30a14"/><path d="m0 56.7c0 31.3 25.4 56.7 56.7 56.7s56.7-25.4 56.7-56.7" fill="#090808"/><path d="m56.6 100.8c-.9 0-1 0-1.2-1-1.1-5.5-2.2-11-3.3-16.4-1-4.9-1.9-9.8-2.9-14.7-.7-3.7-1.5-7.5-2.2-11.2 0-.2-.2-.4-.3-.6-1.9-1.9-3.8-3.7-5.8-5.6-4.3-4.2-8.7-8.5-13-12.7-3-2.9-5.9-5.8-8.9-8.6-1.2-1.2-2.5-2.4-3.7-3.6-.2-.2-.2-.3-.1-.6.2-.3.5-.6.6-1 .1-.3.3-.3.6-.2l13.5 5.4c8.7 3.5 17.5 7 26.2 10.5.3.1.5.1.7 0 8.8-3.5 17.6-7 26.3-10.5 4.5-1.8 8.9-3.6 13.4-5.3.2-.1.4-.1.5.2.1.2.2.3.3.4.2.3.6.6.5.9 0 .3-.5.5-.7.8-2.8 2.7-5.6 5.4-8.3 8.1-4.8 4.6-9.5 9.3-14.3 13.9-2.5 2.4-4.9 4.8-7.4 7.2-.8.7-1.1 1.5-1.3 2.5-.8 4.5-1.8 8.9-2.6 13.4-1.4 6.9-2.7 13.8-4.1 20.8-.5 2.6-1 5.2-1.5 7.7-.1.3-.2.5-.5.4-.1-.2-.3-.2-.5-.2z" fill="#fff" stroke="#000" stroke-miterlimit="10" stroke-width=".6196"/></svg>