<svg viewBox="0 0 566.93 566.93" xmlns="http://www.w3.org/2000/svg"><circle cx="283.44" cy="284.5" fill="#fff" r="276.38"/><path d="m203.68 51.72 4.22-4.43a33.08 33.08 0 0 0 6.72 5.09 27.22 27.22 0 0 0 1.93-8.46l-14.09 4.88.5 1.45a29.93 29.93 0 0 1 -1.11 11.1l3.65 1.19-1.56 5.76c-1.1-.45-2.55-1-4.36-1.57a35.8 35.8 0 0 1 -9.41 10.83l-3.85-4.46a31.88 31.88 0 0 0 7.67-8q-1.8-.37-4-.75a20.65 20.65 0 0 1 -.91 2.35l-4.83-2.77a30.74 30.74 0 0 0 1.85-7.79l-4.2 1.45-1.74-5 6.15-2.13c0-1.69-.08-3-.17-4l5.69-1.46a23.56 23.56 0 0 1 .2 3.43l8.77-3-.47-1.43 20.48-7.09 1.71 5a33.51 33.51 0 0 1 -2.52 12.84 33.8 33.8 0 0 0 10.23 2.1v6.07a44 44 0 0 1 -13-2.8 40.69 40.69 0 0 1 -6.67 7.74 47.86 47.86 0 0 1 7.8 2.63l-2.09 5.43a58.46 58.46 0 0 0 -9.5-3.14l2.16-5.24-3.53-3a33.32 33.32 0 0 0 6.41-7 37.49 37.49 0 0 1 -8.13-5.82zm-13 36.47a31 31 0 0 0 2.65-11.94l5.78.55a32.17 32.17 0 0 1 -2.77 13.4zm.58-29.09c1.27.15 3 .43 5.14.83a19.13 19.13 0 0 0 .88-7.73l-5.28 1.85c-.14 1.51-.37 3.19-.7 5.05zm29.56 9 4.12-4.4a60 60 0 0 1 11 9.32l-4.18 4.21a69.93 69.93 0 0 0 -6-5.55 18 18 0 0 1 .82 5.08 4 4 0 0 1 -1.14 2.69 13.82 13.82 0 0 1 -3.79 2.23c-1.39.62-3.38 1.37-6 2.27q-3.63 1.26-6.06 1.94a20.43 20.43 0 0 1 -2.76.64 7.84 7.84 0 0 1 -1.86 0 2.13 2.13 0 0 1 -1.45-.78 7.86 7.86 0 0 1 -1.06-1.7 28.09 28.09 0 0 1 -1.11-2.83l-2.85-8.22 6.25-2.16 2.65 7.65a6 6 0 0 0 .93 2c.22.19.71.18 1.48 0 .94-.21 2.27-.63 4-1.23s2.92-1.06 3.91-1.51c1.3-.59 2-1.2 2.24-1.82s0-2-.62-4.23l5.11-.93a42 42 0 0 0 -3.59-2.64z" fill="#59404b"/><path d="m250.49 60.48q-6.17 1.17-9-.26a6.49 6.49 0 0 1 -3.49-4.89l-1.6-11.54 6.36-.86 1.3 9.69a3 3 0 0 0 .82 1.81q.66.69 4.8 0zm15.29-20.88 2 14.93a24.07 24.07 0 0 1 -.11 6.69 12.26 12.26 0 0 1 -2.5 5.64 8.76 8.76 0 0 1 -5.34 3.08l-8 1.07-.88-6.56 6.37-.85a4.39 4.39 0 0 0 2.89-1.83 6.1 6.1 0 0 0 1.14-3.21 18.13 18.13 0 0 0 -.23-3.74l-1.92-14.33z" fill="#59404b"/><path d="m329.64 47.47-.48 3.53-27.89-3.76.48-3.52q-3.87 1.77-7.59 3.06l-1.81-5.78a90.94 90.94 0 0 0 21.22-11.13l8.32 1.13a90.79 90.79 0 0 0 17.52 16.36l-3.27 5q-3.24-2.17-6.5-4.89zm-1.49 13.59q3.42 9 5.37 15.22l-6 1.38c-.2-.49-.47-1.25-.81-2.3s-.59-1.84-.75-2.39q-16.87-.14-33.53-1.83l.43-5.37c3 .27 5.3.46 6.94.59q3.43-4.77 5.93-8.87l-12.87-1.73.73-5.38 42.17 5.68-.76 5.38-22.4-3c-1.73 3-3.54 5.78-5.43 8.49q9.09.53 16.89.68c-.59-1.78-1.19-3.48-1.8-5.13zm-.92-15.66a87.15 87.15 0 0 1 -10.06-10.77 88 88 0 0 1 -12.55 7.72z" fill="#59404b"/><path d="m362.14 47.92 6.05 2.28-2.05 5.45a41.76 41.76 0 0 1 -6.09 5.41q2.76 6.15 4.41 10.57l-5.46 2.06q-1.38-3.78-3.51-8.65l-6.78 18.07-6-2.26 5.4-14.37a36.91 36.91 0 0 1 -7.11 1.67l1-6.85a30.77 30.77 0 0 0 17.55-8.12l-11.38-4.28 2.05-5.46 5.86 2.21 2.54-6.75 6.05 2.27zm11.47 36.85 8.39 3.16-2 5.36-25.78-9.69 2-5.36 11.23 4.22 7.8-20.75-8.78-3.3 2-5.27 8.78 3.3 3.36-9 6.15 2.31-3.37 9 7.81 2.94-2 5.26-7.8-2.95z" fill="#59404b"/><circle cx="283.44" cy="284.5" fill="none" r="276.38" stroke="#fdc506" stroke-miterlimit="10" stroke-width="8"/><path d="m283.44 562.38a277.88 277.88 0 0 1 -196.44-474.38 277.88 277.88 0 1 1 393 393 276 276 0 0 1 -196.56 81.38zm0-552.76c-151.57 0-274.88 123.31-274.88 274.88s123.31 274.88 274.88 274.88 274.88-123.31 274.88-274.88-123.32-274.88-274.88-274.88z" fill="#ffc600" stroke="#fdc506" stroke-miterlimit="10" stroke-width="8"/><path d="m560.19 284.51c0 152.64-123.74 276.38-276.38 276.38s-276.38-123.74-276.38-276.38" fill="#fdc509"/><circle cx="283.81" cy="283.68" fill="#59404b" r="197.39"/><path d="m372.14 299.61-19-15 19-16.59 12.55 11.74h71.65l-77.73-78.54-54.64 53-9.72-10.93 53.84-53.43-80.15-80v75.17l11.33 11.34-15.38 17h-.16l-15.38-17 11.34-11.34v-75.15l-80.15 80 53.83 53.43-9.71 10.93-54.65-53-77.72 78.54h71.65l12.55-11.78 19 16.59-19 15-12.15-12.14h-72l78.13 81 53-54.65 12.53 11.31-54.24 54.25 78.94 78.12v-73.67l-12.55-13 16.67-15.19 16.68 15.19-12.55 13v73.67l78.94-78.12-54.25-54.25 12.55-11.33 53 54.65 78.13-81h-72.04zm-88.41-26.31h.16l10.93 11.23-10.79 11-.22.23-.08-.08-.11-.12-10.82-11 10.93-11.23" fill="#fff"/><g fill="#59404b"><path d="m66.06 405.64 7 10.76 14-9.09-7-10.76 5.81-3.79 17.79 27.35-5.82 3.79-7-10.73-14 9.09 7 10.73-5.84 3.78-17.76-27.35z"/><path d="m111.3 428.83-22.7 20.76-4.72-5.16 22.71-20.76zm-2.56 9.71a52.42 52.42 0 0 1 9.8 3.74l12.09 5.79-5.63 5.17-8.46-4.34c-1.36-.67-2.67-1.29-3.91-1.86a21.08 21.08 0 0 0 -3.68-1.3 2.89 2.89 0 0 0 -2.69.21 3 3 0 0 0 -.45 2.65 21.46 21.46 0 0 0 1 3.78c.46 1.29 1 2.65 1.5 4.07l3.81 9.15-5.77 5.27-4.81-13a51.63 51.63 0 0 1 -2.84-10.13 8.32 8.32 0 0 1 10.09-9.19z"/><path d="m130.61 474.3 8.54 6.65 1.29-3.85c.44-1.46.83-2.84 1.18-4.17a20.12 20.12 0 0 0 .67-3.84 2.9 2.9 0 0 0 -.66-2.62 3.07 3.07 0 0 0 -2.77-.06 25 25 0 0 0 -3.53 1.62q-1.8 1-3.75 2.16l-13.94 8.71-6-4.71 17.46-10.43a53.44 53.44 0 0 1 9.52-4.47 7.77 7.77 0 0 1 7.58 1.38 7.86 7.86 0 0 1 3.2 7 52.76 52.76 0 0 1 -2 10.32l-5.81 19.51-6.21-4.84 1.56-4.7-10.5-8.18z"/><path d="m154.3 504.84-6.18-3.28 12.78-24.06a3.34 3.34 0 0 1 2.09-1.61 3.52 3.52 0 0 1 2.65.32l2.24 1.19 5.62 3 11.3 6a2.9 2.9 0 0 1 .52.34l.28.14a11.15 11.15 0 0 1 4.48 4.26 9.73 9.73 0 0 1 1.31 4.71 8.6 8.6 0 0 1 -1 4 8.93 8.93 0 0 1 -2.8 3.12 9.46 9.46 0 0 1 -4.63 1.55 11.24 11.24 0 0 1 -6.06-1.34l-8.05-4.28a6.55 6.55 0 0 0 -.29 4.19 4.29 4.29 0 0 0 2.2 2.58l12.44 6.61-3.2 6.14-13.26-7a9.46 9.46 0 0 1 -4.72-5.91 12.72 12.72 0 0 1 .06-8.18c.91-3 1.45-4.72 1.63-5.05a3.45 3.45 0 0 1 4.69-1.44l12.08 6.42a3.49 3.49 0 0 0 1.64.37 2.6 2.6 0 0 0 1.26-.33 1.84 1.84 0 0 0 .75-.74 1.89 1.89 0 0 0 .2-1 2.84 2.84 0 0 0 -.43-1.23 3.48 3.48 0 0 0 -1.24-1.15l-12.39-6.58-3.66-1.95a1.22 1.22 0 0 0 -1.82.56z"/><path d="m190.43 515.13 12.2 4 5.21-15.85-12.21-4 2.17-6.59 31 10.19-2.17 6.59-12.15-4-5.21 15.84 12.15 4-2.17 6.6-31-10.19z"/><path d="m259.82 514.81a4.68 4.68 0 0 0 -3.41 1.2 8.2 8.2 0 0 0 -2.16 3 11.75 11.75 0 0 0 -.89 3.59 12.55 12.55 0 0 0 .22 3.71 7.48 7.48 0 0 0 1.6 3.33 4.82 4.82 0 0 0 3.17 1.77l19.7 1.74-.61 6.91-19.14-1.69-2.37-.21a8.4 8.4 0 0 1 -5.69-3.29 15.34 15.34 0 0 1 -2.81-6.09 22.51 22.51 0 0 1 -.43-6.78 22.79 22.79 0 0 1 1-4.95 18.82 18.82 0 0 1 2.2-4.56 12.3 12.3 0 0 1 3.59-3.56 7.69 7.69 0 0 1 4.82-1.24l1 .09 20.54 1.82-.62 6.91z"/><path d="m312.35 507.49a7.69 7.69 0 0 1 4.83 1.25 12.84 12.84 0 0 1 3.66 3.53 18.91 18.91 0 0 1 2.29 4.53 21.28 21.28 0 0 1 1.05 5 21.77 21.77 0 0 1 -.48 6.77 15.21 15.21 0 0 1 -3 6.1 8.7 8.7 0 0 1 -5.78 3.25l-18 1.55a8.6 8.6 0 0 1 -6.27-2.17 14.39 14.39 0 0 1 -3.93-5.53 23.11 23.11 0 0 1 -1.59-6.62 22.36 22.36 0 0 1 .46-6.77 15.08 15.08 0 0 1 2.93-6.13 8.45 8.45 0 0 1 5.78-3.22l1-.09 16.05-1.38zm.26 23.68a4.72 4.72 0 0 0 3.15-1.75 7.93 7.93 0 0 0 1.61-3.34 12.23 12.23 0 0 0 .26-3.71 11.57 11.57 0 0 0 -.91-3.59 8.76 8.76 0 0 0 -2.15-3 4.65 4.65 0 0 0 -3.38-1.22l-14.66 1.26a4.62 4.62 0 0 0 -3.12 1.78 8.59 8.59 0 0 0 -1.61 3.33 11.48 11.48 0 0 0 -.28 3.69 12.37 12.37 0 0 0 .88 3.62 8 8 0 0 0 2.16 3 4.78 4.78 0 0 0 3.4 1.19z"/><path d="m337.42 501.36a10.73 10.73 0 0 1 3.58-.36 13.17 13.17 0 0 1 3.7.84c.22.12.45.24.69.35.12-.21.26-.43.41-.65a12.88 12.88 0 0 1 2.73-2.65 10.36 10.36 0 0 1 3.19-1.55 10.82 10.82 0 0 1 3.59-.36 12.24 12.24 0 0 1 3.69.88 11.45 11.45 0 0 1 3.56 2.35 9.22 9.22 0 0 1 2.48 4.31l5.84 20.79-6.73 1.89-5.73-20.39a4.18 4.18 0 0 0 -1-1.89 4.7 4.7 0 0 0 -1.36-1 3.8 3.8 0 0 0 -1.34-.37 3.52 3.52 0 0 0 -1.26.11 3.39 3.39 0 0 0 -1.11.55 4 4 0 0 0 -.92 1 4.73 4.73 0 0 0 -.64 1.57 4.85 4.85 0 0 0 .07 2.16l5.73 20.39-6.73 1.89-5.73-20.39a4.32 4.32 0 0 0 -1-1.89 5.07 5.07 0 0 0 -1.37-1 4 4 0 0 0 -1.34-.37 3.52 3.52 0 0 0 -1.26.11 3.39 3.39 0 0 0 -1.11.55 4 4 0 0 0 -.92 1 4.63 4.63 0 0 0 -.57 3.73l5.73 20.39-6.68 1.88-5.84-20.79a10.06 10.06 0 0 1 -.06-5 11 11 0 0 1 1.82-3.87 12.48 12.48 0 0 1 2.72-2.67 10.41 10.41 0 0 1 3.17-1.54z"/><path d="m387.33 518.25-6.26 3.09-12.07-24.51a3.28 3.28 0 0 1 -.09-2.64 3.5 3.5 0 0 1 1.8-2l19.5-9.63c2.77-1.26 5.13-1.68 7.06-1.27a11 11 0 0 1 4.87 2.25 11.52 11.52 0 0 1 3 3.77 11.94 11.94 0 0 1 1.23 4.76 10.84 10.84 0 0 1 -1.17 5.23 9.19 9.19 0 0 1 -4.58 4.25l-14.3 7.06-3.07-6.22 14.58-7.2a2.21 2.21 0 0 0 1.18-1.3 4.1 4.1 0 0 0 .19-1.77 5.08 5.08 0 0 0 -.49-1.69 4.75 4.75 0 0 0 -1-1.38 4.12 4.12 0 0 0 -1.53-.92 2.42 2.42 0 0 0 -1.77.1l-16.41 8.11a1.21 1.21 0 0 0 -.61 1.8z"/><path d="m424.94 483.33 8.73-6.39-3.34-2.3q-1.93-1.23-3.69-2.28a21.29 21.29 0 0 0 -3.52-1.69 2.91 2.91 0 0 0 -2.69-.09 3.07 3.07 0 0 0 -.82 2.66 23.79 23.79 0 0 0 .59 3.83c.31 1.33.67 2.74 1.06 4.2l4.55 15.79-6.18 4.53-5.26-19.59a55 55 0 0 1 -1.69-10.38 8.32 8.32 0 0 1 11-8.08 51.46 51.46 0 0 1 9.37 4.79l17.17 10.92-6.35 4.65-4.09-2.78-10.78 7.81z"/><path d="m444.37 439.92a22.82 22.82 0 0 1 4.16-3.37 22 22 0 0 1 4.8-2.29 14.84 14.84 0 0 1 5.27-.76 7.59 7.59 0 0 1 4.84 1.93l1.56 1.57 13.9 13.57-4.88 5-14.31-14a3.86 3.86 0 0 0 -2.76-1 9.17 9.17 0 0 0 -2.94.6 13.94 13.94 0 0 0 -2.65 1.39 14.19 14.19 0 0 0 -2.31 1.92 14 14 0 0 0 -1.85 2.34 13.69 13.69 0 0 0 -1.32 2.69 9 9 0 0 0 -.54 3 4 4 0 0 0 1.06 2.73l14.31 14-4.85 5-13.86-13.67-1.55-1.52a7.6 7.6 0 0 1 -2.07-4.77 14.19 14.19 0 0 1 .61-5.27 22.58 22.58 0 0 1 5.43-9.09z"/><path d="m464.22 419 3 2.08a19.34 19.34 0 0 0 3.39 2 6.37 6.37 0 0 0 3.55.45 4.6 4.6 0 0 0 3.08-1.85l8.22-12-10.05-6.87 3.95-5.77 12.14 8.31a26 26 0 0 1 5.81 5.35 12.93 12.93 0 0 1 2.64 5.91 9.12 9.12 0 0 1 -1.35 6.33l-12.13 17.76-5.73-3.92 11.17-16.32a4.66 4.66 0 0 0 .6-3.55 6.67 6.67 0 0 0 -1.53-3l-9 13.13a9.15 9.15 0 0 1 -5.41 3.54 12.85 12.85 0 0 1 -6.47-.31 25.48 25.48 0 0 1 -6.31-3.06l-3.55-2.43z"/></g></svg>