<svg enable-background="new 0 0 113.4 113.4" viewBox="0 0 113.4 113.4" xmlns="http://www.w3.org/2000/svg"><circle cx="56.7" cy="56.7" fill="#1f1a17" r="56.7"/><circle cx="56.7" cy="56.7" fill="#e57817" r="54"/><circle cx="56.7" cy="56.7" fill="#1f1a17" r="52.1"/><path d="m46.3 57.7s-.9-6.7 6.5-10.9c-9.1-2.4-14.6-3.9-14.6-3.9s-2.1 2.7-2.4 4.3c2.9 3 10.5 10.5 10.5 10.5z" fill="#e57817" stroke="#fff" stroke-miterlimit="10" stroke-width="1.1424"/><path d="m67.5 57.7s.9-6.7-6.5-10.9c9.1-2.4 14.6-3.9 14.6-3.9s2.1 2.7 2.4 4.3c-2.9 3-10.5 10.5-10.5 10.5z" fill="#e57817" stroke="#fff" stroke-miterlimit="10" stroke-width="1.1424"/><path d="m50.4 65.3s5.4 4.1 12.7-.3c-2.4 9.1-3.9 14.6-3.9 14.6s-3.4.5-5 0c-1-4-3.8-14.3-3.8-14.3z" fill="#e57817" stroke="#fff" stroke-miterlimit="10" stroke-width="1.1424"/><g fill="#fff"><path d="m31 16.4 2.3 3.6c.1.1.1.2 0 .3 0 .1-.1.2-.3.3-.1.1-.2.1-.3.1s-.2 0-.3-.2l-2.3-3.6-1.9 1.2c-.1.1-.2.1-.3 0-.1 0-.1-.1-.2-.2s-.1-.2-.1-.3 0-.1.1-.2l4.6-3c .1-.1.2-.1.3 0 .1 0 .1.1.2.2s.1.2.1.3 0 .1-.1.2z"/><path d="m37.8 17.8c-1.3.6-2.2.5-2.6-.4l-1.5-3.4c-.1-.1-.1-.2 0-.3s.2-.1.3-.2.3-.1.4-.1.2.1.2.2l1.5 3.4c.1.1.2.2.4.3.2 0 .5-.1.9-.2l2-.9c.4-.2.7-.4.8-.5.1-.2.2-.3.1-.5l-1.5-3.4c-.1-.1-.1-.2 0-.3s.2-.1.3-.2.3-.1.4-.1.2.1.2.2l1.5 3.4c.4.8-.1 1.6-1.4 2.2z"/><path d="m48.3 14.2c-.1 0-.1 0-.2 0s-.1 0-.1 0h-.1c-.1 0-.1 0-.2-.1l-5.5-2.6 1 3.7c0 .1 0 .2-.1.3s-.2.1-.3.2c-.2 0-.3 0-.4 0s-.2-.1-.2-.2l-1.2-4.6c0-.1 0-.2 0-.3.1-.1.2-.1.3-.2.2 0 .3-.1.4 0 .1 0 .2.1.4.1l5.4 2.6-1-3.7c0-.1 0-.2 0-.3.1-.1.2-.1.3-.2.2 0 .3-.1.4 0 .1 0 .2.1.2.2l1.2 4.6v.3c0 .1-.1.2-.3.2z"/><path d="m55.7 12c0 .5-.1.8-.5 1.1s-.9.4-1.6.5l-2.2.2c-1.5.1-2.2-.3-2.3-1.2l-.2-2.6c-.1-.9.6-1.4 2.1-1.6l1-.1c.1 0 .2 0 .2.1s.1.2.1.3v.3c0 .1-.1.1-.2.1l-1 .1c-.4 0-.7.1-.9.3-.2.1-.3.3-.3.4l.2 2.6c0 .2.1.3.3.4s.5.1 1 .1l2.2-.2c.4 0 .7-.1.9-.3.2-.1.3-.3.3-.4l-.2-1.3c0-.1 0-.2.1-.3s.2-.1.4-.1h.4s.1.1.2.3z"/><path d="m58.5 13.5c-1.5-.1-2.2-.6-2.1-1.5l.2-3.7c0-.1.1-.2.1-.3.1 0 .2-.1.4 0 .2 0 .3 0 .4.1s.1.1.1.3l-.2 3.7c0 .2.1.3.3.4s.5.2.9.2l2.2.1c.4 0 .8 0 1-.1s.3-.2.3-.4l.2-3.7c0-.1.1-.2.1-.3.1 0 .2-.1.4 0 .2 0 .3 0 .4.1s.1.1.1.3l-.2 3.7c-.1.9-.8 1.3-2.3 1.2z"/><path d="m66 12.1c-1.4-.3-2-.9-1.8-1.8l.1-.3c.2-.9 1-1.2 2.5-.9l.7.2c.1 0 .2.1.2.1v.3c0 .1-.1.2-.1.3-.1.1-.1.1-.3 0l-.7-.2c-.4-.1-.7-.1-.9 0s-.3.2-.4.3l-.1.3c0 .2 0 .3.2.5s.4.3.9.4l1.7.4c1.4.3 2 .9 1.8 1.8l-.1.4c-.2.9-1 1.2-2.5.9l-3.5-.8c-.1 0-.2-.1-.2-.1 0-.1 0-.2 0-.3s.1-.2.1-.3c.1-.1.1-.1.3 0l3.6.8c.4.1.7.1.9 0s .3-.2.4-.3l.1-.4c0-.2 0-.3-.2-.5s-.4-.3-.9-.4z"/><path d="m71.8 12.8 4.4-.5h.2c.1 0 .2.1.4.1.1 0 .2.1.2.2.1.1.1.2 0 .3s-.2.2-.3.2l-4.4.4 3.1 3.4c.1.1.2.3.1.4 0 .1-.1.2-.2.2s-.2 0-.3 0c-.2-.1-.3-.1-.3-.2-.1 0-.1-.1-.2-.2l-3-3.5-.7 1.8c-.1.1-.1.2-.2.2s-.2 0-.4-.1c-.1-.1-.3-.1-.3-.2-.1-.1-.1-.2 0-.3l1.7-4.4c.1-.1.1-.2.2-.2s.2 0 .4.1.3.1.3.2c.1.1.1.2 0 .3z"/><path d="m81.3 14.8c.1.1.2.2.3.2.1.1.1.2.1.3l.4 5.6v.2l-.1.1c-.1 0-.1 0-.2 0s-.1 0-.2 0-.1 0-.2-.1c-.1 0-.1-.1-.1-.1s-.1-.1-.1-.2l-.1-1.5-3.6-2.1-1.4.7c-.1 0-.1 0-.2 0s-.1 0-.2-.1c-.1 0-.1-.1-.1-.1s-.1-.1-.1-.2 0-.1 0-.2 0-.1 0-.2l.1-.1 5-2.4c.1 0 .2-.1.3-.1.1.1.3.2.4.3zm-2.9 2 2.6 1.6-.2-2.9z"/></g><path d="m34.8 38c-3.3-2.3-6.5-4.4-9.7-6.6 15.4-20.4 47.4-20.9 63.2 1.8-3 1.9-6 3.8-9.1 5.7-5.6-7-12.8-11-21.9-11.2-9.2-.2-16.6 3.5-22.5 10.3z" fill="#e57817" stroke="#fff" stroke-miterlimit="10" stroke-width="1.2261"/><g fill="#fff"><path d="m104.3 52.8-4.2.4c-.1 0-.2 0-.3-.1s-.1-.2-.1-.4 0-.3 0-.4.1-.1.3-.2l4.2-.4-.2-2.2c0-.1 0-.2.1-.2s.2-.1.3-.1h.3c.1 0 .1.1.1.2l.5 5.4c0 .1 0 .2-.1.2s-.2.1-.3.1-.2 0-.3 0-.1-.1-.1-.2z"/><path d="m99.9 58.2c.1-1.5.6-2.2 1.5-2.1l3.7.2c.1 0 .2.1.3.1 0 .1.1.2 0 .4 0 .2 0 .3-.1.4s-.1.1-.3.1l-3.7-.2c-.2 0-.3.1-.4.3s-.2.5-.2.9l-.1 2.2c0 .4 0 .8.1 1s .2.3.4.3l3.7.2c.1 0 .2.1.3.1 0 .1.1.2 0 .4 0 .2 0 .3-.1.4 0 .1-.1.1-.3.1l-3.7-.2c-.9-.1-1.3-.8-1.2-2.3z"/><path d="m98.1 69.2c0-.1 0-.1 0-.2 0 0 0-.1.1-.1l.1-.1s.1-.1.2-.1l4.8-3.6-3.7-.9c-.1 0-.2-.1-.2-.2s0-.2 0-.4.1-.3.1-.3c.1-.1.2-.1.3-.1l4.6 1.1c.1 0 .2.1.2.2v.4c0 .2-.1.3-.1.4s-.2.2-.3.3l-4.8 3.6 3.7.9c.1 0 .2.1.2.2v.4c0 .2-.1.3-.2.3-.1.1-.2.1-.3.1l-4.6-1.1c-.1 0-.2-.1-.2-.2 0-.3 0-.5.1-.6z"/><path d="m96.6 76.8c-.4-.2-.7-.5-.8-.9s0-1 .3-1.6l.9-2.1c.6-1.4 1.3-1.9 2.1-1.5l2.4 1c .9.4 1 1.2.4 2.6l-.4 1c0 .1-.1.2-.2.2s-.2 0-.3-.1-.2-.1-.3-.2c0-.1 0-.1 0-.3l.4-.9c.2-.4.2-.7.2-.9s-.1-.4-.3-.4l-2.4-1c-.1-.1-.3 0-.5.1s-.4.4-.5.8l-.8 2c-.2.4-.2.7-.2.9s.1.4.3.4l1.2.5c.1.1.2.1.2.2s0 .2-.1.4-.1.3-.2.3c-.1.1-.2.1-.3 0z"/><path d="m94 78.5c.8-1.2 1.5-1.6 2.3-1.1l3.1 1.9c.1.1.2.2.2.3s-.1.2-.1.3c-.1.1-.2.2-.3.3-.1 0-.2 0-.3 0l-3.1-1.9c-.1-.1-.3-.1-.5 0s-.4.3-.6.7l-1.2 1.9c-.2.4-.3.7-.4.9s.1.4.2.5l3.1 1.9c.1.1.2.2.2.3s-.1.2-.1.4c-.1.1-.2.2-.2.3-.1 0-.2 0-.3 0l-3.1-1.9c-.8-.5-.8-1.3 0-2.6z"/><path d="m91.7 85.8c1-1.1 1.8-1.4 2.5-.8l.2.2c.7.6.6 1.5-.4 2.6l-.5.6c-.1.1-.2.1-.2.1-.1 0-.2-.1-.3-.2s-.2-.2-.2-.2c0-.1 0-.2.1-.2l.5-.6c.3-.3.4-.6.5-.8 0-.2 0-.4-.1-.5l-.2-.2c-.1-.1-.3-.1-.5-.1s-.4.3-.7.6l-1.1 1.3c-1 1.1-1.8 1.4-2.5.8l-.3-.2c-.7-.6-.6-1.5.4-2.6l2.4-2.8c.1-.1.2-.1.2-.1.1 0 .2.1.3.2s.2.2.2.2 0 .2-.1.2l-2.4 2.8c-.3.3-.4.6-.5.8 0 .2 0 .4.1.5l.3.2c.1.1.3.1.5.1.2-.1.4-.3.7-.6z"/><path d="m88.4 90.6-1.6 4.1c0 .1-.1.1-.1.2s-.1.2-.3.3c-.1.1-.2.1-.3.1s-.2 0-.3-.1-.1-.3 0-.4l1.7-4.1-4.5 1.1c-.2 0-.3 0-.4-.1s-.1-.2-.1-.3.1-.2.2-.2c.1-.1.2-.2.3-.2s.1-.1.2-.1l4.5-1-1.2-1.4c-.1-.1-.1-.2-.1-.3s.1-.2.2-.3.2-.2.3-.2.2 0 .3.1l3.1 3.6c.1.1.1.2.1.3s-.1.2-.2.3-.2.2-.3.2-.2 0-.3-.1z"/><path d="m82.2 98c-.1.1-.2.1-.3.1s-.2 0-.3 0l-5.2-2.2c-.1 0-.1-.1-.1-.1s0-.1 0-.2 0-.1 0-.2.1-.1.1-.2.1-.1.1-.1c.1 0 .1-.1.2-.1h.2l1.4.6 3.5-2.2v-1.5c0-.1 0-.1.1-.2s.1-.1.1-.1c.1 0 .1-.1.2-.1h.2.2c.1 0 .1.1.1.1s0 .1 0 .2l-.2 5.5c0 .1 0 .2-.1.3 0 .3-.1.4-.2.4zm-.5-3.5-2.6 1.6 2.5 1.1z"/></g><path d="m83.4 46c3.5-1.9 7-3.7 10.4-5.5 10.8 23.1-3.8 51.6-31.2 55-.2-3.5-.5-7.1-.7-10.7 8.8-1.7 15.8-6.2 20.2-14.1 4.3-7.9 4.6-16.2 1.3-24.7z" fill="#e57817" stroke="#fff" stroke-miterlimit="10" stroke-width="1.2261"/><path d="m34.1 98.8 2-3.8c.1-.1.1-.2.2-.2s.2 0 .4.1c.1.1.2.1.3.2s0 .2 0 .3l-2 3.8 2 1c .1.1.2.1.2.2s0 .2-.1.3-.1.2-.2.2-.1 0-.3 0l-4.8-2.5c-.1-.1-.2-.1-.2-.2s0-.2.1-.3.1-.2.2-.2.1 0 .3 0z" fill="#fff"/><path d="m32 92.2c1.2.9 1.5 1.7 1 2.4l-2.2 3c-.1.1-.2.2-.3.2s-.2-.1-.3-.2-.2-.2-.3-.3 0-.2.1-.3l2.2-3c .1-.1.1-.3 0-.5s-.3-.4-.7-.7l-1.8-1.3c-.4-.3-.6-.4-.9-.4s-.4 0-.5.2l-2.2 3c-.1.1-.2.2-.3.2s-.2-.1-.3-.2-.2-.2-.3-.3c0-.1 0-.2.1-.3l2.2-3c .5-.7 1.4-.7 2.6.2z" fill="#fff"/><path d="m23.7 84.7.1.1s0 .1.1.1v.1.2l.4 6 2.7-2.6c.1-.1.2-.1.3-.1s.2.1.3.2.2.2.2.3 0 .2-.1.3l-3.4 3.3c-.1.1-.2.1-.3.1s-.2-.1-.3-.2-.2-.2-.2-.3-.1-.2-.1-.4l-.4-6-2.7 2.6c-.1.1-.2.1-.3.1s-.2-.1-.3-.2-.2-.2-.2-.3 0-.2.1-.3l3.4-3.3c.1-.1.2-.1.3-.1z" fill="#fff"/><path d="m18.2 79.4c.4-.3.8-.3 1.2-.1s.8.6 1.2 1.2l1.3 1.8c.8 1.2.9 2.1.1 2.6l-2.2 1.5c-.8.5-1.6.2-2.4-1l-.6-1c-.1-.1-.1-.2-.1-.2s.1-.1.2-.2.2-.1.3-.1.1 0 .2.1l.6.8c.2.4.5.6.7.7s.4.1.5 0l2.2-1.5c.1-.1.2-.2.2-.5 0-.2-.2-.5-.4-.9l-1.2-1.8c-.2-.4-.5-.6-.7-.7s-.4-.1-.5 0l-1.1.8c-.1.1-.2.1-.3.1s-.2-.1-.3-.3c-.1-.1-.1-.3-.2-.3 0-.1 0-.2.2-.3z" fill="#fff"/><path d="m18.1 76.2c.6 1.3.5 2.2-.3 2.6l-3.3 1.6c-.1.1-.2.1-.3 0s-.1-.2-.2-.3-.1-.3-.1-.4.1-.2.2-.2l3.3-1.6c.1-.1.2-.2.2-.4s-.1-.5-.3-.9l-1-2c-.2-.4-.4-.7-.6-.8s-.4-.2-.5-.1l-3.3 1.6c-.1.1-.2.1-.3 0s-.1-.2-.2-.3-.1-.3-.1-.4.1-.2.2-.2l3.3-1.6c.8-.4 1.6.1 2.2 1.4z" fill="#fff"/><path d="m13.2 70.4c.4 1.4.2 2.2-.7 2.5l-.3.1c-.9.3-1.5-.3-1.9-1.7l-.2-.7c0-.1 0-.2 0-.3.1-.1.1-.1.3-.1h.3c.1 0 .1.1.2.2l.2.7c.1.4.3.7.4.8.2.1.3.2.5.1l.3-.1c.2 0 .3-.2.3-.4.1-.2 0-.5-.1-.9l-.5-1.7c-.4-1.4-.2-2.2.7-2.5l.4-.1c.9-.3 1.5.3 1.9 1.7l1 3.5v.3c-.1.1-.1.1-.3.1s-.2 0-.3 0-.1-.1-.2-.2l-1-3.5c-.1-.4-.3-.7-.4-.8-.2-.1-.3-.2-.5-.1l-.4.1c-.2 0-.3.2-.3.4-.1.2 0 .5.1.9z" fill="#fff"/><path d="m11 65-2.6-3.6c0-.1-.1-.1-.1-.2s-.1-.2-.1-.4c0-.1 0-.2 0-.3s.1-.1.2-.2c.1 0 .3 0 .4.2l2.5 3.7 1.5-4.3c.1-.2.2-.3.3-.3s.2 0 .3.1.1.2.1.3v.4s0 .2-.1.2l-1.6 4.3 1.9-.3c.1 0 .2 0 .3.1s.1.2.1.4v.4c0 .1-.1.1-.3.2l-4.7.7c-.1 0-.2 0-.3-.1s-.1-.2-.1-.4 0-.3 0-.4.1-.1.3-.2z" fill="#fff"/><path d="m8.1 55.7c0-.1 0-.3.1-.4 0-.1.1-.2.2-.2l4.7-3.1h.2s.1 0 .2.1l.1.1c0 .1.1.1.1.2s0 .1 0 .2 0 .1 0 .2-.1.1-.1.1l-1.3.8-.3 4.1 1.3.9c.1 0 .1.1.1.1v.2s0 .1 0 .2-.1.1-.1.2-.1.1-.1.1-.1 0-.2 0c0 0-.1 0-.2-.1l-4.6-3.1c-.1-.1-.1-.1-.2-.2.1-.1.1-.2.1-.4zm3.2 1.6.1-3.1-2.3 1.5z" fill="#fff"/><path d="m51.2 84.9c-.3 4-.7 7.8-1 11.7-25.3-3.4-41.4-31.1-29.4-56 3.1 1.7 6.2 3.4 9.4 5.2-3.3 8.3-3.3 16.6 1 24.6 4.2 8 11.1 12.6 20 14.5z" fill="#e57817" stroke="#fff" stroke-miterlimit="10" stroke-width="1.2261"/></svg>