<?xml version="1.0" encoding="utf-8"?>
<!-- Generator: Adobe Illustrator 22.1.0, SVG Export Plug-In . SVG Version: 6.00 Build 0)  -->
<svg version="1.1" id="Capa_1" xmlns="http://www.w3.org/2000/svg" xmlns:xlink="http://www.w3.org/1999/xlink" x="0px" y="0px"
	 viewBox="0 0 538.6 538.3" style="enable-background:new 0 0 538.6 538.3;" xml:space="preserve">
<style type="text/css">
	.st0{fill:#010101;}
	.st1{fill:#FFED00;}
	.st2{fill:#FFEB00;}
	.st3{fill:#FBE300;}
	.st4{fill:#090B07;}
	.st5{fill:#0C0E09;}
	.st6{fill:#0B0D08;}
	.st7{fill:#0D0F09;}
	.st8{fill:#0D0E09;}
	.st9{fill:#C3B118;}
	.st10{fill:#DCC700;}
	.st11{fill:#E2CD00;}
	.st12{fill:#71682F;}
	.st13{fill:#D4BF04;}
	.st14{fill:#BFAD1B;}
	.st15{fill:#F1DA00;}
	.st16{fill:none;}
	.st17{fill:#E73631;}
	.st18{font-family:'MicrosoftYaHei';}
	.st19{font-size:46.62px;}
	.st20{fill:none;stroke:#FFED00;stroke-width:2.83;stroke-miterlimit:10;}
	.st21{font-size:46.6503px;}
</style>
<path class="st0" d="M268.9,538.2C123.4,540.2-3.3,417.7,0.1,262.6C3.2,121.7,120.8-3.5,276.7,0.1
	c140.3,3.2,265.8,120.7,261.8,277.2C534.9,419,416.9,539.9,268.9,538.2L268.9,538.2z"/>
<g>
	<path class="st1" d="M475.4,422.4c-16,20.8-34,39.4-55.6,54.4c-1.1,0.8-2.3,1.6-3.8,2.5l-21.9-5.2c-2.7-0.5-5.5-0.9-7.9-2.4
		c-0.1-2.7,1.8-3.9,3.7-5c18.2-11,34-24.6,48.5-40.1c2.7-2.7,5.7-5.1,9-7.2c8.3,0,16.7-0.1,25.1,0
		C474.3,419.5,476.9,419,475.4,422.4L475.4,422.4z"/>
	<path class="st1" d="M144.5,474.2l-22,5.2c-15.5-10.7-30.1-22.9-42.7-37.2c-5.7-6.5-11-13.2-16.5-19.8c-1.5-3.4,1.1-2.9,2.9-2.9
		c8.4-0.1,16.8,0,25.3,0c11.1,7.6,19.1,18.7,29.5,27.2s21.5,15.6,32.6,23.6C150.4,473.5,147.3,473.4,144.5,474.2L144.5,474.2z"/>
	<path class="st1" d="M380.4,462.3c2.4-8.7,4.9-17.3,7.2-26c0.9-3.9,3.1-7.4,6.2-9.8c17.8-14.6,33.6-31,45.6-50.8
		c2.6-0.3,1.7,1.7,1.7,2.8c0.1,11.6,0,23.2,0.1,34.9c0,2.6-0.9,5.2-2.7,7.1c-15.1,17.4-33,32.2-53,43.8
		C381.8,466.3,381,465.8,380.4,462.3L380.4,462.3z"/>
	<path class="st1" d="M99.2,375.7c12,19.8,27.8,36.3,45.6,50.9c3.1,2.5,5.3,5.9,6.2,9.8c2.3,8.7,4.8,17.4,7.2,26
		c1.3,1.6,0.6,2.6-1.1,2.9c-1.4,0.2-2.9-0.2-4-1.1c-20-11.8-37.8-26.1-53-43.8c-1.8-1.9-2.7-4.5-2.7-7.1c0.1-11.6,0-23.2,0.1-34.9
		C97.5,377.3,96.6,375.3,99.2,375.7z"/>
	<path class="st1" d="M485.5,358.7l26.1-6.4c-7.1,21.6-17.4,40.7-28.8,59.3c-4.9,2.3-10.1,0.3-15.1,0.8c-4.6,0.5-9.2,0.3-13.8-0.5
		c0.6-4.4,3.9-6.8,6.2-9.8v0.1c0.5-1.4,1.4-2.7,2.5-3.7l0,0.1c1.6-3.5,3.7-6.7,6.2-9.6l-0.1,0.1c1-2.2,1.9-4.4,3.5-6.2v0.1
		c0.5-0.8,0.2-2,1.4-2.4l-0.1,0.1c1-2.5,2.3-5,3.7-7.3l-0.1,0.1C480.3,368.7,479.7,361.8,485.5,358.7L485.5,358.7z"/>
	<path class="st1" d="M55.8,411.6c-11.4-18.6-21.7-37.7-28.7-59.3l26.1,6.4c2.5,0.7,3.2,2.7,3.7,4.9v-0.1c1.6,3.3,3.3,6.5,4.8,9.9
		l-0.1-0.1c1.4,2.3,2.7,4.8,3.7,7.3l-0.1-0.1c1.2,0.4,0.9,1.6,1.4,2.4v-0.1c1.7,1.8,2.6,4,3.5,6.2l0.1-0.3l-0.1,0.3
		c3.7,3.9,5.9,8.7,8.6,13.2l-0.1-0.1c1.4,1.5,2.9,3,3.7,4.9l-0.1-0.1c1.1,1.4,2.6,2.5,2.7,4.8c-5.6,1.4-11.2,1.2-16.6,0.7
		C64.1,412,59.8,413.9,55.8,411.6L55.8,411.6z"/>
	<path class="st1" d="M61.9,357.3c4.9-13,7.2-26.8,11.8-41.1c4.7,15.9,9.3,31,17.1,44.7c1.4,11,0.2,22.1,0.6,33.1
		c0.1,2.6,0,5.1,0,7.7c0,1.4-0.9,1.9-2.1,2.1c-0.7,0-1.4-0.4-1.9-1l0.1,0.1c-1.4-1.5-2.9-2.9-3.6-4.9l0.1,0.1
		c-1.2-0.9-2.1-2.2-2.5-3.7l0.1,0.1c-1.2-0.9-2.1-2.2-2.4-3.7l0.1,0.1c-3.8-3.2-5.1-8-7.4-12.1l0.1,0.1c-1.1-0.5-0.8-1.7-1.3-2.4
		c-3.6-4.2-6.1-9.2-7.2-14.6l0.1,0.1C62.2,360.7,61.7,359,61.9,357.3L61.9,357.3z"/>
	<path class="st1" d="M447.8,361c7.8-13.7,12.4-28.8,17.1-44.7c4.6,14.3,6.9,28,11.8,41.1c0.3,1.7-0.3,3.4-1.5,4.7l0.3,0.1l-0.3-0.2
		c-1.4,6.2-4.3,12-8.4,16.9l0.1-0.1c-1.1,2.1-1.8,4.4-3.6,6.2l0.1-0.1c-1.3,2-1.7,4.5-3.8,6l0-0.1c-0.3,1.5-1.2,2.8-2.4,3.7l0.1-0.1
		c-0.4,1.5-1.2,2.8-2.4,3.7l0.1-0.1c-1.6,2.3-2,5.7-5.7,5.9c-1.1-0.1-2-1-1.9-2.1c0-11.7,0-23.4,0-35.1
		C447.3,364.8,446.7,362.8,447.8,361L447.8,361z"/>
</g>
<path class="st2" d="M521.9,229l-9.8,9.2c-2.9-25.9-9.8-51.1-20.6-74.9c-10.7-23.8-25.1-45.2-42.8-66
	C471.2,100.2,517.6,185.2,521.9,229z"/>
<path class="st2" d="M26.5,238.7l-10.1-11.1c9.3-50.6,32-94.9,70-131l2.6,1.5c-16.5,20-31.2,41.1-41.8,64.7
	C36.3,186.8,29.3,212.5,26.5,238.7z"/>
<path class="st2" d="M46.3,245.8l-5.5,5.8c-2.8-0.1-3.5-2.7-5.2-3.5c-2.6-37.4,41.4-126.2,67.6-135
	C70.9,151.8,51.2,195.8,46.3,245.8L46.3,245.8z"/>
<path class="st2" d="M441.4,116.1l1.6,1.6c0.4,0.1,0.8,0.4,0.9,0.8c25.4,25.4,42,55.9,52.2,90.2c3.8,12.4,6.3,25.1,7.4,38
	c-1.1,2.1-2.7,3.9-4.8,5c-2.6-1.2-4.1-3.7-6.3-5.9c-2.6-25.9-9.4-51.2-20.2-74.9c-8.1-17.8-19-33.9-30.5-49.5
	c-0.1-0.7-0.6-1.3-1.2-1.5l0.1,0.1c-0.2-0.6-0.6-1.1-1.2-1.3c-0.3-0.5-0.7-1-1.1-1.3c-0.4-0.4-0.7-0.8-1-1.3l-0.1-0.1
	c-0.4-0.2-0.7-0.6-0.8-1l-0.3-1.2c0.3-0.4,0.6-0.7,1-1c1.9-0.1,2.6,1.5,3.6,2.6C441,115.3,441.3,115.7,441.4,116.1L441.4,116.1z"/>
<path class="st1" d="M43.8,348.7l-20-6c-4.5-14.5-7.6-29.4-9.3-44.4c-0.4-1.4-0.8-2.8,1.5-2.7l23.7,13.5c3.2,7.8,3.8,16.2,6.2,24.2
	l-0.1-0.1c1.5,2.6,1.6,5.7,2.6,8.5l0-0.1c1.5,2.6,2.4,5.4,2.7,8.4C48.3,351.4,46.1,349.8,43.8,348.7L43.8,348.7z"/>
<path class="st1" d="M524,298.4c-1.5,14.9-4.9,29.5-9.2,44.4l-23.7,6.9c-0.7,1.5-2,0.6-3.4,1.2c0-3.2,0.9-6.4,2.5-9.1v0.1
	c1-2.8,1-5.9,2.6-8.5l-0.1,0.1c1.2-4.9,2.2-9.8,3.7-14.6l-0.1,0.1c0.7-3.3,0.7-6.8,2.5-9.7l23.6-13.5
	C524.8,295.5,524.4,297,524,298.4L524,298.4z"/>
<path class="st1" d="M36.7,299l-23.1-14.1c-2.3-15.2-0.4-30.3,1-45.4c3,0.1,3.5,3.1,5.7,3.5c5.7,5.5,11.3,11.2,16.9,16.8
	c-0.6,13.4,1.2,26.4,1.6,39.6C38.1,300,37.3,300.3,36.7,299z"/>
<path class="st1" d="M518.3,242.9l5.5-4.2c1.8,15.7,3.5,30.8,1.3,46.1L502,299c-0.4,0.8-1,1.1-2,0.5c0.1-12.9,2.3-25.9,1.4-39.5
	C506.7,254.3,512.5,248.6,518.3,242.9L518.3,242.9z"/>
<path class="st1" d="M480.5,344.9c-2.8-10.9-4.8-22-8.7-32.5c-5-13.5-1.7-27-2.4-42.1l21.7,36.4c2.3,5.7-1.3,10.7-2.1,16
	c-0.6,4.8-2,9.5-4.1,14l0.1-0.1c-0.7,1.2,0.2,2.8-1.2,3.8l0-0.1C482.9,341.9,483.7,344.8,480.5,344.9L480.5,344.9z"/>
<path class="st1" d="M47.5,306.7l21.4-36c0.1,15.2,2.6,29.3-2.6,43.4c-3.7,9.9-5.5,20.5-8.2,30.8c-3.2,0-2.3-3-3.3-4.6l0.1,0.1
	c-3.5-9-5.3-18.6-7.8-27.9C46.6,310.6,46.3,308.6,47.5,306.7z"/>
<path class="st3" d="M112.7,135.8c0,0.3-0.2,0.6-0.5,0.8c-0.3,0.5-0.6,0.9-1,1.2c-0.5,0.4-0.9,0.9-1.1,1.5
	c-15.2,21.9-28.4,44.9-34.4,71.1c-2,8.7-7.8,13.4-14.1,18.4c5.5-35.7,21.4-66.1,46.1-92.1c0.3-0.4,0.7-0.8,1.1-1.2l0.1-0.1
	c0.3-0.4,0.7-0.8,1.1-1.2c0.4-0.4,0.8-0.8,1.2-1.2c0.4-0.4,0.8-0.8,1.2-1.2c0.4-0.4,0.8-0.8,1.2-1.1c0.3-0.4,0.7-0.8,1.2-1.1h0.1
	c1.7,0,2.1,0.7,1,2.1l-0.1,0.1c-0.3,0.5-0.6,0.9-1,1.3c-0.5,0.4-0.8,0.8-1.1,1.4v-0.1C113.2,134.7,112.8,135.2,112.7,135.8
	L112.7,135.8z"/>
<path class="st3" d="M434.2,140.2c22,23,42.4,65.2,42.7,90c-4.9-5.6-11.2-8.5-12.8-15.3c-5.9-25.1-16.9-47.9-31.5-69.1
	c-0.7-1-1.2-2.1-1.8-3.1c-0.4-0.4-0.7-0.9-1-1.4l-0.1-0.1c-0.8-0.5-0.5-1.7-1.5-2.1l0,0.1c-0.1-0.6-0.6-1-1-1.4
	c-0.4-0.3-0.7-0.7-0.9-1.2c-0.3-0.1-0.5-0.4-0.5-0.8c-0.1-0.7-0.5-1.3-1.2-1.5c-0.3-0.5-0.6-1-1.1-1.4l-0.1,0.1
	c-0.2-0.2-0.4-0.6-0.4-0.9c0-0.3,0-0.5,0.1-0.5c0.4-0.3,0.9-0.5,1.4-0.5c0.5,0.1,1,0.3,1.4,0.6l0,0.1c0.4,0.4,0.8,0.8,1.2,1.2
	c0.4,0.4,0.8,0.8,1.2,1.2c0.4,0.3,0.8,0.7,1.1,1.2l0.1,0.1c0.5,0.3,0.9,0.8,1.2,1.3l0.1,0.1c0.5,0.3,0.8,0.7,1.1,1.1l0.1,0.1
	c0.4,0.2,0.8,0.6,1,1.1l0.2,0.2C433.7,139.4,434.1,139.8,434.2,140.2L434.2,140.2z"/>
<path class="st1" d="M71.7,234.4C72,253,61.8,267.6,53,282.7c-2,3.4-3.8,7-5.7,10.5c-0.3,0.8-0.7,1.4-2.2,1.5
	c-2.4-11.6-2.5-23.3-1.3-35l27.6-27.5C72.1,232.7,72.2,233.7,71.7,234.4L71.7,234.4z"/>
<path class="st1" d="M467.2,232.1l27.6,27.6c1,10.1,1.4,20.2-0.6,30.2c-0.3,1.7-1.1,2.6-2.9,2.3c-6.7-11.6-13.7-23.1-20.2-34.9
	c-3.9-7-2.1-15.4-4.2-22.9C466.4,233.7,466.5,232.7,467.2,232.1C467.2,232.1,467.2,232.1,467.2,232.1z"/>
<path class="st4" d="M380.4,462.3c0.1,0.7,0.2,1.5,0.3,2.8c22.6-12.8,42.9-29.5,59.8-49.3c-0.9-13.2,1-26.8-1-40.2
	c0-1.2,0.1-2.4,2.5-3.3v47.7c12.3-2.1,23.8-1,34.9-1.4c1.1,2.6-0.1,3.2-1.5,3.8c0.8-2.7-1.1-2.4-2.7-2.4c-8.6,0-17.2,0-25.9,0
	c-17.5,20.3-38.1,37.5-61.2,51l8.5,3.1c-5.7,0.5-10.3-1.4-13.6-6.3C379.2,466,378.1,464.2,380.4,462.3L380.4,462.3z"/>
<path class="st4" d="M99.2,375.7c-1.8,6.6-0.7,13.4-0.8,20.1s0,13.2,0,20.3c16.8,19.7,37,36.4,59.5,49.1c0.1-1.4,0.2-2.1,0.3-2.9
	c3.4,6-2.1,7.8-5.2,10.2c-2.5,1.7-5.5,2.3-8.5,1.6l8.4-3c-23-13.6-43.7-30.9-61.1-51.1c-8.7,0-17.3,0-25.9,0c-1.5,0-3.5-0.4-2.7,2.4
	c-1.2-0.4-2.1-1.1-2.2-3.5c11.6,0.1,23.2-1,35.3,1.1v-46.9C99.4,372.7,99,374.3,99.2,375.7L99.2,375.7z"/>
<path class="st5" d="M36.7,299c1.2,0,1.7-0.3,1.5-1.7c-1.5-12.2-2-24.6-1.6-36.9l-16.3-17.4c7,4,11.3,11,17,15.6
	c0.8,14.1,1.5,27.6,2.3,41.2C38.5,300.9,37.5,300.8,36.7,299L36.7,299z"/>
<path class="st5" d="M518.3,242.9l-16.3,17.4c0.4,12.6-0.2,25.1-1.7,37.6c-0.1,1.2,0.9,1,1.6,1.1c-0.5,1.4-1.4,1.8-2.9,0.9
	c0.4-13.5,2.3-27.1,1.8-40.9C506.9,253.8,511.3,247,518.3,242.9L518.3,242.9z"/>
<path class="st6" d="M460.1,402.1l-6.1,9.5h28.9c-0.6,1.4-1.6,2.5-3.1,2.3c-9.2-1.2-18.5,0.2-28.1-0.6
	C453.7,408.7,455.5,404.4,460.1,402.1L460.1,402.1z"/>
<path class="st6" d="M55.8,411.6h28.1c0.7-2.1-1.8-2.9-1.8-4.7c2.7,1,4.1,2.9,4.4,6.2c-7.4,0.9-14.8,1-22.3,0.2
	C61.5,413,57.8,416.1,55.8,411.6z"/>
<path class="st6" d="M447.8,361L448,403c0.7,0.8,1.1,1.9,1.1,3v0.8l-2.5,2.7c0-13.9-0.1-26.6,0.1-39.3
	C446.7,367.1,445.4,363.8,447.8,361z"/>
<path class="st6" d="M90.7,403c0.1-14,0.1-28,0.1-42.1c0.3,0.3,0.8,0.6,0.8,0.9V409l-2.1-2.2V406C89.5,404.9,89.9,403.9,90.7,403z"
	/>
<path class="st6" d="M71.7,378.8c2.9,3.7,5.4,7.8,7.4,12.1l-4.4-2c-2.4,5.8,4.4,8.4,3.9,13.2c-3.5-3.9-6.4-8.4-8.6-13.2
	c1.5-0.4,3-0.7,3.8-2.8C74.3,383.6,71.2,381.7,71.7,378.8z"/>
<path class="st5" d="M43.8,259.7c0.3,10.5-0.4,21,1.2,31.5c0.2,1.1-0.8,3.9,2.2,2.1c0.1,1.8-0.5,3.1-3,3.6
	C42.9,284.2,40.9,272,43.8,259.7z"/>
<path class="st7" d="M47.5,306.7c0.5,9.2,3.3,17.9,5.8,26.7c0.6,2.3,1.1,4.6,1.6,6.9c-5.3-9.5-6.5-20.1-8.6-30.5
	C45.9,308.6,46.4,307.3,47.5,306.7z"/>
<path class="st5" d="M493.5,290.9c1.8-10.4,0.9-20.9,1.3-31.3c2.6,9,1.2,18.1,0.7,27.1c-0.2,2.7-0.4,5.5-0.8,8.3
	c-0.2,1.5-1.1,2.1-2.1,0.4C493.6,294.1,492.3,292.2,493.5,290.9L493.5,290.9z"/>
<path class="st8" d="M484.9,336.7c1.9-7.8,3.8-15.7,5.5-23.5c0.4-2.1,0.6-4.3,0.7-6.4c3.3,4.3,0.1,8.3-0.7,12.3
	C489.2,325.1,488.7,331.4,484.9,336.7L484.9,336.7z"/>
<path class="st6" d="M466.8,378.9c2.8-5.6,5.6-11.3,8.4-16.9C475.7,369.2,472.4,374.6,466.8,378.9z"/>
<path class="st7" d="M46,333.4c-3.4-7.8-4.2-16.1-6.2-24.2C44.1,316.7,44.9,325.1,46,333.4z"/>
<path class="st6" d="M63.3,361.9c2.8,4.6,5.2,9.5,7.2,14.6C65.1,373.1,62.5,368.3,63.3,361.9z"/>
<path class="st6" d="M485.5,358.7c-4.4,4-4.5,10.4-8.5,14.7C479,367.9,478.2,360.9,485.5,358.7z"/>
<path class="st7" d="M43.8,348.7l6.7,1.2c-0.8-3-1.4-5.6-2.1-8.2c2.8,2.1,2.7,5.4,3.9,8.5C48.8,352.1,46.2,351.4,43.8,348.7z"/>
<path class="st8" d="M496.3,318.8c-0.3,5-1.6,10-3.7,14.6C492.5,328.3,493.8,323.3,496.3,318.8z"/>
<path class="st6" d="M468.7,388.9c-1.4,3.6-3.5,6.9-6.2,9.6C462.4,393.9,465.2,391.2,468.7,388.9z"/>
<path class="st8" d="M490.2,341.7c-0.6,2.6-1.3,5.2-1.9,7.6c1,1.1,2,0.2,2.9,0.3c-1.2,2.4-2.7,1.5-4.7,0.6
	C487.4,347.2,487.4,343.9,490.2,341.7L490.2,341.7z"/>
<path class="st6" d="M61.6,373.3c-2.3-2.9-3.9-6.2-4.8-9.9C59.6,366,61.3,369.5,61.6,373.3z"/>
<path class="st7" d="M54.8,340.2c1.7,1.1,1,3.9,3.3,4.6c0,1.1,0.4,2.2-0.9,3.5C55.7,345.7,54.4,343.3,54.8,340.2z"/>
<path class="st6" d="M450.4,403.3l4.4-5.2c0,3.5-1.8,5.8-4.6,7.5l-0.5-0.5C449.6,404.3,449.6,403.7,450.4,403.3L450.4,403.3z"/>
<path class="st8" d="M480.5,344.9c2.3-0.7,1.7-3.5,3.3-4.6c0.4,3-1,5.4-2.1,8C479.9,347.2,480.6,345.9,480.5,344.9z"/>
<path class="st9" d="M421,129.8c-1.7-1.3-3-3.1-3.7-5.1c2.9,0.1,4.1,1.7,5.2,3.5C422.4,129,421.8,129.6,421,129.8z"/>
<path class="st8" d="M498.8,309.2c-0.8,3.3-0.9,6.7-2.5,9.7C495.8,315.3,495.9,311.9,498.8,309.2z"/>
<path class="st6" d="M65.2,380.5c-1.9-2-3.2-4.6-3.7-7.3C64.2,374.9,65.1,377.5,65.2,380.5z"/>
<path class="st6" d="M477.2,373.2c-0.5,2.7-1.8,5.3-3.7,7.3C473.6,377.5,474.5,374.9,477.2,373.2z"/>
<path class="st7" d="M48.5,341.8c-1.6-2.6-2.4-5.5-2.6-8.5C48.4,335.7,48.8,338.7,48.5,341.8z"/>
<path class="st8" d="M492.7,333.3c-0.1,3-1,5.9-2.6,8.5C489.9,338.7,490.2,335.7,492.7,333.3z"/>
<path class="st10" d="M116,131.6c-0.3-0.7-0.7-1.4-1-2.1l2.4-2.4c1.1-0.2,1.8,0,1.2,1.4C118.2,129.7,117.3,130.9,116,131.6
	L116,131.6z"/>
<path class="st6" d="M463.3,384.9c0.6-2.4,1.8-4.5,3.6-6.2C466.8,381.5,466.1,383.8,463.3,384.9z"/>
<path class="st6" d="M70.1,389c-1.7-1.7-2.9-3.9-3.5-6.2C69.3,383.9,70.1,386.2,70.1,389z"/>
<path class="st6" d="M472.1,382.8c-0.6,2.3-1.9,4.5-3.5,6.2C468.5,386.2,469.4,383.9,472.1,382.8z"/>
<path class="st6" d="M459.5,390.9c0.8-2.3,2.1-4.3,3.8-6C463.1,387.5,462.6,390,459.5,390.9z"/>
<path class="st6" d="M82.2,407c-1.7-1.2-3-2.9-3.7-4.9C80.8,402.9,82.4,404.3,82.2,407z"/>
<path class="st6" d="M56.9,363.5l-3.7-4.9C56.6,358.6,57.3,360.7,56.9,363.5z"/>
<path class="st6" d="M83.8,398.1c1.7,1.3,2.9,3,3.6,4.9C85.2,402.2,83.5,400.8,83.8,398.1z"/>
<path class="st1" d="M493.5,290.9c0.3,1.6,0.8,3.3-0.9,4.5l-1.3-3.3L493.5,290.9z"/>
<path class="st6" d="M61.9,357.3l1.5,4.7C61.7,360.8,59.9,359.7,61.9,357.3z"/>
<path class="st11" d="M421,129.8l1.5-1.6c0.4,0.4,0.8,0.8,1.3,1.2c0.3,0.5,0.8,0.9,1.3,1.2c0.3,0.3,0.3,0.9,0,1.3h-1.2
	c-0.2,0.3-0.6,0.4-0.9,0.3c-0.1-0.1-0.2-0.1-0.3-0.3c-0.4-0.3-0.8-0.7-1-1.2C421.3,130.5,421,130.2,421,129.8L421,129.8z"/>
<path class="st6" d="M475.2,362l1.5-4.7C478.8,359.7,476.9,360.8,475.2,362z"/>
<path class="st6" d="M457.2,394.5c0.3-1.5,1.2-2.8,2.4-3.7C460,392.8,459.2,394.1,457.2,394.5z"/>
<path class="st6" d="M79.1,390.8c1.3,0.9,2.1,2.2,2.4,3.7C79.4,394.1,78.7,392.8,79.1,390.8z"/>
<path class="st6" d="M81.4,394.5c1.3,0.9,2.1,2.2,2.5,3.7C81.8,397.7,81.1,396.4,81.4,394.5z"/>
<path class="st6" d="M454.8,398.2c0.3-1.5,1.2-2.8,2.5-3.7C457.6,396.4,456.8,397.7,454.8,398.2z"/>
<path class="st1" d="M16.2,295.7c-1.4,0.4-1.1,1.8-1.5,2.7c-0.9-0.8-1.1-2.1-0.7-3.2C14.9,294.3,15.6,294.8,16.2,295.7L16.2,295.7z"
	/>
<path class="st6" d="M462.5,398.4c-0.2,1.5-1.2,2.9-2.5,3.7c-0.4-1.6,0.7-3.3,2.3-3.7C462.4,398.5,462.5,398.5,462.5,398.4z"/>
<path class="st1" d="M524,298.4c-0.5-0.9-0.1-2.3-1.5-2.7c0.3-0.7,1.1-1.1,1.9-0.8C525.3,296.1,524.9,297.3,524,298.4L524,298.4z"/>
<path class="st12" d="M467.2,232.1c-0.1,0.8-0.1,1.5-0.2,2.3c-0.8-0.9-1.4-1.8-0.6-3L467.2,232.1z"/>
<path class="st13" d="M118.7,128.4l-1.2-1.4l1.2-1.2c1.2-0.3,1.7,0,1.1,1.2L118.7,128.4z"/>
<path class="st14" d="M119.8,127l-1.1-1.2c0.5-0.8,1-1.5,2.1-0.9C121.3,126,120.6,126.5,119.8,127L119.8,127z"/>
<path class="st8" d="M483.8,340.3c0.1-1.4,0-2.8,1.2-3.8C485.2,338,485.6,339.5,483.8,340.3z"/>
<path class="st1" d="M71.7,234.4c-0.1-0.8-0.2-1.5-0.2-2.3l0.8-0.7C73.1,232.6,72.5,233.5,71.7,234.4z"/>
<path class="st11" d="M428.3,139.1c1,0.2,1.6,1.1,1.5,2.1C429,140.9,428.4,140.1,428.3,139.1z"/>
<path class="st6" d="M70.5,376.4c0.9,0.5,1.4,1.4,1.3,2.4C70.5,378.5,70.4,377.6,70.5,376.4z"/>
<path class="st6" d="M66.6,382.8c-0.9-0.5-1.4-1.4-1.4-2.4C66.5,380.7,66.7,381.7,66.6,382.8z"/>
<path class="st6" d="M87.4,402.9c0.3,0,0.7,0.1,0.9,0.3c0.8,0.4,0.8,1.1,0.6,1.8c-0.2,0.2-0.3,0.4-0.5,0.5
	C87.5,405,87.1,404,87.4,402.9z"/>
<path class="st6" d="M473.5,380.4c0,1-0.5,1.9-1.4,2.4C472,381.7,472.2,380.7,473.5,380.4z"/>
<path class="st15" d="M437,112.7l-1,1C435.8,112.8,436.1,112.5,437,112.7z"/>
<path class="st15" d="M436.2,114.9l0.8,1L436.2,114.9z"/>
<path class="st15" d="M441.4,116.1l-0.8-0.8L441.4,116.1z"/>
<path class="st15" d="M437.1,116.1l1,1.3L437.1,116.1z"/>
<path class="st15" d="M438.2,117.3l1.1,1.3L438.2,117.3z"/>
<path class="st15" d="M443.8,118.5l-0.9-0.8L443.8,118.5z"/>
<path class="st15" d="M439.3,118.6l1.2,1.3L439.3,118.6z"/>
<path class="st15" d="M440.4,119.9c0.4,0.5,0.8,1,1.2,1.5C441.2,120.9,440.8,120.4,440.4,119.9z"/>
<path class="st9" d="M423.7,129.3l-1.3-1.2L423.7,129.3z"/>
<path class="st10" d="M115,129.5l-1.2,1.1L115,129.5z"/>
<path class="st9" d="M425,130.5l-1.3-1.2L425,130.5z"/>
<path class="st10" d="M113.8,130.7l-1.2,1.1L113.8,130.7z"/>
<path class="st9" d="M421.6,130.6l1,1.2L421.6,130.6z"/>
<path class="st9" d="M424.9,131.8v-1.3l1.2,1.2L424.9,131.8z"/>
<path class="st10" d="M112.5,131.8l-1.2,1.2L112.5,131.8z"/>
<path class="st11" d="M434.2,140.2l-0.9-1L434.2,140.2z"/>
<path class="st10" d="M114.9,133l1-1.3L114.9,133z"/>
<path class="st11" d="M427.3,133l-1.2-1.2L427.3,133z"/>
<path class="st9" d="M422.6,131.8h1.2c0,0.4,0,0.8-0.1,1.3L422.6,131.8z"/>
<path class="st10" d="M111.3,133l-1.2,1.2L111.3,133z"/>
<path class="st10" d="M113.8,134.4l1.1-1.4L113.8,134.4z"/>
<path class="st11" d="M423.7,133l1.1,1.4L423.7,133z"/>
<path class="st11" d="M428.5,134.2l-1.2-1.2L428.5,134.2z"/>
<path class="st10" d="M110.1,134.2l-1.1,1.2L110.1,134.2z"/>
<path class="st10" d="M112.7,135.8c0.4-0.5,0.8-1,1.1-1.5C113.5,134.8,113.1,135.3,112.7,135.8z"/>
<path class="st11" d="M424.8,134.3l1.2,1.5L424.8,134.3z"/>
<path class="st11" d="M429.6,135.4l-1.1-1.2C428.9,134.7,429.3,135.1,429.6,135.4z"/>
<path class="st10" d="M109,135.5l-1.1,1.2L109,135.5z"/>
<path class="st11" d="M430.8,136.7l-1.1-1.1L430.8,136.7z"/>
<path class="st6" d="M89.5,406.8l-1.2-1.1l0.4-0.4c0.6,0.1,1,0.6,1,1.3L89.5,406.8z"/>
<path class="st6" d="M450.3,405.7c-0.4,0.4-0.8,0.8-1.2,1.2l-0.3-0.3c0-0.6,0.4-1.2,1-1.3L450.3,405.7z"/>
<path class="st10" d="M111.3,137.8l1-1.2L111.3,137.8z"/>
<path class="st11" d="M426.4,136.6l0.9,1.2L426.4,136.6z"/>
<path class="st11" d="M432,137.9l-1.1-1.1L432,137.9z"/>
<path class="st10" d="M110.3,139.3l1.1-1.5L110.3,139.3z"/>
<path class="st11" d="M427.3,137.8l1,1.4L427.3,137.8z"/>
<path class="st11" d="M433.1,139.1c-0.4-0.4-0.7-0.7-1-1.1C432.4,138.4,432.8,138.7,433.1,139.1z"/>
<path class="st11" d="M429.9,141.4l1,1.4L429.9,141.4z"/>
<path class="st1" d="M89.8,406.5c-0.3-0.4-0.7-0.8-1-1.3c-0.2-0.7-0.3-1.3-0.5-2l2.4-0.2C91.1,404.4,91.2,405.7,89.8,406.5z"/>
<path class="st16" d="M449.9,405.3l-1,1.3c-1.4-0.9-1.3-2.1-0.9-3.5l2.4,0.2C450.2,403.9,450.1,404.6,449.9,405.3L449.9,405.3z"/>
<circle class="st17" cx="270.1" cy="269.3" r="194.2"/>
<path class="st17" d="M288.1,467.2c-45.8,4.1-88.2-5.7-127-30.6c-1.1-0.7-1.8,0-2.4,0.8c-0.9,2.2-0.3,4.4,0.3,6.5c2,7,3.9,14,5.5,21
	c0.5,2.3,1.7,4.6,0.2,7c-1.6,1.6-3.9,1.9-6,2.5c-7.4,2.1-14.8,3.9-22.1,6.1c-2.2,0.7-4.9,1-5.1,4.2c2.1,1.2,4.2,2.3,6.3,3.5
	c41.8,24.2,86.8,37,135.3,36.3c11,0.1,21.6-0.2,32.4-2.4l2-0.2l1.2-0.3c2.4-0.3,8-1.6,12.3-2.5c30.9-6.3,59.4-18.4,86.3-34.5
	c-0.2-3.2-2.9-3.5-5.1-4.2c-7.4-2.3-15-4.1-22.5-6.3c-2.3-0.6-4.8-0.8-6.6-4.1c1.4-7,3.4-14.7,5.5-22.4c0.9-3.4,2.6-6.8,1.4-10.5
	c-0.6-0.8-1.3-1.5-2.4-0.8c-23.8,15.4-49.7,25.4-77.9,29.2L288.1,467.2z"/>
<path class="st1" d="M324.3,495.8l-10.5-6.9l-10.6,6.7l3.4-11.6l-8.7-7.3l11.5,0.1l4.7-11.6l4.5,11.5l11.8,0.1l-0.6,0.4l-9,6.9
	C321.8,487.9,323,491.6,324.3,495.8L324.3,495.8z"/>
<path class="st1" d="M238.2,495.8l-10.5-6.9l-10.6,6.7l3.4-11.6l-8.8-7.3l11.5,0.1l4.7-11.6l4.5,11.5l11.8,0.1l-0.6,0.4l-9,6.9
	C235.7,487.9,236.8,491.6,238.2,495.8L238.2,495.8z"/>
<path class="st1" d="M287.6,520.5l-17-11.2l-17.1,10.9c1.9-6.7,3.7-12.5,5.5-18.7l-14.2-11.8l18.6,0.1l7.6-18.8
	c2.6,6.7,4.9,12.6,7.2,18.6l19,0.1l-0.9,0.7l-14.5,11.1C283.5,507.7,285.4,513.7,287.6,520.5L287.6,520.5z"/>
<text transform="matrix(0.8851 -0.1679 0.1864 0.9825 211.6876 65.9939)" class="st1 st18 st19">无</text>
<text transform="matrix(0.8851 -0.1679 0.1864 0.9825 211.6876 65.9939)" class="st20 st18 st19">无</text>
<text transform="matrix(0.9003 3.601266e-02 -3.601266e-02 0.9994 258.7066 57.7634)" class="st1 st18 st21">敌</text>
<text transform="matrix(0.9003 3.601266e-02 -3.601266e-02 0.9994 258.7066 57.7634)" class="st20 st18 st21">敌</text>
<text transform="matrix(0.8687 0.2388 -0.2651 0.9642 306.3976 60.2933)" class="st1 st18 st19">军</text>
<text transform="matrix(0.8687 0.2388 -0.2651 0.9642 306.3976 60.2933)" class="st20 st18 st19">军</text>
<path class="st1" d="M425.2,301.2l31.9-31.9l-31.9-31.9L356,251.6c-2.2-10.9-6.4-21.4-12.4-30.8l58.7-38.7V137h-45.1l-38.4,58.3
	c-9.3-6.4-19.8-10.8-30.8-13.2l14-68l-31.9-31.9l-31.9,31.9l14,68c-11,2.3-21.5,6.8-30.8,13.2L183,137h-45.1v45.1l58.7,38.7
	c-6,9.4-10.2,19.8-12.4,30.8l-69.3-14.3L83,269.3l31.9,31.9l69.2-14.2c2.2,10.9,6.4,21.4,12.4,30.8l-58.7,38.7v45.1H183l38.4-58.3
	c9.3,6.4,19.8,10.8,30.8,13.2l-14,68l31.9,31.9l31.9-31.9l-14-68c11-2.3,21.5-6.8,30.8-13.2l38.4,58.3h45.1v-45.1l-58.7-38.7
	c6-9.4,10.2-19.8,12.4-30.8L425.2,301.2z M270.1,351.4c-44.6,0-80.8-36.8-80.8-82.2s36.2-82.2,80.8-82.2s80.8,36.8,80.8,82.2
	S314.7,351.4,270.1,351.4z"/>
<path class="st1" d="M311.5,323.7l-42.2-27.8l-42.8,27.2c4.8-16.5,9.1-31.2,13.6-46.5l-35.3-29.2l46.3,0.4l18.8-46.9
	c6.5,16.7,12.1,31.4,18,46.4c15.1,0.1,32.8,0.2,47.4,0.3l-2.3,1.7l-36.2,27.6L311.5,323.7z"/>
</svg>
