<svg viewBox="0 0 566.93 566.93" xmlns="http://www.w3.org/2000/svg"><circle cx="283.46" cy="283.46" fill="#f00" r="269.29"/><circle cx="283.46" cy="283.46" fill="none" r="260.04" stroke="#ffd911" stroke-miterlimit="10" stroke-width="7"/><circle cx="283.46" cy="283.46" fill="none" r="189.54" stroke="#ffd911" stroke-miterlimit="10" stroke-width="7"/><g fill="#fff"><text font-family="HelveticaInseratCyr-Upright, Helvetica Inserat" font-size="53" transform="matrix(-.03437621 -.99940896 .99940896 -.03437621 81.97 305.15)">Т</text><text font-family="HelveticaInseratCyr-Upright, Helvetica Inserat" font-size="53" transform="matrix(.1 -.99 .99 .1 80.95 282.12)">А</text><text font-family="HelveticaInseratCyr-Upright, Helvetica Inserat" font-size="53" transform="matrix(.23 -.97 .97 .23 84.03 253.35)">Т</text><text font-family="HelveticaInseratCyr-Upright, Helvetica Inserat" font-size="53" transform="matrix(.35 -.94 .94 .35 89.12 230.87)">А</text><text font-family="HelveticaInseratCyr-Upright, Helvetica Inserat" font-size="53" transform="matrix(.4702419 -.88253757 .88253757 .4702419 99.87 201.97)">Р</text><text font-family="HelveticaInseratCyr-Upright, Helvetica Inserat" font-size="53" transform="matrix(.59874405 -.80094042 .80094042 .59874405 114.43 174.76)">С</text><text font-family="HelveticaInseratCyr-Upright, Helvetica Inserat" font-size="53" transform="matrix(.72 -.69 .69 .72 132.99 150.09)">К</text><text font-family="HelveticaInseratCyr-Upright, Helvetica Inserat" font-size="53" transform="matrix(.82094994 -.57100017 .57100017 .82094994 153.34 130.57)">О</text><text font-family="HelveticaInseratCyr-Upright, Helvetica Inserat" font-size="53" transform="matrix(.89679553 -.44244522 .44244522 .89679553 178.79 113.17)">Е</text><text transform="matrix(.93513521 -.35429104 .35429104 .93513521 203.92 101.22)"/><text font-family="HelveticaInseratCyr-Upright, Helvetica Inserat" font-size="53" transform="matrix(.96339688 -.2680792 .2680792 .96339688 217.47 95.79)">К</text><text font-family="HelveticaInseratCyr-Upright, Helvetica Inserat" font-size="53" transform="matrix(.98596692 -.16694083 .16694083 .98596692 247.21 87.64)">А</text><text font-family="HelveticaInseratCyr-Upright, Helvetica Inserat" font-size="53" transform="matrix(.99831154 .05808675 -.05808675 .99831154 277.65 82.01)">З</text><text font-family="HelveticaInseratCyr-Upright, Helvetica Inserat" font-size="53" transform="matrix(.97088396 .2395503 -.2395503 .97088396 308.4 84.22)">А</text><text font-family="HelveticaInseratCyr-Upright, Helvetica Inserat" font-size="53" transform="matrix(.93 .36 -.36 .93 336.33 90.93)">Ч</text><text font-family="HelveticaInseratCyr-Upright, Helvetica Inserat" font-size="53" transform="matrix(.8741963 .48557269 -.48557269 .8741963 365.09 102.05)">Ь</text><text font-family="HelveticaInseratCyr-Upright, Helvetica Inserat" font-size="53" transform="matrix(.80385686 .59482279 -.59482279 .80385686 391.33 116.82)">Е</text><text transform="matrix(.74384513 .66835202 -.66835202 .74384513 413.48 133.68)"/><text font-family="HelveticaInseratCyr-Upright, Helvetica Inserat" font-size="53" transform="matrix(.67 .74 -.74 .67 424.6 143.19)">В</text><text font-family="HelveticaInseratCyr-Upright, Helvetica Inserat" font-size="53" transform="matrix(.55527996 .83166349 -.83166349 .55527996 445.21 166.1)">О</text><text font-family="HelveticaInseratCyr-Upright, Helvetica Inserat" font-size="53" transform="matrix(.41230955 .91104382 -.91104382 .41230955 462.38 191.77)">Й</text><text font-family="HelveticaInseratCyr-Upright, Helvetica Inserat" font-size="53" transform="matrix(.24902797 .96849629 -.96849629 .24902797 476.1 222.62)">С</text><text font-family="HelveticaInseratCyr-Upright, Helvetica Inserat" font-size="53" transform="matrix(.0812427 .99669435 -.99669435 .0812427 483.68 252.54)">К</text><text font-family="HelveticaInseratCyr-Upright, Helvetica Inserat" font-size="53" transform="matrix(-.07201969 .99740321 -.99740321 -.07201969 486.06 280.64)">О</text><text transform="matrix(-.18875266 .98202466 -.98202466 -.18875266 483.27 311.33)"/><text transform="matrix(-.26 .97 -.97 -.26 480.47 325.63)"/><text transform="matrix(-.323422 .94625483 -.94625483 -.323422 476.66 339.68)"/><text transform="matrix(-.39040979 .92064119 -.92064119 -.39040979 471.94 353.5)"/><text font-family="HelveticaInseratCyr-Upright, Helvetica Inserat" font-size="53" transform="matrix(.90408255 .42735786 -.42735786 .90408255 167.4 499.82)">А</text><text font-family="HelveticaInseratCyr-Upright, Helvetica Inserat" font-size="53" transform="matrix(.9580729 .28652455 -.28652455 .9580729 199.04 514.37)">Р</text><text font-family="HelveticaInseratCyr-Upright, Helvetica Inserat" font-size="53" transform="matrix(.98927233 .14608303 -.14608303 .98927233 232.45 524.07)">И</text><text font-family="HelveticaInseratCyr-Upright, Helvetica Inserat" font-size="53" transform="matrix(1 -.02 .02 1 269.86 528.96)">А</text><text font-family="HelveticaInseratCyr-Upright, Helvetica Inserat" font-size="53" transform="matrix(.98749648 -.15764104 .15764104 .98749648 304.66 528.09)">Д</text><text font-family="HelveticaInseratCyr-Upright, Helvetica Inserat" font-size="53" transform="matrix(.95481269 -.29720823 .29720823 .95481269 341.82 521.67)">Н</text><text font-family="HelveticaInseratCyr-Upright, Helvetica Inserat" font-size="53" transform="matrix(.90423167 -.42704225 .42704225 .90423167 374.94 510.97)">А</text></g><path d="m295.6 271.21 79.8-31.93-9.7-3.96-69.85 35.79 80.32-44.09-8.04-3.7-72.53 47.89 91.81-65.25-9.84-2.3-81.97 67.55 91.81-78.53v-12.26z" fill="#fffefe"/><path d="m295.8 271.38 30.86-80.23 4.09 9.65-34.86 70.33 43.01-80.91 3.81 8-46.91 73.16 64.02-92.67 2.43 9.8-66.45 82.87 77.3-92.85 12.26-.16z" fill="#fffefe"/><path d="m269.25 271.21-79.81-31.93 9.71-3.96 69.85 35.79-80.33-44.09 8.05-3.7 72.53 47.89-91.81-65.25 9.83-2.3 81.98 67.55-91.81-78.53v-12.26z" fill="#fffefe"/><path d="m269.05 271.38-30.86-80.23-4.09 9.65 34.85 70.33-43.01-80.91-3.81 8 46.92 73.16-64.03-92.67-2.43 9.8 66.46 82.87-77.31-92.85-12.26-.16z" fill="#fffefe"/><path d="m295.47 296.99 79.8 31.92-9.7 3.96-69.85-35.78 80.32 44.08-8.04 3.7-72.53-47.88 91.81 65.25-9.84 2.3-81.97-67.55 91.81 78.53v12.26z" fill="#fffefe"/><path d="m295.67 296.82 30.86 80.22 4.09-9.65-34.86-70.32 43.02 80.9 3.81-8-46.92-73.15 64.02 92.67 2.43-9.81-66.45-82.86 77.3 92.84 12.26.16z" fill="#fffefe"/><path d="m269.12 296.99-79.81 31.92 9.71 3.96 69.85-35.78-80.33 44.08 8.05 3.7 72.53-47.88-91.81 65.25 9.83 2.3 81.98-67.55-91.81 78.53v12.26z" fill="#fffefe"/><path d="m268.92 296.82-30.86 80.22-4.09-9.65 34.85-70.32-43.01 80.9-3.81-8 46.92-73.15-64.03 92.67-2.43-9.81 66.46-82.86-77.31 92.84-12.26.16z" fill="#fffefe"/><path d="m430.48 228.43-143.98 52 52-143.98h-110.07l52 143.98-143.98-52v110.07l143.98-52-52 143.98h110.07l-52-143.98 143.98 52z" fill="#ffd911"/></svg>