<?xml version="1.0" encoding="utf-8"?>
<!-- Generator: Adobe Illustrator 23.0.1, SVG Export Plug-In . SVG Version: 6.00 Build 0)  -->
<svg version="1.1" id="Capa_1" xmlns="http://www.w3.org/2000/svg" xmlns:xlink="http://www.w3.org/1999/xlink" x="0px" y="0px"
	 viewBox="0 0 544.6 544.6" style="enable-background:new 0 0 544.6 544.6;" xml:space="preserve">
<style type="text/css">
	.st0{fill:#F6F6F6;stroke:#B9DB01;stroke-width:6;stroke-miterlimit:10;}
	.st1{fill:#1D1D1B;}
	.st2{fill:#B9DB01;}
	.st3{fill:#F6F6F6;}
</style>
<circle class="st0" cx="272.3" cy="272.3" r="269.3"/>
<g>
	<path class="st1" d="M66.8,170.4c-2.3-0.8-4.6-1.8-6.7-3.1c-2.3-1.4-4.4-2.9-6.3-4.7c2.8-5.9,5.8-11.6,9.2-17.1
		c3.4-5.6,6.9-11.1,10.8-16.5l4.8,2.9c-2.8,4.1-5.6,8.1-8.7,13.3c-3,4.9-5.1,8.9-7.3,13.1c0.6,0.5,1.3,1,2,1.5
		c0.7,0.4,1.3,0.7,2.1,1c5.9-8.4,11-17.4,18-25.4c2.4,0.9,4.7,2,6.9,3.3c2.3,1.4,4.5,3,6.5,4.9c-2.8,6-5.9,11.8-9.3,17.4
		c-3.4,5.5-6.9,11.1-10.8,16.4l-4.8-2.9c2.9-4.2,5.6-8.3,8.9-13.7c3-4.9,5.2-8.9,7.2-12.9c-0.7-0.6-1.5-1.2-2.3-1.7
		c-0.8-0.5-1.6-0.8-2.4-1.2C78.9,153.5,73.7,162.3,66.8,170.4L66.8,170.4z"/>
	<path class="st1" d="M80.9,119.2l2.3-2.4c4.8-5.6,8.3-9.5,10.8-12.2c4.4-4.7,9-9.1,13.8-13.3c5.4,3.4,10.1,7.9,13.9,13.1
		c-4,5-8.3,10-12.6,14.5c-1.8,1.9-4.2,4.4-7.4,7.8l6.5,6.1l-6.1,6.5L80.9,119.2z M112,107c-0.9-1.1-1.8-2.2-2.8-3.2
		c-1-1-2.2-1.8-3.3-2.6c-1.8,1.7-5.4,5.3-7.4,7.5c-2.8,3-4.9,5.3-7.2,8l6.3,5.9c2.5-2.4,4.8-4.6,7.6-7.6S109.8,109.7,112,107z"/>
	<path class="st1" d="M140.4,102.4l-6.9,5.6L115,85.3l6.9-5.6L140.4,102.4z"/>
	<path class="st1" d="M156.7,74.2c2.8-1.7,5.3-3.2,7.8-4.9c-0.6-1.4-1.3-2.8-2.1-4.1c-0.7-1.2-1.6-2.4-2.5-3.5
		c-3.4,1.8-6.5,3.6-10.3,5.8c-3.6,2.1-6.6,3.9-9.8,6l12,20.4l-7.6,4.5l-15-25.2c5.7-3.7,11.5-7.4,17.3-10.8
		c5.8-3.5,11.9-6.6,18.1-9.3c1.9,2.1,3.7,4.5,5.2,6.9c1.9,3,3.4,6.2,4.6,9.6c-2.4,1.6-5,3.5-7.6,5.2l13.8,1.9l-9.7,5.8l-21.6-2.9
		l-0.4-0.8C151.8,77.1,154.3,75.6,156.7,74.2z"/>
	<path class="st1" d="M206.2,37l22,23.5l-8.5,2.8l-4.6-4.8l-23.5,7.7l-0.8,6.6l-8.5,2.8l3.8-32c3.5-1.5,6.5-2.6,9.9-3.7
		S202.4,37.8,206.2,37z M194,47.4l-1.5,12.1l18-5.9l-8.4-8.8c-1,0.2-2.9,0.7-4.1,1.1S194.9,47,194,47.4z"/>
	<path class="st1" d="M236.6,30.4l0.6,5.3c0.6,5.6,1.4,11.9,2.3,17.4c3.2,0.1,6.4-0.1,9.6-0.5c3.2-0.3,6.4-0.9,9.5-1.6
		c0-1.2,0-2.3,0-3.4l8.9-1c0.2,3.2,0.3,6.3,0.1,9.5c-5.9,1.3-11.8,2.3-17.8,2.9c-6,0.7-12,1.1-18,1.1c-1.4-7.5-2.6-15.7-3.5-23.3
		l-0.6-5.3L236.6,30.4z"/>
	<path class="st1" d="M322.7,56.3c0.4-1.3,0.8-2.6,1.1-4l9.5,1.7c-0.6,3.1-1.5,6.2-2.5,9.3c-7-0.2-13.9-0.9-20.7-2.2
		c-6.9-1.2-13.8-3-20.4-5.2c0.4-9.1,2-18.1,4.8-26.8c7,0.2,14,1,20.9,2.2c6.9,1.2,13.6,2.8,20.3,4.8c-0.1,3.3-0.4,6.6-0.9,9.8
		l-9.6-1.7c0.2-1.3,0.3-2.7,0.4-4.1c-3.7-1.1-7.5-1.9-11.3-2.6c-3.9-0.7-7.8-1.3-11.7-1.6c-0.7,2.7-1.4,5.2-1.8,8s-0.8,5.3-1,8.1
		c3.8,1.1,7.6,2,11.5,2.6C315,55.5,318.9,56,322.7,56.3L322.7,56.3z"/>
	<path class="st1" d="M356.2,74.8c-6.6-2.8-13.1-6-19.3-9.5c1.5-4.5,3.1-8.7,4.9-13s3.8-8.3,6-12.6c6.9,2.1,13.6,4.5,20.3,7.3
		c6.6,2.8,13.1,6,19.3,9.5c-1.5,4.5-3,8.7-4.9,13.1s-3.8,8.3-6,12.6C369.6,80.1,362.8,77.7,356.2,74.8z M347.6,63.6
		c3.6,1.9,7.4,3.7,11.1,5.3s7.6,3.1,11.5,4.3c1.3-2.4,2.6-4.9,3.6-7.4c1.1-2.5,2-5.1,2.8-7.7c-3.6-1.9-7.4-3.7-11.1-5.3
		s-7.7-3-11.5-4.3c-1.3,2.4-2.5,4.9-3.6,7.4C349.3,58.5,348.4,60.9,347.6,63.6L347.6,63.6z"/>
	<path class="st1" d="M408,87.3c2.6,1.9,5,3.6,7.6,5.2c1.1-1.1,2-2.3,3-3.6c0.8-1.2,1.6-2.4,2.3-3.7c-3-2.5-5.9-4.6-9.4-7.1
		c-3.4-2.4-6.3-4.5-9.5-6.6l-13.8,19.1l-7.2-5.2l17-23.7c5.7,3.7,11.3,7.6,16.9,11.6c5.5,3.9,10.8,8.2,15.8,12.9
		c-1.2,2.6-2.6,5.1-4.3,7.5c-2,2.9-4.3,5.6-6.9,8.1c-2.4-1.6-5.2-3.2-7.8-4.9l3.8,13.4l-9.2-6.6l-6-20.9l0.5-0.7
		C403.4,84,405.8,85.7,408,87.3L408,87.3z"/>
	<path class="st1" d="M440.3,93.8l2.2,2.4c5.2,5.2,8.8,9,11.3,11.8c4.3,4.7,8.4,9.7,12.1,14.9c-3.9,5.1-8.7,9.5-14.1,12.8
		c-4.7-4.4-9.3-9-13.5-13.7c-1.8-2-4.1-4.5-7.1-8l-6.6,6l-6-6.6L440.3,93.8z M449.9,125.8c1.2-0.8,2.3-1.6,3.4-2.6c1-1,2-2,2.9-3.1
		c-1.5-2-4.8-5.8-6.8-8c-2.7-3-4.9-5.3-7.4-7.8l-6.4,5.8c2.1,2.7,4.2,5.1,7,8.2C445.2,121.3,447.4,123.4,449.9,125.8L449.9,125.8z"
		/>
	<path class="st1" d="M459.6,139.7c1.8-1.7,3.8-3.1,5.9-4.4c2.3-1.3,4.7-2.4,7.1-3.3c3.8,5.2,7.4,10.6,10.7,16.2
		c3.3,5.6,6.5,11.4,9.3,17.3l-4.8,2.8c-2.3-4.4-4.5-8.8-7.5-14c-2.9-4.9-5.4-8.7-8.1-12.6c-0.8,0.3-1.6,0.7-2.3,1.1
		c-0.7,0.4-1.3,0.8-1.9,1.3c4.6,9.2,10,18,13.8,28c-1.9,1.7-4,3.2-6.2,4.5c-2.3,1.4-4.8,2.5-7.4,3.4c-3.9-5.3-7.5-10.8-10.8-16.5
		c-3.3-5.6-6.4-11.3-9.3-17.3l4.8-2.8c2.3,4.5,4.6,8.9,7.8,14.3c2.9,4.9,5.4,8.8,7.9,12.5c1.7-0.6,3.3-1.6,4.8-2.8
		C468.6,158.4,463.5,149.6,459.6,139.7L459.6,139.7z"/>
	<path class="st1" d="M28.3,292.2c7.3-1,15.8-2,23.3-2.7c1.5,6.3,2.7,12.6,3.6,19c0.9,6.4,1.4,12.9,1.7,19.3
		c-7.3,1.4-15.8,2.7-23.1,3.7l-1-7.2c5.8-0.8,12.7-1.8,18.5-2.9c-0.2-2.8-0.4-5.7-0.8-8.5l-18.9,2.6l-1-7.2l18.9-2.6
		c-0.5-2.8-1-5.6-1.6-8.4c-5.8,0.5-12.8,1.4-18.6,2.1L28.3,292.2z"/>
	<path class="st1" d="M37.7,344.2l-1.6-6l18.1-4.8l1.6,6L37.7,344.2z"/>
	<path class="st1" d="M55.1,359.8l8.7,3.5l2.3,6.3L54.4,365l-5.8,11.4l-2.3-6.3l4.2-8.5c-0.1-0.6-0.3-1.2-0.5-1.8
		c-0.2-0.6-0.5-1.1-0.7-1.7l-8.7-3.8l-2.3-6.3l11.7,5l6-11.1l2.3,6.3l-4.4,8.3c0,0.3,0.4,1.3,0.5,1.7
		C54.6,358.8,54.9,359.3,55.1,359.8L55.1,359.8z"/>
	<path class="st1" d="M66.4,393.9l-6.1-11.8l-3,1.5c1.2,2.9,2.7,5.9,4.1,8.6s3.2,6,4.9,8.6l-3.8,2c-2.2-3.6-4.1-7.1-6-10.8
		c-2-3.9-4-8-5.8-12l16.5-8.6c2.3,4,4.7,8.3,6.9,12.4c1.8,3.4,3.4,6.7,5,10.3l-3.8,2c-1.3-3.1-3.1-6.6-4.6-9.5
		c-1.3-2.6-2.8-5.2-4.3-7.6l-3.1,1.6l6.1,11.8L66.4,393.9z"/>
	<path class="st1" d="M95.1,418.8c-3,5.2-8.2,8.9-14.1,10c-3.1-3.2-6-6.6-8.5-10.3c-1.6-2.3-3.1-4.5-7.4-10.9l15.3-10.8
		c4.5,6,6.1,8.1,7.9,10.6C90.9,411,93.2,414.8,95.1,418.8z M80.5,421.8c3.3-1,6.3-3,8.3-5.9c-1.2-2.1-2.5-4.2-4-6.1
		c-1.6-2.3-2.8-3.8-4.3-5.5l-8.3,5.9c1.1,2,2.4,4,3.8,5.9C77.4,418.1,78.9,420,80.5,421.8z"/>
	<path class="st1" d="M95.4,447.2c4.9-5.5,10.8-11.8,15.9-17.1c5.2,3.8,10.3,7.8,15.1,12.1c4.8,4.3,9.4,8.8,13.8,13.6
		c-4.6,5.8-10.2,12.3-15.1,17.8l-5.5-4.9c3.9-4.4,8.5-9.6,12.1-14.2c-1.9-2-4-4-6.1-5.9L113,462.8l-5.4-4.9l12.7-14.3
		c-2.2-1.9-4.4-3.7-6.6-5.3c-4.1,4.1-8.8,9.3-12.7,13.7L95.4,447.2z"/>
	<path class="st1" d="M151.8,481.4l-11.2-7.1l-1.8,2.8c2.4,1.9,5.3,3.8,7.9,5.4s5.8,3.6,8.5,5l-2.3,3.6c-3.7-2.1-7.1-4.1-10.6-6.3
		c-3.7-2.4-7.5-4.9-11.1-7.5l10-15.7c4,2.3,8.2,4.8,12.1,7.3c3.2,2,6.3,4.1,9.4,6.4l-2.3,3.6c-2.6-2-6-4.2-8.7-6
		c-2.4-1.5-5-3.1-7.6-4.5l-1.9,2.9l11.2,7.1L151.8,481.4z"/>
	<path class="st1" d="M172.5,490.6c2.8,1.3,5.1,2.4,7.5,3.3c0.5-0.7,0.9-1.5,1.3-2.4c0.4-0.8,0.7-1.6,0.9-2.4
		c-2-1.2-3.9-2.2-6.4-3.3c-2.1-1-4.3-1.9-6.5-2.7l-6.2,13.4l-5.6-2.6l7.9-17c4.1,1.6,8.1,3.4,12.1,5.3c4,1.8,7.9,3.9,11.6,6.3
		c-1,4.1-2.8,7.9-5.3,11.3c-1.6-0.7-3.4-1.4-5.1-2.1l3.7,7.8l-7.1-3.3l-6.1-12.4l0.2-0.5L172.5,490.6z"/>
	<path class="st1" d="M209.2,509.2c0.3-0.7,0.6-1.4,0.9-2.2l6.2,1.9c-0.7,2-1.4,3.9-2.3,5.7c-8.8-1.3-17.3-3.9-25.3-7.7
		c0.9-5.7,2.6-11.3,5-16.5c4.4,0.6,8.7,1.6,12.9,2.9c4.2,1.2,8.4,2.8,12.4,4.6c-0.3,2.1-0.8,4.2-1.3,6.3l-6.2-1.9
		c0.2-0.8,0.3-1.5,0.5-2.3c-2.2-0.9-4.4-1.7-6.7-2.4c-2.3-0.7-4.6-1.3-6.9-1.7c-0.6,1.5-1.1,3-1.6,4.6c-0.5,1.6-0.8,3.1-1.2,4.7
		C200,506.8,204.5,508.2,209.2,509.2L209.2,509.2z"/>
	<path class="st1" d="M240.4,512.2l-13.1-2.2l-0.5,3.3c3,0.8,6.3,1.4,9.4,1.9s6.7,1,9.8,1.3l-0.7,4.3c-4.2-0.5-8.1-1-12.2-1.7
		c-4.4-0.7-8.8-1.6-13.1-2.5l3-18.4c4.6,0.5,9.4,1.2,14,2c3.8,0.6,7.4,1.3,11.2,2.2l-0.7,4.3c-3.2-0.8-7.1-1.5-10.4-2.1
		c-2.8-0.5-5.9-0.9-8.7-1.1l-0.6,3.4l13.1,2.2L240.4,512.2z"/>
	<path class="st1" d="M278.4,522.3l-6.2-0.2l-12.6-14.5c-0.8-0.1-1.5-0.1-2.3-0.1l-0.4,14.2l-6.2-0.2l0.6-18.7h0.8
		c3.6,0.1,7.1,0.3,11.5,0.7l9,10.7l0.3-10.8l6.2,0.2L278.4,522.3z"/>
	<path class="st1" d="M303.5,501.2l10.5,17.7l-6.2,0.7l-2-3.3l-15.3,1.7l-1.2,3.7l-6.2,0.7l6.4-19.5c2.5-0.5,4.6-0.8,7-1
		S300.9,501.3,303.5,501.2L303.5,501.2z M294.3,506.5l-2.3,6.9l11.4-1.3l-3.8-6.2c-0.9,0-1.8,0.1-2.7,0.2
		C296,506.2,295.2,506.3,294.3,506.5L294.3,506.5z"/>
	<path class="st1" d="M328.2,505.9c2.9-0.7,5.4-1.4,7.9-2.1c-0.1-0.9-0.2-1.8-0.5-2.7c-0.2-0.8-0.5-1.6-0.8-2.4
		c-2.3,0.4-4.4,0.8-7,1.4c-2.3,0.6-4.5,1.2-6.8,2l3.6,14.3l-6,1.5l-4.6-18.2c4.2-1.3,8.5-2.4,12.8-3.5c4.3-1.2,8.6-2,13-2.4
		c1.7,3.8,2.8,7.8,3.1,12c-1.7,0.5-3.5,1-5.3,1.6l7.8,3.7l-7.6,1.9l-12.5-5.8l-0.1-0.5L328.2,505.9z"/>
	<path class="st1" d="M362.3,492.9l2.3-9.4l6.2-2.5l-3.5,14.8c-1.3,0.6-2.2,1.1-3.4,1.6l2.3,5.7l-6.4,2.5l-2.3-5.7
		c-1.3,0.5-2.2,0.8-3.5,1.2l-12.8-8.2l6.2-2.5l8.2,5.2c0.8-0.2,2.4-0.8,3.4-1.2S361.6,493.3,362.3,492.9L362.3,492.9z"/>
	<path class="st1" d="M414.7,469.5c-0.5-1-1-2-1.7-3l6.5-4.5c1.5,2.2,2.7,4.5,3.9,6.8c-8.4,7.8-17.9,14.3-28.2,19.4
		c-2.5-2.8-4.8-5.7-6.9-8.8c-2.1-3.1-4-6.3-5.7-9.6c4.2-3.9,8.7-7.5,13.5-10.8c4.7-3.2,9.5-6.2,14.6-8.9c1.8,2,3.5,4.1,5.1,6.2
		l-6.6,4.5c-0.7-0.9-1.4-1.8-2.1-2.6c-2.8,1.5-5.5,3.2-8,5c-2.7,1.8-5.3,3.7-7.7,5.8c1.1,2,2.2,3.8,3.5,5.7s2.6,3.5,4.1,5.3
		c2.8-1.5,5.6-3.3,8.2-5.1C409.7,473.4,412.3,471.5,414.7,469.5L414.7,469.5z"/>
	<path class="st1" d="M440.3,454.8c-3.3,3.2-6.9,6.2-10.6,9c-2.3-2-4.3-4-6.4-6.1s-4-4.3-5.9-6.6c3-3.6,6.1-7,9.5-10.2
		c3.3-3.2,6.9-6.2,10.6-9c2.3,2,4.3,4,6.4,6.1s4,4.3,5.9,6.6C446.8,448.2,443.6,451.6,440.3,454.8z M431.5,456.5
		c1.9-1.5,3.9-3.2,5.7-4.9s3.5-3.5,5.1-5.4c-2-2.6-4.2-4.9-6.7-7c-1.9,1.5-3.9,3.2-5.6,4.9s-3.6,3.6-5.2,5.4c1,1.3,2.1,2.5,3.2,3.7
		C429.1,454.4,430.3,455.5,431.5,456.5L431.5,456.5z"/>
	<path class="st1" d="M454.7,440.3c-4.6-3.5-9.8-7.7-14.2-11.5c5.5-8.8,11.8-17.1,19-24.6c4.8,3.3,10.1,7.3,14.7,10.8l-3.8,4.9
		c-3.5-2.7-7.8-6-11.5-8.5c-1.4,1.6-2.8,3.2-4.1,4.8l11.5,8.9l-3.8,4.9l-11.5-8.9c-1.2,1.7-2.5,3.5-3.6,5.2
		c3.4,2.9,7.6,6.2,11.1,8.9L454.7,440.3z"/>
	<path class="st1" d="M461.2,400.4l1.2-2.1c2.2-4.2,3.7-7.1,4.8-9.1c2.1-3.6,4.3-7.1,6.8-10.5c2,0.7,3.9,1.5,5.7,2.6
		c1.8,1,3.5,2.2,5.1,3.6c-1.8,3.8-3.7,7.5-5.8,11.1c-0.8,1.3-1.8,3.1-3.3,5.6l4.7,2.7l-3.1,5.4L461.2,400.4z M478.6,388.4
		c-1.4-1.1-2.8-1.9-4.4-2.5c-0.8,1.2-2.5,3.9-3.4,5.5c-1.2,2.2-2.1,3.8-3,5.7l4.5,2.6c1.2-1.7,2.1-3.3,3.4-5.5
		S477.7,390.2,478.6,388.4L478.6,388.4z"/>
	<path class="st1" d="M482.6,357.4l20.5-0.8l-2.4,5.7l-3.9,0.2l-5.8,14.2l2.6,2.9l-2.4,5.8l-14-15c0.8-2.4,1.5-4.5,2.4-6.6
		S481.5,359.7,482.6,357.4z M482.9,368l4.9,5.3l4.4-10.6l-7.3,0.3c-0.4,0.8-0.8,1.6-1.1,2.4C483.5,366.3,483.2,367.2,482.9,368
		L482.9,368z"/>
	<path class="st1" d="M511.3,325.1l-1.5,6l-16.9,9.2c-0.3,0.8-0.4,1.4-0.6,2.2l13.7,3.5l-1.5,6l-18.1-4.6l0.2-0.8
		c0.9-3.5,1.8-6.9,3.1-11.1l12.4-6.4l-10.5-2.7l1.5-6L511.3,325.1z"/>
	<path class="st1" d="M503.6,299.9l-7.2-6.5l0.7-6.6l11.4,10.1c0,1.4-0.1,2.4-0.2,3.7l6.1,0.6l-0.7,6.8l-6.1-0.6
		c-0.2,1.3-0.3,2.4-0.6,3.7l-13.3,7.5l0.7-6.6l8.4-4.8c0.1-0.8,0.4-2.5,0.5-3.6S503.6,300.7,503.6,299.9L503.6,299.9z"/>
</g>
<path class="st2" d="M447.5,231.7c-1.5-18.2-5.6-36.2-12.1-53.3c0-0.1-0.1-0.3-0.1-0.4c-0.3-0.9-0.8-2.5-2.4-2.5
	c-0.2,0-0.4,0-0.5,0.1c-0.8,0.2-1.5,0.7-1.8,1.5c-0.3,0.9,0,1.9,0.6,2.6c0.1,0.1,0.1,0.2,0.1,0.2c2.8,10,4.4,20.4,4.7,30.8
	c0.3,8.8-0.9,17.5-2.3,26.3c-1.1,7.2-2.7,14.8-6.4,21.7c-2.1,3.8-4.2,6.2-7.1,7.6c-1.1,0.6-2.2,0.9-3.5,0.9c-2.2,0-4.1-1.2-5.3-3.5
	c-1.7-3-1.9-6.5-1.9-9.7c-0.2-7.1-0.9-14.2-2.3-21.2c-3.2-19-11.5-37.6-25.2-56.8c-6.7-9.4-14.6-17.9-23.4-25.3
	c-1.5-1.2-2.9-2.4-4.3-3.7c-6.2-5.2-12.5-10.7-19.8-14.8c-2.3-1.3-4.5-2.6-6.8-4c-3.4-2.1-7-4.2-10.6-6c-11.2-5.5-23-9.8-35.1-12.7
	c-8.7-2.2-17.6-3.8-26.5-4.8c-6.1-0.6-12.3-0.8-18.2-0.8c-13.1,0-26.1,1.4-38.9,4.2c-15.7,3.4-30.8,9-45,16.6h-0.1
	c-0.6,0.1-1.2,0.5-1.6,1c-0.3,0.5-0.4,1.1-0.2,1.7c0.3,0.8,1,1.3,2.3,1.3c0.2,0,0.5,0,0.7,0c0.5-0.1,0.9-0.2,1.3-0.4l0.5-0.2
	c12.4-4,25-7.2,37.7-9.6c6.4-1.1,12.9-1.7,19.4-1.7c13.7,0,27.3,2.7,40.1,7.8c4.5,1.8,7.9,3.7,10.2,7.1c0.9,1.2,1.3,2.8,1,4.3
	c-0.5,1.4-1.6,2.4-3,2.9c-2.4,1.3-5,2.1-7.6,2.5c-13.4,1.2-26.1,4.2-37.9,7.3c-20,5.2-36.9,12.8-51.6,23
	c-43.8,30.3-69.4,80.7-67.9,134c0.4,19.7,4.6,39.8,12.8,61.6c0,0.1,0.1,0.2,0.1,0.4c0.2,0.7,0.6,2.4,2.3,2.4c0.2,0,0.5,0,0.7-0.1
	c2.1-0.7,1.3-3.1,1.1-3.9l-0.1-0.2c-4.3-14.1-5.9-28.8-4.6-43.5c1.1-12.2,2.6-24,7.5-35c1.4-3.4,3.7-6.3,6.7-8.5
	c1.3-1,2.9-1.5,4.6-1.6c2.7,0,4.8,1.8,6.1,5c0.8,2.1,1.2,4.4,1.2,6.6c0.1,7.1,0.8,14.3,2,21.3c4.7,26.3,16.6,50.1,35.6,70.8
	c24.6,26.8,54,44.8,87.4,53.5c15,4.1,30.5,6.2,46.1,6.3h2.5h2.3c8.4-0.1,16.8-0.8,25.1-2.3c18.5-3,36.5-8.9,53.2-17.5
	c0.1-0.1,0.2-0.1,0.3-0.1c0.8-0.2,1.5-0.8,1.9-1.5c0.2-0.6,0.2-1.2-0.1-1.8c-0.4-0.7-1.2-1.2-2-1.2c-0.6,0-1.2,0.2-1.8,0.4l-0.3,0.1
	l-5.1,1.5c-3.8,1.2-7.8,2.4-11.8,3.4c-15.5,4.1-28.2,6-39.9,6c-7.9,0-15.8-0.9-23.4-2.9l-2.4-0.6c-7.7-1.9-15-3.7-21.1-8.7
	c-2.9-2.3-4-4.3-3.6-6.5s2-3.5,5.6-4.4c5.6-1.3,11.4-2.5,16.9-3.6c7.6-1.6,15.4-3.2,23.1-5.1c18.9-4.9,34.8-11.2,48.6-19.4
	c11.1-6.6,20.6-15.3,30-24.4c9-8.6,15.9-19,20.8-27.1c3.3-5.5,6.2-11.2,8.7-17l0.4-0.8c2.5-5.5,5.1-11.2,7.1-17.1
	C447.1,272.4,449.2,253.3,447.5,231.7L447.5,231.7z M438.1,289.2c-2,5.7-4.6,11.4-7,16.8l-0.4,0.8c-2.5,5.7-5.4,11.3-8.6,16.7
	c-4.9,7.9-11.6,18.1-20.4,26.5c-9.3,9-18.6,17.6-29.5,24c-13.6,8-29.2,14.2-47.9,19c-7.6,2-15.4,3.6-23,5.1
	c-5.6,1.1-11.3,2.3-17,3.6c-3,0.7-7.2,2.2-7.9,6.9c-0.7,4.4,2.4,7.4,4.7,9.3c6.6,5.4,14.6,7.3,22.3,9.3l2.4,0.6c7.9,2,16,3,24.2,2.9
	c12,0,24.9-1.9,40.6-6.1c2.9-0.8,5.7-1.6,8.6-2.5c-14.1,6.4-28.9,10.8-44.2,13.3c-8.1,1.4-16.4,2.2-24.6,2.3h-2.3h-2.5
	c-15.3-0.1-30.6-2.1-45.4-6.2c-32.8-8.5-61.7-26.3-85.9-52.6c-18.5-20.2-30.3-43.5-34.8-69.2c-1.2-6.9-1.8-13.9-1.9-20.9
	c0-2.6-0.5-5.2-1.4-7.7c-1.7-4.4-4.9-6.9-8.9-6.9c-2.2,0.1-4.4,0.8-6.2,2.1c-3.5,2.4-6.2,5.8-7.8,9.7c-5.1,11.4-6.6,23.5-7.7,35.9
	c-0.8,9.4-0.5,18.8,1,28.1c-4.4-14.5-6.8-29.5-7.3-44.7c-1.4-52.3,23.7-101.7,66.7-131.4c14.4-10,31-17.4,50.6-22.5
	c11.6-3,24.2-6,37.4-7.2c3-0.5,5.9-1.4,8.6-2.8c2.2-0.8,3.9-2.6,4.6-4.8c0.6-2.4,0.1-4.8-1.4-6.8c-2.8-4.3-7.2-6.5-11.6-8.3
	c-13.1-5.3-27.1-8-41.2-8c-6.7,0-13.3,0.6-19.9,1.7c-9.5,1.7-18.9,3.9-28.1,6.6c10.8-4.8,22.1-8.5,33.6-11.1
	c12.6-2.7,25.4-4.1,38.2-4.1c5.9,0,11.9,0.3,18,0.8c8.8,0.9,17.5,2.5,26,4.7c11.9,2.8,23.5,7,34.5,12.4c3.5,1.8,7,3.9,10.4,5.9
	c2.2,1.3,4.5,2.7,6.8,4c7.1,4,13.3,9.3,19.4,14.4c1.4,1.2,2.9,2.5,4.4,3.7c8.7,7.3,16.3,15.6,22.9,24.8c13.5,18.8,21.6,37,24.7,55.5
	c1.3,6.8,2,13.8,2.2,20.7c0,3.6,0.3,7.5,2.3,11.2c1.8,3.3,4.6,5.1,8,5.1c1.7,0,3.3-0.4,4.8-1.2c3.4-1.7,6-4.5,8.4-8.9
	c3.9-7.3,5.5-15.2,6.7-22.6c1.4-9,2.7-17.8,2.4-26.9c-0.2-5.7-0.7-11.3-1.6-16.9c3.7,12.5,6.1,25.4,7.2,38.4
	C446.2,253.1,444.1,271.8,438.1,289.2L438.1,289.2z"/>
<path class="st2" d="M446,231.8c1.6,19.7,0,39.1-6.5,57.9c-2.1,6.1-4.8,11.9-7.5,17.8c-2.5,5.8-5.4,11.4-8.6,16.8
	c-5.9,9.6-12.4,19-20.6,26.9c-8.5,8.1-17.1,16.2-27.1,22.5l0.5,0.8c-21.1,13.7-45.3,22-70.3,24.3c-7,1.5-14.1,2.9-21.1,4.5
	c-3.2,0.8-6.2,2.1-6.7,5.6c-0.5,3.4,1.6,5.9,4.2,7.9c7,5.7,15.7,7.4,24.1,9.6c21.7,5.5,43,2.4,64.1-3.1c5.7-1.5,11.3-3.3,16.9-5
	c0.8-0.2,1.9-0.7,2.3,0c0.5,1-0.8,1.1-1.4,1.4c-16.5,8.6-34.3,14.4-52.7,17.4c-9,1.5-18.1,2.3-27.2,2.2c-16.3,0.2-32.5-1.9-48.3-6.2
	c-34.2-8.9-62.9-27.2-86.6-53c-0.9-0.9-1.7-1.9-2.5-2.8l-1.3,1c-5.3-6.2-10-12.8-14.1-19.8c-6.1-10.5-10.7-21.7-13.8-33.5
	c-1.4-4.9-2.6-9.9-3.5-14.9c-1.2-7-1.8-14-1.9-21.1c0-2.4-0.5-4.8-1.3-7.1c-2.3-5.9-7.6-7.6-12.9-4.1c-3.2,2.3-5.7,5.4-7.2,9.1
	c-5,11.3-6.5,23.4-7.6,35.5c-1.3,14.8,0.3,29.7,4.7,43.9c0.2,0.7,0.7,2,0,2.2s-1-1.1-1.2-1.7c-7.4-19.7-12.2-39.9-12.7-61.1
	c-1.4-52.8,23.9-102.7,67.3-132.7c1.1-0.8,2.2-1.5,3.3-2.2l-0.6-1c8.6-5.5,17.7-10.1,27.2-13.8c10.8-4.2,22-7.1,33.5-8.8
	c8.3-2,16.8-3.4,25.3-4.2c2.8-0.4,5.6-1.3,8.1-2.7c4.2-1.9,5.1-5.6,2.6-9.4s-6.7-6-10.9-7.7c-19.1-7.7-40-9.8-60.3-6.2
	c-12.8,2.3-25.5,5.5-37.9,9.6c-0.5,0.2-1.1,0.4-1.6,0.6c-0.4,0.1-1.2,0-1.3-0.2c-0.2-0.8,0.6-0.7,1-0.9
	c14.1-7.5,29.1-13.1,44.7-16.5c18.6-4,37.7-5.1,56.7-3.3c8.9,0.9,17.6,2.5,26.3,4.7c12,2.9,23.7,7.1,34.8,12.6
	c5.9,3,11.5,6.7,17.3,10c8.9,5,16.2,11.8,24,18.3c5.9,5,11.4,10.5,16.4,16.4l0.7-0.6c5.6,6.7,10.5,13.8,14.7,21.4
	c2.3,4.2,4.4,8.5,6.3,12.9c4.8,9.8,8.1,20.3,10,31c1.3,6.9,2.1,14,2.2,21c0,3.6,0.3,7.2,2.1,10.5c2.3,4.2,6.4,5.5,10.8,3.3
	c3.6-1.8,5.9-4.8,7.7-8.2c3.7-6.9,5.3-14.5,6.6-22.2c1.4-8.8,2.7-17.6,2.4-26.6c-0.3-10.5-1.9-21-4.7-31.1c-0.2-0.7-1.7-2,0-2.4
	c0.7-0.2,1,1.2,1.2,1.9C440.4,195.9,444.5,213.7,446,231.8L446,231.8z M367.3,349.2c-0.2-1.1-0.5-2.2-0.9-3.3
	c-1.6,0.9-3.2,1.8-4.9,2.6l1.9,3.3C364.8,351,366.1,350.1,367.3,349.2z M360,336.4c-0.5-0.5-1.1-1-1.7-1.4c-0.9,1-1.8,2.1-2.7,3.1
	l1.1,2C357.9,338.8,358.9,337.6,360,336.4L360,336.4z M340.6,193l1-0.8l-0.2-0.2C341.1,192.4,340.8,192.7,340.6,193z M189.3,207.3
	l-0.9-1.6l-1,1.1c0.4,0.4,0.9,0.8,1.3,1.2L189.3,207.3z M182.8,195.7l-1.8-3.3l-0.9,0.6c0.2,1.2,0.5,2.4,0.9,3.6
	C181.5,196.3,182.2,196,182.8,195.7z"/>
<path class="st2" d="M366.4,346c0.4,1.1,0.7,2.1,0.9,3.3c-1.3,0.9-2.6,1.8-3.9,2.7l-1.9-3.3C363.2,347.7,364.8,346.8,366.4,346z"/>
<path class="st2" d="M358.3,334.9c0.6,0.5,1.2,0.9,1.7,1.4c-1,1.3-2.1,2.5-3.3,3.7l-1.1-2C356.5,337,357.4,336,358.3,334.9
	L358.3,334.9z"/>
<path class="st2" d="M188.4,205.6l0.9,1.6l-0.6,0.7c-0.5-0.4-0.9-0.8-1.3-1.2L188.4,205.6z"/>
<path class="st2" d="M180.9,192.4l1.8,3.3c-0.6,0.3-1.2,0.6-1.8,1c-0.4-1.2-0.7-2.4-0.9-3.6L180.9,192.4z"/>
<path class="st3" d="M184.5,222.1l0.6-0.4l1.5-1.3c0.8-0.5,1.6-1,2.3-1.5c8.6-6.1,17.8-10.9,28.1-13.1c0.7-0.1,1.5-0.9,2-0.1
	s-0.4,1.4-1,2c-5,4.3-10,8.5-14.3,13.5c-12.8,15-18.9,32.4-19.5,51.9c-0.1,3.9,1.2,7.9,1.1,11.8c-0.5,16.3,3.5,32.4,11.7,46.5
	c5.3,9.1,12.2,17.1,20.4,23.6c0.6,0.5,1.3,1.6,2,1s-0.6-1.3-1-1.9c-1.8-2.1-3.8-4.1-5.5-6.2c-6-7.3-10.9-15.2-12.7-24.6
	c-0.2-1.2-0.9-2.7,0.1-3.3c1.2-0.6,2,1,2.7,1.9c5.2,6.7,11.5,12.6,18.5,17.4c11.1,7.7,23.8,12.7,37.1,14.7
	c5.1,0.7,10.3,1.5,15.4,1.1c4.9-0.4,9.7-1,14.6-1.1c22.3-0.5,42.6-7,60.7-20.3c2.8-2.1,5.4-4.5,8.1-6.8c0.3-0.3,0.8-0.7,0.4-1.1
	s-0.8-0.1-1.2,0.1s-0.9,0.7-1.3,1c-7.4,5.3-15.7,9.5-24.4,12.3c-0.8,0.3-2,1-2.6,0.1c-0.7-1.1,0.5-1.9,1.2-2.5
	c3.3-2.7,6.4-5.6,9.3-8.7c7.9-8.3,13.9-18.1,17.6-28.9c2-5.8,3.4-11.9,3.9-18.1c0.5-5.2,0.5-10.5,0-15.8c-0.3-3.7-1.5-7.3-1.7-10.9
	c-0.5-13.3-4.2-26.4-10.6-38.1c-5.8-10.7-13.9-19.9-23.7-27.2l-0.7-0.4c-0.3-0.3-0.9-0.6-1.1-0.2c-0.3,0.6,0.4,0.4,0.7,0.6l0.5,0.6
	c3.9,4.6,8.1,8.8,11.5,13.8c3.7,5.1,6.4,10.9,8,17c0.2,0.7,0.6,1.6-0.2,2s-1.4-0.3-1.8-0.9c-1.8-2-3.5-4.1-5.5-5.9
	c-7.7-7.3-16.5-13.2-26.2-17.5c-10.1-4.5-20.9-7.1-31.9-7.6c-7.2-0.3-14.4,0.6-21.6,1c-13,0.8-25.6,2.6-37.7,7.4
	s-23.3,11.4-32.6,20.7c-0.4,0.4-0.9,0.9-1.3,1.4l-0.6,0.6l-0.4,0.4C184.1,222.5,184.3,222.4,184.5,222.1L184.5,222.1z"/>
</svg>
