<svg enable-background="new 0 0 113.4 113.4" viewBox="0 0 113.4 113.4" xmlns="http://www.w3.org/2000/svg"><path d="m56.7 113.4c-31.3 0-55.9-25-56.7-55.1-.9-32.6 25.7-59.4 58.8-58.3 29.7 1 55.2 25.6 54.6 57.9-.6 30.4-25.4 55.5-56.7 55.5zm6-56.6c-.2.6.2.7.7.8 2.7.5 5.3 1.3 7.8 2.5.9.4 1.2.2 1.6-.6 6.8-14.2 13.5-28.4 20.4-42.5.4-.8.3-1.3-.4-1.9-6-5.2-12.8-8.9-20.4-11.2-.8-.2-.9.1-1 .7-.5 3.2-1.1 6.4-1.6 9.6-1.7 10.2-3.4 20.5-5.1 30.7-.7 3.9-1.4 7.9-2 11.9zm-12.1-.1c-1.7-10.4-3.4-20.6-5.1-30.9-1.2-7.1-2.3-14.2-3.5-21.3-.1-.5 0-1-.9-.7-7.7 2.3-14.6 6.2-20.7 11.4-.5.5-.6.8-.3 1.5 5.3 10.9 10.5 21.8 15.7 32.7 1.6 3.4 3.2 6.8 4.9 10.2.2.3.2.9.9.6 2.8-1.3 5.6-2.2 8.6-2.8.3.1.5-.1.4-.7zm58.5-16.8c-8.9 9.1-17.6 18-26.4 26.9-.4.5-.5.7 0 1.2 2 2 3.7 4.3 5.2 6.8.3.6.6.6 1.2.3 7.2-4.1 14.5-8.2 21.8-12.3.5-.3.7-.6.7-1.2.4-5 .2-10-.7-14.9-.5-2.2-1-4.5-1.8-6.8zm-104.8.1c-.2.4-.3.7-.3 1-2 6.7-2.6 13.5-2.1 20.5.1.8.3 1.2 1.1 1.6l21.3 12c .6.4 1 .4 1.4-.3 1.4-2.4 3.1-4.6 5-6.6.6-.6.4-.9-.1-1.3-3.8-3.8-7.5-7.6-11.2-11.4-5.1-5.3-10.1-10.4-15.1-15.5zm99.9 44.4c-3.9.7-7.6 1.4-11.3 2.1-.6.1-.6.5-.5 1 .5 2.7.3 5.5.4 8.2 0 .4-.3.9.2 1.1.6.2 1.2.2 1.8-.4 2.1-2.1 4-4.2 5.8-6.5 1.3-1.7 2.5-3.4 3.6-5.5zm-95.1 0c .8 1.3 1.4 2.3 2.1 3.3 2.2 3.2 4.7 6.1 7.4 8.8.5.5 1.1.4 1.7.2.5-.2.2-.7.2-1 0-2.8-.2-5.6.4-8.3.1-.5 0-.8-.6-.9-3.6-.6-7.3-1.3-11.2-2.1z" fill="#e52621"/><g fill="#fffefe"><path d="m62.7 56.8c.7-4 1.3-8 2-11.9 1.7-10.2 3.4-20.5 5.1-30.7.5-3.2 1.1-6.4 1.6-9.6.1-.6.2-.9 1-.7 7.6 2.3 14.4 6.1 20.4 11.2.7.6.8 1 .4 1.9-6.8 14.1-13.6 28.3-20.4 42.5-.4.8-.7 1-1.6.6-2.5-1.2-5.1-1.9-7.8-2.5-.5-.1-.9-.2-.7-.8z"/><path d="m50.6 56.7c.1.6-.1.8-.5.8-3 .6-5.9 1.4-8.6 2.8-.7.3-.7-.3-.9-.6-1.6-3.4-3.3-6.8-4.9-10.2-5.2-10.9-10.4-21.8-15.7-32.7-.3-.7-.2-1.1.3-1.5 6.1-5.3 13-9.1 20.7-11.4.9-.3.8.3.9.7 1.2 7.1 2.3 14.2 3.5 21.3 1.7 10.3 3.4 20.5 5.2 30.8 0 0 0 .1 0 0z"/><path d="m109.1 39.9c.8 2.3 1.3 4.6 1.7 6.8.9 4.9 1.1 9.9.7 14.9 0 .6-.2.9-.7 1.2-7.3 4.1-14.5 8.2-21.8 12.3-.5.3-.8.3-1.2-.3-1.4-2.5-3.2-4.7-5.2-6.8-.5-.5-.4-.8 0-1.2 8.9-8.9 17.6-17.8 26.5-26.9z"/><path d="m4.3 40c5.1 5.2 10.1 10.3 15 15.4 3.7 3.8 7.5 7.6 11.2 11.4.5.5.6.8.1 1.3-2 2-3.7 4.2-5 6.6-.4.7-.7.7-1.4.3-7.1-4-14.2-8-21.3-12-.7-.4-1-.8-1.1-1.6-.5-7 .1-13.8 2.1-20.5.1-.3.2-.5.4-.9z"/></g><path d="m104.2 84.4c-1.1 2-2.3 3.8-3.6 5.5-1.8 2.3-3.7 4.5-5.8 6.5-.6.6-1.1.5-1.8.4-.6-.2-.2-.7-.2-1.1 0-2.7.2-5.5-.4-8.2-.1-.5-.1-.9.5-1 3.7-.7 7.4-1.3 11.3-2.1z" fill="#fefbfb"/><path d="m9.1 84.4c3.9.7 7.6 1.4 11.3 2.1.5.1.7.4.6.9-.5 2.7-.3 5.5-.4 8.3 0 .3.3.9-.2 1-.6.2-1.1.3-1.7-.2-2.8-2.7-5.3-5.6-7.4-8.8-.8-1-1.4-2-2.2-3.3z" fill="#fefbfb"/></svg>