<?xml version="1.0" encoding="utf-8"?>
<!-- Generator: Adobe Illustrator 23.0.1, SVG Export Plug-In . SVG Version: 6.00 Build 0)  -->
<svg version="1.1" id="Capa_1" xmlns="http://www.w3.org/2000/svg" xmlns:xlink="http://www.w3.org/1999/xlink" x="0px" y="0px"
	 viewBox="0 0 538.6 538.6" style="enable-background:new 0 0 538.6 538.6;" xml:space="preserve">
<style type="text/css">
	.st0{fill:#3C3D3D;}
	.st1{fill:#D9D9B9;}
	.st2{fill:#DB4B16;}
	.st3{fill:#404040;}
</style>
<circle class="st0" cx="269.3" cy="269.3" r="269.3"/>
<g>
	<path class="st1" d="M126.4,118.5c4.3,4,4.7,7.8,1.3,11.5l-7.1,7.6l-39.1-36.6l7.5-8c3.2-3.4,6.8-3.3,10.8,0.5L126.4,118.5z
		 M122.7,126.4c1.1-1.2,1-2.4-0.3-3.6L95.5,97.7c-0.5-0.7-1.6-0.9-2.3-0.3c-0.1,0.1-0.2,0.2-0.3,0.3l-2.8,3l30.2,28.3L122.7,126.4z"
		/>
	<path class="st1" d="M108.5,73.7c0.9-0.8,2-1.4,3.2-1.8c1.2-0.4,2.4-0.5,3.6-0.4c1.3,0.1,2.6,0.5,3.7,1.2c1.3,0.7,2.5,1.7,3.5,2.9
		l28.2,33.5l-4.6,3.9l-14.4-17.1l-5.4,4.6l14.4,17.1l-4.6,3.8l-28.2-33.5c-1-1.1-1.8-2.5-2.2-3.9c-0.4-1.2-0.6-2.5-0.5-3.8
		c0.1-1.2,0.4-2.4,1-3.5C106.7,75.5,107.5,74.5,108.5,73.7L108.5,73.7z M122.2,95.7l5.5-4.6l-9.6-11.5c-0.7-0.9-1.7-1.6-2.8-1.7
		c-0.9-0.1-1.8,0.2-2.5,0.8c-0.7,0.6-1.2,1.5-1.3,2.4c-0.1,1.2,0.4,2.3,1.2,3.1L122.2,95.7z"/>
	<path class="st1" d="M141.6,75.1l5.9-3.8l-11.2-17.2l5.2-3.3l29.2,44.9l-5.2,3.4l-14.7-22.7l-5.9,3.8l14.7,22.6l-5.2,3.4
		l-29.2-44.8l5.2-3.4L141.6,75.1z"/>
	<path class="st1" d="M165.7,61.2l11.5-2.2l8.9,17.9c1.5,3.1,2.1,5.7,1.6,8s-2.2,4.1-5.1,5.5c-2.1,1.2-4.6,1.4-6.9,0.4
		c-2.1-0.9-3.9-2.9-5.4-6c-1.4-2.8-2.3-4.8-2.8-6.2l5.2-2.6c0.5,1.4,1.5,3.5,2.9,6.3c1.1,2.3,2.6,3,4.4,2.2c1.6-0.8,1.8-2.3,0.7-4.6
		L173.7,66l-11.5,2l-7.3-14.7c-1.4-2.8-1.7-5.3-0.9-7.5c0.9-2.2,2.5-4,4.7-4.9c1.1-0.5,2.2-0.9,3.4-1c1.1-0.1,2.2,0,3.3,0.3
		c1.1,0.4,2.1,1,3,1.8c1,1,1.8,2.1,2.4,3.4c0.8,1.5,1.4,3.1,2,4.7l-5.3,2.6c-0.6-1.5-1.3-3-2-4.4c-1-2-2.3-2.5-4.1-1.7
		s-1.9,2.2-1,4.1L165.7,61.2z"/>
	<path class="st1" d="M189.6,50.5l6.6-2.3l-6.9-19.3l5.8-2.1l18,50.4l-5.8,2.1l-9.1-25.4l-6.6,2.3l9.1,25.4l-5.9,2.1l-18-50.4
		l5.8-2.1L189.6,50.5z"/>
	<path class="st1" d="M215.2,21c1.2-0.3,2.4-0.3,3.6-0.1c1.2,0.2,2.4,0.6,3.4,1.3c1.1,0.7,2,1.7,2.7,2.7c0.8,1.3,1.4,2.7,1.7,4.2
		l9.6,42.8l-5.9,1.3l-4.9-21.9l-6.9,1.6l4.9,21.8l-5.8,1.3l-9.5-42.8c-0.4-1.5-0.4-3-0.2-4.5c0.2-1.3,0.7-2.5,1.4-3.6
		c0.7-1,1.5-1.9,2.6-2.7C212.9,21.7,214,21.2,215.2,21L215.2,21z M217.2,46.8l7-1.5l-3.3-14.6c-0.2-1.1-0.8-2.1-1.7-2.8
		c-0.8-0.5-1.7-0.7-2.6-0.5c-0.9,0.2-1.7,0.8-2.2,1.5c-0.6,1-0.8,2.2-0.4,3.3L217.2,46.8z"/>
	<path class="st1" d="M251.5,22.5l-6.6,0.8l5.3,46.8l-6.2,0.7L238.8,24l-6.5,0.7l-0.7-6.4l19.2-2.2L251.5,22.5z"/>
	<path class="st1" d="M279.8,59.9c-0.2,2.6,0.6,3.9,2.5,4c1.9,0.1,3-1.1,3.1-3.7c0.2-3.2,0.3-5.5,0.3-6.9l5.9,0.4
		c0,1.4,0,3.7-0.2,6.8c-0.2,3.4-1.1,6-2.7,7.6c-1.7,1.7-4.1,2.5-6.5,2.2c-3.3-0.2-5.6-1.3-6.9-3.1s-1.8-4.5-1.6-7.9l2.3-34.8
		c0.2-3.2,1.2-5.5,3-6.9c1.8-1.5,4.2-2.2,6.5-1.9c1.2,0.1,2.3,0.3,3.4,0.8c1,0.5,1.9,1.1,2.7,2c0.8,0.9,1.3,1.9,1.7,3
		c0.4,1.4,0.5,2.8,0.4,4.2c-0.1,1.7-0.3,3.4-0.5,5l-5.9-0.4c0.3-1.6,0.4-3.2,0.5-4.8c0.1-2.2-0.8-3.4-2.7-3.5s-2.8,0.9-2.9,3
		L279.8,59.9z"/>
	<path class="st1" d="M315.4,64.5c-0.2,1.5-0.8,2.9-1.5,4.2c-0.7,1.1-1.6,2.1-2.7,2.8c-1,0.7-2.1,1.2-3.3,1.4c-2.4,0.5-5,0-7.1-1.3
		c-1-0.7-1.9-1.5-2.6-2.6c-0.7-1.1-1.2-2.3-1.5-3.6c-0.3-1.5-0.3-3,0-4.5l6.1-33.4c0.2-1.5,0.8-2.9,1.6-4.2c0.7-1.1,1.6-2.1,2.7-2.8
		c1-0.7,2.1-1.2,3.4-1.4c1.2-0.2,2.5-0.2,3.7,0c1.2,0.2,2.3,0.7,3.4,1.3c1,0.7,1.9,1.5,2.6,2.5c0.7,1.1,1.2,2.3,1.5,3.6
		c0.3,1.5,0.3,3,0,4.5L315.4,64.5z M302.6,62c-0.3,1.1-0.1,2.3,0.5,3.3c0.5,0.8,1.4,1.3,2.3,1.5c0.9,0.1,1.8-0.1,2.6-0.6
		c1-0.7,1.6-1.8,1.7-3l6-33.1c0.3-1.1,0.1-2.3-0.5-3.3c-0.5-0.7-1.3-1.2-2.3-1.4c-0.9-0.2-1.9,0-2.6,0.5c-0.9,0.7-1.5,1.8-1.6,2.9
		L302.6,62z"/>
	<path class="st1" d="M344.5,26.6c1.2,0.4,2.3,1,3.2,1.9c0.8,0.9,1.4,2,1.9,3.1c1-0.6,2.2-1.1,3.3-1.3c1.3-0.2,2.6,0,3.8,0.5
		c1.2,0.4,2.2,1,3.2,1.8c0.9,0.8,1.7,1.8,2.3,2.9c0.6,1.2,0.9,2.5,0.9,3.8c0.1,1.5-0.2,3-0.7,4.5l-14.3,41.4l-5.7-2l14.3-41.3
		c0.5-1.1,0.5-2.3,0-3.3c-0.4-0.8-1.1-1.5-2-1.8c-0.9-0.3-1.9-0.2-2.7,0.2c-1,0.5-1.8,1.5-2.1,2.6l-14.3,41.3l-5.4-1.9l14.3-41.4
		c0.5-1.1,0.5-2.3,0-3.3c-0.4-0.8-1.1-1.5-2-1.8c-0.9-0.3-1.9-0.2-2.7,0.2c-1,0.5-1.8,1.5-2.1,2.6l-14.2,41.4l-5.6-1.9l14.3-41.4
		c0.5-1.4,1.2-2.8,2.2-3.9c0.8-1,1.9-1.8,3-2.4c1.1-0.5,2.3-0.9,3.5-0.9C342.1,26,343.3,26.2,344.5,26.6L344.5,26.6z"/>
	<path class="st1" d="M386.3,45c4.1,2.1,5,5.6,2.4,10.5l-7.1,13.7c-2.7,5.2-6.2,6.6-10.7,4.3l-3.8-2l-9.8,18.8l-5.5-2.8l24.7-47.5
		L386.3,45z M373.1,67.6c1.4,0.8,2.6,0.4,3.4-1.2l7.2-13.9c0.5-0.7,0.4-1.7-0.3-2.3c-0.1-0.1-0.3-0.2-0.4-0.2l-3.6-1.9L370,66
		L373.1,67.6z"/>
	<path class="st1" d="M409.2,57.9c1,0.7,1.9,1.6,2.6,2.6c0.7,1,1.2,2.2,1.4,3.4c0.2,1.3,0.2,2.6-0.1,3.9c-0.3,1.5-1,2.9-1.8,4.1
		l-24.5,36.3l-5-3.4l12.5-18.5l-5.9-4l-12.5,18.6l-4.9-3.3l24.5-36.3c0.8-1.3,1.9-2.4,3.1-3.2c1.1-0.7,2.3-1.2,3.6-1.5
		c1.2-0.3,2.4-0.3,3.6,0C407,56.7,408.1,57.2,409.2,57.9L409.2,57.9z M391.8,77.2l5.9,4l8.4-12.4c0.7-0.9,1-2.1,0.9-3.2
		c-0.2-0.9-0.7-1.7-1.5-2.2c-0.8-0.5-1.8-0.7-2.7-0.5c-1.1,0.2-2.1,1-2.7,2L391.8,77.2z"/>
	<path class="st1" d="M416.8,105.2l0.2,0.2l4.5-5.3c1.5-1.8,3-3.5,4.5-5.2l11.9-13.5l4.5,4L407,125.5l-4.5-4l19-36.4l-0.2-0.2
		l-4.1,4.9c-1.4,1.6-2.8,3.3-4.3,5L395,115l-4.5-4l35.4-40.2l6.3,5.6L416.8,105.2z"/>
	<path class="st1" d="M444,116.4l14.9-13.1l3.8,4.4l-15,13.2c-2,1.8-3.9,2.7-5.5,2.7c-1.9-0.1-3.7-0.9-5.2-2.2l-19,16.6l-4.1-4.7
		l18.9-16.6c-1-1.5-1.5-3.4-1.4-5.2c0.1-1.7,1.2-3.5,3.3-5.3l15-13.2l3.8,4.4l-14.9,13.1c-1.3,1.2-1.4,2.4-0.3,3.6l1.9,2.2
		C441.4,117.5,442.6,117.5,444,116.4L444,116.4z"/>
	<path class="st1" d="M117.1,417.1c0.6,0.7,1.1,1.5,1.5,2.3c0.3,0.8,0.5,1.8,0.5,2.7c0,1-0.3,1.9-0.7,2.8c-0.5,1-1.2,1.9-2,2.7
		l-23.6,22.3l-3.1-3.3l12-11.4l-3.7-3.9l-12,11.4l-3.1-3.2l23.6-22.4c0.8-0.8,1.7-1.4,2.8-1.8c0.9-0.4,1.9-0.5,2.8-0.5
		c0.9,0,1.8,0.2,2.7,0.6C115.7,415.8,116.5,416.4,117.1,417.1z M101.4,428.2l3.7,3.9l8.1-7.6c0.7-0.5,1.1-1.3,1.1-2.2
		c0-0.7-0.2-1.4-0.7-1.9c-0.5-0.5-1.1-0.8-1.8-0.8c-0.9,0-1.7,0.4-2.3,1L101.4,428.2z"/>
	<path class="st1" d="M120.6,465.6c-2.8,3.3-5.6,3.8-8.5,1.5l-6-5l25.2-30.7l6.4,5.2c2.7,2.2,2.7,4.9,0.2,8L120.6,465.6z
		 M114.5,463.2c0.6,0.7,1.7,0.7,2.4,0c0.1-0.1,0.2-0.2,0.3-0.4l17.3-21.1c0.5-0.4,0.6-1.2,0.1-1.7c-0.1-0.1-0.2-0.2-0.3-0.2l-2.4-2
		l-19.5,23.7L114.5,463.2z"/>
	<path class="st1" d="M125,476.9l-3.8-2.7l23.3-32.1l3.8,2.7L125,476.9z"/>
	<path class="st1" d="M147.2,463.4c-0.7,1.6-1.5,3.1-2.3,4.6s-1.5,3-2.2,4.4l0.2,0.1c1-1.2,2-2.5,3.1-3.9s2.2-2.7,3.3-4l10.6-12.3
		l4,2.5l-26.6,30.2l-3.8-2.5l16.6-36.5l4.1,2.6L147.2,463.4z"/>
	<path class="st1" d="M150.4,492.8l-4.1-2.3l19.4-34.6l4.1,2.3L150.4,492.8z"/>
	<path class="st1" d="M170.4,475.7l6.6,5.8l-6.5,13.4c-0.8,1.9-2.2,3.5-4,4.5c-1.5,0.7-3.4,0.5-5.6-0.5c-1.7-0.7-2.9-2.1-3.4-3.8
		c-0.4-2,0-4.1,1-5.9c1-2.1,1.8-3.6,2.3-4.5l3.9,1.9c-0.6,0.9-1.4,2.4-2.4,4.6c-0.8,1.7-0.6,2.9,0.7,3.6c1.2,0.6,2.2,0,3-1.7l5-10.3
		l-6.5-5.9l5.3-11c0.7-1.8,2.2-3.2,4-3.9c1.7-0.5,3.5-0.3,5.1,0.5c0.8,0.4,1.5,0.9,2.1,1.5c0.6,0.6,1,1.3,1.3,2.1
		c0.3,0.8,0.4,1.7,0.3,2.6c-0.1,1-0.4,2.1-0.9,3c-0.5,1.1-1.1,2.2-1.8,3.3l-4-1.9c0.6-1,1.2-2.1,1.7-3.1c0.7-1.5,0.4-2.5-0.9-3.1
		s-2.2-0.2-2.9,1.3L170.4,475.7z"/>
	<path class="st1" d="M177,505.5l-4.3-1.8L188,467l4.3,1.8L177,505.5z"/>
	<path class="st1" d="M198.4,505.5c-0.4,1.1-0.9,2.1-1.6,2.9c-0.6,0.7-1.4,1.3-2.3,1.8c-0.8,0.4-1.7,0.6-2.6,0.7
		c-1.9,0.1-3.7-0.6-5.1-1.8c-0.7-0.6-1.3-1.3-1.7-2.2c-0.4-0.9-0.6-1.9-0.7-2.8c-0.1-1.1,0.1-2.2,0.5-3.3l8.2-23.8
		c0.3-1.1,0.9-2.1,1.6-2.9c0.6-0.7,1.4-1.3,2.3-1.8c0.8-0.4,1.7-0.6,2.6-0.7c0.9,0,1.9,0.1,2.7,0.4c0.9,0.3,1.7,0.8,2.4,1.4
		c0.7,0.6,1.3,1.3,1.7,2.1c0.4,0.9,0.7,1.8,0.7,2.8c0.1,1.1-0.1,2.2-0.5,3.3L198.4,505.5z M189.2,502.2c-0.3,0.8-0.3,1.7,0,2.5
		c0.3,0.6,0.9,1.1,1.5,1.3c0.7,0.2,1.4,0.2,2-0.1c0.8-0.4,1.4-1.1,1.6-2l8.2-23.6c0.4-0.8,0.4-1.7,0-2.5c-0.3-0.6-0.8-1.1-1.5-1.3
		c-0.7-0.2-1.4-0.2-2,0.1c-0.8,0.4-1.3,1.1-1.5,1.9L189.2,502.2z"/>
	<path class="st1" d="M217.7,501.5h0.2c0.4-1.7,0.8-3.4,1.2-5.1s0.8-3.3,1.2-4.9l3.2-12.9l4.4,1.1l-9.6,38.5l-4.4-1.1v-30.5l-0.2,0
		c-0.4,1.5-0.7,3.1-1.1,4.6s-0.7,3.1-1.1,4.7l-4.9,19.4l-4.4-1.1l9.7-38.5l6.1,1.5L217.7,501.5z"/>
	<path class="st1" d="M251.1,515.8c-0.1,1.1-0.4,2.2-1,3.2c-0.5,0.9-1.1,1.6-1.8,2.2c-0.7,0.6-1.5,1-2.4,1.2
		c-0.9,0.2-1.8,0.3-2.7,0.2c-0.9-0.1-1.8-0.4-2.6-0.8c-0.8-0.4-1.5-1-2.1-1.8c-0.6-0.8-1-1.7-1.3-2.6c-0.3-1.1-0.4-2.2-0.2-3.3
		l2.8-25c0.1-1.1,0.5-2.2,1-3.2c0.5-0.9,1.1-1.6,1.8-2.2c0.7-0.6,1.5-1,2.4-1.2c0.9-0.3,1.8-0.3,2.8-0.2c0.9,0.1,1.8,0.4,2.6,0.8
		c0.8,0.4,1.5,1,2.1,1.7c0.6,0.8,1,1.6,1.3,2.6c0.3,1.1,0.4,2.2,0.2,3.3L251.1,515.8z M241.4,514.6c-0.2,0.9,0,1.7,0.5,2.5
		c0.4,0.6,1.1,0.9,1.8,1c0.7,0.1,1.4-0.1,1.9-0.5c0.7-0.6,1.1-1.4,1.1-2.3l2.8-24.8c0.2-0.8,0-1.7-0.6-2.4c-0.4-0.5-1.1-0.9-1.7-1
		c-0.7-0.1-1.4,0.1-2,0.5c-0.6,0.6-1,1.4-1,2.2L241.4,514.6z"/>
	<path class="st1" d="M261.8,504.5l-0.6,19l-4.6-0.1l1.1-35.4c0.2-0.7,0.7-1.4,1.2-2c0.5-0.6,1.1-1.1,1.8-1.4
		c1.4-0.8,2.9-1.1,4.5-1.1c0.9,0,1.8,0.2,2.7,0.5c0.8,0.3,1.6,0.8,2.2,1.4c0.7,0.7,1.2,1.5,1.5,2.4c0.4,1.1,0.5,2.3,0.5,3.5v1.4
		c0,0,0,0.6,0,0.9s0,0.5-0.1,0.7s0,0.4-0.1,0.7l-4.4-0.1c0-0.3,0.1-0.5,0.1-0.7s0-0.4,0.1-0.7s0-0.5,0-0.9s0-0.9,0-1.4
		c0.1-0.8-0.2-1.6-0.8-2.2c-0.9-0.9-2.3-1-3.4-0.4c-0.5,0.2-0.8,0.6-1,1.1L262,500l8.8,0.3l-0.1,4.5L261.8,504.5z"/>
	<path class="st1" d="M297.4,499.7c0.6,0.2,1.2,0.5,1.5,1c0.4,0.6,0.6,1.4,0.6,2.1l1.4,14c0.3,3.4-1,5.3-3.9,5.5l-9.2,0.9l-3.9-39.5
		l9-0.9c3-0.3,4.6,1.3,4.9,4.7l0.8,8.6c0.1,0.7,0.1,1.5-0.2,2.2C298.3,498.9,297.9,499.3,297.4,499.7z M289.1,487.8l1,10.5l3.5-0.3
		c0.4,0,0.8-0.3,0.8-0.7c0-0.1,0-0.2,0-0.3l-0.9-8.8c0-0.4-0.3-0.8-0.7-0.8c-0.1,0-0.1,0-0.2,0L289.1,487.8z M295.8,517.9
		c0.6-0.1,0.8-0.4,0.8-1l-1.4-14.1c0-0.4-0.3-0.8-0.7-0.8c-0.1,0-0.1,0-0.2,0l-3.7,0.4l1.5,15.9L295.8,517.9z"/>
	<path class="st1" d="M320.3,511.4c0.2,1.1,0.2,2.3,0,3.4c-0.2,1-0.6,1.9-1.1,2.7c-0.5,0.8-1.2,1.4-2,1.9c-0.8,0.5-1.6,0.8-2.5,1
		c-0.9,0.2-1.9,0.2-2.8,0c-0.9-0.2-1.8-0.6-2.5-1.1c-0.8-0.6-1.5-1.3-2-2.1c-0.6-1-1-2-1.2-3.2l-4.4-24.8c-0.2-1.1-0.2-2.3,0-3.4
		c0.2-1,0.6-1.9,1.1-2.7c0.5-0.8,1.2-1.4,2-1.9c0.8-0.5,1.7-0.8,2.6-1c0.9-0.2,1.8-0.2,2.7,0c0.9,0.2,1.7,0.5,2.5,1.1
		c0.8,0.6,1.5,1.3,2,2.1c0.6,1,1,2,1.2,3.1L320.3,511.4z M310.6,513c0.1,0.9,0.5,1.7,1.2,2.2c0.6,0.4,1.3,0.6,2,0.4
		c0.7-0.1,1.3-0.5,1.7-1.1c0.5-0.7,0.6-1.6,0.4-2.5l-4.4-24.6c-0.1-0.9-0.5-1.6-1.2-2.1c-1.2-0.8-2.8-0.5-3.6,0.7
		c-0.5,0.7-0.6,1.6-0.4,2.4L310.6,513z"/>
	<path class="st1" d="M330.3,490.7l-3.7-14.3l4.2-1.1l3.8,14.4c0.5,2,0.5,3.5-0.1,4.5c-0.7,1.2-1.9,2.2-3.2,2.7L336,515l-4.5,1.2
		l-4.8-18.1c-1.4,0.2-2.8-0.1-4-0.8c-1.3-0.9-2.2-2.3-2.4-3.9l-3.8-14.4l4.2-1.1l3.7,14.3c0.1,0.9,0.9,1.6,1.9,1.5
		c0.2,0,0.3-0.1,0.5-0.1l2.1-0.5c0.9-0.1,1.6-1,1.5-1.9C330.4,491,330.4,490.8,330.3,490.7L330.3,490.7z"/>
	<path class="st1" d="M348.7,505.2c0.3,0.4,0.8,0.6,1.3,0.7c0.5,0.1,1.1,0.1,1.6-0.1c0.6-0.2,1.2-0.7,1.5-1.3
		c0.4-0.7,0.4-1.6,0.1-2.4c-0.2-0.6-0.4-1-0.5-1.3s-0.2-0.6-0.3-0.8s-0.2-0.4-0.3-0.6s-0.2-0.4-0.3-0.6l4.1-1.4l0.3,0.6
		c0.1,0.2,0.2,0.4,0.3,0.6s0.2,0.5,0.3,0.8s0.3,0.8,0.4,1.3c0.4,1.1,0.6,2.3,0.6,3.4c0,0.9-0.2,1.9-0.6,2.8c-0.4,0.8-0.9,1.5-1.6,2
		c-0.7,0.6-1.5,1-2.4,1.3c-0.7,0.3-1.5,0.4-2.3,0.5c-1.5,0.1-3.1-0.2-4.4-1c-0.7-0.4-1.3-0.9-1.7-1.6l-11.6-33.4l4.4-1.5
		L348.7,505.2z"/>
	<path class="st1" d="M368.6,503.7l-4.3,1.8l-15.2-36.6l4.3-1.8L368.6,503.7z"/>
	<path class="st1" d="M372.2,476.6l0.8-0.4c1.1-0.6,2.5-0.8,3.7-0.5c1.2,0.4,2.2,1.3,2.7,2.5l6.3,12.7c0.7,1.4,1.4,2.6,2,3.8l-4.2,2
		c-0.6-0.9-1.2-2.1-1.9-3.5l-6.1-12.3c-0.2-0.5-0.7-0.8-1.3-0.6c-0.1,0-0.1,0.1-0.2,0.1l-3.9,1.9l8.3,16.9l-4.2,2l-17.5-35.6
		l4.2-2.1l7.3,14.9l-2.6-17.2l4.3-2.1L372.2,476.6z"/>
	<path class="st1" d="M402.9,477.3c1,1.6,2.1,2,3.3,1.2s1.3-2,0.2-3.6c-1.3-2-2.3-3.4-3-4.2l3.7-2.4c0.7,0.8,1.6,2.2,2.9,4.1
		c1.3,1.6,1.9,3.7,1.8,5.7c-0.2,1.8-1.3,3.4-2.9,4.3c-2.1,1.4-3.9,1.8-5.5,1.3c-1.9-0.8-3.5-2.2-4.5-4l-14.3-21.6
		c-2.2-2.7-1.9-6.7,0.8-8.9c0.3-0.2,0.6-0.4,0.9-0.6c0.7-0.5,1.5-0.9,2.4-1.1c0.8-0.2,1.7-0.2,2.5-0.1c0.8,0.2,1.7,0.5,2.4,1
		c0.8,0.6,1.5,1.4,2.1,2.3c0.7,1,1.4,2.1,2,3.2l-3.7,2.4c-0.6-1.1-1.2-2.1-1.9-3.1c-0.9-1.3-2-1.6-3.2-0.8s-1.3,1.8-0.4,3.1
		L402.9,477.3z"/>
	<path class="st1" d="M425.6,460.4c0.7,0.9,1.3,1.9,1.6,3c0.3,0.9,0.4,1.9,0.3,2.9c-0.1,0.9-0.4,1.8-0.9,2.6
		c-0.9,1.6-2.5,2.8-4.2,3.3c-0.9,0.3-1.8,0.3-2.7,0.2c-1-0.1-1.9-0.5-2.8-1c-1-0.6-1.8-1.3-2.5-2.2l-15.5-19.8
		c-0.7-0.9-1.3-1.9-1.6-3c-0.3-0.9-0.4-1.9-0.3-2.9c0.1-0.9,0.4-1.8,0.9-2.6c0.9-1.6,2.4-2.8,4.2-3.3c0.9-0.3,1.8-0.3,2.7-0.2
		c1,0.1,1.9,0.4,2.7,0.9c1,0.6,1.8,1.3,2.5,2.2L425.6,460.4z M417.8,466.4c0.5,0.7,1.2,1.2,2.1,1.4c0.7,0.1,1.4-0.1,1.9-0.6
		c0.5-0.4,0.9-1,1-1.7c0.1-0.9-0.2-1.7-0.8-2.4l-15.4-19.6c-0.5-0.7-1.2-1.2-2.1-1.3c-0.7-0.1-1.4,0.1-1.9,0.5
		c-0.6,0.4-0.9,1.1-1,1.8c-0.1,0.9,0.2,1.7,0.8,2.3L417.8,466.4z"/>
	<path class="st1" d="M442.8,448.8c1,1.1,2,2.1,3,3l-3.4,3.2c-0.8-0.7-1.8-1.7-2.9-2.8l-9.7-10.3c-0.2-0.4-0.7-0.4-1.1-0.2
		c-0.1,0-0.1,0.1-0.2,0.1l-3.4,3.2l13,14l-3.4,3.2l-27.1-29l6.5-6c2.2-2,4.4-1.8,6.8,0.7l6.8,7.3c0.6,0.5,0.9,1.2,1,1.9
		c0.6-0.2,1.3-0.2,2-0.1c0.8,0.2,1.5,0.7,2.1,1.3L442.8,448.8z M414.3,433.1l8,8.6l2.5-2.3c0.3-0.3,0.4-0.7,0.2-1.1
		c0-0.1-0.1-0.1-0.2-0.2l-6.9-7.3c-0.2-0.3-0.7-0.4-1.1-0.2c-0.1,0-0.1,0.1-0.2,0.1L414.3,433.1z"/>
	<path class="st1" d="M426.5,414.5c2.4-2.6,5-2.5,8,0.2l8.4,7.7c3.2,2.9,3.5,5.8,1,8.6l-2.1,2.3l11.6,10.6l-3.1,3.4l-29.3-26.8
		L426.5,414.5z M440.1,428.4c0.7-0.6,0.8-1.7,0.2-2.3c-0.1-0.1-0.2-0.2-0.3-0.3l-8.6-7.8c-0.4-0.5-1.2-0.6-1.7-0.2
		c-0.1,0.1-0.2,0.2-0.2,0.2l-2.1,2.3l11,10.1L440.1,428.4z"/>
	<path class="st1" d="M267.3,83.8c40.3,101.4,80.3,201.8,120.7,303.3c-8.5-3-16-6.5-23.9-8.3c-12.2-2.8-18.3-10.1-22.7-21.7
		c-11.8-31-25-61.5-37.7-92.2c-10.8-26.2-21.6-52.5-32.4-78.7c-0.7-1.6-1-3.5-3.5-3.6c-2.8,0-3.2,2.1-3.9,3.8
		c-18.8,48.4-37.7,96.9-56.4,145.3c-4.6,11.9-9.4,23.8-14.1,35.6c-0.7,1.7-1.2,3.4-3.2,4.2c-12.7,4.8-25.4,9.6-39.4,15
		C189.7,285.3,228.3,185.1,267.3,83.8z"/>
</g>
<path class="st2" d="M381.6,151.8c-2.7,11.2-7.3,21.7-11.4,32.4c-2,5.3-2.2,9.3,1.4,14.1c10.1,13.5,16.4,28.9,19.9,45.3
	c0.9,4,4.3,4.4,7.1,5.5c15.5,6.4,31.2,12.5,46.8,18.8c2.4,1,4.8,2,8.4,3.5c-7.8,3-14.4,5.6-21.1,8.1c-12.2,4.5-24.3,9-36.5,13.4
	c-2.9,0.9-5,3.4-5.6,6.3c-3,11.3-7.4,22.1-13.1,32.3c-0.8,1.4-1.4,3.5-3.2,3.4c-1.5-0.1-1.8-2.2-2.3-3.5c-4-9.9-7.9-19.8-11.9-29.6
	c-0.9-2.3-1-4.9-0.3-7.2c8.6-35.3-1.7-72.6-32.1-96.4c-0.8-0.6-1.4-1.6-2.2-2c-9.9-4.3-13.1-13.4-16.4-22.5
	c-2.7-7.3-5.7-14.6-8.6-21.8c-0.4-1-1.3-2.2-0.2-3.2c0.9-0.7,1.9,0,2.8,0.3c11,3.4,21.8,7.4,31.3,14.1c4.4,3.1,8,3,12.5,1.2
	c9.6-3.8,19.3-7.4,29-10.9C377.7,152.6,379.6,152.1,381.6,151.8L381.6,151.8z"/>
<path class="st2" d="M84.7,269.8l43-17.9c5.8-2.4,12.6-3.7,17.2-7.6s4-11.3,6.3-16.9c3.6-9,7.3-17.9,13-25.8c2.9-4,2.7-7.6,0.9-12.1
	c-4.7-11.5-8.9-23.2-13.8-36.2c5.9,2.2,10.4,3.8,14.8,5.5c7.8,3,15.6,5.9,23.2,9.2c3.5,1.5,6.1,0.5,8.8-1.4
	c10.2-7.2,21.5-12.8,33.4-16.6c1.1-0.3,2.6-0.9,3.3-0.4c1.4,1,0.1,2.4-0.3,3.6c-4,10.8-8.4,21.4-12.1,32.2c-2.3,6.8-8.7,9-13.4,12.9
	c-18.5,15.5-30.1,34.7-33.4,58.8c-2,13.2-1.1,26.6,2.5,39.5c0.5,1.8,0,3.2-0.6,4.8c-3.9,10.1-7.7,20.2-11.6,30.3
	c-0.5,1.2-0.5,3-1.9,3.2c-1.7,0.2-2.3-1.7-3-2.9c-5.7-10-10.1-20.7-13-31.8c-1.1-4.3-3.1-6.4-7.1-7.9c-18-6.9-36-14-53.9-21.1
	C86.1,270.8,85.4,270.3,84.7,269.8z"/>
<path class="st2" d="M269.5,454.6c-7-18.3-14.2-36.6-20.8-55c-1.8-5-4-7.7-9.5-8.9c-13.3-3.1-26-8.6-37.4-16.1
	c-2.9-1.9-3.6-3.8-2.3-7c2.8-6.8,5.4-13.6,8-20.5c0.9-2.5,1.8-3.4,4.6-1.4c19.2,14.1,40.9,19.7,64.4,18c18.3-1.3,35.1-7.4,49.6-18.9
	c2.7-2.2,3.9-1.6,5,1.2c2.8,7,5.5,13.9,8.5,20.8c1.4,3.3,0.6,5.2-2.2,7.1c-11.5,7.7-24.3,13.3-37.7,16.7c-4.7,1.2-6.7,3.9-8.2,8.1
	c-6.8,18.8-13.8,37.4-20.8,56.1L269.5,454.6z"/>
<path class="st3" d="M381.6,151.7l0.3-0.2L381.6,151.7L381.6,151.7z"/>
</svg>
