<?xml version="1.0" encoding="utf-8"?>
<!-- Generator: Adobe Illustrator 23.0.1, SVG Export Plug-In . SVG Version: 6.00 Build 0)  -->
<svg version="1.1" id="Capa_1" xmlns="http://www.w3.org/2000/svg" xmlns:xlink="http://www.w3.org/1999/xlink" x="0px" y="0px"
	 viewBox="0 0 538.6 538.9" style="enable-background:new 0 0 538.6 538.9;" xml:space="preserve">
<style type="text/css">
	.st0{fill:#6AB42E;}
	.st1{fill:#FFFFFF;}
	.st2{fill:#EF781A;}
	.st3{fill:#F5E4D1;}
	.st4{fill:#F8EADA;}
	.st5{fill:#FCE8CD;}
	.st6{fill:#FDDAAB;}
	.st7{fill:#FAC081;}
	.st8{fill:#F3DABC;}
</style>
<path class="st0" d="M0,269.2C0.1,120.5,120.7,0,269.4,0s269.4,120.9,269.2,269.6c-0.3,149.1-120.5,269.4-269.3,269.3
	S-0.1,418.3,0,269.2L0,269.2z"/>
<path class="st1" d="M481.8,230c-6-33.1-19.8-64.3-40.3-91c-22.1-29-49.7-51.4-83.1-66.3c-9.8-4.5-19.9-8.2-30.3-11
	c-9.4-2.5-18.7-5-28.4-6c-2.7,0.4-5.5-0.1-8-1.3c-23.7-2-47.1-1-70.4,4.3c-20.7,4.7-40.5,11.9-58.8,22.8
	c-62.2,37-98.9,91.3-108,163.4c-5,39.5,0.5,78,17.9,113.8c36.8,75.9,97.4,118.6,181.8,126.1c28.7,2.6,56.7-1.4,84.1-10.8
	c16-5.5,31.3-12.3,45.4-21.4c54.2-35,87.3-84.2,98.5-147.9C486.7,280,486.5,254.7,481.8,230L481.8,230z"/>
<path class="st0" d="M291.8,54.4c2.6,0.4,5.3,1.1,7.9,1.3C297.3,54.6,294.5,54.2,291.8,54.4z"/>
<path class="st1" d="M299.8,55.7c-2.7-0.2-5.3-0.9-7.9-1.3C294.3,55.6,297.1,56.1,299.8,55.7z"/>
<path class="st2" d="M59.6,269.5c0-115.4,93.5-209.9,210.3-209.8C385.4,59.9,479.1,154,479,270c-0.1,115.4-94.4,209.5-209.7,209.2
	C153.3,479,59.6,385.2,59.6,269.5L59.6,269.5z"/>
<path class="st1" d="M208.4,425.4c-18.7-6.8-35.9-17.1-50.9-30.3c-25.3-21.7-43.5-50.6-52.1-82.8c-0.3-1.3-0.8-2.4-0.3-3.8
	c6.8-16.3,16.7-31.2,29.2-43.8c1,4.8,1.7,9,2.8,13.3c10.9,42.9,36.6,73.2,76.8,91.6c9.8,4.3,20.1,7.4,30.6,9.2
	c2.9,0.5,4.1-0.2,5.3-2.7c5.3-10.2,7.8-21.1,9.7-32.2c3-18.3,4.7-36.8,1.7-55.1c-4.5-28-19.9-48.7-46-60.6
	c-11.3-5.1-23.2-7.5-35.6-4.2c-0.8,0.1-1.5,0.2-2.3,0.3c-1.1,0.3-2.2,0.7-3.2-0.1c6.6-7.1,15-11.2,24.1-13.9
	c16.8-4.9,32.8-3,47.6,6.7c3.3,2.2,2.9-1,3.2-2.1c4.9-15.1,6.7-30.3,0.7-45.9c3,0.1,4.7,2.1,6.5,3.6c1.5,1.3,2.9,2.9,4.4,4.3
	c0.9,0.8,2.2,1.8,2.3-0.4c0.2-3,1.3-5.4,4.5-5.1c3.3,0.3,4.1,3.1,4,6.1c0,0.2,0.2,0.4,0.5,0.9c3.7-3.8,7.3-7.5,12.8-10.6
	c-3.7,9.3-4.4,18.1-3.8,27.1c0.5,6.5,1.8,12.8,3.8,19c0.8,2.7,1.5,3.4,4.3,1.6c23.2-15.1,52.3-10.2,70.6,5.7
	c0.5,2.7-1.1,1.8-2.4,1.5c-7.7-1.4-15.3-2.1-23.1-0.4c-22.1,4.9-38.7,17.1-50,36.5c-7.4,12.7-10.7,26.7-11.5,41.2
	c-1.3,23,0.7,45.6,8.3,67.6c4.4,12.6,4.9,12.9,17.7,9.7c45.8-11.4,77.4-39,95.3-82.6c2-5.1,3.6-10.3,4.8-15.6
	c1.3-5.3,2.3-10.7,2.8-16.1c3.4,2.2,5.5,5,7.9,7.7c9.8,11,17.7,23.6,23.3,37.3c0.7,1.4,0.8,3,0.4,4.4c-15.1,52.3-48.1,89.1-97.7,111
	c-13.5,6.1-27.8,9.9-42.5,11.4c-3.4,0.4-6.9,0.7-10.3,1.3c-24.3,1.6-47.9-1.2-70.9-9.4C210.6,426.3,209.5,425.8,208.4,425.4
	L208.4,425.4z"/>
<path class="st1" d="M434.7,299c-6.2-19.3-16.7-36.9-30.6-51.6c-1-1.1-1.6-2.6-1.6-4.2c-0.8-17.7-4.6-34.7-12.3-50.7
	c-16.3-33.8-42-57.3-77.5-69.9c-8.3-2.9-16.9-5-25.6-6.3c-3-0.4-3.3,0.4-3.3,3.1c0,8.3-6.7,15.5-14.6,15.9
	c-8.6,0.7-16.1-5.7-16.9-14.2c-1.1-9.3,7.1-18.6,16.6-18.7c20.2-0.2,40.3,3.4,59.3,10.4c33.8,12.4,60.9,33.4,81.2,62.9
	c24,34.9,33,73.6,27.7,115.6c-0.3,2.6-0.7,5.1-1.1,7.7c-0.3,0.4-0.8,0.5-1.2,0.2C434.8,299.2,434.7,299.1,434.7,299L434.7,299z"/>
<path class="st1" d="M255.4,102.9c-4.4,3.6-7.3,7.5-8.3,12.4c-0.4,1.9-1.9,1.5-3.1,1.7c-16.8,3.3-32.6,9-47.1,18.2
	c-32.1,20.2-52.3,48.9-60.6,85.9c-1.7,7.7-2.6,15.6-2.7,23.5c0,2.2-0.8,4.3-2.4,5.9c-10.9,12.3-19.5,26.5-25.4,41.9
	c-0.7,1.9-1,5.2-3.3,4.9c-2-0.2-0.8-3.3-1.1-5.1c-5.3-39.2,2.2-75.9,23-109.6c21.1-34.1,51-57.7,88.9-71.1c12.8-4.5,26-7,39.3-8.7
	C253.7,102.8,254.5,102.8,255.4,102.9z"/>
<path class="st3" d="M282.5,436.2c3.3-1.7,6.8-1.6,10.3-1.3C289.5,436,286,436.4,282.5,436.2z"/>
<path class="st4" d="M357.3,222.7c1-0.2,2.3,0.2,2.4-1.5l2.5,2.1c0.3,0.4,0.2,0.9-0.1,1.2C360.3,224.3,358.7,223.7,357.3,222.7z"/>
<path class="st5" d="M174.2,224.3l3.2,0.1c-0.8,0.6-1.7,1-2.7,1.4C172.8,226,173.8,225,174.2,224.3z"/>
<path class="st6" d="M362,224.6l0.1-1.2c0.7,0.6,1.9,1.2,1.6,1.9S362.5,225.2,362,224.6z"/>
<path class="st7" d="M434.7,299h1.4c0,0.7,0.5,1.7-0.5,1.7C434.7,300.8,434.6,299.8,434.7,299z"/>
<path class="st8" d="M208.4,425.4c1.3-0.3,2.6,0.2,3.2,1.4C210.4,426.8,209.3,426.3,208.4,425.4z"/>
<g>
	<path class="st1" d="M190.7,39.8c0.7,1.5,0.6,3.7-0.3,6.7c2.8,1.3,4.5,2.8,5.1,4.3l4.3,9.6l-8,3.7l-3.7-8.2
		c-0.3-0.7-0.8-1.3-1.5-1.6c-0.6-0.3-1.4-0.4-2-0.1l-17.3,7.7l-6-7.2l19.6-8.7c0.6-0.3,1.1-0.9,1.3-1.5c0.2-0.7,0.1-1.5-0.2-2.2
		l-2.4-5.5c-0.3-0.7-0.8-1.3-1.5-1.6c-0.6-0.3-1.4-0.4-2-0.1l-20.7,9.3l13.4,30.1l-8.1,3.6l-17.1-38.4L177,24.6
		c1.6-0.7,3.5-0.7,5,0.2c1.7,0.9,3.1,2.3,3.8,4.1L190.7,39.8z"/>
	<path class="st1" d="M231.6,46.8l-13.6,2.9l-4.4-8.3l12.3-2.7l-10.3-14.7l-6.3,33.6l-9.9,2.1L208,15l8.6-1.9
		c1.6-0.4,3.1,0.4,4.3,2.1l24.3,34.6l-9.9,2.1L231.6,46.8z"/>
	<path class="st1" d="M254,25.5l-0.2,24l-8.8-0.1l0.3-42l8.8,0.1c1.7,0,2.7,0.5,3.2,1.5l12.4,30.1l12.9-29.9c0.4-1,1.5-1.5,3.1-1.5
		l8.8,0.1l-0.3,42l-8.8-0.1l0.2-24l-10.3,23.9l-11.4-0.1L254,25.5z"/>
	<path class="st1" d="M328.6,51.2L315,48.1l-0.4-9.3l12.3,2.8l-3-17.6l-20,27.7l-9.8-2.3l26.6-37l8.6,2c1.6,0.4,2.6,1.6,3,3.8
		l7.3,41.7l-9.8-2.3L328.6,51.2z"/>
	<path class="st1" d="M357.2,21.6l8,3.7l-17.7,38.1l-8-3.7L357.2,21.6z M396.1,39.7l-17.7,38.1l-8-3.7l7-15l-19.5-9l1.5-9.2
		l21.8,10.1l7-15L396.1,39.7z"/>
	<path class="st1" d="M98.3,427.4l4,8.5l-20.4,19.9l-6.2-6.4L98.3,427.4z M93.9,407.8l30.1,31l-6.4,6.3l-30.1-31L93.9,407.8z"/>
	<path class="st1" d="M120.3,480.5l-11.1-8.5l3.4-8.7l10.1,7.7l4.4-17.4l-29.7,17l-8.1-6.2l39.6-22.6l7.1,5.4c1.4,1,1.8,2.6,1.2,4.7
		l-10.5,41l-8.1-6.2L120.3,480.5z"/>
	<path class="st1" d="M144.2,484.1c-1.6-0.8-2.7-2.3-3-4c-0.4-1.9-0.2-3.9,0.7-5.6l4.7-9.4c0.8-1.8,2.2-3.1,4-3.9
		c1.6-0.8,3.4-0.8,5,0l27.3,13.6c1.6,0.8,2.7,2.3,3,4c0.5,1.9,0.2,3.9-0.7,5.6l-0.7,1.3l-28.4-14.1c-0.6-0.3-1.4-0.3-2,0
		c-0.7,0.3-1.3,0.9-1.6,1.6l-0.7,1.3c-0.4,0.7-0.4,1.5-0.3,2.2c0.1,0.7,0.6,1.3,1.3,1.6l22.8,11.3c1.6,0.8,2.7,2.3,3,4
		c0.5,1.9,0.2,3.9-0.7,5.6l-4.7,9.4c-0.8,1.8-2.2,3.2-4,3.9c-1.6,0.8-3.4,0.8-5,0l-27.3-13.6c-1.6-0.8-2.7-2.3-3.1-4
		c-0.5-1.9-0.2-3.9,0.7-5.6l0.7-1.3l28.4,14.1c0.6,0.3,1.4,0.3,2,0c0.7-0.3,1.3-0.9,1.6-1.6l0.7-1.3c0.4-0.7,0.5-1.5,0.3-2.2
		c-0.1-0.7-0.6-1.3-1.2-1.6L144.2,484.1z"/>
	<path class="st1" d="M202.1,497.3l16.2-11.2l11,3l-20.8,16.1l9.9,24.4l-11-3l-10.5-24.6l-3.7-1l-5.5,20.3l-8.6-2.3l11-40.5l8.6,2.3
		l-3.9,14.5L202.1,497.3z"/>
	<path class="st1" d="M233.9,531.9l-8.9-0.7l2.9-34.4c0.1-1.9,0.9-3.8,2.3-5.1c1.2-1.3,2.9-2,4.7-1.8l34.2,2.9l-0.8,9l-29.1-2.5
		c-0.7-0.1-1.4,0.2-1.9,0.7c-0.5,0.5-0.9,1.2-0.9,2L233.9,531.9z M261.4,508.7l1.8,9.2l-24.1-2l-1.8-9.2L261.4,508.7z"/>
	<path class="st1" d="M279.2,534.3c-1.7,0.2-3.5-0.5-4.7-1.7c-1.4-1.4-2.2-3.2-2.4-5.1l-2.7-26.8c-0.2-1.9,0.2-3.9,1.4-5.5
		c0.9-1.5,2.5-2.5,4.3-2.6l30.3-3c1.7-0.2,3.5,0.5,4.7,1.7c1.4,1.4,2.2,3.2,2.4,5.1l2.7,26.9c0.2,1.9-0.2,3.9-1.3,5.5
		c-0.9,1.5-2.5,2.5-4.3,2.6L279.2,534.3z M281,501c-0.7,0.1-1.3,0.5-1.7,1.1c-0.4,0.6-0.6,1.4-0.5,2.2l1.8,17.9c0.1,0.8,0.4,1.5,1,2
		c0.5,0.5,1.2,0.8,1.9,0.7l20.2-2c0.7-0.1,1.3-0.5,1.7-1.1c0.4-0.6,0.6-1.4,0.5-2.2l-1.8-17.9c-0.1-0.8-0.4-1.5-1-2
		c-0.5-0.5-1.2-0.8-1.9-0.7L281,501z"/>
	<path class="st1" d="M361.3,494.6c0.5,1.6,0.1,3.8-1,6.6c2.6,1.6,4.1,3.3,4.6,4.8l3.1,10l-8.5,2.7l-2.7-8.6
		c-0.2-0.7-0.7-1.4-1.3-1.8c-0.6-0.4-1.3-0.5-2-0.3l-18.2,5.7l-5.1-7.8l20.6-6.4c0.7-0.2,1.2-0.7,1.5-1.4c0.3-0.7,0.3-1.5,0.1-2.3
		l-1.8-5.7c-0.2-0.7-0.7-1.4-1.4-1.8c-0.6-0.4-1.3-0.5-2-0.3l-21.8,6.8l9.8,31.5l-8.5,2.7l-12.5-40.1l35.2-11c1.7-0.5,3.5-0.2,5,0.8
		c1.6,1,2.8,2.7,3.4,4.5L361.3,494.6z"/>
	<path class="st1" d="M379.8,497.4c0.4,0.7,0.9,1.2,1.7,1.5c0.6,0.3,1.4,0.3,2-0.1l25.6-14l0.7,1.3c1,1.7,1.3,3.6,0.9,5.5
		c-0.3,1.7-1.4,3.2-2.9,4.1l-24.5,13.4c-1.5,0.8-3.4,0.9-5,0.2c-1.8-0.7-3.3-2-4.2-3.8l-13-23.7c-1-1.7-1.3-3.6-0.9-5.5
		c0.3-1.7,1.4-3.2,2.9-4.1l24.5-13.4c1.5-0.8,3.4-0.9,5-0.2c1.8,0.7,3.3,2.1,4.2,3.8l0.7,1.3l-25.6,14c-0.6,0.3-1,0.9-1.1,1.6
		c-0.2,0.8,0,1.5,0.4,2.2L379.8,497.4z"/>
	<path class="st1" d="M419.9,473.3c0.5,0.6,1.2,1,1.9,1.2c0.7,0.2,1.4,0,2-0.5l22.6-18.5l5.7,7l-26.6,21.7c-1.4,1.1-3.2,1.5-4.9,1.1
		c-1.9-0.4-3.6-1.4-4.8-2.9l-17-20.9c-1.3-1.5-1.9-3.3-1.9-5.3c0-1.8,0.7-3.4,2.1-4.5l26.5-21.7l5.7,7l-22.6,18.5
		c-0.5,0.4-0.8,1.1-0.8,1.8c0,0.8,0.3,1.5,0.8,2.1L419.9,473.3z M431,446.8l7.7,5.4L420,467.4l-7.7-5.4L431,446.8z"/>
</g>
</svg>
