<?xml version="1.0" encoding="utf-8"?>
<!-- Generator: Adobe Illustrator 22.1.0, SVG Export Plug-In . SVG Version: 6.00 Build 0)  -->
<svg version="1.1" id="Capa_1" xmlns="http://www.w3.org/2000/svg" xmlns:xlink="http://www.w3.org/1999/xlink" x="0px" y="0px"
	 viewBox="0 0 398.8 398.8" style="enable-background:new 0 0 398.8 398.8;" xml:space="preserve">
<style type="text/css">
	.st0{fill:#FFFFFF;stroke:#009FE3;stroke-width:5.6693;stroke-miterlimit:10;}
	.st1{fill:#009FE3;stroke:#009FE3;stroke-width:5.6693;stroke-miterlimit:10;}
	.st2{fill:#FFFFFF;}
	.st3{display:none;fill:none;}
</style>
<path class="st0" d="M202,395V5.7C94.3,5.7,7.1,92.9,7.1,200.4S94.3,395,202,395z"/>
<path class="st1" d="M200.1,5.7V395C307.8,395,395,307.8,395,200.3S307.8,5.7,200.1,5.7z"/>
<path class="st2" d="M199.4,395.9C91,395.9,2.9,307.7,2.9,199.4S91,2.8,199.4,2.8S395.9,91,395.9,199.3S307.8,395.9,199.4,395.9z
	 M199.4,43.9c-85.7,0-155.5,69.7-155.5,155.5s69.7,155.5,155.5,155.5c85.7,0,155.5-69.7,155.5-155.5S285.1,43.9,199.4,43.9z"/>
<path d="M199.4,5.7c107,0,193.7,86.7,193.7,193.7s-86.7,193.7-193.7,193.7S5.7,306.4,5.7,199.4S92.4,5.7,199.4,5.7 M199.4,357.7
	c87.4,0,158.3-70.9,158.3-158.3S286.8,41.1,199.4,41.1S41.1,111.9,41.1,199.4S112,357.7,199.4,357.7 M199.4,0
	c-26.9,0-53,5.3-77.6,15.7c-23.7,10-45.1,24.4-63.4,42.7S25.7,98,15.7,121.8C5.3,146.4,0,172.5,0,199.4s5.3,53,15.7,77.6
	c10,23.7,24.4,45.1,42.7,63.4s39.6,32.7,63.4,42.7c24.6,10.4,50.7,15.7,77.6,15.7s53-5.3,77.6-15.7c23.7-10,45.1-24.4,63.4-42.7
	s32.7-39.6,42.7-63.4c10.4-24.6,15.7-50.7,15.7-77.6s-5.3-53-15.7-77.6c-10-23.7-24.4-45.1-42.7-63.4S300.8,25.7,277,15.7
	C252.4,5.3,226.3,0,199.4,0L199.4,0z M199.4,352c-84.2,0-152.6-68.5-152.6-152.6S115.2,46.7,199.4,46.7S352,115.2,352,199.3
	S283.6,352,199.4,352L199.4,352z"/>
<path id="a" class="st3" d="M376.2,139.2C341.9,41.7,235-9.5,137.5,24.8S-11.2,166,23.1,263.5s141.2,148.7,238.7,114.4
	S410.5,236.7,376.2,139.2L376.2,139.2z"/>
<text transform="matrix(1 0 0 1 563.5 35.1)" style="display:none;enable-background:new    ; font-family:'ArialMT'; font-size:12px;"> </text>
<path id="b" class="st3" d="M352.3,140.7c33.4,85.5-8,181.5-92.4,214.5S80,345.5,46.7,260s8-181.5,92.4-214.5
	S318.9,55.2,352.3,140.7L352.3,140.7z"/>
<text transform="matrix(1 0 0 1 563.5 35.1)" style="display:none;enable-background:new    ; font-family:'ArialMT'; font-size:12px;"> </text>
<path d="M302,209.5c-1.7-6.4-3.1-13.5-5.5-20.2c-7.7-21.5-21.9-37.9-41-50.2c-11.3-7.3-23.7-12.2-36.9-14.8
	c-15.9-3.2-31.8-3.5-47.4,1.8c-17.9,6.1-31.8,17-40.4,34.1c-10,19.8-6.9,45.2,7.7,62c18,20.7,41,28.5,67.9,25.2
	c17.9-2.2,33.2-9.9,45.2-23.5c4.5-5,7.9-10.9,11.9-16.4c1.1-1.5,2.2-3,3.2-4.4c4.9,10.9,2.5,20.9-2.7,30.8
	c-8.4,15.9-21.4,27.2-36.5,36.5c-17.9,11-36.9,13.1-57.1,8c-18.5-4.7-34.5-13.6-48.1-27.1c-7.3-7.3-11.6-16.4-16.5-25.1
	c-8.5-15.4-10.6-32-7.6-49.2c5-29.3,21.7-50.4,47.2-64.8c17.9-10.1,37.2-14.1,57.6-12.6c31.6,2.4,57.4,16.4,77,41.2
	c9.5,11.9,15.9,25.5,19.3,40.5c1.9,8.2,3,16.5,2.9,25c0,1.1-0.1,2.2-0.2,3.3C302,209.6,301.8,209.9,302,209.5L302,209.5z"/>
<path d="M229.6,183.5c5.4,12.5,0,30-11.6,38.9c-12.9,9.9-30.8,10.1-43.2,0.4c-8.3-6.5-13.1-14.9-14-25.4c-0.9-10.4,2.6-19.4,9-27.5
	c-13.9,4.7-24.7,13.2-33.2,25.7c-1.6-5.7-1.6-10.8-0.8-15.8c3.3-20.1,15.3-33.3,33.4-41.4c12.6-5.7,25.9-6.4,39.4-4.7
	c16.9,2.1,32.3,7.9,46.1,18c15.9,11.7,27.1,26.8,32.8,45.8c2.3,7.7,3.1,15.6,3.2,23.6c0,0.7,0,1.4-0.1,2.1c0,0.4-0.2,0.8-0.4,1.8
	c-2.5-3.6-4.5-7-7-10.1c-3.9-5-8-9.8-12.3-14.6c-3.5-3.9-6.8-8-10.8-11.3c-8.6-7.2-17.7-13.8-27.9-18.5c-3-1.4-6.7-1.5-10.2-2
	c-2.5-0.3-5.1-0.5-7.5,0c-5.9,1.1-9.8,6-9.9,11.9c-0.1,5.6,4,11,9.3,12.3c6.1,1.5,11.8-1.1,14.6-6.6
	C228.7,185.3,229.1,184.5,229.6,183.5L229.6,183.5z"/>
</svg>
