<svg enable-background="new 0 0 113.4 113.4" viewBox="0 0 113.4 113.4" xmlns="http://www.w3.org/2000/svg"><path d="m56.7 113.4c-31.3 0-56.7-25.4-56.7-56.7 0-31.2 25.4-56.6 56.6-56.7 31.3 0 56.8 25.3 56.8 56.6 0 31.4-25.3 56.8-56.7 56.8zm0-112.1c-30.5 0-55.4 24.8-55.4 55.3 0 30.6 24.9 55.5 55.4 55.5 30.4 0 55.4-24.9 55.4-55.3 0-30.6-24.8-55.5-55.4-55.5z"/><path d="m56.7 1.3c30.5 0 55.4 24.9 55.4 55.5 0 30.4-24.9 55.3-55.4 55.3-30.6 0-55.5-24.9-55.4-55.5 0-30.5 24.9-55.3 55.4-55.3zm0 108.4c29.1.2 53.3-24.1 53.1-53.4-.2-29.1-24-52.7-53.3-52.7-29.2 0-52.9 23.9-52.8 53.2 0 29.3 23.8 53 53 52.9z" fill="#f8e937"/><path d="m56.7 109.7c-29.2.1-53-23.7-53-52.9-.1-29.3 23.6-53.1 52.8-53.2 29.3 0 53 23.6 53.3 52.7.2 29.3-24 53.7-53.1 53.4zm-7-36.2c.3-.4.5-.8.8-1 4.3-4.5 8.7-9.1 12.9-13.6 1.7-1.8 3.8-3.1 6.1-3.8 5.2-1.6 11 .6 13.9 5.2 3 4.8 2.4 10.9-1.5 15-3.8 4-9.8 5-14.7 2.4-.5-.2-.9-.5-1.4-.8-2.8 2.9-5.5 5.7-8.2 8.6.3.3.5.5.7.6 5.8 4.3 12.3 5.8 19.4 4.4 13-2.6 21.5-15.4 19-28.4-2-9.9-9.7-17.6-19.7-19.2-8.1-1.3-15.3.8-21.1 6.8-3.4 3.5-6.7 7.1-10 10.6-1.6 1.6-1.9 3.5-1.3 5.6.8 3 2.7 5.2 5.1 7.6zm16.1-15.8c-.5.7-.6.9-.8 1.1-5.2 5.5-10.4 11-15.6 16.4-3.1 3.2-6.9 4.4-11.3 3.7-6.4-1.1-10.8-7.3-9.9-13.6 1-6.7 6.7-11.3 13.3-10.7.5 0 1 .1 1.8.2-.6-.7-.9-1.2-1.3-1.7-2.3-2.9-4.6-5.7-6.9-8.6-.8-1-1.4-1.1-2.6-.8-10.7 3.3-18.8 16.3-15.6 28.7 2.3 8.9 7.9 15 16.7 17.6 9.1 2.7 17.3.5 24.1-6.2 2-1.9 3.8-4 5.7-6 2.3-2.3 4.5-4.7 6-7.7 1.6-3.1 1.5-6.4-.6-8.9-.9-1.1-1.8-2.2-3-3.5zm-16.9-48c-.1.1-.2.1-.3.2.3.4.6.7.9 1.1 1.9 2.8 1.9 5.7 0 8.1-3.6 4.7-7.2 9.4-10.8 14.1-1.9 2.5-2.2 5.5-2.2 8.6 0 .5.2 1.2.5 1.6 3.1 4.2 6.3 8.3 9.4 12.4.1.2.3.2.5.4.6.6 1 .4 1.5-.2 2.3-2.5 4.6-4.9 7-7.3.6-.7.6-1.1.1-1.9-1.7-2.2-3.3-4.5-4.8-6.8-1-1.6-.9-3.2.4-4.7 1.6-1.9 3.1-3.8 4.7-5.5 1.4-1.5 3-2 5.1-1.2 2.4.9 4.9 1.6 7.4 2.3-5.5-8.2-11.6-15.4-19.4-21.2zm7.8 93.8c.7-4.9 2.5-9.3 5-13.4-1.7-1.1-3.4-2.2-5-3.2-1.7 1.1-3.3 2.1-5 3.2 2.5 4.2 4.2 8.6 5 13.4zm30.8-58.1c-2.3-3-13-10.8-15.6-11.5.9 1.6 2 3.2 2.6 5 .7 1.9 1.7 2.6 3.6 2.9 3.4.4 6.4 1.9 9.4 3.6zm-71.7 29c-1-3.5-1.2-7-.7-10.5.3-2.5-.6-4.6-.7-7-1.7 6-2.5 12 1.4 17.5zm83.2 2.3c2.4-7 1.7-14.2-1.4-17.3 1.1 4.2 1 8.3.5 12.4 0 .3.1.6.1 1 .3 1.3.5 2.6.8 3.9z"/><g fill="#f8e937"><path d="m49.7 73.5c-2.4-2.4-4.3-4.6-5.1-7.6-.6-2.1-.3-3.9 1.3-5.6 3.4-3.5 6.7-7.1 10-10.6 5.8-6 13-8.1 21.1-6.8 10 1.6 17.8 9.3 19.7 19.2 2.6 13-6 25.8-19 28.4-7.1 1.4-13.6-.1-19.4-4.4-.2-.2-.4-.4-.7-.6 2.7-2.9 5.4-5.7 8.2-8.6.5.3.9.5 1.4.8 4.8 2.6 10.9 1.6 14.7-2.4 3.9-4.1 4.5-10.2 1.5-15-2.9-4.6-8.7-6.8-13.9-5.2-2.4.7-4.4 2-6.1 3.8-4.3 4.6-8.6 9.1-12.9 13.6-.3.2-.5.6-.8 1z"/><path d="m65.8 57.7c1.2 1.3 2.2 2.4 3.1 3.5 2.1 2.5 2.2 5.8.6 8.9-1.5 3-3.7 5.3-6 7.7-1.9 2-3.8 4-5.7 6-6.8 6.7-15 8.9-24.1 6.2-8.8-2.6-14.4-8.7-16.7-17.6-3.2-12.4 4.9-25.4 15.8-28.7 1.1-.3 1.8-.2 2.6.8 2.2 2.9 4.6 5.7 6.9 8.6.4.5.7 1 1.3 1.7-.8-.1-1.3-.2-1.8-.2-6.6-.6-12.4 4-13.3 10.7-.9 6.3 3.6 12.5 9.9 13.6 4.3.8 8.2-.4 11.3-3.7 5.2-5.5 10.4-11 15.6-16.4-.1-.2 0-.4.5-1.1z"/><path d="m48.9 9.7c7.8 5.8 13.9 13 19.3 21.2-2.5-.8-5-1.4-7.4-2.3-2.1-.8-3.7-.3-5.1 1.2-1.6 1.8-3.2 3.7-4.7 5.5-1.2 1.5-1.4 3.1-.4 4.7 1.5 2.3 3.1 4.6 4.8 6.8.6.8.6 1.2-.1 1.9-2.4 2.4-4.7 4.9-7 7.3-.5.6-1 .7-1.5.2-.1-.1-.4-.2-.5-.4-3.2-4.1-6.3-8.2-9.4-12.4-.3-.4-.5-1.1-.5-1.6 0-3 .3-6 2.2-8.6 3.6-4.7 7.2-9.4 10.8-14.1 1.9-2.4 1.9-5.3 0-8.1-.3-.4-.6-.8-.9-1.1.2-.1.3-.1.4-.2z"/><path d="m56.7 103.5c-.8-4.8-2.5-9.2-5-13.4 1.7-1.1 3.3-2.2 5-3.2 1.6 1 3.2 2.1 5 3.2-2.5 4.1-4.3 8.5-5 13.4z"/><path d="m87.5 45.4c-2.9-1.8-6-3.3-9.4-3.7-2-.2-3-1-3.6-2.9-.6-1.8-1.7-3.4-2.6-5 2.6.9 13.2 8.7 15.6 11.6z"/><path d="m15.8 74.4c-3.9-5.5-3.1-11.5-1.4-17.5.1 2.3 1 4.5.7 7-.4 3.5-.3 7 .7 10.5z"/><path d="m99 76.7c-.3-1.3-.5-2.6-.8-3.9-.1-.3-.1-.7-.1-1 .5-4.2.6-8.3-.5-12.4 3.1 3.1 3.7 10.3 1.4 17.3z"/></g></svg>