<svg enable-background="new 0 0 113.4 113.4" viewBox="0 0 113.4 113.4" xmlns="http://www.w3.org/2000/svg"><circle cx="56.7" cy="56.7" fill="#2a496f" r="56.7"/><path d="m107.8 32.2s-2.2-4.7-4.8-8.3c-3.4-4.6-5.1-6.2-5.1-6.2l-41.3 28.5-41.2-28.4s-1.1.8-5.1 6.3c-2.9 3.9-4.8 8.2-4.8 8.2l35.6 24.5-35.5 24.5s2 4.3 4.6 8c2.5 3.6 5.4 6.4 5.4 6.4l41-28.2 41.1 28.3s2-1.7 5.7-7c2.8-4 4.3-7.4 4.3-7.4l-35.6-24.6z" fill="#fdfdfd"/><path d="m78.7 38c0-.1 0-.1 0 0 1.7-2.5 1.7-5.1 0-8-.7-1.2-2-1.9-3.6-2-1.5-.1-2.8.2-3.9.8-.7.4-1 1-1.3 1.5-.1.2-.3.4-.4.6-.2.3-.6.7-.4 1.3-.2.1-.3.2-.4.4-.2.4-.1.8 0 1.1v.1c-.7.3-.6 1-.5 1.4.1.8.2 1.6.1 2.5s-.4 1.3-1.6 1.6c-.2 0-.3.2-.4.4 0 .2.1.4.2.5.8.5 1.6.9 2.4.9.2 0 .5 0 .7-.1 1.4-.4 1.7-1.8 1.8-2.2.1-.5.1-.5.3-.5h.2.3c.3 0 .7-.1 1-.1h.1c.4-.1.9-.3 1.2-.7-.6.8-1.3 1.6-2.1 2.5l-.1.1c-1 1.1-2 2.5-2.5 4.2-.4 1.6-.4 3.3.2 5.2.3 1.2.8 2.4 1.2 3.5.3.9.7 1.8 1 2.6.5 1.4.3 2.8-.5 4.2-.4.6-.8.9-1.2.9s-.8-.2-1.3-.6c-.6-.5-.9-1.1-1.2-1.6-.6-1.1-1.3-2.2-2.4-3.2-1.6-1.5-2.6-2.9-3.4-4.5v-.1c0-.1-.1-.1-.1-.2 0 0 0-.1 0-.2 0-.2-.2-.7-.7-.8l.1-.1c.1-.1.2-.2.3-.3.4-.3.6-.8.6-1.2v-.1h.1c.1.1.2.1.3.1 0 0 .1 0 .1.1.2.1.4.2.6.2h.2c.2 0 .3.1.5.1.3 0 .6-.1.8-.3.1-.1.1-.2.1-.2.1-.4-.2-.7-.4-.8 0-.1-.1-.2-.1-.3-.3-.7-.6-1.2-.4-1.9 0-.1.1-.2.1-.3.2-.4.2-.7 0-1.1 0-.2 0-.3-.1-.5 0 0 0 0 0-.1h.3s.1 0 .2 0 .3.1.4 0c .2.1.5.2.8.2s.6-.1.8-.4.3-.7-.2-1.1l-.1-.1s0 0 0-.1l-.1-.1c-.1-.2-.2-.4-.4-.6-.1-.1-.1-.3-.2-.3v-.1c-.1-.3-.2-.7-.5-1v-.1-.1s0 0 0-.1-.1-.1-.1-.2-.1-.2-.1-.3c.3.1.7.2 1 .2h.2c.4 0 .7-.2.8-.4s.1-.4-.1-.8c0-.2-.1-.4-.2-.5 0-.1-.1-.2-.2-.3l-.1-.1-.6-1.7v-.4c.2-.3.2-.6 0-.9 0-.4.1-.8-.1-1.2 0-.7-.2-1.2-.5-1.7 0-.3-.2-.5-.4-.7-.1-.1-.1-.2-.2-.3s-.1-.2-.3-.3c-.1-.2-.3-.3-.4-.3.1-.1.2-.3.2-.4.1-.1.2-.3.2-.4s.1-.2.1-.4c.2-.7.4-1.6-.1-2.5-.1-.2-.2-.3-.4-.3-.2-.2-.5-.3-.8-.3-.1 0-.1 0-.2 0h-.1c.1-.2.1-.5 0-.7 0-.1 0-.2-.1-.4 0 0 0 0 0-.1s0-.2 0-.2c0-.3.1-.7-.2-1.1l-.1-.1h-.1-.1c-.1 0-.2 0-.3 0 0 0 0 0-.1 0l-.7.5c-.2.1-.3.2-.4.3-.1 0-.1.1-.2.1h-.1c-.1 0-.1.1-.2.1s-.1 0-.2 0-.2 0-.3 0l-.3.1c-.1 0-.2.1-.3.3l-.2.4c-.1.2-.1.2-.2.2s-.3-.1-.6-.2h-.1c-.1-.1-.2-.1-.4-.1h-.1s0 0-.1-.1-.2-.1-.4-.1c-.1-.1-.2-.1-.3-.1h-1.4c-.1 0-.2 0-.3.1-.1 0-.2 0-.3.1-.1 0-.2.1-.3.2s-.1.2-.1.3c-.1.2-.1.4-.2.6v.1s0 0-.1.1l-.1.1s0 0-.1 0-.3 0-.4.1h-.1c-.1 0-.3 0-.4.1-.1 0-.2 0-.3.1-.2 0-.3 0-.5.1h-.2c-.1 0-.2 0-.3.1-.2 0-.4 0-.6 0-.2-.1-.5-.1-.7 0h-.1c-.2-.1-.3 0-.5.1l-.5.4c-.5.3-.8.8-.8 1.5v.4c0 .4.1.9.2 1.3 0 .2.1.4.2.6l-2.6-2.1c-.1-.1-.2-.1-.3-.1l-.4-.1c-.1 0-.2 0-.3 0l-.2.1c-.1 0-.2.1-.2.2v.2c-.1.1-.1.2 0 .3l.1.4c0 .1.1.2.2.3.1.2.2.3.4.3.5 0 .5.2.6.4 0 .1 0 .2.1.3 0 .1 0 .2.1.2.1.1.1.2.1.4 0 .1.1.2.1.3s0 .2 0 .2c.2.4.5.7.8 1l .3.3s.2.1.3.1 0 0 .1.1l.1.1c.1.1.2.2.4.2h.3.1.1c0 .1-.1.2-.1.3v.9 1.2c0 .6.4 1 .9 1 .2 0 .4-.1.6-.2.1 0 .1-.1.2-.1.3-.2.5-.3.8-.3.1 0 .2 0 .3.1.2.1.4.1.5.1h.1.1c.2.1.3.1.5.1h.2c.1 0 .1.1.2.1-1.9.3-3.9.7-5.8 1.7-.1 0-.2.1-.3.2-.1 0-.2.1-.3.2-.1 0-.2 0-.2.1-.1 0-.2.1-.2.1-.2.2-.3.3-.5.3-.1 0-.1 0-.2.1l-.1.1-.1.1c-.1 0-.1 0-.2.1l-.8.6c0-.1-.1-.2-.2-.3s-.2-.1-.4-.2-.3-.2-.4-.3c0-.1-.1-.1-.1-.1-.7-.6-1.3-1.3-2-2.1 0-.1-.1-.1-.2-.1v-.1c0-.1-.1-.2-.2-.3 0 0 0 0 0-.1s-.1-.2-.2-.2c-.2-.1-.2-.3 0-.8.1-.1.1-.2 0-.4.1-.2 0-.4-.1-.5l-.2-.2-.1-.1s0 0-.1 0c0 0 0 0 0-.1 0-.3 0-.7.1-1 .1-.8.2-1.7 0-2.5 0-.1 0-.2-.1-.3-.1-.4-.1-.8-.3-1.2 0-.1 0-.1-.1-.2l-.6-.8c-.1-.1-.2-.1-.3-.2-.1 0-.2-.1-.3-.1-.3-.1-.6-.2-.9-.2-.1 0-.3 0-.4 0h-.1c-.2 0-.8.1-.9.7 0 .2 0 .4.2.5h-.1-.3c-.2 0-.4 0-.5 0-.5 0-.9 0-1.1.3s0 .6.2 1.1c0 .1.1.1.2.2 0 .1 0 .2.1.2.2.2.3.5.3.8l-.1-.1c-.1-.1-.2-.1-.3-.1s-.2 0-.3-.1-.3-.2-.5-.1c-.1 0-.1 0-.1 0-.2-.1-.4-.1-.5.1 0 0 0 0-.1 0s-.4.1-.5.4c-.1.2-.1.4 0 .6 0 .1.1.2.2.3.2.1.3.2.4.5 0 .1.1.2.1.2 0 .1.1.2.1.2v.3.1c-.2.8.2 1.3.5 1.8-.1 0-.1 0-.2.1-.2.1-.4.1-.6 0-.3.4-.5.4-.6.4-.2 0-.4.1-.6.3-.2.3-.2.6-.1.9 0 .1 0 .1.1.2l.5.6c.1.1.2.1.3.2h.1c.1.1.2.2.3.2h.1.1l.2.2c.1 0 .1 0 .2.1.1 0 .2.1.2.1.1.1.1.2.2.2s.2.1.3.1c.5.2.7.3.9.5.2.6.1.7.1.7s-.1.1-.7.2c-.2 0-.3 0-.5.1h-.2c-.2 0-.3.1-.4.3 0 .1-.1.1-.1.2 0 .2 0 .4.1.5l.1.1c0 .1.1.2.1.3.1.1.1.2.2.2.2.2.4.5.8.7.1 0 .1.1.2.1h.4.8c-.1.2-.2.3-.3.3 0 0-.1 0-.1.1-.2.2-.3.5-.3.7 0 .4.2.6.4.7l.1.1c0 .1.1.2.2.2l.7.5s.1.1.2.1l.3.1c.3.1.5.1.8.2h.1v.3c0 .1.1.2.1.3l1.5 1.5c.1.1.1.1.2.1 0 .1.1.2.2.2.3.1.5.3.7.6l.1.1c.1.1.2.1.2.1 0 .1.1.1.1.2.1.1.2.1.2.1 0 .1.1.1.2.2 0 0 .1 0 .1.1.1 0 .1 0 .2.1.3.1.5.2.7.3.1.1.2.1.3.1-.5 1.5-1.5 2.8-3.1 4.1-.4.3-.8.5-1.2.8-.3.2-.5.3-.8.5-.1 0-.1 0-.1 0s0 0-.1-.1c-.5-.4-1-.7-1.8-1.1-.3-.1-.6-.2-1-.2-1.3 0-2.6 1-3 2.4-.1.3-.1.5.1.7.1.1.2.3.6.3.1 0 .2 0 .4-.1s.4-.1.7 0c-.8.5-1.3 1.1-1.5 2v .1c-.1.2-.2.6.1.9.2.2.4.3.5.3.2 0 .4-.1.5-.2.2-.1.5-.1.8-.1h.3c-.6.7-.7 1.6-.5 2.6.1.2.1.6.6.8h.3c.4 0 .6-.3.7-.4.4-.4.8-.6 1.2-.6.3 0 .6.1.9.3s0 .1-.1.1l-.1.1c-.2.1-.7.5-.4 1.2.1.3.4.6.9.6h.3s.1 0 .2 0h .1c.7 0 1.6-.3 1.8-1.9.2-.9.7-1.4 1.4-2.1v.1c.1.8.5 1 .8 1.1h.2c.5 0 .6-.4.7-.6v-.1c.3-.4.7-.8 1-1.3s.6-1 .7-1.5c.3.3.6.7 1 1.1.1.1.3.1.5.1.2-.1.3-.2.3-.4s0-.4 0-.6c0-.4 0-.8 0-1.2 0-.6.1-.9.5-1.3v.1 1.2c0 .1 0 .2.1.3v.3c0 .1.1.2.1.3v.1l.1.3c0 .1.1.2.2.2 0 .1.1.2.2.2l1 .7s.1.1.2.1c.6.2 1.4.4 2 .8.1 0 .2.1.3.1s.1.1.2.1c.1.1.2.1.4.1.1.1.2.1.2.1.1.1.1.1.2.1l.4.1h.1c.2 0 .4.1.5.3 0 0 .1.1.2.1.5.2.5.2.4.4v.3c0 .1 0 .1.1.1s0 .1-.1.1c0 0-.1 0-.1.1-.1.1-.2.1-.4.1-.1 0-.3 0-.4 0s-.2 0-.3 0c-.2 0-.4-.1-.6-.1-.1 0-.2 0-.3-.1-.1 0-.1 0-.2 0s-.2 0-.2 0c-.2 0-.4 0-.6 0-.1 0-.2 0-.2 0l-.5.1c-.1 0-.1.1-.2.1h-.1c-.1 0-.2.1-.3.1-.1.1-.2.1-.3.1s-.3 0-.3.1l-.1.1c-.1 0-.2 0-.2.1-.4.3-.8.8-1.2 1.4-.3.5-.7.7-1.2.8-.4.1-.8.2-1.2.4-1 .5-1.2 1-1 2.1.5 2 1 3.7 2.2 5.3.2.2.3.4.5.6.1.1.1.2.2.2.4.5.4.7 0 1.1v.2c-.7.7-1.3 1.3-2 1.9-.4.3-.6.4-.8.4s-.4-.1-.8-.3c-1.1-.7-2.2-1.3-3.6-1.4-.2 0-.3 0-.4 0-.5 0-1.2.1-1.8.6-.1.1-.2.3-.2.4 0 .2.1.3.2.4s.3.2.4.2c.2.1.5.3.7.4-.7.3-1.5.6-2.2 1.1 0 0 0 0-.1 0-.1.1-.5.3-.5.8 0 .3.2.6.8.6h.1c.5.1.9.3 1.5.7-.8.7-1.2 1.6-1.2 2.6 0 .5.2.8.6.8.1 0 .3 0 .5-.2.3-.2.6-.3 1-.3.5 0 1 .2 1.4.3-.1.1-.3.3-.3.6l-.1.1c-.1.1-.4.3-.4.6 0 .1 0 .3.3.5.6.5 1.3.7 2 .4 1.2-.6 2.3-1.4 3-2.5.3-.4.6-.7 1-.8h.1c.2.7.6.8.8.8.3 0 .5-.1.6-.2 1.2-.6 2-1.5 2.6-2.5.1.1.3.1.4.1.4 0 .6-.4.7-.5.8-1.4 1.6-3.1 1.5-5.1v-.1c.5-.7.1-1.3-.1-1.6 0-.1-.1-.1-.1-.2-.5-.8-.8-1.7-1.2-2.7-.1-.2-.2-.4-.2-.7 0-.1 0-.1 0-.2.1 0 .1.1.2.1 1.4.5 2.5.7 3.7.9h.5c.5 0 .9-.1 1.2-.3.4-.2.8-.3 1.3-.3h.2.1c.2 0 .3 0 .4.4.3 1.1.7 2.2 2 2.7.9.3 1.6.7 2.1 1.2 1.4 1.3 1.6 1.9.5 4.3-.3.7-.9 1.3-1.6 1.8-.2.1-.3.1-.3.1-.1 0-.2 0-.3-.1-.8-.5-1.7-.8-2.5-.8-1.1 0-2.1.4-3.1 1.4-.1.1-.2.3-.2.5s.2.3.3.4c.1 0 .2.1.3.1.5.2 1 .3 1.4.6-.7.4-1.3.9-1.8 1.4-.3.3-.5.6-.6 1-.1.2-.3.6 0 1 .2.3.4.3.6.3s.3-.1.4-.1c.6-.1 1.1 0 1.6.2-.6 1.1-.7 2.2-.4 3.3.1.2.2.3.5.3h.3c.2 0 .4-.2.5-.4.3-.2.5-.3.8-.5.5-.3 1-.6 1.6-.9.3-.2.5-.2.5-.2s.1.2.2.7.2 1.1 1 1.1c.2 0 .4 0 .6-.1.8-.2 1.4-.7 1.8-1.5.6-1.2.9-2.5.8-3.9.2.1.3.2.4.3.2.4.5.6.8.6.4 0 .6-.3.8-.5.9-1.2 1.1-2.6 1.2-4 .2.3.4.4.6.4.3 0 .5-.2.7-.4l.1-.1c.7-.7.9-1.6.4-2.7-.2-.5-.4-.9-.6-1.3-.1-.1-.1-.2-.2-.3-.2-.4-.2-.4.2-.6.1 0 .2-.1.2-.1.4-.2 1-.5 1.1-1.3.1-1.2-.3-2.1-1.2-2.7-.2-.1-.4-.2-.6-.2-.8 0-1.5-.4-1.9-1s-.5-1.3-.2-2.1c.4-1.2 1-2.4 1.6-3.5l.2-.4c.1-.1.1-.2.4-.3.9-.2 1.9-.5 2.9-1 1.7-.9 2-2.3 2-3.4v-.1c0-.2 0-.3.1-.5.3-.4.2-.8.2-1.1v-.1c0-.1 0-.3 0-.4 0-.3-.1-.5-.1-.8-.1-1.7.8-2.9 2.5-3.3.4-.1.9-.3 1-.8s-.2-.9-.5-1.2c-.2-.2-.4-.3-.6-.4 0 0-.1 0-.1-.1-.1 0-.1-.1-.2-.1-.4-.5-.8-.8-1.5-.8-.2 0-.4 0-.7.1.2-.5.6-.7 1.1-.7h.2.1.3c.3 0 .5-.1.6-.4.2-.4-.1-.8-.2-.9-.4-.6-.9-1-1.5-1.3h.2.1c.1 0 .2.1.3.1.3 0 .5-.1.6-.4.2-.5-.1-.8-.2-.9 0 0 0 0-.1-.1-.7-.8-1.6-1.7-3-1.7-.2 0-.5 0-.7.1 0 0 0 0 0-.1 0-.2 0-.5.2-.7s.5-.4.9-.4c1.3-.1 2.5.3 3.7 1.1.1.1.3.3.6.3.1 0 .3 0 .4-.1.4-.2.3-.6.3-.8 0 0 0 0 0-.1 0-1.7-.8-2.9-2.1-3.5.5 0 1.1.2 1.8.6.3.2.5.4.8.6.2.2.4.3.7.3s.6-.1.7-.8c0-1.5-.9-3-2.7-3.5zm-29.4-7.6c-.1 0-.2 0-.3 0l-.1-.2c.2.1.3.2.4.2s.1 0 0 0zm7.1 20.2c0-.1.1-.1 0 0 .1-.1.1-.1 0 0zm19.5-15.7c-.3.6-.6 1.2-.9 1.8.3-.7.4-1.5.1-2.2-.2-.4-.5-.5-.6-.5-.2 0-.4.1-.5.2-.2.1-.3.2-.3.4 0 .1-.1.1-.1.1-.1 0-.1.1-.2.1-.2.1-.4.3-.6.3 0 0-.1 0-.3-.1-.5-.3-.8-1-.7-1.4.2-.8 1.4-1.9 2.2-2 .4-.1.7.2 1.1.5 1 .8 1.3 1.5.8 2.8z" fill="#fff"/><g fill="#a40524"><path d="m52.4 31.5c.3-.2.5-.5.1-.6-.6-.1-1.3-.4-2-.2-.5.2-1.1.1-1.6.2h-.1c-.1-.2-.2-.3-.3-.5-.9-.8-1.7-1.6-2.6-2.3-.1 0-.3 0-.4-.1-.1 0-.1.1-.2.1 0 .1-.1.2-.1.2 0 .1.1.3.1.4.1 0 .2.1.2.2.6 0 1 .3 1 .9.1.1.1.2.1.3.1.2.1.4.1.6.1.1.2.2.1.4.2.5.7.8 1 1.2.1 0 .2.1.3.2.1 0 .2.1.2.2h.3c0-.4.4-.2.5-.4h.2l.1.1h.9.8c.8.2 1.2-.2 1.3-.9-.1.1 0 0 0 0z"/><path d="m78.6 38.4c-.6-.2-.6-.3-.3-.8 1.7-2.5 1.5-4.9 0-7.4-.7-1.2-1.8-1.7-3.2-1.8-1.3-.1-2.5.1-3.7.8-.8.5-1.1 1.3-1.6 2-.3.4-.5.7-.2 1.2 0 0 0 .2-.1.2-.7.2-.4.7-.3 1.2.1.2 0 .4-.2.5-.5.2-.4.5-.4.9.2.9.2 1.8.1 2.6-.1 1.2-.7 1.7-2 2 .9.6 1.7 1 2.8.8.9-.2 1.2-1 1.4-1.8.1-.6.3-.9 1-.8.4.1.8-.1 1.1-.1 1.2-.3 2-1.9 1.5-3-.1-.2-.2-.2-.4-.1s-.3.4-.5.5c-.5.3-.9.7-1.5.3s-1-1.3-.9-1.9c.2-1 1.6-2.3 2.6-2.4.6-.1 1 .2 1.5.5 1.3.9 1.5 1.9 1 3.4-.8 2.1-2.3 3.7-3.8 5.4-1 1.2-2 2.4-2.4 4-.4 1.7-.3 3.3.2 5 .6 2.1 1.5 4.1 2.2 6.1.5 1.6.3 3.2-.5 4.6s-1.9 1.6-3.2.5c-.6-.5-1-1.1-1.3-1.8-.6-1.2-1.3-2.1-2.3-3-1.4-1.3-2.6-2.8-3.5-4.6 0-.1-.1-.2-.1-.2-.2-.2-.1-.7-.4-.7-.4 0-.5.5-.6.8-.2.6-.3 1.2-.4 1.8-.1.8-.6 1.1-1.4.7-.9-.5-1.5-1.2-2.1-2-.1-.2-.2-.6-.5-.5-.3 0-.4.4-.5.6-.2.4-.3.9-.4 1.4-.1.8-.7 1.1-1.4.7-1-.6-1.7-1.5-2.1-2.6-.2-.6-.5-.8-1.1-.4-.5.3-.9.8-1.2 1.3-.4.7-1 .8-1.6.2-.8-.7-1.2-1.7-1.2-2.8 0-.6 0-.7-.6-.4-.2.1-.3.1-.5.2-.8.5-1.2.4-1.7-.4-1-1.8-1-3.6.3-5.2.2-.3.3-.4-.2-.5-.4-.1-.7-.2-1.1-.3-.7-.2-.9-.7-.4-1.3.2-.6.9-.8 1.2-1.3-.3-.2-.7-.3-.9-.6-.8-.6-1.5-1.4-2.1-2.2-.2-.1-.2-.2-.3-.4-.1-.1-.2-.2-.2-.4-.5-.4-.3-.9-.1-1.3-.1-.1 0-.3 0-.4-.1-.1-.1-.2-.2-.2-.2-.1-.4-.2-.3-.5 0-1.1.3-2.3.1-3.4-.1-.5-.2-1-.3-1.5-.2-.3-.4-.5-.6-.8-.5-.1-.9-.4-1.4-.3-.2.1-.6 0-.6.4.3.1.5.3.5.6 0 0 .1 0 .1.1.1.2.3.5.1.7s-.3-.2-.5-.3c-.1 0-.2-.1-.2-.2-.1 0-.2 0-.3 0-.3 0-.6 0-1 0-.8 0-.8 0-.4.7.2.1.2.2.2.4.4.4.5.9.5 1.5 0 .3-.1.5-.4.2-.2 0-.3-.2-.5-.3-.2 0-.5-.1-.7-.2-.2.1-.3.1-.5 0-.2.2-.6.1-.5.5.3.2.5.4.6.8.1.1.2.1.2.3.1.1.1.2.1.4 0 .1.1.2.1.2-.3.7.1 1.2.5 1.7.3.5 0 .6-.4.6-.3.2-.7.2-1 .1-.5-.2-.7 0-.6.5.2.2.3.4.5.6.2 0 .3.1.4.3.2 0 .3.1.4.2.2.1.5.1.7.4.5.2 1.1.3 1.4.9.3 1.1.2 1.5-1 1.6-.2 0-.5.1-.7.1v.1c.1.1.3.2.3.4.3.3.5.6.9.8h1.4c.3 0 .5.1.3.5-.1.3-.2.6-.5.8-.5.5.2.7.3 1 .2.2.5.4.7.5l1.2.3c.2.1.5 0 .5.3v.1.3l1.5 1.5c.2 0 .3.1.3.3.4.2.6.5.9.7.2 0 .3.1.4.3.2 0 .3.1.4.3.4.1.8.2 1.1.5.5 0 .6.2.5.7-.6 1.9-1.8 3.2-3.3 4.3-.6.5-1.3.9-2 1.3-.3.2-.5.2-.8-.1-.5-.4-1.1-.7-1.7-1-1.2-.5-2.8.3-3.3 1.9-.1.4.2.4.4.3.5-.1 1 0 1.4.2.3.2.3.3 0 .5-.8.4-1.4.9-1.7 1.8 0 .2-.1.4 0 .6.2.2.4 0 .5-.1.5-.2 1.1-.1 1.7-.1.1 0 .3 0 .4.2s-.1.3-.2.4c-.7.7-.8 1.5-.6 2.4 0 .2.1.4.3.5.3.1.3-.2.4-.3.8-.9 1.6-1 2.7-.5.4.2.3.5.1.8-.2.2-.7.4-.5.8s.6.2 1 .2c1 0 1.3-.8 1.4-1.5.2-1.3 1.1-1.9 1.9-2.7.1-.1.2-.2.3-.1s.1.2.1.3v.5c0 .3.1.6.5.7.3.1.3-.3.4-.5.3-.4.7-.8 1-1.3.4-.5.6-1.1.7-1.8 0-.1 0-.3.1-.3.2-.1.3.1.4.2.3.4.7.9 1.2 1.4 0-.7 0-1.3 0-1.8-.1-1.2.7-1.8 1.7-2.3 0-.1.2-.1.2-.1.1.2 0 .3-.2.5s-.1.5-.3.7v1.2c.1.2.1.3.1.5.1.1.2.1.1.3 0 .1.1.2.1.3.1 0 .2.1.2.2.3.2.7.4 1 .7.8.2 1.5.4 2.2.8.1 0 .2 0 .3.1.1 0 .2 0 .3.1.1 0 .3 0 .4.1.1 0 .2 0 .3.1.1 0 .3.1.4.1.3.1.5.2.8.4.4.2.8.3.7.9.1.2.2.5 0 .7 0 .1-.1.2-.2.2-.5.4-1 .2-1.5.2-.3 0-.6-.1-.9-.2-.1.1-.2.1-.3 0-.3.1-.5.1-.8 0-.2 0-.3.1-.5.1 0 .1-.1.2-.3.1-.3.1-.5.3-.8.3-.1.1-.2.2-.4.2-.4.3-.8.8-1 1.2-.3.6-.8 1-1.5 1.1-.4.1-.7.2-1.1.4-.8.4-.9.7-.7 1.5.5 1.8 1 3.6 2.1 5.1.2.3.5.6.7.8.5.6.5 1.1 0 1.7-.7.8-1.4 1.5-2.3 2.2-.9.6-1.3.6-2.2.1-1-.6-2.1-1.3-3.4-1.4-.7 0-1.3 0-2 .4.5.3.9.5 1.3.8.5.3.4.5-.1.7-.8.3-1.5.6-2.2 1-.1.1-.4.2-.3.4 0 .3.3.2.5.2.6.1 1.1.4 1.6.8.4.3.4.4 0 .8-.7.6-1 1.3-1 2.2 0 .3 0 .5.4.3 1-.5 2-.3 2.9.1.4.1.4.3.2.6-.1.1-.3.3-.3.5-.1.3-.7.5-.3.8s.9.6 1.4.3c1.2-.5 2.1-1.3 2.9-2.3.3-.4.7-.8 1.2-1 .4-.1.7 0 .8.3.1.6.5.4.8.2 1-.6 1.9-1.3 2.5-2.4.2-.3.3-.4.5-.1s.4.1.5-.1c.9-1.5 1.5-3.1 1.5-4.9 0-.1 0-.3 0-.3.5-.5.1-.9-.2-1.3-.6-1.1-1-2.3-1.4-3.4-.1-.3-.1-.6.1-.8s.5 0 .7.1c1.2.4 2.3.7 3.6.9.5.1 1 0 1.4-.2.5-.3 1.1-.3 1.7-.4.5-.1.9.1 1 .7.2 1 .6 2 1.7 2.4.8.3 1.6.7 2.2 1.3 1.6 1.5 1.8 2.4.6 4.8-.4.8-1 1.4-1.7 2-.4.3-.7.3-1.1 0-1.8-1.1-3.4-.9-5 .5.6.2 1.3.4 1.8.8.5.3.5.4 0 .7-.7.4-1.3.8-1.8 1.4-.2.3-.4.6-.5.9-.1.2-.2.4 0 .6s.3 0 .5 0c .7-.1 1.3-.1 1.9.2.2.1.5.3.3.5-.5 1-.7 2-.4 3h .4c0-.1.1-.2.2-.3l2.4-1.5c.9-.5 1.2-.4 1.5.8.1.7.2.8 1 .7.7-.2 1.2-.6 1.5-1.3.6-1.2.9-2.4.7-3.7 0-.5.1-.6.6-.4.3.1.6.3.7.5.3.5.5.3.7 0 .9-1.2 1-2.5 1.1-3.9 0-.3-.2-.6.2-.7.3-.1.6.3.7.5.2.6.4.3.7.1.7-.7.6-1.4.3-2.2-.2-.6-.5-1.1-.8-1.6-.3-.6-.2-.9.4-1.2.4-.2 1-.3 1-1 .1-1-.1-1.7-1-2.3-.1-.1-.2-.1-.4-.1-2-.1-3.1-1.8-2.5-3.7.5-1.4 1.1-2.7 1.8-4 .1-.3.4-.4.7-.5 1-.3 1.9-.5 2.8-1 1.3-.7 1.7-1.7 1.8-3 0-.3 0-.5.2-.8s.1-.6.1-.9c0-.4-.1-.8-.1-1.2-.1-1.9.9-3.3 2.8-3.8.8-.2.9-.6.3-1.2-.2-.2-.4-.2-.6-.4-.1-.1-.3-.1-.3-.2-.5-.6-.8-.7-1.7-.6-.2 0-.5.3-.7.1-.2-.3 0-.5.1-.8.4-.8 1-1 1.8-1 .2 0 .4.1.5-.1s-.1-.3-.2-.4c-.8-1.1-1.8-1.5-3.1-1.1-.2.1-.4.2-.5 0-.1-.3.2-.4.3-.5.7-.5 1.5-.5 2.4-.4.2 0 .4.2.5-.1.1-.2-.1-.3-.2-.5-.9-1.1-1.8-1.8-3.3-1.5-.4.1-.5-.2-.5-.5-.1-.9.6-1.6 1.5-1.6 1.5-.1 2.8.4 4 1.2.1.1.2.3.4.2s.1-.3.1-.4c0-1.8-.9-3-2.7-3.4-.1 0-.3 0-.4-.2 0-.2.2-.2.3-.3 1.1-.5 2.1-.1 3.1.5.3.2.6.4.9.7s.5.3.6-.2c0-1.4-.8-2.7-2.3-3.2z"/><path d="m61.6 22.7h.2c-.1-.1-.1 0-.2 0z"/><path d="m43.7 41.3c-.1.4-.7.4-.6 1 .4.1.7.1 1.1.2h.3c.3.2.6.3 1 .5.2.1.3.2.1.5-1.7 1.3-1.9 3.4-.8 5.2.2.3.3.3.6.1.5-.3 1-.6 1.7-.6.5 0 .7.2.6.7-.2.9 0 1.8.6 2.5s.7.7 1.2-.1c.7-.8 1.4-1.5 2.6-1.4.4 0 .6.1.6.5.1.7.4 1.3.9 1.8 0 .1.1.2.3.3.1.1.2.3.4.4.5.4.6.4.8-.3.2-.9.5-1.8 1.3-2.4.4-.4.6-.3.8.2.4 1 1.1 1.8 2 2.4.4.3.6.4.7-.3 0-.4.2-.8.2-1.3 0-.1 0-.2 0-.3.1-.2.2-.3.3-.5 0-.1.1-.1.1-.2.3-.3.6-.7.9-1 .1 0 .1 0 .1-.1.4-.3.6-.6.5-1.1 0-.1 0-.2.1-.3.1-.4.4-.2.7-.2.1.1.2.1.3.1.2.1.5.2.7.3.4.1.8.3 1.1-.1 0-.3-.2-.4-.3-.5-.4-.8-.9-1.6-.6-2.6.1-.1.1-.2.1-.3.2-.3.1-.7 0-1 0-.1 0-.3 0-.4s0-.2-.1-.3c0-.1-.1-.1-.1-.2.1-.2.1-.4.3-.2.3.2.6.1.9.1.1.1.3.1.4 0 .4.2.8.4 1.1 0 .2-.3-.2-.5-.4-.7l-.1-.1c-.1-.2-.1-.5-.3-.6 0-.2-.1-.2-.2-.3 0-.1 0-.1-.1-.2-.1-.4-.3-.7-.5-1 0-.1 0-.1 0-.2-.2-.3-.2-.6-.5-.9 0-.1-.1-.1-.1-.2 0-.2-.3-.3-.1-.5.2-.1.3.1.5.1 0 .1.1.1.1.1.4.3.9.4 1.3.3.4 0 .6-.2.3-.6 0-.1 0-.3-.2-.3 0-.1-.1-.3-.2-.4 0-.1-.1-.1-.1-.2-.2-.6-.4-1.2-.7-1.8 0-.2 0-.4 0-.6.2-.2.2-.5 0-.7 0-.4.1-.8-.1-1.2 0-.6-.2-1.1-.5-1.7 0-.3-.2-.4-.3-.5 0-.1-.1-.2-.2-.3 0-.1-.1-.2-.3-.2-.2-.4-.7-.2-.8-.6.3-.1.5-.4.6-.7.1-.1.2-.2.1-.3.1-.1.1-.2.1-.3.3-.7.4-1.5-.1-2.2 0-.1-.1-.2-.3-.3-.1-.2-.3-.2-.5-.1-.1 0-.1 0-.2 0-.5 0-.9 0-.6-.7.1-.1 0-.3-.1-.4 0-.1 0-.3-.1-.4-.1-.4.2-.9-.2-1.2-.1 0-.1 0-.2 0-.2.2-.5.4-.7.5s-.3.2-.4.4c-.1 0-.2.1-.2.2-.1 0-.2 0-.2.1-.2.2-.4.1-.7.1-.1 0-.2.1-.3.1-.1.1-.1.3-.2.4-.2.6-.6.7-1.4.3-.1 0-.2 0-.3-.1-.1 0-.2 0-.2 0-.1-.1-.2-.1-.3-.1v-.1c-.1 0-.3 0-.4-.1-.5 0-.9 0-1.4 0-.1.1-.2.1-.3.1-.1.1-.2.1-.3.1v.1c-.3.2 0 .7-.4.9.1.3 0 .4-.1.4-.2 0-.4 0-.7.1-.1 0-.2 0-.3-.1-.1.1-.2.1-.3.1l-.1.1c-.2-.1-.4 0-.5.1-.1 0-.3 0-.4 0l-.1.1c-.3-.1-.5-.1-.8 0-.2-.1-.4-.1-.6 0-.1 0-.2-.1-.3-.1-.2.1-.3.3-.5.4-.5.2-.6.6-.6 1 .1.6.1 1.1.2 1.7.1.5.3.7.8.7 1 .1 1.9-.1 2.9.2.7.2.9.5.7 1.2-.2.9-.6 1.8-1.7 1.9-.6.1-1.2-.1-1.8-.2-.1 0-.2 0-.3 0-.3.1-.4.3-.4.6v2c0 .5.4.7.8.5.5-.3 1-.6 1.7-.3.2.1.4 0 .6 0 .3.2.6 0 .9.3.6-.1 1.1 0 1.7 0v-.1c.3 0 .5.1.8 0 .1 0 .2 0 .3-.1 1.1-.2 1.7-.9 2.4-1.6l.2.2c-.5 1-1.5 1.6-2.5 2-.6.3-1.3.5-2 .5-.1 0-.2 0-.3 0-2.1.3-4.2.7-6.2 1.7-.1.1-.2.1-.3.2-.2 0-.3 0-.3.2-.1 0-.1 0-.2 0 0 .1-.1.1-.1.1-.2.2-.5.4-.8.5-.1.1-.2.2-.3.4h-.1c-.4.3-.8.6-1.3 1 .1 0-.1.1-.3.2zm1.8-1.3c-.5.4-.9.8-1.4 1.2.6-.3 1-.7 1.4-1.2z"/></g></svg>