<svg enable-background="new 0 0 113.4 113.4" viewBox="0 0 113.4 113.4" xmlns="http://www.w3.org/2000/svg"><circle cx="56.7" cy="56.7" fill="#afca0b" r="56.7"/><circle cx="62" cy="48.3" fill="#ffe149" r="46.6"/><path d="m25.3 57.4c-.1 0-.2 0-.3 0 0-1.4 0-2.9 0-4.3h.3c.7 1.4.7 2.9 0 4.3z" fill="#fef8e4"/><path d="m25.3 57.4c0-1.5 0-2.9 0-4.4.4-1.8.7-3.7 1.7-5.3.3-.5.7-1.5 1.3-1.3.7.3.1 1.1-.1 1.7-.5 2-1.2 4-1.1 6.2.1 2 .9 3.2 2.5 3.8 1.7.6 3.5.2 4.7-1.1 2-2.3 3.4-5.1 4.8-7.8 1.1-2 2.1-4 3.6-5.7.3-.4.6-.8 1-1.1 1-.9 2.1-2.1 3.5-1.4 1.3.6 1.5 2.1 1.6 3.5.3 3.1-.7 6-1.5 9-.8 2.9-1.5 5.8-1.7 8.8-.2 3.2.9 5.8 3.6 7.7s5.7 2.3 8.8.9c2.3-1.1 3.2-3.2 3.2-5.7.1-4.2-.5-8.4-.7-12.6-.2-3.7-.6-7.5-.6-11.2 0-1.7 1.5-2.9 2.8-4.5.1 1.8.3 3.2.3 4.6.3 5.9.6 11.7.9 17.6.1 2.1 0 4.3.4 6.3.6 3.7 3.2 5.8 6.5 7.1 2.8 1.1 5.2.3 7.2-1.8 1.4-1.5 1.4-3.2 1.3-5-.2-3.8-1-7.6-1.9-11.3-.7-3.1-1.4-6.2-2.2-9.3-.2-.8-.2-1.6.2-2.3.7-1.5 1.2-3.1 2-4.5.1-.2.2-.5.6-.5.3 0 .3.3.3.5.4 2.4 1.6 4.5 2.8 6.5 1.5 2.4 2.6 4.9 2.8 7.8.1.9 0 1.8-.7 2.9-.8-3.2-1.6-6.2-4-8.6.8 5.4 2 10.5 2.5 15.7.3 3.6.8 7.2-.6 10.7-2.6 6.7-9.1 8.3-15 4-1.6-1.2-2.1-3.2-3.1-5-.6.9-1.2 1.8-1.8 2.6-1.6 2.1-3.6 3.9-6.3 4.5-3.8.9-6.7-.7-8.9-3.6-2.8-3.6-3.1-7.8-2.7-12.2.5-4.8 1.6-9.4 2.6-14.1.2-1.1.5-2.5-.8-3-1.1-.4-1.9.8-2.6 1.6-1.7 1.8-2.4 4.2-3.2 6.5-.5 1.5-1 3.1-1.7 4.5-.7 1.6-1.8 3-3.3 4-3.3 2.3-6.9 1.2-8.3-2.6-.2-1.1-.4-2.1-.7-3.1z"/><path d="m86.8 75.7c.1-3.5.2-7 .4-10.5.3-4.8.3-9.6 0-14.5-.4-7.8-1.6-15.5-3.3-23.1-.1-.5 0-.9.3-1.3s.7-.9 1-1.3c.4-.5.9-.9 1.5-1.4.5 2.4 1.1 4.6 1.4 6.8.3 1.9 1.1 3.5 2.4 4.9.2.3.4.6.7.8 3 2.5 2.4 6.2.4 9.4.3-3.3 1-6.6-2.9-8.2.3 3.4.6 6.7.9 10.1.6 7.3 1.2 14.7-.1 22-.4 2.3-1 4.5-2.7 6.3z" fill="#010000"/><path d="m58.4 23.1v3.8c0 .6.1 1.2.3 1.7.3.7.8.9 1.5.9.7-.1 1.1-.5 1.1-1.2.1-1.2.2-2.4 0-3.6-.1-1.3.4-2 1.6-2.6.1 2 .3 3.9.4 5.8 0 1 .6 1.6 1.6 1.7.8 0 1.3-.3 1.2-1.2-.2-1-.3-2-.5-3.1-.2-1.4 0-2.1 1.3-3.3.4 1 .6 2 1.3 2.8.2.2.3.5 0 .6-1.2.3-.6 1.3-.6 1.9 0 1.5.2 3-1 4.2-1.1 1.1-2.6 1.3-3.7.2-.7-.6-1.1-.7-1.7 0-.1.2-.4.3-.6.4-2 1.1-2.9.7-3.5-1.5-.5-2-.3-3.9.1-5.9 0-.8.6-1 1.2-1.6z" fill="#020100"/><path d="m87.9 18.3c-.1 1.3-.3 2.3-1.1 3.1-2.4 2.2-5 4.1-7.8 5.8-2.1 1.3-4.3 2.6-6.5 4-.1-1.4.2-2.4 1.4-3.2 4.6-3.2 9.2-6.4 14-9.7z" fill="#030100"/><path d="m51.3 63.1c-.8-.5-.9-1.1-.6-1.8.4-1.1.8-2.2 1.3-3.3.4-.9.9-1.7.3-2.6-.7-.9-1.4.2-2.2.2.2-.4.4-.8.5-1.1.4-.7.9-1.1 1.7-1.1.8.1 1.4.5 1.5 1.3.2 1 .6 1.1 1.5.9.4-.1.8 0 1.2.1.8.2 1.4.7 1.3 1.6s-.7 1.4-1.5 1.8c-.4.1-.6 0-.5-.5s.3-1.1-.3-1.3c-.5-.1-1.1.1-1.5.5-.8.7-1.3 1.5-1.6 2.4s-.7 1.9-1.1 2.9z" fill="#060400"/><path d="m68.4 59c-.8-.1-1.3-.5-1.7-1.1-.4-.5-.4-1.1-.1-1.7.3-.7 1-.9 1.7-.8 1.1.1 1.9.1 2.3-1.3.4-1.2 2-1.3 2.8-.2.3.4.5.8.6 1.4-.1 0-.3 0-.4 0-.5-.3-1-.7-1.6-.2-.5.5-.5 1.2-.2 1.9.6 1.3 1.1 2.7 1.6 4.1.2.6.4 1.4-.3 1.6-.8.2-.6-.7-.8-1.1-.5-.9-.9-1.9-1.3-2.8-.3-.6-.7-1.1-1.2-1.4-.4-.2-.9-.6-1.4-.3s-.3.8-.2 1.2c.2.3.2.5.2.7z" fill="#060300"/><path d="m62.2 8.7c1.4 4.4 1.8 8.6-.7 12.7-.5-.4-.2-.7-.1-1 .4-2.2.5-4.5-.3-6.7-.8-1.9-.1-3.3 1.1-5z" fill="#070400"/><path d="m66.9 45.3c.1 2.3 1.7 3.8 2.7 5.6.6 1.1.4 2.2-.6 2.8-.7.4-1.8 0-1.9-.8-.1-.5 0-1.2.8-1.1.3 0 .7.4.9-.1.2-.4-.1-.8-.3-1.1-.7-.8-1.4-1.6-1.7-2.7-.4-.9-.6-1.8.1-2.6z" fill="#110c00"/><path d="m57.1 45.3c1 1.1.6 2 .3 2.9-.3 1-.9 1.7-1.6 2.5-.3.3-.6.7-.4 1.2.2.7.6.1 1 .1.4-.1.6.2.6.6.1.5 0 1-.5 1.3-.5.4-1.1.4-1.6 0-.6-.6-1.1-1.2-.7-2.1.2-.5.6-1 .9-1.5 1-1.5 2-2.9 2-5z" fill="#0f0a00"/><path d="m35.1 33.7c2.6-1.5 5.4-2.7 7.8-4.5.8-.6 1.1-.8.2-1.6-1.3-1-1.4-2.1-.5-3.5 1-1.6 2.4-2.6 4.3-3 1.5-.3 2.3.3 2.4 1.9.1 1.2-.4 2.2-1 3.2-.4.6-.7 1.1-.1 1.7.3.3.4.7.1 1.1-.3.5-.7.1-1 0-.9-.3-1.6.1-2.3.6-2.7 1.9-5.4 3.6-8.7 4.4-.5.1-.5.1-1.2-.3zm10.4-10.7c-.9 0-1.8.8-1.8 1.8 0 1.1.8 1.4 1.6 1.4 1.2 0 1.3-1 1.5-1.9.1-.8-.4-1.3-1.3-1.3z" fill="#030100"/><path d="m30.4 69.2c1.3-.1 2.6-.3 3.8-.4.5-.1 1.1-.2 1.6-.3.7-.2 1.1-.6.6-1.3-.2-.4-.2-.8.1-1.1.7-.7 1.7-1.1 2.5-1 .9.1 1.5 1 1.7 1.9s-.2 1.8-1.1 1.7c-2.7-.2-5 1.3-7.6 1.1-.6-.1-1.1.1-1.6-.6zm7.4-3.1c-.4 0-.6.2-.6.6 0 .3.2.5.5.5s.5-.2.5-.5c.1-.4-.1-.6-.4-.6zm1.6.8c-.3 0-.4.3-.5.6s.2.2.3.2c.3 0 .5-.1.4-.5.1-.2 0-.3-.2-.3z" fill="#100b00"/></svg>