<svg enable-background="new 0 0 114.4 114.4" viewBox="0 0 114.4 114.4" xmlns="http://www.w3.org/2000/svg"><circle cx="57.2" cy="57.2" fill="#fff" r="56.7" stroke="#000" stroke-miterlimit="10"/><circle cx="57.2" cy="57.2" fill="#009fe3" r="42.5"/><g fill="#e30613"><circle cx="57.2" cy="57.2" r="25.2"/><path d="m43.7 43.6h-41.6c-1.1 4.3-1.6 8.9-1.6 13.6s.6 9.2 1.6 13.6h41.6z"/><path d="m70.4 2c-4.3-1-8.7-1.6-13.3-1.6s-9.1.6-13.5 1.6v41.5h26.7z"/><path d="m43.7 43.6h26.7v27.2h-26.7z"/><path d="m43.7 70.8v41.5c4.3 1.1 8.8 1.6 13.5 1.6 4.6 0 9-.5 13.3-1.6v-41.5z"/><path d="m113.9 57.2c0-4.7-.6-9.2-1.6-13.6h-41.9v27.2h41.8c1.1-4.4 1.7-8.9 1.7-13.6z"/></g><circle cx="57.2" cy="57.2" fill="none" r="56.7" stroke="#000" stroke-miterlimit="10"/></svg>