<svg enable-background="new 0 0 113.4 113.4" viewBox="0 0 113.4 113.4" xmlns="http://www.w3.org/2000/svg"><path d="m56.7 0c-3.3 0-6.6.3-9.7.8-8.6 1.5-16.5 4.9-23.3 9.8-14.4 10.3-23.7 27.1-23.7 46.1s9.4 35.8 23.7 46.1c6.8 4.9 14.7 8.3 23.3 9.8 3.2.5 6.4.8 9.7.8 31.3 0 56.7-25.4 56.7-56.7s-25.4-56.7-56.7-56.7z"/><path d="m .4 56.7c0 18.9 9.3 35.6 23.5 45.8v-91.6c-14.2 10.2-23.5 26.9-23.5 45.8z" fill="#131561"/><path d="m56.7.4c-3.3 0-6.5.3-9.6.8v110.9c3.1.5 6.4.8 9.6.8 31.1 0 56.3-25.2 56.3-56.3s-25.2-56.2-56.3-56.2z" fill="#dc1211"/><path d="m23.9 10.9v91.5c6.7 4.8 14.6 8.2 23.1 9.7v-110.9c-8.5 1.5-16.3 4.9-23.1 9.7z" fill="#fdfdfd"/><path d="m63 64.2c-.6-.3-1.2-.4-1.9-.2-2.6.6-5.3-1.1-6.3-4-.3-.7-.6-1.5-.5-2.3.2-1.3 1-2 2.3-2.4 5.5-1.8 10.9-4 16.3-6 .3-.1.7-.2 1-.5-1.5-1.2-1.7-1.2-3-.2-.7.5-1.1.6-1.7-.1-1-1.1-2-2.2-3.1-3.2-.4-.4-.2-.5.1-.8.2-.3.4-.5.8-.2.7.7 1.5 1.3 2.2 2 .5.4.9.5 1.4.2 1.3-.8 2.7-1.3 4.2.2-.7-1.7-2.8-3.2-4.2-3.1-.9.1-1.4-.2-1.7-1.1-.3-.6-.6-1.2-1-1.8-.2-.3-.4-.6.1-1s .7 0 .9.3l.1.1c.8 1.4 1.9 2.1 3.5 2 1-.1 1.9.3 2.7 1.1.5.4.9.5 1.5.2.7-.3.2-.7.2-1.1-.1-.6.1-1.1.7-1.5.2-.2.6-.2.7-.5s.5-.7.2-1c-.3-.4-.7 0-1 .2-.7.5-1.5.8-2.4 1-.4.1-.9.4-1-.3-.2-.5.2-.7.6-.9 1.1-.4 2.1-1 3-1.8.2-.2.4-.5.7-.2.7.6 1.5.6 2.4.4.3-.1.8.3 1.1 0 1-.9 1.6-.3 2.4.4.6.5 1.4 1 2.2 1.2.5.1.7.4.6.9-.2.5-.6.4-.9.3-.8-.2-1.6-.5-2.3-1-.4-.2-.8-.7-1.2-.2-.2.4 0 1 .5 1.3 1.1.5 1.3 1.3.9 2.3-.1.3.1.4.3.5.4.2.8.5 1.1.1 1.2-1.3 2.9-1.4 4.5-1.4.6 0 .9-.5 1.2-.9s.6-.8.9-1.1.5-.3.9-.1.2.5.1.8c-.5.8-.9 1.7-1.3 2.5-.2.4-.4.5-.8.5-.7 0-1.4-.3-2 .1-1 .7-1.9 1.6-2.8 2.5.2.1.2.2.3.2 1.3-.9 2.6-.8 3.9.1.6.4 1.1.2 1.6-.3.6-.6 1.3-1.1 2-1.7.4-.4.6-.4 1 0 .5.5.2.6-.1.9-1 1.1-2.1 2.1-3.1 3.2-.4.5-.7.6-1.3.1-1.5-1.2-1.6-1.1-3.2-.1.2.5.7.5 1.1.6 5.3 2 10.6 4.1 16 5.9 2.2.7 2.8 1.8 2.2 4.1-.5 1.8-1.5 3.1-3 4.1-1.2.8-2.6.9-3.9.5-.5-.2-.8-.1-1.1.3-.7 1-1.7 1.6-2.8 2.1-.7.3-1.4.2-2.1 0-2.9-1.1-5-3-6.5-5.7-.3-.6-.6-1.1-1-1.6 0 2-.3 4-.5 5.9-.3 2.5-.7 4.9-2 7.2-1.5 2.6-3.8 2.6-5.3 0-1.4-2.3-1.8-5-2-7.6-.2-2-.3-4-.2-6.3-.7 1.2-1.2 2.2-1.8 3.2-1.4 2.3-3.3 4-5.9 5-1.7.6-3.2.2-4.4-1.2.3 0 .7 0 1 .3 1.4 1 2.8.8 4.3.1 1.9-1 3.4-2.3 4.4-4.1 1.9-3.1 3.4-6.4 5-9.7.3-.5.2-1-.2-1.3-.5-.3-.6.3-.9.5-2.5 2.5-5 5-7.5 7.5-1.9 1.9-3.8 3.8-6.3 5-1.1-.1-.9.2-.9.6zm30.5-18.9c-.1.1-.3.2-.1.3s.2-.1.3-.2c0-.1.1-.2.1-.3-.2-.1-.3.1-.3.2zm-26.7-.2c.1.1.1.2.2.2.1.2.3.4.4.2.2-.2-.2-.3-.3-.4s-.1-.1-.2-.2-.2-.3-.3-.2c-.1.2.1.4.2.4zm24.7-3.8c-.6.8-1.4 1.3-2.5 1.2-.5 0-1 .1-1.5.1-1 .1-1.6.7-2.1 1.4-.4.4.3.9.4 1.6.8-.7 1.4-1.2 2-1.8.5-.5 1-.8 1.7-.7 1.3.3 1.9-.4 2.1-1.5.2-.1.3-.3.1-.4 0-.2-.1-.1-.2.1zm9.2 22.3c2.3 0 4.6-2.2 5.1-4.9.3-1.6-.1-2.4-1.7-3-.7-.3-1.5-.5-2.3-.8-5.8-2.2-11.6-4.4-17.4-6.5-.3-.1-.6-.4-.9-.1-.2.2-.4.6-.3.9s.3.5.5.7c2.8 2.8 5.6 5.7 8.4 8.5 1.5 1.5 3.1 2.9 4.9 4 1.2.7 2.4 1.2 3.7 1.2zm-40.9 0c2.3 0 3.9-1.1 5.4-2.3 4.4-3.5 8.1-7.8 12-11.7.4-.4.2-.7 0-1.1-.2-.5-.6-.2-.9-.1-6.7 2.5-13.3 5.2-20.1 7.5-.8.3-1.4.8-1.5 1.7.1 3 2.8 6.1 5.1 6zm34.4 2.2c1.4.1 2.4-.8 3.3-1.7.4-.4.4-.7-.2-1-1.8-.9-3.4-2.2-4.8-3.6-2.9-3-5.9-5.9-8.8-8.9-.2-.2-.4-.8-.9-.5s-.4.8-.2 1.3c1.3 2.6 2.6 5.2 3.9 7.8.7 1.4 1.5 2.8 2.7 3.9 1.5 1.4 2.9 2.6 5 2.7zm-13.7-22.8c-1 .1-2 .2-2.9.5-1.5.4-2.2 1.2-2.2 2.8 0 .6.2 1.2.5 1.7.2.3.8-.1 1.1-.3.5-.3.5.1.6.3.3.7.5 1.5.9 2.1.3.5.4.8.1 1.3-.6 1.2-.5 1.4.8 1.9.9.4 1.7.2 2.5-.2.6-.3.7-.7.4-1.3-.2-.4-.7-.9-.3-1.3.5-.6.6-1.4.9-2 .3-.7.6-1.2 1.4-.6.2.2.6.5.8-.1.7-1.5.2-3.8-1.7-4.2-.9-.3-1.9-.5-2.9-.6zm-5-3.7c.8.2 1.3-.2 1.8-.6.6-.5 1.2-.3 1.7 0s0 .7-.1 1.1c-.2.6-.5 1-1.1 1.2-.6.3-.6.8-.4 1.4s.7.5 1 .3c1.3-.5 2.6-.5 3.9 0 .4.1.9.3 1-.3.2-.5.2-1-.3-1.3-.2-.1-.4-.2-.6-.3-.5-.5-.8-1.2-.8-1.9 0-.3.7-.3 1.1-.4.3-.1.5.2.8.3.6.4 1.1.8 2.1.8-.8-.5-1.5-.9-2-1.4-.6-.5-1-.6-1.7-.3-.9.4-2 .3-2.9 0-.8-.2-1.3-.2-1.9.3-.4.4-1 .7-1.6 1.1zm5.1 23.4c-1.4 0-2.6.2-3.8.5-.8.2-.5.8-.5 1.3 0 .7.5.5.9.4 2.1-.6 4.2-.5 6.4 0 .3.1.9.6 1-.3.1-.6.3-1.2-.6-1.4-1.2-.3-2.4-.5-3.4-.5zm3.6-6.6c-.7-1.9-1.6-2.4-3.3-2-.3.1-.7.1-1 0-1.7-.4-2.8.2-3.3 2 2.5-.6 5-.7 7.6 0zm .6 5.2c0-.5-.1-.6-.7-.8-2.4-.7-4.9-.7-7.4 0-.2.1-.4.1-.5.2-.2.2-.2.5-.1.7.1.3.3.2.5.2 2.5-.6 5.1-.6 7.6 0 .4.1.6.1.6-.3zm-.1-2.3c.3-.8.1-1.1-.7-1.3-2.4-.6-4.7-.6-7.1 0-.8.2-1 .6-.7 1.3 2.8-.9 5.7-.9 8.5 0zm8.7-13.3c-.7 0-.9.3-1.1.5-.8 1.1-1.8 1.2-2.8.4-1.1-.8-2.1-.4-3.1.2-.6.3-1 .9-.7 1.4.3.7.9.1 1.2-.2 1.3-.8 2.4-1.1 3.6.2.1.2.4.3.6.1.6-.8 1.4-1.6 2.3-2.6zm-25.6.4c.6.7 1.2 1.3 1.8 2 .4.4.7.4 1 0 1-1 2-1.1 3.1-.2l.6.3c.3.1.7.5 1 0 .2-.4 0-.9-.4-1.1-1.1-.6-2.1-1.4-3.4-.5-1.1.7-2.1.8-3-.4-.1-.1-.3-.3-.7-.1zm1.1-5.2c.4 1.5 1 2.5 2.7 2.1.4-.1.8.1 1.1.5.5.5 1.1 1 1.7 1.5.2.2.4.6.7.3.3-.4.8-.9.4-1.3-.6-.6-1.2-1.3-2.1-1.4-1.7-.2-3.5.2-4.5-1.7zm11.5 18.6c1.2-.1 2.4.1 3.6.4.3.1.6.4.8.1.2-.4-.3-.5-.6-.6-1.7-.5-3.4-.6-5.2-.4-.8.1-1.7.2-2.4.5-.3.1-.5.3-.4.6s.4.1.6 0c1.1-.5 2.3-.7 3.6-.6zm0 2.1c-1.2.1-2.5.2-3.6.5-.3.1-.7.1-.6.5s.5.1.7.1c2.4-.6 4.8-.6 7.2 0 .2.1.5.3.6-.1s-.3-.4-.5-.5c-1.3-.4-2.6-.4-3.8-.5zm3.6-4.4c.3 0 .5.2.6-.1.1-.2-.1-.3-.3-.4-2.6-.7-5.2-.7-7.7 0-.2.1-.4.1-.3.4.1.4.3.2.5.2 2.4-.7 4.8-.8 7.2-.1zm-3.6 7.7c-1.2 0-2.3.1-3.5.5-.2.1-.6.1-.5.5s.4.2.6.1c2.2-.6 4.4-.6 6.6 0 .2.1.5.4.6-.1.1-.4-.2-.4-.5-.5-.9-.4-2.1-.5-3.3-.5zm3.1 3.1c.4.1.5 0 .6-.2 0-.3-.2-.4-.4-.4-2.1-.4-4.2-.4-6.3 0-.2 0-.5.1-.4.4 0 .3.3.2.5.2 1.9-.4 3.9-.3 6 0zm-6.8-1.1c2.5-.4 4.9-.4 7.6.1-1.7-1.3-6.1-1.3-7.6-.1zm3.8 2.1c-.9 0-1.7.1-2.6.3-.2.1-.6.1-.5.4.1.4.4.2.6.1 1.6-.4 3.3-.4 4.9 0 .2.1.4.3.6-.1.1-.4-.2-.4-.4-.5-.9-.1-1.8-.2-2.6-.2zm-.3 2.8c-.4.1-1.4 0-1.4.5 0 .6.8 1.1 1.5 1.1s1.6-.4 1.7-1-.9-.4-1.4-.6c0-.1-.1 0-.4 0zm .2-.6c.6.1 1.2.3 1.8.4.2.1.5.1.6-.1.1-.3-.1-.4-.3-.4-1.3-.5-2.6-.5-4 0-.2.1-.4.1-.3.4s.3.3.5.2c.5-.2 1.1-.4 1.7-.5zm.8-2.8c.9.2 1.7.3 2.6.5-.8-.6-1.7-.6-2.6-.5zm-1.8.1c-.8-.2-1.6-.1-2.3.5.8-.2 1.6-.4 2.3-.5zm14.8-23.6c0-.1 0-.1-.1-.2-.1.1-.1.1-.2.2l.1.1c.1 0 .1 0 .2-.1z" fill="#1e1301"/><g fill="#fbe101"><path d="m63 64.2c0-.4-.3-.7.3-1 2.4-1.2 4.4-3.1 6.3-5l7.5-7.5c.2-.2.4-.8.9-.5s.5.8.2 1.3c-1.6 3.3-3.1 6.6-5 9.7-1.1 1.8-2.6 3.2-4.4 4.1-1.4.7-2.9.9-4.3-.1-.3-.2-.6-.3-1-.3-.2-.2-.3-.5-.5-.7z"/><path d="m100.7 63.6c-1.3 0-2.5-.5-3.6-1.2-1.8-1.1-3.4-2.5-4.9-4-2.8-2.8-5.6-5.6-8.4-8.5-.2-.2-.4-.4-.5-.7s.1-.7.3-.9c.3-.3.6 0 .9.1 5.8 2.2 11.6 4.4 17.4 6.5.7.3 1.5.5 2.3.8 1.6.6 2 1.3 1.7 3-.6 2.8-2.9 4.9-5.2 4.9z"/><path d="m59.8 63.6c-2.3.1-5.1-3-5-6 0-.9.7-1.4 1.5-1.7 6.8-2.3 13.4-5 20.1-7.5.3-.1.6-.4.9.1.2.4.4.7 0 1.1-4 4-7.7 8.2-12 11.7-1.5 1.3-3.2 2.3-5.5 2.3z"/><path d="m94.2 65.8c-2.1-.1-3.6-1.3-5-2.6-1.2-1.1-2-2.5-2.7-3.9-1.3-2.6-2.6-5.2-3.9-7.8-.3-.5-.3-.9.2-1.3s.7.2.9.5c3 2.9 5.9 5.9 8.8 8.9 1.4 1.4 3 2.7 4.8 3.6.6.3.6.6.2 1-.9.9-1.8 1.7-3.3 1.6z"/><path d="m80.5 43c1 .1 1.9.3 2.9.5 1.9.4 2.4 2.7 1.7 4.2-.2.6-.6.2-.8.1-.8-.6-1.1-.1-1.4.6s-.4 1.4-.9 2c-.4.5.1.9.3 1.3.3.6.2.9-.4 1.3-.8.5-1.6.6-2.5.2-1.2-.5-1.3-.7-.8-1.9.2-.5.2-.8-.1-1.3-.4-.7-.6-1.4-.9-2.1-.1-.3-.1-.7-.6-.3-.3.2-.9.6-1.1.3-.3-.5-.5-1.1-.5-1.7 0-1.5.7-2.3 2.2-2.8 1-.2 1.9-.3 2.9-.4z"/><path d="m75.5 39.3c.6-.4 1.1-.7 1.6-1.1.6-.5 1.1-.5 1.9-.3.9.3 2 .4 2.9 0 .7-.3 1.2-.2 1.7.3.6.5 1.2.8 2 1.4-1 0-1.5-.4-2.1-.8-.2-.2-.5-.4-.8-.3-.4.1-1.1.1-1.1.4 0 .7.3 1.4.8 1.9.2.2.4.2.6.3.5.4.5.8.3 1.3-.2.6-.7.4-1 .3-1.3-.4-2.6-.5-3.9 0-.4.1-.8.3-1-.3-.2-.5-.2-1.1.4-1.4s.9-.7 1.1-1.2c.1-.4.6-.8.1-1.1s-1.1-.6-1.7 0c-.4.5-1 .9-1.8.6z"/><path d="m80.6 62.7c1 0 2.2.2 3.3.4.9.2.7.8.6 1.4-.1.9-.7.3-1 .3-2.1-.5-4.3-.5-6.4 0-.4.1-.9.3-.9-.4 0-.5-.3-1.1.5-1.3 1.3-.2 2.5-.4 3.9-.4z"/><path d="m84.2 56.1c-2.6-.7-5.1-.6-7.6 0 .6-1.8 1.6-2.4 3.3-2 .3.1.7.1 1 0 1.7-.4 2.6.1 3.3 2z"/><path d="m84.8 61.3c0 .4-.2.5-.6.4-2.5-.7-5.1-.7-7.6 0-.2.1-.5.2-.5-.2-.1-.3-.1-.5.1-.7.1-.1.3-.2.5-.2 2.5-.7 4.9-.7 7.4 0 .6.1.7.2.7.7z"/><path d="m84.7 59c-2.8-.8-5.7-.8-8.5-.1-.2-.7-.1-1.1.7-1.3 2.4-.6 4.7-.5 7.1 0 .8.2 1 .6.7 1.4z"/><path d="m93.4 45.7c-.9 1-1.7 1.8-2.4 2.6-.2.2-.4.1-.6-.1-1.1-1.3-2.3-1.1-3.6-.2-.3.2-.9.8-1.2.2-.2-.5.2-1 .7-1.4 1-.6 2-.9 3.1-.2 1 .7 2 .6 2.8-.4.3-.2.5-.4 1.2-.5z"/><path d="m67.8 46.1c.4-.2.6 0 .7.1.9 1.2 1.9 1.1 3 .4 1.3-.9 2.3-.1 3.4.5.4.2.6.7.4 1.1-.2.5-.6.1-1 0-.2-.1-.4-.2-.6-.3-1.1-.8-2.1-.8-3.1.2-.3.4-.7.4-1 0-.6-.7-1.2-1.3-1.8-2z"/><path d="m68.9 40.9c1 1.9 2.8 1.5 4.4 1.7.9.1 1.5.8 2.1 1.4.4.4-.1.9-.4 1.3-.3.3-.5-.1-.7-.3-.6-.5-1.2-1-1.7-1.5-.3-.3-.7-.6-1.1-.5-1.7.4-2.3-.6-2.6-2.1z"/><path d="m91.7 41.5c-.3 1.1-.9 1.8-2.1 1.5-.7-.1-1.2.2-1.7.7-.6.6-1.3 1.1-2 1.8-.1-.6-.8-1.2-.4-1.6.5-.6 1.2-1.3 2.1-1.4.5 0 1-.2 1.5-.1 1.1.1 1.9-.4 2.5-1.2 0 .1.1.2.1.3z"/><path d="m80.4 59.5c-1.3-.1-2.5.1-3.7.5-.2.1-.5.3-.6 0s .1-.5.4-.6c.8-.3 1.6-.4 2.4-.5 1.7-.2 3.5-.1 5.2.4.3.1.8.2.6.6s-.5 0-.8-.1c-1.1-.2-2.3-.4-3.5-.3z"/><path d="m80.4 61.6c1.3.1 2.5.2 3.8.5.2.1.6.1.5.5-.1.5-.4.2-.6.1-2.4-.6-4.8-.6-7.2 0-.2 0-.5.4-.7-.1-.1-.5.3-.5.6-.5 1.1-.4 2.4-.4 3.6-.5z"/><path d="m84 57.2c-2.4-.7-4.8-.6-7.2 0-.2 0-.5.2-.5-.2 0-.2.2-.3.3-.4 2.6-.7 5.2-.7 7.7 0 .2.1.4.2.3.4-.1.4-.3.2-.6.2z"/><path d="m80.4 64.9c1.2 0 2.3.1 3.5.5.2.1.6.2.5.5-.1.4-.4.1-.6.1-2.2-.6-4.4-.6-6.6 0-.2.1-.5.3-.6-.1-.1-.3.2-.4.5-.5 1-.4 2.2-.5 3.3-.5z"/><path d="m83.5 68c-2-.3-4.1-.4-6.1 0-.2 0-.5.1-.5-.2s.2-.4.4-.4c2.1-.4 4.2-.4 6.3 0 .2 0 .5.1.4.4 0 .3-.1.3-.5.2z"/><path d="m76.7 66.9c1.5-1.3 5.9-1.3 7.6.1-2.6-.4-5.1-.5-7.6-.1z"/><path d="m80.5 69c .9 0 1.7.1 2.6.4.2.1.6.1.4.5-.1.4-.4.1-.6.1-1.6-.5-3.3-.5-4.9 0-.2.1-.5.3-.6-.1s.3-.4.5-.4c.8-.5 1.7-.5 2.6-.5z"/><path d="m80.2 71.8h.4c.5.2 1.4 0 1.4.6-.1.7-.9 1.1-1.7 1-.7 0-1.6-.5-1.5-1.1s1.1-.4 1.4-.5z"/><path d="m80.4 71.2c-.6.1-1.2.3-1.8.4-.3.1-.5 0-.5-.2-.1-.2.2-.3.3-.4 1.3-.5 2.6-.5 4 0 .2.1.5.1.3.4-.1.3-.4.2-.6.1-.5 0-1.1-.2-1.7-.3z"/><path d="m81.2 68.4c.9-.2 1.8-.1 2.6.5-.9-.1-1.8-.3-2.6-.5z"/><path d="m79.4 68.5c-.8.2-1.5.3-2.3.5.7-.7 1.5-.7 2.3-.5z"/><path d="m67.2 45.1c.1.1.5.2.3.4s-.3-.1-.4-.2c0 0 .1-.1.1-.2z"/><path d="m94.2 44.9h-.2c0-.1.1-.1.2-.2-.1.1-.1.2 0 .2z"/><path d="m66.8 45.1c-.2 0-.3-.2-.1-.3.1-.1.2.1.3.2 0 0-.1.1-.2.1z"/><path d="m91.5 41.3c.1-.1.2-.3.3-.2.2.1.1.3-.1.4 0-.1-.1-.2-.2-.2z"/><path d="m93.7 45.4c-.1.1-.2.3-.3.2-.2-.2 0-.2.1-.3 0 0 .1.1.2.1z"/><path d="m93.5 45.3c.1-.1.1-.3.3-.1 0 0-.1.2-.1.3-.1-.1-.2-.2-.2-.2z"/><path d="m67 45.4c-.1-.1-.1-.2-.2-.2.1-.1.1-.1.2-.2.1.1.1.1.2.2 0 0-.1.1-.2.2z"/></g></svg>