<svg enable-background="new 0 0 113.4 113.4" viewBox="0 0 113.4 113.4" xmlns="http://www.w3.org/2000/svg"><path d="m113.4 56.8c0 31.3-25.7 56.7-56.9 56.6-30.8-.1-57.8-25.8-56.4-59.3 1.2-29.3 25.6-54.3 57-54.1 31.1.1 56.4 25.6 56.3 56.8zm-56.4 24.1c5.4-1.8 10-4.8 14.2-8.7 7.5-7 11.5-15.9 13.5-25.8.5-2.2.7-4.5 1.1-6.8 12.1 19.6.5 48.6-26.9 51v7.2c21.7-.7 39.5-19.7 39-41.6-.5-23.9-19.8-39.8-39-40.4v7.2c8.3.7 15.4 3.8 21.3 9.4.3 3.8-.4 10.6-1.2 12.6-10.7-9.5-23.3-15.1-37.4-18.3 4.3-2.3 8.7-3.2 13.1-3.6 0-2.5 0-4.9 0-7.3-21.8 1.1-39.5 19.3-39 42 .4 21.5 17.8 39.3 39 40.1 0-2.4 0-4.8 0-7.3-6-.5-11.5-2.2-16.7-5.7 4-.4 7.8-.6 11.4-1.6h.1v-.1c.4-.1.7-.2 1.1-.3.3.1.6 0 .9-.2l1.2-.3c1.4-.2 2.9-.8 4.3-1.5z" fill="#050606"/><path d="m49.3 83.2c-3.6 1.1-7.3 1.3-11.4 1.6 5.3 3.5 10.8 5.2 16.7 5.7v7.3c-21.2-.8-38.6-18.6-39-40.1-.5-22.8 17.2-40.9 39-42v7.3c-4.4.4-8.8 1.4-13.1 3.6 14.1 3.3 26.8 8.8 37.5 18.4.8-2 1.5-8.8 1.2-12.6-5.9-5.7-13-8.7-21.3-9.4 0-2.4 0-4.8 0-7.2 19.3.6 38.5 16.5 39 40.4.5 21.9-17.4 41-39 41.6 0-2.4 0-4.8 0-7.2 27.4-2.4 39-31.4 26.9-51-.4 2.3-.7 4.6-1.1 6.8-2.1 9.9-6.1 18.8-13.5 25.8-4.1 3.9-8.8 6.9-14.1 8.7-1.5.5-2.9 1-4.4 1.5-.4.1-.8.2-1.2.3v-.1h-.1c-.3.1-.5.2-.8.3-.5.1-.8.2-1.3.3.1-.2 0-.1 0 0zm-5.2-40.9c-.4.1-.8.2-1.2.3-.2 0-.3 0-.3 0s .1 0 .3 0c3.7 1 7.4 1.8 11.1 3.3.2-1.4.3-2.6 0-3.9-3.3-.1-6.6-.1-9.9.3zm-9.3-11.2c-4.2 3.7-7.3 8-9.4 13.1-.2.6-.1 1.1.2 1.6 2.8 6 6.1 11.6 10.3 16.7 4.5 5.5 9.7 10.3 16.2 13.4.5.3 1.1.5 1.7.3 2-.7 4-1.5 6-2.7-16.1-5.6-24.5-18-30.4-32.9 7.7-3.8 15.9-4.1 24.1-4.3-6-2.5-12.2-4.2-18.7-5.2zm-11.6 23c-.7 9.5 2 17.9 8.3 25.1 4.4.1 8.7-.1 13.3-.8-9.4-6.3-16.1-14.7-21.6-24.3zm24 5.2c2.7-2.1 4.5-4.7 5.6-7.9-4.3-1.7-8.6-2.9-13.3-3.6 1.9 4.5 4.4 8.2 7.7 11.5zm30.3-7.8c-1.8-1.9-3.7-3.4-6.1-4.7-.5 3.2-1.2 6.1-2.1 9 1.4 1.6 2.6 3.3 3.8 5.2 1.9-3 3.3-6.1 4.4-9.5zm-19.6 2.5c-1.4 3.5-3.4 6.5-6.3 9.1 1.6 1.1 3.1 2.1 4.8 2.9 2.8-2.4 4.7-5.3 6.3-8.7-1.5-1.3-3-2.3-4.8-3.3zm8.1-9.6c-2.1-.7-4.1-1.3-6.3-1.7 0 1.9-.1 3.7-.4 5.5 1.8 1.1 3.5 2.2 5.3 3.3.8-2.3 1.3-4.6 1.4-7.1zm-3.9 24c1.4.4 2.5.7 3.7 1.1 1.3-1.1 2.5-2.1 3.5-3.4-.7-1.5-1.4-2.9-2.5-4.3-1.4 2.4-2.9 4.5-4.7 6.6z" fill="#fff"/><g fill="#de332c"><path d="m52.6 82.4c1.5-.5 2.9-1 4.4-1.5-1.4.7-2.9 1.3-4.4 1.5z"/><path d="m50.5 82.9c.3-.1.5-.2.8-.3h.1v.1c-.3.2-.6.3-.9.2z"/><path d="m49.3 83.2c0-.1.1-.2 0 0 .1 0 .1 0 0 0z"/></g><path d="m34.8 31.1c6.5 1 12.7 2.6 18.7 5.1-8.3.2-16.5.6-24.1 4.3 5.9 15 14.3 27.4 30.4 33-2 1.2-4 2-6 2.7-.6.2-1.2 0-1.7-.3-6.5-3.2-11.7-7.9-16.2-13.4-4.2-5.1-7.5-10.7-10.3-16.7-.2-.5-.4-1-.2-1.6 2.1-5.1 5.2-9.4 9.4-13.1z" fill="#050606"/><path d="m23.2 54.1c5.5 9.5 12.1 18 21.6 24.3-4.6.7-8.9.9-13.3.8-6.2-7.2-9-15.5-8.3-25.1z" fill="#050606"/><path d="m47.2 59.3c-3.3-3.3-5.8-7-7.7-11.5 4.7.7 9 1.9 13.3 3.6-1.1 3.2-2.8 5.8-5.6 7.9z" fill="#de332c"/><path d="m77.5 51.5c-1.1 3.4-2.5 6.5-4.4 9.5-1.1-1.9-2.4-3.6-3.8-5.2 1-2.9 1.6-5.8 2.1-9 2.4 1.3 4.3 2.8 6.1 4.7z" fill="#050606"/><path d="m57.9 54c1.8 1 3.3 2 4.7 3.3-1.5 3.3-3.5 6.2-6.3 8.7-1.7-.8-3.2-1.8-4.8-2.9 3-2.6 5-5.6 6.4-9.1z" fill="#de332c"/><path d="m66 44.4c-.2 2.5-.6 4.8-1.3 7.2-1.8-1.1-3.5-2.2-5.3-3.3.3-1.8.3-3.6.4-5.5 2.2.3 4.2.9 6.2 1.6z" fill="#050606"/><path d="m62.1 68.4c1.9-2.1 3.3-4.2 4.7-6.6 1.1 1.3 1.8 2.7 2.5 4.3-1 1.3-2.2 2.4-3.5 3.4-1.2-.4-2.3-.7-3.7-1.1z" fill="#de332c"/><path d="m44.1 42.4c3.2-.4 6.5-.5 9.9-.3.3 1.3.1 2.5 0 3.9-3.7-1.5-7.4-2.3-11.1-3.3h.1-.1c.4-.2.8-.3 1.2-.3z" fill="#050606"/><path d="m42.9 42.6c-.2 0-.3 0-.3 0s .2 0 .3 0z" fill="#de332c"/></svg>