<svg enable-background="new 0 0 113.4 113.4" viewBox="0 0 113.4 113.4" xmlns="http://www.w3.org/2000/svg"><path d="m56.7 113.4c-31.4 0-56.8-25.4-56.7-56.8 0-31.4 25.4-56.7 56.9-56.6 31.3 0 56.6 25.5 56.5 56.9-.1 31.1-25.5 56.5-56.7 56.5z" fill="#749d2e"/><path d="m56.6 6.8c27.1-.5 49.5 22.6 50 49 .4 27.9-22.8 50.4-49.1 50.8-27.9.4-50.5-22.9-50.8-49.3-.3-27.7 23-51 49.9-50.5z" fill="#c81718"/><g fill="#fff"><path d="m45.8 59.3c-2.1 2.1-4.8 3.1-7.7 3.8-5.7 1.4-11.2.9-16.4-1.7-3.1-1.6-5.4-4-6.1-7.6-.4-2 .3-3.6 2-4.6s4.1-.7 5.6.7c1.5 1.3 2 3.4 1.1 5-.6 1.1-.2 1.5.6 2 6.5 4.3 13.4 4.9 20.6 2.1.3-.2.4 0 .3.3z"/><path d="m75.6 60.7c4.2-.1 8.2-1 11.8-3.2.4-.2.7-.5 1.1-.7.8-.5 1.1-1 .5-2-.9-1.6-.3-3.7 1.1-5 1.5-1.3 3.8-1.6 5.5-.7 1.8 1 2.5 2.7 2.1 4.7-.6 2.9-2.3 5.1-4.7 6.6-5.1 3.3-10.8 4.1-16.7 2.8-.3-.2-.7-.1-1-.3-.8-.6-.6-1.7.3-2.2z"/><path d="m38.4 69.3c-2.8 2.6-4.9 5.6-6.2 9.2-.4 1-.5 1.8.8 2.4 1.7.8 2.4 2.8 2 4.6-.4 2-2.1 3.6-4.1 3.8s-3.5-.6-4.4-2.4c-1.3-2.7-1.3-5.6-.3-8.3 2-5.3 5.7-9.2 10.8-11.7.3-.2.7-.2 1-.5.2-.2.5-.2.7-.3.4-.1 1.1-.7 1.3 0 .2.6.5 1.5-.5 1.9-.4.2-.6.9-1.1 1.3z"/><path d="m39.9 44-.2-.1c-.2-1.3-1.2-.9-2.1-.9-2.6-1-5.2-1.6-8-1.6-.9 0-1.5.1-1.6 1.3-.2 1.9-1.8 3.3-3.8 3.5-2.1.2-4.2-.9-5-2.7s-.4-3.5 1-4.9c2.4-2.3 5.4-3.1 8.5-2.8 4.7.4 8.9 2.1 12.4 5.3.2.5-.1 1-.1 1.5 0 .3-.2.7-.6.5-.1 0 .1.2.1.3 0 .5-.2.7-.6.6z"/><path d="m79.3 68.8c3.9 2.3 9.5 9.5 8.3 15.5-.2 1.1-.6 2.2-1.1 3.2-.8 1.5-2.7 2.2-4.5 1.8-2-.4-3.6-2.3-3.8-4.3-.2-1.9.6-3.6 2.4-4.3.9-.4.9-.8.6-1.6-.8-2.5-2-4.7-3.6-6.8-.4-.6-.9-1.1-1.3-1.7.2-1.7 1.5-2.5 3-1.8z"/><path d="m43.2 31.6c-.4-4.2.1-8.3 2.9-11.7.7-.9 1.6-1.6 2.6-2.1 1.8-1 3.7-.8 5.1.6s1.8 3.8.9 5.6-2.7 2.8-4.6 2.4c-1-.2-1.2.2-1.5.9-1.1 3.1-1.2 6.2-.9 9.4v.5c.1.5.1.8-.5.5s-1.2-.4-1.8-.3c-.8.1-1.1-.5-1.2-1.2-.1-1.4-.7-3-1-4.6z"/><path d="m65.8 34.1c-.3-2.2-.3-4.5-1.1-6.7-.3-.8-.5-1.2-1.6-1-1.9.4-3.7-.7-4.5-2.4-.9-1.9-.5-4.2 1-5.6s3.3-1.6 5.1-.5c2.4 1.3 4 3.4 4.8 6 1.3 4.3 1.3 8.6-.3 12.9-1.3.8-3.2.3-3.4-.8 0-.3-.1-.6.2-.8.9-.6-.1-.8-.2-1.1z"/><path d="m52.6 86.8c-2.4 4.5-5.4 8.2-10.8 9.2-1.4.2-2.9.2-4.2-.5-1.5-.9-2.2-2.3-2.1-4 .1-1.9 1.1-3.3 2.9-4.1s3.6-.5 5 1c .6.6 1 .5 1.5.1 1.5-1 2.7-2.3 4-3.6.5-.2 1.1-.3 1.1-1.1 0-.2.3-.6.4-.6 1 .4 1.2-.9 2-1 .3 0 .8-.5.9 0 .1.6.9 1 .4 1.7-.6.8-.8 1.9-1.1 2.9z"/><path d="m67.8 94.6c-.5-.3-1-.6-1.5-.9-.6-.7-1.1-1.5-2-1.9-.5-.6-.9-1.3-1.1-2.1-1.3-.9-2.1-2.2-2.6-3.6-.3-1 0-2.2 0-3.3 0-.3.2-.4.5-.3.7.2 1.6.2 2.2.7 1.5 1.9 3 3.7 5 5.1.7.5 1.1.6 1.8-.1 1.3-1.5 3.3-1.7 5.1-.7s2.9 3.2 2.5 5.1c-.4 2-1.7 3.2-3.8 3.5-1.5.2-3 0-4.4-.5-.3-.8-1.1-.8-1.7-1z"/><path d="m80.9 36.7c4.5-1.4 8.6-1.1 12.2 2.2 1.5 1.4 1.7 3.1.7 4.9-.6.3-1.3.5-1.4 1.3 0 .2-.2.3-.3.4-.5.3-2.9.3-3.4 0 0 0 0-.1-.1-.1-.6-.4-1.5-.1-1.8-1-.2-.7.1-1.3-.1-2-.3.1-.3.4-.6.4-.1 0-.2 0-.3-.1-1-1.8-1-1.8-3.2-1.5-1.1.1-2.1.4-3.2 0-.6-.2-1.2 0-1.8.3-.4.2-.8.4-1.2 0-.3-.3 0-.6.1-.9s.1-.7.2-1c0-.3.1-.5.2-.7.2-.4 3.3-1.4 3.6-1.2.1.1 0 .3.5.5-.5-.7-1.3-1.2-.1-1.5z"/></g><path d="m86 42.8c.6-.2.5-.8.9-1.2.6.6.4 1.4.3 2.1 0 .8.2 1.2 1 1.1.4 0 .7 0 .9.5s.9.3 1.2.2c.5-.2.9-.8 1.6-.1.2.2.5-.2.5-.5 0-1.1.8-1.1 1.6-1.1-1 1.9-2.9 2.9-5 2.5-2-.3-3.4-1.7-3.6-3.8-.1-.8-.5-1-1.1-1-2.5-.1-4.9.3-7.2 1.1-5 1.7-8.8 4.9-11.5 9.3 0 .1-.1.1-.2.1-.8-4.9 8.6-14.1 15.8-15.4 0 .3-1.3.5 0 .9.4.1.4.6.2.9s-.7.1-.9 0c-.4-.3.4-.3.2-.7-.8 0-.8 1.2-1.7 1-.3-.1-.5-.3-.6-.3-.6.1-.9.6-.9 1.2s0 1.2-.7 1.6c.9.6 1.3-.4 2-.4.9-.1 1.7.3 2.5.4 1 .2 1.9-.8 2.9-.4.3.1 1.1-.3 1.2 0-.2.8.8 1 .6 2-.1.1 0 .3-.1.5.1-.1-.1-.4.1-.5z" fill="#fefdfd"/><path d="m63.3 83.2c-.8-.3-1.8.1-2.5-.4-.2 2.6-.1 5.2 2.6 6.8-.2.4-.4.5-.8.3-2.7-3.1-3.8-6.9-4.4-10.9-.4-2.8-.4-5.6.4-8.4.2-.7.4-1.4.9-1.9.7.2.3.6.3 1-.2 4.5.6 8.8 3.1 12.6.1.2.3.6.4.9z" fill="#fefdfd"/><path d="m52.6 86.8c-.3-1.3.2-2.4 1.1-3.4-.2-.2-1 .1-.6-.6.1-.3.3-.6-.1-.7-.1.9-1.3-.1-1.2.6.2 1-.5.6-.8.6-.6-.1-.9.1-.8.6.2 1.3-.6 1.1-1.4.9 2.8-3.9 5.1-7.2 4.9-16.3.8.9 1 1.8 1.2 2.8 1.1 5.4.3 10.6-2.3 15.5z" fill="#fefdfc"/><path d="m65.8 34.1c.2.3.8-.4.9.4.1.5 0 .8-.6.9-.8.1-.1.6-.1.8 0 .3-.1.6.6.3.6-.2 1.6.5 2.4.2-1.1 4.9-5.9 11.2-9.1 11.8 2.3-2.6 3.9-5.5 4.9-8.8.7-1.8.6-3.7 1-5.6z" fill="#fefdfd"/><path d="m43.2 31.6c.9 0 .4.8.4 1.1.2 1.3 1.2 2.5.9 3.9-.1.4.3.8.7.8.9-.2 1.7 0 2.4.4.1-.1.1-.3.2-.4.6 2.6 1.5 5.1 2.8 7.5.7 1.3 1.6 2.4 2.8 3.7-1-.1-1.6-.6-2.2-1-3.6-2.9-5.8-6.9-7.2-11.2-.4-1.6-.9-3.2-.8-4.8z" fill="#fefdfc"/><path d="m79.3 68.8c-1.4-.2-2.1.3-2.9 1.9-2.1-1.9-4.4-3.5-7-4.7-1.3-.6-2.6-1-4.2-1.3 2.9-1.5 10.6.9 14.1 4.1z" fill="#fefcfc"/><path d="m39.9 44c .8-.8.9-1.8 1.3-2.8 3.5 2.9 6.3 6.2 7 10.8-2.1-3.3-5-5.9-8.3-8z" fill="#fdfcfc"/><path d="m38.4 69.3c.3-.7.1-1.6 1.4-1.7.5 0-.6-1.1.5-1.5-1-.2-1.5.3-2.1.2 3.1-1.6 6.3-2.5 9.8-1.8-3.6.9-6.7 2.6-9.6 4.8z" fill="#fdfafa"/><path d="m75.6 60.7c-1 .9-.8 1.7.8 2.5-3.3-.5-6.4-1.6-8.9-4 0-.3 0-.4.4-.4 2.4 1.2 5.1 1.5 7.7 1.9z" fill="#fdfbfa"/><path d="m37.7 43.1c.2-.3.6-.2.9-.3 1-.2 1.6.1 1.1 1.2-.7-.3-1.4-.6-2-.9z" fill="#fdfcfc"/><g fill="#fdf9f8"><path d="m64.3 91.9c1.3-.1 1.7.9 2 1.9-.8-.6-1.5-1.2-2-1.9z"/><path d="m62.7 89.9c.3-.1.5-.2.8-.3 0 .8.4 1.5.8 2.3-.7-.6-1.3-1.3-1.6-2z"/><path d="m67.8 94.6c.9-.3 1.6-.4 1.8.8-.7-.1-1.3-.3-1.8-.8z"/></g><path d="m59.7 69.6c-.1-.3.1-.7-.3-1 .1-.2.2-.7.5-.1.2.4.1.8-.2 1.1z" fill="#e16564"/><path d="m45.8 59.3c-.1-.1-.2-.2-.4-.4.2-.2.5-.4.7-.3.3.3 0 .5-.3.7z" fill="#edaaa6"/><path d="m67.9 58.9c-.1.1-.2.2-.4.4-.2-.1-.6-.3-.3-.6.1-.2.5 0 .7.2z" fill="#eba9a5"/><path d="m38.2 66.3c-.2.5-.6.5-1 .5.3-.3.6-.5 1-.5z" fill="#fdfafa"/><path d="m86 42.7c0 .3.1.6.1.9-.1 0-.2 0-.2 0-.1-.3-.5-.7.1-.9z" fill="#fff"/></svg>