<svg enable-background="new 0 0 113.9 113.9" viewBox="0 0 113.9 113.9" xmlns="http://www.w3.org/2000/svg"><circle cx="57" cy="57" fill="#2490cf" r="56.7" stroke="#2690cf" stroke-miterlimit="10" stroke-width=".5"/><path d="m57 113.7c-31.3 0-56.7-25.4-56.7-56.7s25.3-56.7 56.7-56.7" fill="#fefeff" stroke="#2690cf" stroke-miterlimit="10" stroke-width=".5"/><path d="m57 105.1c-1.3 0-2.5-.1-3.8 0-.8 0-1-.3-1-1 0-1.1 0-2.2 0-3.2 0-.5-.2-.7-.6-.9-4.1-1.6-7-4.5-8.6-8.6-.2-.5-.5-.6-1-.6-1.1 0-2.2 0-3.2 0-.6 0-.9-.2-.9-.9 0-2.6 0-5.2 0-7.8 0-.7.3-.9.9-.9h3.2c.5 0 .8-.1 1.1-.7.8-2.2 2.2-4.1 3.9-5.7.3-.3.5-.6.5-1 0-2.1 0-4.2 0-6.3 0-.7-.2-.8-.8-.8-2.1 0-4.2 0-6.2 0-.5 0-.9.2-1.2.6-1.6 1.8-3.5 3.1-5.7 3.9-.6.2-.8.4-.8 1.1.1.9 0 1.9 0 2.8 0 .7-.2 1.1-1 1.1-2.6 0-5.1 0-7.7 0-.8 0-1-.3-1-1 0-1 0-2.1 0-3.1 0-.5-.2-.7-.6-.9-4-1.7-6.8-4.5-8.4-8.6-.2-.5-.4-.6-.9-.6-1.1 0-2.2 0-3.2 0-.7 0-1-.2-1-1 0-2.6 0-5.1 0-7.7 0-.7.3-.9.9-.9h3.1c.6 0 .9-.1 1.2-.8 1.6-3.9 4.3-6.7 8.2-8.3.6-.2.8-.5.7-1.1 0-1.1 0-2.2 0-3.3 0-.7.2-1 1-1h7.7c.7 0 1 .3 1 1v3.3c0 .5.1.8.6 1 2.4.8 4.4 2.2 6 4.1.3.3.6.5 1.1.5h6.3c.5 0 .8-.1.8-.7 0-2.2 0-4.3 0-6.5 0-.5-.2-.7-.5-1-1.9-1.7-3.3-3.7-4.1-6.1-.2-.5-.4-.7-.9-.7-1 0-2.1 0-3.1 0-.7 0-1-.2-1-1 0-2.6 0-5.1 0-7.7 0-.7.3-1 1-1h3.5c.5 0 .7-.2.9-.6 1.7-3.9 4.5-6.6 8.5-8.2.5-.2.6-.4.6-.9 0-1.1 0-2.2 0-3.2 0-.7.2-1.1 1-1 1.3.1 2.5 0 3.8 0 1.2 0 2.4.1 3.6 0 1.1-.1 1.3.4 1.3 1.3s0 1.9 0 2.8c0 .5.1.8.7 1.1 3.9 1.6 6.7 4.3 8.4 8.1.2.4.4.6.9.6h3.3c.7 0 1.1.2 1.1 1v7.6c0 .8-.3 1-1.1 1-1 0-2 0-3 0-.5 0-.8.1-.9.7-.8 2.4-2.2 4.4-4.1 6.1-.4.3-.5.7-.5 1.1v6.2c0 .7.3.8.9.8h6.1c.5 0 .9-.2 1.2-.6 1.6-1.8 3.6-3.1 5.8-3.9.5-.2.7-.5.7-1.1-.1-1.1 0-2.2 0-3.2 0-.7.2-1.1 1-1.1h7.6c.8 0 1 .3 1 1.1v3.3c0 .6.2.8.7 1.1 3.9 1.6 6.6 4.5 8.3 8.4.2.6.5.7 1.1.7h3.2c.6 0 .9.2.9.9v7.8c0 .7-.3.9-.9.9-1.1 0-2.2 0-3.2 0-.6 0-.8.2-1 .7-1.6 3.9-4.3 6.8-8.3 8.4-.6.2-.7.5-.7 1.1v2.7s-.2 1.3-1.2 1.3c-2.4-.1-4.8-.1-7.2 0-1 0-1.2-.4-1.2-1.2 0-.9 0-1.8 0-2.7 0-.5-.1-.8-.6-1-2.4-.8-4.3-2.2-6-4.1-.3-.3-.5-.4-1-.4-2.2 0-4.3 0-6.5 0-.6 0-.7.2-.7.8v6.3c0 .4.1.8.5 1.1 1.8 1.6 3.1 3.5 4 5.7.2.6.5.7 1.1.7h3.1c.7 0 1 .2 1 1v7.7c0 .8-.3 1-1 1-1 0-2 0-3 0-.6 0-.9.1-1.2.7-1.6 4-4.5 6.8-8.5 8.5-.6.2-.7.5-.7 1.1v3.2c0 .6-.2.9-.9.9-1.9-.3-3.2-.3-4.4-.3zm-13.5-39.2h3.6c.8 0 1.1.2 1 1v7c0 .6-.2 1-.6 1.3-1.8 1.6-3.1 3.5-4 5.8-.2.6-.6.8-1.2.8-1 0-2 0-3 0-.6 0-.8.1-.8.7v6.7c0 .5.2.7.7.7h3.1c.6 0 .9.2 1.2.8 1.6 4.2 4.5 7 8.6 8.6.7.3.9.6.9 1.3v3c0 .5.2.7.7.7h6.7c.6 0 .8-.2.7-.8 0-.9 0-1.8 0-2.7-.1-.9.2-1.4 1.1-1.7 3.1-1.2 5.5-3.3 7.3-6.1.6-1 .6-2.6 1.7-3 1-.4 2.3-.2 3.5-.1.6 0 .9-.1.9-.8 0-2.2 0-4.4 0-6.6 0-.6-.2-.8-.8-.8-1 0-2 0-3 0-.6 0-1-.2-1.2-.8-.8-2.3-2.1-4.2-4-5.8-.4-.4-.6-.8-.6-1.3 0-2.3 0-4.7 0-7 0-.8.3-1 1-1h6.9c.6 0 1 .2 1.4.6 1.6 1.8 3.6 3.2 5.9 4 .7.2.9.6.9 1.3v2.7c0 .6.1.8.7.8h6.7c.5 0 .7-.2.7-.7 0-1 0-1.9 0-2.9 0-.7.2-1 .8-1.3 4-1.6 6.8-4.4 8.3-8.4.3-.6.6-.9 1.3-.9h3c .6 0 .8-.2.8-.8 0-1.3 0-2.6 0-3.9 0-1.1.5-2.5-.2-3.2s-2.1-.1-3.2-.2c-.1 0-.1 0-.2 0-.8.1-1.2-.2-1.5-1-1.5-4-4.3-6.8-8.2-8.4-.6-.2-.9-.6-.9-1.2 0-1.1 0-2.2 0-3.2 0-.6-.2-.8-.8-.8-2.2 0-4.3 0-6.5 0-.7 0-.9.3-.9.9v3.1c0 .6-.2.9-.8 1.1-2.4.8-4.4 2.2-6 4-.4.4-.8.6-1.3.6-2.3 0-4.7 0-7 0-.8 0-1-.3-1-1 0-2.3 0-4.7 0-7 0-.5.1-.9.5-1.3 2-1.7 3.4-3.8 4.2-6.3.2-.6.5-.8 1.1-.8h3c .5 0 .7-.2.7-.7 0-2.2 0-4.5 0-6.7 0-.6-.3-.7-.8-.7-1 0-2.1 0-3.1 0-.6 0-1-.1-1.2-.7-1.6-4-4.5-6.7-8.4-8.2-.7-.3-.9-.6-.9-1.3 0-1 0-2 0-3 0-.5-.2-.7-.7-.7-2.2 0-4.5 0-6.7 0-.6 0-.8.2-.8.8v2.7c.1.9-.2 1.4-1.1 1.7-3.8 1.5-6.5 4.2-8.1 7.9-.3.7-.6.9-1.3.9-1 0-2.1 0-3.1 0-.6 0-.8.2-.8.8v6.6c0 .7.2.8.8.8h2.9c.6 0 1 .2 1.1.8.8 2.5 2.2 4.6 4.2 6.3.4.4.5.7.5 1.3v7c0 .8-.2 1.1-1 1-2.3 0-4.7 0-7 0-.6 0-1-.2-1.3-.6-1.7-1.9-3.7-3.2-6-4-.6-.2-.8-.6-.8-1.1 0-1.1 0-2.2 0-3.2 0-.6-.1-.8-.7-.8-2.2 0-4.5 0-6.7 0-.5 0-.7.2-.7.7v3.3c0 .7-.3 1-.9 1.2-4 1.6-6.7 4.4-8.3 8.4-.3.7-.7 1-1.5 1-.9-.1-1.9 0-2.8 0-.6 0-.9.1-.8.8v6.6c0 .6.2.8.8.8h3c .7 0 1 .3 1.3.9 1.6 4 4.3 6.9 8.3 8.4.6.2.9.6.8 1.3v2.9c0 .5.2.7.7.7h6.7c.6 0 .8-.2.7-.8 0-.9 0-1.8 0-2.7 0-.7.2-1.1.9-1.3 1.6-.5 3.3-1.2 4.3-2.5 1.7-2.2 3.9-2.3 6.3-2.1.1-.2.1-.2.3-.2z" fill="#281819"/><path d="m43.5 65.9c-2.5-.2-4.7 0-6.4 2.1-1 1.3-2.7 2-4.3 2.5-.7.2-.9.6-.9 1.3v2.7c0 .6-.1.8-.7.8-2.2 0-4.5 0-6.7 0-.5 0-.7-.2-.7-.7 0-1 0-1.9 0-2.9 0-.7-.2-1-.8-1.3-4-1.6-6.8-4.5-8.3-8.4-.3-.6-.6-.9-1.3-.9-1 0-2 0-3 0-.6 0-.8-.2-.8-.8 0-2.2 0-4.4 0-6.6 0-.7.2-.8.8-.8h2.8c.8.1 1.2-.2 1.5-1 1.5-4 4.3-6.8 8.3-8.4.6-.2.9-.6.9-1.2 0-1.1 0-2.2 0-3.3 0-.5.2-.7.7-.7h6.7c.6 0 .8.2.7.8v3.2c0 .6.2.9.8 1.1 2.4.8 4.4 2.2 6 4 .4.4.8.6 1.3.6h7c .8 0 1-.3 1-1 0-2.3 0-4.7 0-7 0-.5-.1-.9-.5-1.3-2-1.7-3.4-3.8-4.2-6.3-.2-.6-.5-.8-1.1-.8-1 0-1.9 0-2.9 0-.6 0-.9-.1-.8-.8 0-2.2 0-4.4 0-6.6 0-.6.2-.8.8-.8h3.1c.7 0 1-.2 1.3-.9 1.6-3.8 4.3-6.4 8.1-7.9.9-.4 1.2-.8 1.1-1.7s0-1.8 0-2.7c0-.6.2-.8.8-.8h6.7c.5 0 .7.2.7.7v3c0 .7.2 1.1.9 1.3 4 1.5 6.8 4.2 8.4 8.2.3.6.7.7 1.2.7h3.1c.5 0 .8.1.8.7v6.7c0 .5-.2.7-.7.7-1 0-2 0-3 0-.6 0-1 .3-1.1.8-.8 2.5-2.2 4.6-4.2 6.3-.4.4-.5.7-.5 1.3v7c0 .8.2 1 1 1h7c .6 0 1-.2 1.3-.6 1.7-1.9 3.7-3.2 6-4 .6-.2.8-.6.8-1.1 0-1 0-2.1 0-3.1 0-.7.1-.9.9-.9h6.5c.6 0 .8.2.8.8v3.2c0 .7.3 1 .9 1.2 4 1.6 6.7 4.4 8.2 8.4.3.7.7 1.1 1.5 1h .2c1.1.1 2.5-.5 3.2.2.6.7.2 2.1.2 3.2v3.9c0 .6-.2.8-.8.8-1 0-2 0-3 0-.7 0-1.1.3-1.3.9-1.6 4-4.3 6.9-8.3 8.4-.6.2-.9.6-.8 1.3v2.9c0 .5-.2.7-.7.7-2.2 0-4.5 0-6.7 0-.6 0-.8-.2-.7-.8 0-.9 0-1.8 0-2.7 0-.7-.2-1.1-.9-1.3-2.3-.8-4.3-2.1-5.9-4-.4-.5-.8-.6-1.4-.6-2.3 0-4.6 0-6.9 0-.8 0-1.1.2-1 1v7c0 .6.2 1 .6 1.3 1.8 1.6 3.2 3.5 4 5.8.2.6.6.8 1.2.8h3c .6 0 .8.2.8.8v6.6c0 .7-.3.8-.9.8-1.2 0-2.5-.3-3.5.1-1 .5-1 2-1.7 3-1.8 2.8-4.1 4.9-7.3 6.1-.9.3-1.2.8-1.1 1.7s0 1.8 0 2.7c0 .6-.2.8-.7.8-2.2 0-4.5 0-6.7 0-.5 0-.7-.2-.7-.7 0-1 0-2 0-3 0-.7-.2-1.1-.9-1.3-4.1-1.6-7-4.4-8.6-8.6-.2-.6-.5-.8-1.2-.8-1 0-2.1 0-3.1 0-.5 0-.7-.2-.7-.7 0-2.2 0-4.5 0-6.7 0-.6.2-.8.8-.7h3c .6 0 1-.2 1.2-.8.8-2.3 2.1-4.2 4-5.8.4-.4.6-.8.6-1.3 0-2.3 0-4.7 0-7 0-.8-.3-1-1-1-1.5.2-2.7.2-3.8.2zm19.9-10.5c-1.3 0-2.5-.1-3.8 0-.9 0-1.1-.2-1.1-1.1.3-6 .6-11.9 1.3-17.8.1-.6.4-.8.9-1 2.9-1.3 5-4.7 4.5-8.5-.5-3.2-2.1-5.5-5.2-6.7-3.2-1.2-6.2-.7-8.7 1.5-4.4 3.9-3.4 10.8 1.7 13.6.5.3.9.6 1 1.3.3 1.9.4 3.8.6 5.7.4 4 .5 8 .7 12 .1.9-.2 1-1.1 1-5.9-.2-11.8-.7-17.7-1.3-.6-.1-.9-.4-1.2-.9-1.3-3-4.9-5-8.5-4.5-3.2.5-5.5 2.1-6.7 5.2-1.2 3.2-.7 6.2 1.5 8.7 3.9 4.4 10.8 3.4 13.6-1.7.4-.7.8-1 1.5-1 1.7-.1 3.3-.3 5-.5 4.2-.5 8.5-.6 12.8-.8.6 0 .8.2.8.7-.1 1.2-.1 2.4-.1 3.7-.1 4.8-.5 9.5-1.1 14.3-.1.7-.4 1-1 1.3-3.4 1.6-4.7 5-4.6 7.7.3 5.4 4.6 8.8 9.7 8 4.7-.7 7.1-4.4 7-8.4-.1-3.3-1.7-5.9-4.9-7.4-.4-.2-.6-.4-.6-.9-.9-6-1.1-12-1.3-18 0-.7.2-.9.9-.9 6 .2 12 .4 17.9 1.3.5.1.8.2 1.1.7 1.4 3.2 4.9 5.2 8.6 4.7 3.2-.5 5.5-2.1 6.7-5.2 1.2-3.2.7-6.2-1.5-8.7-3.9-4.5-10.9-3.5-13.7 1.7-.3.5-.4.9-1.1 1-4.7.6-9.2 1-13.9 1.2z" fill="#e10b1b"/><path d="m63.4 55.4c4.7-.2 9.3-.6 13.9-1.3.7-.1.9-.5 1.1-1 2.7-5.2 9.7-6.2 13.7-1.8 2.2 2.5 2.8 5.5 1.5 8.7-1.2 3-3.5 4.7-6.7 5.2-3.7.5-7.3-1.5-8.6-4.7-.2-.5-.5-.7-1.1-.7-5.9-.9-11.9-1.1-17.9-1.3-.7 0-.9.2-.9.9.2 6 .4 12.1 1.3 18 .1.5.2.7.6.9 3.2 1.4 4.8 4 4.9 7.4.1 4-2.3 7.7-7 8.4-5.1.8-9.5-2.6-9.7-8-.1-2.7 1.1-6 4.6-7.7.6-.3.9-.6 1-1.3.7-4.7 1-9.5 1.1-14.3 0-1.2 0-2.4.1-3.7 0-.6-.2-.8-.8-.7-4.3.2-8.5.3-12.8.8-1.7.2-3.3.4-5 .5-.8.1-1.2.3-1.5 1-2.8 5.2-9.7 6.1-13.6 1.7-2.2-2.5-2.8-5.5-1.5-8.7 1.2-3 3.5-4.7 6.7-5.2 3.7-.5 7.2 1.5 8.5 4.5.2.5.6.8 1.2.9 5.9.7 11.8 1.1 17.7 1.3.8 0 1.1-.1 1.1-1-.3-4-.3-8-.7-12-.2-1.9-.3-3.8-.6-5.7-.1-.7-.5-1-1-1.3-5.1-2.8-6.1-9.7-1.7-13.6 2.5-2.2 5.5-2.8 8.7-1.5 3 1.2 4.7 3.5 5.2 6.7.5 3.8-1.6 7.2-4.5 8.5-.5.2-.8.4-.9 1-.7 5.9-1.1 11.9-1.3 17.8 0 .9.2 1.1 1.1 1.1 1.3.1 2.4.2 3.8.2zm-1.5.7c-.9 0-1.8 0-2.7 0-1.4 0-1.4 0-1.4-1.4.1-5.8.5-11.6 1.2-17.4.2-1.3.6-2.1 1.8-2.8 4.7-2.6 5-9.7.6-12.7-3.8-2.6-8.8-1.5-11.1 2.4-2.2 3.8-.7 8.6 3.3 10.6.7.3 1 .7 1.1 1.5.8 6.1 1.2 12.3 1.4 18.4 0 1.1-.3 1.4-1.4 1.3-5.8-.2-11.6-.6-17.4-1.2-1.4-.2-2.2-.6-2.9-1.9-2.6-4.7-9.8-4.9-12.7-.4-2.5 3.9-1.5 8.7 2.4 11s8.7.8 10.7-3.4c.3-.7.8-.9 1.4-1 6.2-.8 12.4-1.2 18.6-1.4.8 0 1.2.2 1.2 1.1.1 6.3-.3 12.5-1.1 18.6-.1.8-.4 1.3-1.2 1.6-5.2 2.4-5.9 9.6-1.2 13 3.6 2.6 8.8 1.6 10.9-2.1 2.4-4.2 1-9-3.3-11-.6-.3-.9-.7-1-1.3-.9-6.3-1.3-12.5-1.3-18.9 0-.8.3-1 1-1 6.2 0 12.4.4 18.6 1.2.8.1 1.2.4 1.6 1.1 2.3 5.1 9.5 6.1 13 1.3 2.7-3.7 1.6-8.8-2.3-11.1s-8.8-.8-10.8 3.4c-.3.7-.8 1-1.5 1.1-5 .9-10.3 1.3-15.5 1.4z" fill="#281819"/><path d="m61.9 56.1c5.2-.1 10.4-.5 15.6-1.2.7-.1 1.2-.4 1.5-1.1 2-4.2 6.8-5.7 10.8-3.4 3.9 2.3 5 7.4 2.3 11.1-3.5 4.8-10.8 3.8-13-1.3-.3-.8-.8-1-1.6-1.1-6.2-.9-12.4-1.2-18.6-1.2-.8 0-1 .2-1 1 0 6.3.4 12.6 1.3 18.9.1.7.3 1 1 1.3 4.3 2 5.8 6.8 3.3 11-2.1 3.6-7.3 4.7-10.9 2.1-4.7-3.4-4-10.7 1.2-13 .8-.4 1.1-.8 1.2-1.6.7-6.3 1.1-12.5 1.1-18.7 0-.9-.3-1.1-1.2-1.1-6.2.1-12.4.6-18.6 1.4-.7.1-1.1.3-1.4 1-2 4.1-6.8 5.6-10.7 3.4-3.9-2.3-5-7.1-2.4-11 2.9-4.5 10.1-4.3 12.7.4.7 1.3 1.5 1.7 2.9 1.9 5.8.7 11.6 1 17.4 1.2 1.1 0 1.4-.3 1.4-1.3-.2-6.2-.6-12.3-1.4-18.4-.1-.7-.4-1.1-1.1-1.5-4.1-2-5.6-6.8-3.3-10.6 2.3-3.9 7.2-5 11.1-2.4 4.4 3 4.2 10.1-.6 12.7-1.2.7-1.7 1.5-1.8 2.8-.7 5.8-1.1 11.6-1.2 17.4 0 1.4 0 1.4 1.4 1.4.7-.1 1.7-.1 2.6-.1z" fill="#feffff"/></svg>