<svg enable-background="new 0 0 113.4 113.4" viewBox="0 0 113.4 113.4" xmlns="http://www.w3.org/2000/svg"><circle cx="56.7" cy="56.7" fill="#fff" r="56.7"/><circle cx="56.7" cy="55.1" fill="#fff" r="53.6"/><path d="m56.8 92.1c21 0 39-15.3 42.7-36 3.7-20.5-8.5-43-31.3-49.3-1.1-.3-1.9-.7-2-2-.1-1.5.7-2.4 2.2-2.2 3.1.4 6 1.4 8.8 2.6 18.4 7.8 30 21.5 33.8 41.1 5.8 29.6-13.3 58-42.3 64.3-29.7 6.5-58.9-11.8-65.8-41.5-6.9-29.5 11.2-59.2 41.2-66.3 2.2-.5 3.4.4 3 2.4-.2 1.1-1 1.3-1.8 1.6-5.7 1.5-10.8 4.1-15.4 7.7-9.5 7.6-15.1 17.4-16.3 29.5-1.5 14.7 3.4 27.1 14.2 37 8 7.3 18.4 11.1 29 11.1z" fill="#040405"/><path d="m24.9 24.6c6.2 13.7 16.7 21.5 31.6 21.3 15.2-.1 25.6-8.2 31.4-22.1 11.8 14.6 12.4 36.9-2.3 52.3-15.5 16.3-39.8 16.4-55.6 2.2-16.5-14.9-16.8-38.4-5.1-53.7z" fill="#030304"/><path d="m49 90.5c2.3.2 4.6.5 6.9.6 1.8.1 3.6-.2 5.4-.3 1.1 0 2.2-.4 3.3-.3v.2c-3 .4-6.1.9-9.1.7-2.3-.2-4.5-.1-6.5-.9z" fill="#e6e3e2"/><path d="m68.4 89.6c.9-.5 1.8-.8 2.7-.9-.7.7-1.7.9-2.7.9z" fill="#f1f0ef"/><path d="m65.7 90.3c.9-.4 1.8-.6 2.7-.7-.8.6-1.8.6-2.7.7z" fill="#edebeb"/><path d="m46 89.8c.7 0 1.3.1 1.8.5-.6 0-1.3 0-1.8-.5z" fill="#ebe8e8"/><path d="m64.5 90.7c0-.1 0-.1 0-.2.3-.4.8-.2 1.1-.2-.3.3-.7.3-1.1.4z" fill="#edebeb"/><path d="m43 88.9c.3 0 .5 0 .7.2v.2c-.2-.1-.5-.2-.7-.2 0-.1 0-.1 0-.2z" fill="#efeded"/><path d="m43 88.9v.2c-.2-.1-.5-.2-.7-.2 0-.1 0-.2 0-.2.3 0 .6-.1.7.2z" fill="#efeded"/><path d="m49 90.5c-.4-.1-.8.2-1.1-.2.3 0 .7-.2 1.1.2z" fill="#e6e3e2"/><path d="m29.8 81.6c.2 0 .3.1.4.3-.4.1-.4-.1-.4-.3z" fill="#efeeed"/><path d="m28.4 80.4c.2 0 .4 0 .4.3-.4.2-.4-.1-.4-.3z" fill="#efeeed"/><path d="m85.1 80.4c0 .2 0 .4-.3.4-.1-.3.1-.3.3-.4z" fill="#efeded"/><path d="m76.4 86.4c.1-.2.3-.3.6-.3-.1.3-.4.3-.6.3z" fill="#f2f0f0"/><path d="m46 89.8c-.3 0-.7.1-.9-.2.3 0 .7-.1.9.2z" fill="#eeebeb"/><path d="m42.3 88.7v.2c-.1-.1-.3-.1-.3-.3.2-.2.3-.1.3.1z" fill="#f0efef"/><path d="m71.8 88.4c-.2.3-.4.2-.7.2.2-.2.5-.2.7-.2z" fill="#f1f0ef"/><path d="m43.7 89.3c0-.1 0-.1 0-.2.3 0 .5 0 .7.2-.2 0-.5 0-.7 0z" fill="#eeecec"/><path d="m44.4 89.3c.3 0 .5 0 .7.2-.3.1-.5.1-.7-.2z" fill="#edebea"/><path d="m29.8 81.6c-.1 0-.2 0-.3-.1.1-.2.2 0 .3.1z" fill="#efeeed"/><path d="m84.1 81.5c-.1 0-.2 0 0 0-.2-.1-.1-.1 0 0z" fill="#efeded"/><g fill="#f2f0f0"><path d="m81.2 83.4c.1-.2.3-.2.5-.2-.1.2-.3.2-.5.2z"/><path d="m79.2 84.8c.1-.2.3-.2.5-.2-.2.1-.4.2-.5.2z"/><path d="m75.9 86.6c.1-.2.3-.2.5-.2-.1.2-.3.2-.5.2z"/><path d="m75.5 86.8c.1-.2.3-.2.5-.2-.1.2-.3.2-.5.2z"/><path d="m75.5 86.8c-.1.1-.1.1-.3.2 0-.2.2-.1.3-.2z"/><path d="m74.6 87.3c-.1.1-.1.1-.3.2 0-.3.2-.2.3-.2z"/></g><path d="m41.5 88.3s0 .1 0 0c-.1.1-.1.1 0 0-.1 0-.1 0 0 0-.1 0 0 0 0 0z" fill="#f0efef"/><path d="m71.7 88.5c.2-.1.2-.2.4-.3 0 .3-.2.2-.4.3z" fill="#f1f0ef"/><path d="m82.8 82.3c-.1.1-.2.2-.2.2.1-.1.1-.2.2-.2z" fill="#f2f0f0"/><path d="m82.6 82.5s-.1.1 0 0c-.1.1 0 0 0 0z" fill="#f2f0f0"/><path d="m88.3 77.2c0 .1-.1.1 0 0-.1.1 0 0 0 0z" fill="#efeded"/><path d="m88.5 77s .1-.1 0 0c .1-.1 0 0 0 0z" fill="#efeded"/><g fill="#f2f0f0"><path d="m81.2 83.4c-.1.1-.2.2-.2.2.1 0 .1-.1.2-.2z"/><path d="m81 83.6c0 .1-.1.1 0 0-.1.1 0 .1 0 0z"/><path d="m80.3 84.1c0-.1 0 0 0 0z"/><path d="m80.3 84.1s0 .1 0 0z"/></g><path d="m25.2 77.2c-.1 0-.1 0 0 0-.1 0 0 0 0 0z" fill="#efeeed"/><path d="m79.2 84.8-.1.1v-.1z" fill="#f2f0f0"/><path d="m78 85.5.1-.1z" fill="#f2f0f0"/><path d="m78 85.5v.1l-.1-.1z" fill="#f2f0f0"/><path d="m88.3 77.2c.1-.1.2-.2.2-.2 0 .1-.1.2-.2.2z" fill="#efeded"/><path d="m25.2 77.2c0 .1.1.1 0 0 0 .1 0 .1 0 0z" fill="#efeeed"/><path d="m86.9 78.6s.1-.1 0 0c .1-.1 0 0 0 0z" fill="#efeded"/><path d="m86.9 78.6c-.1.1-.2.2-.2.2z" fill="#efeded"/><path d="m86.7 78.8c0 .1 0 .1 0 0z" fill="#efeded"/><path d="m27.5 79.5c-.1 0-.1 0 0 0-.1-.1-.1 0 0 0z" fill="#efeeed"/><path d="m86 79.5s.1-.1 0 0z" fill="#efeded"/><path d="m27.5 79.5c.1.1.2.2.2.2-.1 0-.2-.1-.2-.2z" fill="#efeeed"/><path d="m86 79.5c-.1.1-.2.2-.2.2.1 0 .1-.1.2-.2z" fill="#efeded"/><path d="m27.9 80c-.1-.1-.2-.2-.2-.2.1 0 .2.1.2.2z" fill="#efeeed"/><path d="m85.8 79.7c-.1.1-.2.2-.2.2s.1-.1.2-.2z" fill="#efeded"/><path d="m81.9 82.9c-.1.1-.2.2-.2.2s.1-.1.2-.2z" fill="#f2f0f0"/><path d="m28.2 80.2c-.1-.1-.2-.2-.2-.2s.1.1.2.2z" fill="#efeeed"/><path d="m85.3 80.2c.1-.1.2-.2.2-.2s-.1.1-.2.2z" fill="#efeded"/><path d="m28.4 80.4c-.1-.1-.2-.2-.2-.2 0 .1.1.1.2.2z" fill="#efeeed"/><path d="m85.3 80.2c-.1.1-.2.2-.2.2z" fill="#efeded"/><path d="m30.7 82.3c-.1-.1-.1-.1 0 0z" fill="#efeeed"/><path d="m82.8 82.3c0-.1 0-.1 0 0z" fill="#f2f0f0"/><path d="m74.6 87.3c0-.1 0 0 0 0z" fill="#f2f0f0"/></svg>