<svg enable-background="new 0 0 113.4 113.4" viewBox="0 0 113.4 113.4" xmlns="http://www.w3.org/2000/svg"><circle cx="56.7" cy="56.7" fill="#005384" r="56.7"/><circle cx="56.7" cy="56.7" fill="#fff" r="39.1"/><path d="m59.3 20.9c1.3.2 1.3 1.1 1.3 2.1v67.9c0 1-.1 1.4-1.3 1.5-2 .1-3.9.1-5.9-.1-.5-.1-.7-.2-.6-.6 0-.3 0-.6 0-.9 0-22.6 0-45.2 0-67.8 0-1-.1-2 1.3-2.1z" fill="#ec2024"/><path d="m20.9 53.8c.3-1.8.6-3.5 1-5.3 1-4.9 4.2-11.2 7-14.1v44.7c-.4-.4-.6-.7-.9-1.1-3.9-5.4-6.3-11.4-6.8-18.1 0-.2-.1-.3-.2-.4-.1-1.8-.1-3.8-.1-5.7z" fill="#ec2125"/><path d="m44.7 90.3c-2.8-.9-5.3-2.3-7.7-3.8-.5-.3-.2-.8-.2-1.3 0-13.4 0-26.8 0-40.2 0-5.7 0-11.4 0-17.1 0-.7.2-1.1.8-1.5 2.2-1.4 4.6-2.6 7.2-3.5-.1 22.6-.1 45-.1 67.4z" fill="#ec2024"/><path d="m68.7 90.4c0-22.5 0-44.8 0-67.3 2.7.9 5.1 2.1 7.4 3.6.6.4.3.9.3 1.4v52.7 5c0 .4.1.7-.3 1-2.3 1.4-4.7 2.7-7.4 3.6z" fill="#ec2024"/><path d="m84.5 79c0-14.9 0-29.7 0-44.4 9.9 10.8 11.3 31.1 0 44.4z" fill="#ec2125"/><path d="m50.9 51.4 5.8-15.1 5.6 15.1 15.7.6-12.2 9.3 4.1 15.7-13.3-9-13.2 9 4.2-15.7-12.2-9.3z" fill="#005384"/><g fill="#fff"><path d="m14.5 26.6 1.7-1.9 2.9 2.5c.7.6 1.1.9 1.3 1 .3.2.6.2.9 0s .8-.7 1.6-1.5c.6-.7 1-1.1 1.2-1.4s.3-.5.3-.7c0-.1-.1-.3-.2-.4s-.3-.3-.5-.6c-.3-.3-.5-.5-.7-.6l-2.9-2.6 1.7-1.9 2.9 2.5c1 .9 1.6 1.5 1.9 1.8.5.5.6 1.1.5 1.8-.1.4-.3.8-.6 1.3s-1 1.2-1.9 2.2c-.7.8-1.2 1.3-1.6 1.7s-.8.7-1.1.9c-.8.5-1.5.6-2.3.1-.3-.2-.5-.3-.7-.5s-.7-.6-1.4-1.2z"/><path d="m27.4 21 2.1-1.3c.2.3.4.5.6.5.1 0 .3 0 .5-.1s.7-.4 1.6-1 1.4-1 1.6-1.1.3-.2.4-.4.1-.4-.1-.7c-.1-.2-.3-.3-.4-.3-.2 0-.4.1-.8.3-.3.2-.8.5-1.7 1s-1.5.9-1.8 1c-.5.3-1 .5-1.3.6s-.6.1-.9 0c-.5-.1-.9-.5-1.4-1.3s-.7-1.5-.6-2c .1-.4.3-.8.7-1.2s1.4-1 2.8-2c1-.7 1.8-1.1 2.2-1.3.7-.3 1.3-.4 1.7-.3s.8.5 1.2 1.1c0 .1.1.2.2.3l-2.1 1.3c-.1-.2-.2-.3-.3-.4s-.2-.1-.3-.1-.3.1-.6.2c-.2.1-.7.4-1.5.9-.9.6-1.4 1-1.6 1.2s-.2.4 0 .7c.2.2.4.3.6.3.2-.1 1-.5 2.4-1.3 1.2-.7 1.9-1.2 2.4-1.4.4-.2.8-.3 1.1-.3.4 0 .7.1 1 .3s.6.6.9 1.1c.4.7.7 1.2.7 1.7 0 .3-.1.6-.2.9-.2.3-.4.6-.9.9-.4.3-1.3.9-2.5 1.7-1.1.7-1.9 1.2-2.4 1.4-.5.3-1 .4-1.3.4-.4 0-.7-.1-.9-.2-.3-.2-.6-.5-.9-1z"/><path d="m47.3 14.4-1.1-1.1-5.3 1.6-.3 1.6-2.8.9 1.8-9.3 3.8-1.2 6.7 6.7zm-2.5-2.6-2.5-2.6-.5.1-.6 3.5z"/><path d="m50.4 7.9 2.1-.1.1.9h.1c.2-.4.4-.7.8-.9.3-.2.8-.3 1.4-.3.9-.1 1.5.1 1.9.4s.6.9.6 1.8v.4l-2.1.1c0-.3-.1-.6-.2-.7-.2-.3-.5-.4-1.1-.3-.5 0-.9.2-1.1.5-.1.1-.2.3-.2.5s0 .5 0 1l .1 2.5-2 .1z"/><path d="m59 7.6 2.2.2-.4 5.9-2.2-.2zm.2-2.4 2.2.2-.1 1.7-2.2-.2z"/><path d="m65.3 10.2-2.2-.5c.1-.4.3-.8.5-1 .3-.3.8-.5 1.4-.5s1.5.1 2.8.4c1 .2 1.6.4 1.9.5s.6.4.8.7c.1.2.2.5.2.8s0 .7-.2 1.2l-.7 3.6-2.1-.5.2-.8h-.1c-.2.3-.5.5-.9.6-.2 0-.5 0-.8 0s-.9-.1-1.6-.3c-.6-.1-1-.3-1.3-.4s-.5-.3-.7-.5c-.2-.3-.3-.8-.1-1.4.1-.7.4-1.1.8-1.4.3-.2.7-.3 1.1-.2.4 0 1.3.2 2.4.4.5.1.9.2 1.1.3s.4.3.5.5h.1l.1-.3c.1-.5.1-.8-.1-.9s-.5-.3-1.2-.4c-.8-.2-1.3-.2-1.5-.2-.2-.1-.3.1-.4.3zm1.1 1.9c-.7-.2-1.2-.2-1.4-.2-.2.1-.4.2-.4.4-.1.2 0 .4.2.5s.6.3 1.2.4c.8.2 1.3.2 1.6.2s.5-.2.5-.4c.1-.2 0-.4-.2-.6-.2 0-.7-.1-1.5-.3z"/><path d="m82 11.7-3.5 7.6-1.9-.9.3-.7-.1-.1c-.3.2-.5.3-.7.3-.5 0-1.2-.1-2.1-.6-.7-.3-1.3-.6-1.6-.9-.4-.3-.6-.6-.7-.9s-.2-.6-.1-1 .3-.9.6-1.6c.2-.5.4-.8.6-1.1s.4-.5.6-.6c.4-.3.9-.4 1.5-.3.4.1 1.1.3 1.9.7.7.3 1.2.6 1.4.9.3.3.4.6.4 1h .1l1.4-2.9zm-5.3 1.8c-.8-.4-1.3-.5-1.6-.5s-.6.3-.8.9c-.2.4-.3.7-.3.9s.1.4.2.5c.2.2.6.5 1.2.7.7.3 1.3.5 1.6.5.2 0 .3-.1.4-.2s.3-.4.4-.7c.2-.4.3-.7.3-.9s-.1-.4-.2-.5c-.2-.2-.6-.4-1.2-.7z"/><path d="m83.3 15.2 1.7 1.3-.6.7.1.1c.4-.2.8-.2 1.2-.1s.9.4 1.5.8 1 .8 1.2 1.2c.3.3.4.7.4 1.1s0 .7-.1 1.1c-.1.3-.5.8-1 1.4l-1.6 2.1-1.8-1.4 1.6-2.1c.3-.4.5-.6.5-.8.1-.2.1-.3.1-.5 0-.3-.4-.7-1-1.2s-1.1-.7-1.5-.6c-.2 0-.4.1-.5.3-.2.1-.4.4-.7.9l-1.4 1.9-1.8-1.4z"/><path d="m91.6 24.9-1.4-1.7c.4-.3.7-.4 1-.5.5 0 .9.1 1.4.4s1.1 1 2 2c .6.7 1 1.3 1.2 1.6s.2.7.2 1-.1.5-.3.8c-.2.2-.5.5-.9.9l-2.7 2.3-1.4-1.6.6-.5-.1-.1c-.4.1-.7.1-1.1-.1-.2-.1-.4-.3-.6-.5s-.6-.6-1.1-1.2c-.4-.5-.7-.8-.8-1.1-.2-.3-.2-.6-.2-.8 0-.4.3-.8.7-1.2.5-.4 1-.6 1.5-.6.4 0 .7.2 1.1.5.3.3.9.9 1.7 1.8.3.4.5.7.6.9s.1.4.1.7l.1.1.2-.2c.4-.3.5-.6.5-.8s-.3-.6-.7-1.1c-.5-.6-.9-1-1-1.1-.2-.1-.4-.1-.6.1zm-.3 2.1c-.5-.6-.8-.9-1-1s-.4-.1-.6.1-.2.3-.2.6c.1.2.3.6.7 1 .5.6.9 1 1.1 1.1.3.2.5.1.7 0 .2-.2.2-.4.1-.6.1-.1-.2-.5-.8-1.2z"/><path d="m14.5 86.9.8-1.5-3-4.8-1.7.1-.6-.9 8-.3.8 1.3-3.9 7zm1.3-2.3 2.2-3.9-.2-.3-4.5.2z"/><path d="m19.1 84.9.5.6-1.9 1.6c-.3.3-.6.5-.7.7s-.2.3-.2.5.1.4.2.6.3.5.6.8c.4.4.7.8 1 .9.3.2.5.3.8.3.2 0 .3 0 .5-.1s.4-.3.7-.5l1.8-1.6.5.6-3.7 3.2-.5-.6.6-.5c-.4.1-.7 0-1-.2s-.7-.6-1.2-1.1c-.4-.5-.7-.8-.8-1.1s-.2-.6-.2-.8.1-.5.2-.7c.2-.2.4-.5.8-.8z"/><path d="m23.3 89.7.6.5-.4.5c.2-.1.5-.1.8 0 .2 0 .3.1.5.3.2.1.5.4.8.7.4.3.6.6.7.8s.2.4.2.6c.1.4-.1.9-.6 1.3l-.3.4-.6-.5.2-.3c.2-.2.3-.4.4-.5s.1-.3.1-.4c0-.3-.3-.6-.7-1-.7-.6-1.2-.9-1.6-.9s-.8.3-1.4.9l-1.5 1.7-.6-.5z"/><path d="m29.7 94.9c.6.4 1.1.8 1.3 1 .3.2.5.5.6.7.1.3.2.7.1 1-.1.4-.3.8-.6 1.3-.4.5-.7.9-1 1.1-.2.1-.5.2-.7.2s-.5-.1-.8-.2-.7-.4-1.3-.8-1-.7-1.2-1-.4-.5-.6-.7c-.2-.3-.2-.7-.1-1 .1-.4.3-.8.6-1.3.4-.6.8-.9 1.1-1.1.4-.2.7-.2 1.1-.1.2.1.8.4 1.5.9zm-.3.7c-.4-.3-.7-.5-1-.6-.2-.1-.4-.2-.6-.2s-.4.1-.6.2c-.2.2-.4.4-.7.8s-.4.7-.5 1 0 .5.2.7c.2.3.6.6 1.3 1.1.5.3.8.5 1 .6s.5.2.6.2c.2 0 .4-.1.6-.2.2-.2.4-.4.7-.8s.5-.8.5-1c0-.3 0-.6-.2-.8s-.7-.6-1.3-1z"/><path d="m32.8 97.1.7.4-.3.6c.2-.1.4-.2.7-.2.2 0 .4 0 .6.1s.6.2 1 .5c.4.2.7.4.9.6s.3.3.4.5c.2.4.1.9-.2 1.4l-.2.4-.7-.4.1-.2c.1-.2.2-.4.2-.6 0-.1 0-.3 0-.4-.1-.3-.4-.5-.9-.8-.8-.4-1.4-.6-1.7-.5s-.7.5-1.1 1.3l-1 2-.7-.4z"/><path d="m37.8 101.2-.7-.3c0-.1 0-.2.1-.2.2-.5.5-.7.9-.8.4 0 1.1.1 2.1.5.8.3 1.3.5 1.6.7s.5.4.6.7c.1.2.1.4.1.7 0 .2-.2.6-.4 1.2l-.9 2.4-.7-.3.2-.5c-.3.2-.5.3-.8.2-.3 0-.8-.2-1.5-.4-.8-.3-1.3-.5-1.6-.7s-.5-.3-.6-.5-.2-.4-.2-.5c0-.2.1-.4.2-.7.1-.4.3-.6.4-.8.2-.2.4-.2.6-.2.3 0 .9.1 1.8.5.9.3 1.5.6 1.8.8s.4.4.5.7h.1l.2-.5c.1-.4.2-.7.1-.9s-.2-.4-.5-.5c-.2-.2-.7-.3-1.2-.6-.8-.3-1.3-.4-1.6-.4-.3-.1-.5.1-.6.4zm1.4 1.8c-.6-.2-1-.4-1.3-.4-.2-.1-.4-.1-.5-.1-.2 0-.4.2-.5.5s-.1.5.1.7c.1.2.7.4 1.8.8.8.3 1.3.4 1.6.4s.5-.2.6-.5 0-.5-.2-.7c-.2-.1-.8-.4-1.6-.7z"/><path d="m46.2 100.4.9.1-.4 2.9 6.4.9.4-2.9.9.1-1 6.9-.9-.1.5-3.2-6.4-.9-.5 3.2-.9-.1z"/><path d="m57.4 103.5h1.7s.6.1.9.2c.3.2.5.4.7.8.1.3.2.8.2 1.4s-.1 1.1-.2 1.5c-.1.3-.3.5-.5.6s-.5.3-.8.3c-.3.1-.8.1-1.6.1-.7 0-1.2 0-1.6 0s-.6-.1-.9-.2c-.3-.2-.6-.4-.7-.8s-.2-.8-.2-1.4c0-.7.1-1.2.3-1.6s.5-.6.8-.7c.4-.1 1-.2 1.9-.2zm.1.7c-.5 0-.9 0-1.2.1-.3 0-.5.1-.6.2-.2.1-.3.3-.4.6s-.1.6-.1 1c0 .5.1.9.2 1.1s.3.4.6.5.9.2 1.7.1c.6 0 1 0 1.2-.1s.5-.1.6-.2c.2-.1.3-.3.4-.5s.1-.6.1-1c0-.5-.1-.9-.2-1.1-.1-.3-.4-.4-.7-.5-.2-.2-.8-.3-1.6-.2z"/><path d="m61.2 103.4.8-.1.1.6h.1c.1-.2.2-.4.5-.6.1-.1.3-.2.6-.2.2-.1.6-.1 1.1-.2s.8-.1 1.1-.1c.2 0 .5.1.6.2.4.2.6.7.7 1.3l.1.5-.8.1-.1-.3c0-.3-.1-.5-.1-.6-.1-.1-.1-.2-.2-.3-.2-.2-.6-.2-1.2-.1-.9.1-1.5.3-1.7.6s-.3.8-.1 1.7l.3 2.2-.8.1z"/><path d="m67.7 103.8-.8.2c0-.1-.1-.1-.1-.2-.1-.5 0-.9.3-1.2s1-.6 2-.8c.8-.2 1.4-.3 1.7-.4.4 0 .7 0 .9.2.2.1.4.3.5.5s.2.6.4 1.2l.7 2.5-.7.2-.1-.6c-.1.3-.3.5-.5.7-.2.1-.7.3-1.4.5-.8.2-1.4.4-1.7.4s-.6 0-.8 0c-.2-.1-.3-.2-.5-.3s-.2-.4-.3-.7c-.1-.4-.1-.7-.1-.9s.2-.4.4-.6.8-.4 1.7-.6c1-.3 1.6-.4 1.9-.4s.6.1.8.2h.1l-.1-.5c-.1-.4-.3-.7-.5-.8s-.4-.2-.7-.2-.7.1-1.3.3c-.8.2-1.3.4-1.5.6-.4.1-.5.3-.3.7-.1 0-.1 0 0 0zm2.2.6c-.6.2-1 .3-1.3.4-.2.1-.4.2-.5.3-.2.2-.2.4-.1.7s.3.5.5.5.9-.1 1.9-.4c.8-.2 1.3-.4 1.5-.6s.3-.4.2-.7-.3-.5-.6-.5c-.2 0-.8.1-1.6.3z"/><path d="m84 100.7-1.4-.9-5 2.6v1.7l-.9.5.2-8 1.3-.7 6.8 4.3zm-2.2-1.4-3.7-2.4-.3.2-.1 4.5z"/><path d="m82.4 96 .6-.5 1.5 2c .3.4.5.6.6.7.2.1.3.2.5.2s.4 0 .6-.1.5-.3.9-.6c.5-.3.8-.7 1-.9.2-.3.3-.5.3-.8 0-.2 0-.3-.1-.5s-.2-.4-.4-.7l-1.4-1.9.6-.5 2.9 3.9-.6.5-.4-.6c0 .4-.1.7-.2 1-.2.3-.6.6-1.2 1.1-.5.4-.9.6-1.2.8-.3.1-.6.2-.8.2s-.5-.1-.7-.3-.5-.5-.8-.9z"/><path d="m87.4 92.1.6-.5.5.5c-.1-.2-.1-.5 0-.8.1-.2.2-.3.3-.5.2-.2.4-.4.7-.8.3-.3.6-.6.8-.7s.4-.2.6-.2c.4 0 .9.2 1.3.7l.3.4-.6.5-.2-.3c-.2-.2-.3-.3-.5-.4-.1-.1-.2-.1-.4-.1-.3 0-.6.2-1.1.6-.7.6-1 1.1-1 1.5s.3.8.9 1.5l1.6 1.6-.6.5z"/><path d="m97.3 86.4.5-.6c.4.4.6.8.6 1.2-.1.5-.4 1.1-1 1.8-.5.6-.9 1.1-1.2 1.4s-.6.5-.8.5c-.6.2-1.3-.1-2.1-.7-.6-.5-.9-.9-1.1-1.3-.1-.4-.1-.7 0-1.1s.5-.9 1-1.6.9-1.1 1.2-1.3.6-.4 1-.4c.3 0 .6 0 .8.2.3.1.6.4 1.1.7l-3.4 4.2c.5.4.9.5 1.2.5.2 0 .4-.1.7-.4.2-.2.6-.6 1.1-1.2.3-.4.6-.8.7-1s .2-.4.1-.6c-.2 0-.3-.2-.4-.3zm-1.2-.9c-.4-.3-.7-.4-1-.3-.2 0-.4.2-.6.4s-.5.5-.9 1c-.3.4-.5.7-.7.9-.1.2-.2.4-.2.6 0 .3.2.6.5 1z"/><path d="m97 83.4-.4.7c-.1 0-.1-.1-.2-.1-.4-.3-.6-.6-.6-1s .3-1.1.9-2c .4-.7.8-1.2 1-1.5.3-.3.5-.4.8-.5.2-.1.5 0 .7 0 .2.1.6.3 1.1.6l2.2 1.3-.4.7-.5-.3c.1.3.2.6.1.9s-.3.7-.7 1.4-.8 1.2-1 1.5-.4.4-.6.5-.4.1-.6.1-.4-.1-.7-.3-.5-.4-.7-.6c-.1-.2-.2-.4-.1-.7 0-.3.3-.8.8-1.6.5-.9.9-1.4 1.1-1.6s.5-.4.7-.4v-.1l-.4-.3c-.4-.2-.7-.3-.9-.3s-.4.1-.6.4c-.2.2-.5.6-.8 1.1-.4.7-.7 1.2-.7 1.5.1.2.2.4.5.6zm2-1.1c-.3.5-.5.9-.7 1.2-.1.2-.2.4-.2.5 0 .2.1.4.4.6s.5.2.7 0c .2-.1.6-.7 1.1-1.6.4-.7.7-1.2.7-1.5s-.1-.5-.3-.7c-.3-.2-.5-.1-.8 0-.1.3-.4.8-.9 1.5z"/></g></svg>