<svg enable-background="new 0 0 113.4 113.4" viewBox="0 0 113.4 113.4" xmlns="http://www.w3.org/2000/svg"><g fill="#b0cb12"><path d="m83.4 69.1c1.6.9 2.5 2.9 2 4.7-.4 1.5-2.6 3.1-4.2 3.1-.3 0-.5-.1-.7-.2-2.9-2.4-6.2-4.3-8.8-7.2-.6-.7-1.3-1.4-1.6-2.3-.7-1.7.1-2.7 2.5-2.6 1.8.1 3.7.8 5.5 1.7s3.6 1.9 5.3 2.8z"/><path d="m90.7 79.8c3.8-.1 5 1.8 4.7 4.8 0 .5 0 1-.2 1.4-.3 1.4-1.2 2.2-2.6 2.4-.4.1-.9.1-1.3.1-23 0-45.9 0-68.9 0-1.7 0-3.2-.4-3.7-2-.6-1.9-.8-3.9.5-5.6.7-.9 1.8-1.1 3-1.1h27.3c1.2 0 1.5-.3 1.5-1.5-.1-5.8-.1-11.6 0-17.4 0-1.2-.4-1.5-1.5-1.4-5.9.1-11.8 0-17.6 0-1.8 0-2.7-.8-2.9-2.6-.2-1.1-.2-2.3 0-3.4.2-1.9 1.1-2.7 3.1-2.7h17.7c1 0 1.3-.2 1.3-1.3-.1-5.7-.1-11.4 0-17.1 0-.9-.3-1.2-1.2-1.2-9.1 0-18.3 0-27.4 0-2.7 0-4-1.3-4-4 0-1.2-.2-2.5.7-3.5.8-1 1.9-1.3 3.1-1.3h34.8 34.5c2.7 0 3.9 1.2 3.9 4 0 1.1.1 2.1-.4 3.1-.8 1.2-1.9 1.7-3.3 1.7-10.2 0-20.3 0-30.5 0-1.5 0-1.5 0-1.5 1.6v16.5c0 1.1.2 1.4 1.4 1.4 6.9-.1 13.9 0 20.8 0 2.1 0 3.1.9 3.1 3v3.1c-.1 1.7-1.2 2.6-2.9 2.6-7 0-14 0-21.1 0-1.2 0-1.4.4-1.4 1.4.1 5.8.1 11.7 0 17.5 0 1.1.3 1.4 1.3 1.4 9.9.1 19.8.2 29.7.1z"/><path d="m90.7 79.8c-9.9.1-19.8 0-29.7 0-1.1 0-1.4-.3-1.3-1.4.1-5.8.1-11.7 0-17.5 0-1.1.2-1.4 1.4-1.4 7 .1 14 0 21.1 0 1.7 0 2.7-1 2.9-2.6.1-1 .1-2 0-3.1-.1-2.1-1.1-3-3.1-3-6.9 0-13.9 0-20.8 0-1.2 0-1.4-.4-1.4-1.4.1-5.5 0-11 0-16.5 0-1.6 0-1.6 1.5-1.6h30.5c1.4 0 2.5-.5 3.3-1.7.6-1 .4-2 .4-3.1 0-2.7-1.2-4-3.9-4-11.5 0-23 0-34.5 0-11.6 0-23.2 0-34.8 0-1.3 0-2.3.4-3.1 1.3-.9 1-.7 2.3-.7 3.5 0 2.7 1.3 4 4 4h27.4c.9 0 1.2.2 1.2 1.2-.1 5.7-.1 11.4 0 17.1 0 1-.3 1.3-1.3 1.3-5.9 0-11.8 0-17.7 0-1.9 0-2.9.8-3.1 2.7-.1 1.1-.1 2.3 0 3.4.2 1.7 1.2 2.6 2.9 2.6h17.6c1.1 0 1.5.2 1.5 1.4-.1 5.8-.1 11.6 0 17.4 0 1.2-.3 1.5-1.5 1.5-9.1-.1-18.2 0-27.3 0-1.2 0-2.3.2-3 1.1-1.3 1.7-1.1 3.8-.5 5.6.5 1.6 2 2 3.7 2h68.9c.4 0 .9 0 1.3-.1 1.4-.2 2.3-1 2.6-2.4.1-.5.1-1 .2-1.4.3-3.1-.8-5-4.7-4.9zm-9.4-2.9c1.6.1 3.8-1.6 4.2-3.1.5-1.8-.4-3.8-2-4.7-1.8-.9-3.5-1.9-5.3-2.8s-3.7-1.6-5.5-1.7c-2.3-.1-3.2.9-2.5 2.6.4.9 1 1.6 1.6 2.3 2.6 2.8 5.9 4.8 8.8 7.2.2.1.4.2.7.2zm32.1-23v6.1c-.5.6-.3 1.4-.3 2.1-1.5 14.2-7.3 26.3-17.8 36-12.1 11.2-26.4 16.3-42.8 15.1-14.6-1.1-26.9-7.1-37-17.7-8.5-9-13.4-19.8-15-32.1-.1-1 .1-2.1-.5-3.1 0-2.4 0-4.7 0-7.1.5-1 .3-2 .5-3.1 2.6-19.1 12.3-33.4 29-42.9 7.6-4.4 15.9-6.5 24.6-7h5.1c.7.1 1.5.1 2.2.2 16.2 1.6 29.4 8.7 39.6 21.4 6.3 7.9 10.1 16.9 11.6 26.9.3 1.7.2 3.5.8 5.2z"/><path d="m59.2 0v .2c-1.7 0-3.4 0-5.1 0 0-.1 0-.1 0-.2z"/></g><path d="m57 22.6h34.5c2.7 0 3.9 1.2 3.9 4 0 1.1.1 2.1-.5 3.1-.8 1.2-1.9 1.7-3.3 1.7-10.2 0-20.3 0-30.5 0-1.5 0-1.5 0-1.5 1.6v16.5c0 1.1.2 1.5 1.4 1.4 6.9-.1 13.9 0 20.8 0 2.1 0 3.1.9 3.1 3v3.1c-.1 1.7-1.2 2.6-2.9 2.6-7 0-14 0-21.1 0-1.2 0-1.4.4-1.4 1.4 0 5.8.1 11.7 0 17.5 0 1.1.3 1.4 1.4 1.4 9.9 0 19.8.1 29.7-.1 3.8-.1 5 1.8 4.7 4.8 0 .5 0 1-.2 1.5-.3 1.4-1.2 2.2-2.6 2.4-.4.1-.9.1-1.3.1-23 0-45.9 0-68.9 0-1.6 0-3.2-.4-3.7-2-.6-1.9-.8-3.9.5-5.6.7-.9 1.8-1.1 3-1.1h27.3c1.2 0 1.5-.3 1.5-1.5-.1-5.8-.1-11.6 0-17.4 0-1.2-.4-1.5-1.5-1.5-5.9.1-11.8 0-17.6 0-1.8 0-2.7-.8-2.9-2.6-.2-1.1-.1-2.3 0-3.4.2-1.9 1.1-2.7 3.1-2.7h17.8c1 0 1.3-.3 1.3-1.3-.1-5.7 0-11.4 0-17.1 0-.9-.2-1.2-1.2-1.2-9.1 0-18.3 0-27.4 0-2.7 0-4-1.2-4-4 0-1.2-.2-2.5.7-3.5.8-1 1.9-1.3 3.1-1.3 11.5.2 23.1.2 34.7.2z" fill="#fefefd"/><path d="m72.6 64.6c1.8.1 3.7.8 5.5 1.7s3.5 1.8 5.3 2.8c1.6.9 2.5 2.9 2 4.7-.4 1.5-2.6 3.1-4.2 3.1-.3 0-.5-.1-.7-.2-2.9-2.4-6.2-4.4-8.8-7.2-.6-.7-1.3-1.4-1.6-2.3-.7-1.7.2-2.7 2.5-2.6z" fill="#fefefd"/></svg>