<svg enable-background="new 0 0 113.4 113.4" viewBox="0 0 113.4 113.4" xmlns="http://www.w3.org/2000/svg"><circle cx="56.7" cy="56.7" fill="#b0cb1b" r="56.7"/><circle cx="56.7" cy="56.7" r="55.2"/><path d="m87.4 87.2v-8.4l-8.4 8.4z" fill="none"/><path d="m87.4 25.9h-8.7l8.7 8.7z" fill="none"/><path d="m100.2 56.6-6.1-6.2v12.4z" fill="none"/><path d="m56.8 13.2-6.2 6.1h12.4z" fill="none"/><path d="m26 87.2h8.4l-8.4-8.4z" fill="none"/><path d="m26 25.9v8.7l8.7-8.7z" fill="none"/><path d="m56.8 100 6-5.9h-12z" fill="none"/><path d="m87.4 43.8-17.9-17.9h-25.4l-18.1 18.1v25.2l18 18h25.6l17.8-17.8z" fill="none"/><path d="m13.4 56.6 5.9 6v-12z" fill="none"/><path d="m19.3 50.6v12l1.1 1v-14z" fill="#eccc01"/><path d="m93 20.4v19.8l1.1 1v-21.9h-21.9l1 1.1z" fill="#eccc01"/><path d="m50.8 94.1h12l1-1.1h-14z" fill="#eccc01"/><path d="m63 19.3h-12.4l-1 1.1h14.4z" fill="#eccc01"/><path d="m20.4 20.4h19.8l1-1.1h-21.9v21.9l1.1-1z" fill="#eccc01"/><path d="m20.4 93v-19.8l-1.1-1v21.9h21.9l-1-1.1z" fill="#eccc01"/><path d="m94.1 72.2-1.1 1v19.8h-19.8l-1 1.1h21.9z" fill="#eccc01"/><path d="m94.1 62.8v-12.4l-1.1-1v14.4z" fill="#eccc01"/><path d="m25 88.2v-10.3l-4.6-4.7v19.8h19.8l-4.8-4.8z" fill="#ffe046"/><path d="m88.4 24.9v10.6l4.6 4.7v-19.8h-19.8l4.5 4.5z" fill="#ffe046"/><path d="m64 20.4h-14.4l-4.5 4.5h23.4z" fill="#ffe046"/><path d="m25 24.9h10.7l4.5-4.5h-19.8v19.8l4.6-4.7z" fill="#ffe046"/><path d="m20.4 49.6v14l4.6 4.6v-23.3z" fill="#ffe046"/><path d="m93 63.8v-14.4l-4.6-4.7v23.8z" fill="#ffe046"/><path d="m49.8 93h14l4.8-4.8h-23.6z" fill="#ffe046"/><path d="m88.4 88.2h-10.4l-4.8 4.8h19.8v-19.8l-4.6 4.7z" fill="#ffe046"/><g fill="#eccc01"><path d="m88.4 68.5v-23.8l-1-.9v25.6z"/><path d="m45 88.2h23.6l1-1h-25.6z"/><path d="m68.5 24.9h-23.4l-1 1h25.4z"/><path d="m87.4 87.2h-8.4l-1 1h10.4v-10.3l-1 .9z"/><path d="m26 87.2v-8.4l-1-.9v10.3h10.4l-1-1z"/><path d="m26 25.9h8.7l1-1h-10.7v10.6l1-.9z"/><path d="m87.4 25.9v8.7l1 .9v-10.6h-10.7l1 1z"/><path d="m25 44.9v23.3l1 1v-25.2z"/><path d="m56.7 108.1-14-14h-1.5l15.5 15.4 15.5-15.4h-1.5z"/><path d="m5.3 56.7 14-14v-1.5l-15.4 15.5 15.4 15.5v-1.5z"/><path d="m108.1 56.7-14 14v1.5l15.4-15.5-15.4-15.5v1.5z"/><path d="m79 87.2 8.4-8.4v-1.4l-9.9 9.8z"/><path d="m87.4 34.6-8.7-8.7h-1.5l10.2 10.1z"/><path d="m26 78.8 8.4 8.4h1.5l-9.9-9.8z"/><path d="m56.7 5.3 14 14h1.5l-15.5-15.4-15.5 15.4h1.5z"/><path d="m34.7 25.9-8.7 8.7v1.4l10.2-10.1z"/><path d="m20.4 41.6v-1.4l-1.1 1v1.5z"/><path d="m71.8 93-1.1 1.1h1.5l1-1.1z"/><path d="m93 41.6 1.1 1.1v-1.5l-1.1-1z"/><path d="m71.8 20.4h1.4l-1-1.1h-1.5z"/><path d="m93 71.8v1.4l1.1-1v-1.5z"/><path d="m20.4 71.8-1.1-1.1v1.5l1.1 1z"/><path d="m41.6 20.4 1.1-1.1h-1.5l-1 1.1z"/><path d="m41.6 93h-1.4l1 1.1h1.5z"/><path d="m77.7 24.9-4.5-4.5h-1.4l4.5 4.5z"/><path d="m25 35.5-4.6 4.7v1.4l4.6-4.6z"/></g><path d="m37.1 24.9 4.5-4.5h-1.4l-4.5 4.5z" fill="#ffe046"/><path d="m35.4 88.2 4.8 4.8h1.4l-4.8-4.8z" fill="#eccc01"/><path d="m25 76.4-4.6-4.6v1.4l4.6 4.7z" fill="#ffe046"/><path d="m88.4 37 4.6 4.6v-1.4l-4.6-4.7z" fill="#ffe046"/><path d="m76.6 88.2-4.8 4.8h1.4l4.8-4.8z" fill="#ffe046"/><path d="m88.4 76.4v1.5l4.6-4.7v-1.4z" fill="#eccc01"/><path d="m77.5 87.2-.9 1h1.4l1-1z" fill="#eccc01"/><path d="m78.7 25.9-1-1h-1.4l.9 1z" fill="#eccc01"/><path d="m87.4 36 1 1v-1.5l-1-.9z" fill="#eccc01"/><path d="m26 34.6-1 .9v1.5l1-1z" fill="#eccc01"/><path d="m26 77.4-1-1v1.5l1 .9z" fill="#eccc01"/><path d="m36.2 25.9.9-1h-1.4l-1 1z" fill="#eccc01"/><path d="m87.4 78.8 1-.9v-1.5l-1 1z" fill="#eccc01"/><path d="m34.4 87.2 1 1h1.4l-.9-1z" fill="#eccc01"/><path d="m56.8 11.8 7.5 7.5h6.4l-14-14-14 14h6.6z" fill="#ffe046"/><path d="m12 56.6 7.3-7.3v-6.6l-14 14 14 14v-6.8z" fill="#ffe046"/><path d="m87.4 36-10.2-10.1h-6.4l16.6 16.5z" fill="#ffe046"/><path d="m26 77.4 9.9 9.8h6.8l-16.7-16.6z" fill="#ffe046"/><path d="m101.6 56.6-7.5 7.5v6.6l14-14-14-14v6.4z" fill="#ffe046"/><path d="m56.8 101.4-7.3-7.3h-6.8l14 14 14-14h-6.6z" fill="#ffe046"/><path d="m36.2 25.9-10.2 10.1v6.6l16.8-16.7z" fill="#ffe046"/><path d="m77.5 87.2 9.9-9.8v-6.6l-16.5 16.4z" fill="#ffe046"/><path d="m20.4 48.3v-6.7l-1.1 1.1v6.6z" fill="#ffe046"/><path d="m94.1 49.1v-6.4l-1.1-1.1v6.5z" fill="#eccc01"/><path d="m93 65.1v6.7l1.1-1.1v-6.6z" fill="#ffe046"/><path d="m49.3 19.3h-6.6l-1.1 1.1h6.7z" fill="#eccc01"/><path d="m19.3 63.9v6.8l1.1 1.1v-6.9z" fill="#eccc01"/><path d="m65.3 20.4h6.5l-1.1-1.1h-6.4z" fill="#ffe046"/><path d="m64.1 94.1h6.6l1.1-1.1h-6.7z" fill="#eccc01"/><path d="m48.5 93h-6.9l1.1 1.1h6.8z" fill="#ffe046"/><path d="m69.9 24.9h6.4l-4.5-4.5h-6.5z" fill="#ffe046"/><path d="m43.6 88.2h-6.8l4.8 4.8h6.9z" fill="#ffe046"/><path d="m88.4 43.4 4.6 4.7v-6.5l-4.6-4.6z" fill="#ffe046"/><path d="m43.7 24.9 4.6-4.5h-6.7l-4.5 4.5z" fill="#ffe046"/><path d="m70 88.2-4.9 4.8h6.7l4.8-4.8z" fill="#ffe046"/><path d="m25 69.6-4.6-4.7v6.9l4.6 4.6z" fill="#ffe046"/><path d="m25 43.6v-6.6l-4.6 4.6v6.7z" fill="#ffe046"/><path d="m88.4 69.8v6.6l4.6-4.6v-6.7z" fill="#ffe046"/><path d="m35.9 87.2.9 1h6.8l-.9-1z" fill="#ffe046"/><path d="m42.8 25.9.9-1h-6.6l-.9 1z" fill="#eccc01"/><path d="m26 70.6-1-1v6.8l1 1z" fill="#eccc01"/><path d="m87.4 70.8v6.6l1-1v-6.6z" fill="#ffe046"/><path d="m87.4 42.4 1 1v-6.4l-1-1z" fill="#eccc01"/><path d="m70.9 87.2-.9 1h6.6l.9-1z" fill="#eccc01"/><path d="m26 36-1 1v6.6l1-1z" fill="#ffe046"/><path d="m77.2 25.9-.9-1h-6.4l.9 1z" fill="#ffe046"/><path d="m56.8 100-6-5.9h-1.3l7.3 7.3 7.3-7.3h-1.3z" fill="#eccc01"/><path d="m56.8 13.2 6.2 6.1h1.3l-7.5-7.5-7.5 7.5h1.3z" fill="#eccc01"/><path d="m87.4 42.4-16.6-16.5h-1.3l17.9 17.9z" fill="#eccc01"/><path d="m13.4 56.6 5.9-6v-1.3l-7.3 7.3 7.3 7.3v-1.3z" fill="#eccc01"/><path d="m26 70.6 16.7 16.6h1.3l-18-18z" fill="#eccc01"/><path d="m69.6 87.2h1.3l16.5-16.4v-1.4z" fill="#eccc01"/><path d="m100.2 56.6-6.1 6.2v1.3l7.5-7.5-7.5-7.5v1.3z" fill="#eccc01"/><path d="m42.8 25.9-16.8 16.7v1.4l18.1-18.1z" fill="#eccc01"/><path d="m20.4 49.6v-1.3l-1.1 1v1.3z" fill="#eccc01"/><path d="m64 20.4h1.3l-1-1.1h-1.3z" fill="#eccc01"/><path d="m19.3 62.6v1.3l1.1 1v-1.3z" fill="#eccc01"/><path d="m50.6 19.3h-1.3l-1 1.1h1.3z" fill="#eccc01"/><path d="m49.8 93h-1.3l1 1.1h1.3z" fill="#eccc01"/><path d="m62.8 94.1h1.3l1-1.1h-1.3z" fill="#eccc01"/><path d="m94.1 50.4v-1.3l-1.1-1v1.3z" fill="#eccc01"/><path d="m93 63.8v1.3l1.1-1v-1.3z" fill="#eccc01"/><path d="m68.5 24.9h1.4l-4.6-4.5h-1.3z" fill="#eccc01"/><path d="m25 44.9v-1.3l-4.6 4.7v1.3z" fill="#eccc01"/><path d="m20.4 63.6v1.3l4.6 4.7v-1.4z" fill="#ffe046"/><path d="m88.4 68.5v1.3l4.6-4.7v-1.3z" fill="#eccc01"/><path d="m45 88.2h-1.4l4.9 4.8h1.3z" fill="#eccc01"/><path d="m93 49.4v-1.3l-4.6-4.7v1.3z" fill="#ffe046"/><path d="m63.8 93h1.3l4.9-4.8h-1.4z" fill="#ffe046"/><path d="m49.6 20.4h-1.3l-4.6 4.5h1.4z" fill="#ffe046"/><path d="m44 87.2h-1.3l.9 1h1.4z" fill="#eccc01"/><path d="m69.6 87.2-1 1h1.4l.9-1z" fill="#eccc01"/><path d="m69.5 25.9h1.3l-.9-1h-1.4z" fill="#eccc01"/><path d="m44.1 25.9 1-1h-1.4l-.9 1z" fill="#eccc01"/><path d="m87.4 43.8 1 .9v-1.3l-1-1z" fill="#eccc01"/><path d="m26 69.2-1-1v1.4l1 1z" fill="#eccc01"/><path d="m87.4 69.4v1.4l1-1v-1.3z" fill="#eccc01"/><path d="m26 44v-1.4l-1 1v1.3z" fill="#eccc01"/><path d="m96.8 73.2-3.3-7.8-4.5 11z" fill="none"/><path d="m73.3 16.5-8.1 3.3 11.4 4.7z" fill="none"/><path d="m96.9 39.9-8.1-3.3 4.7 11.4z" fill="none"/><path d="m40.1 16.5-3.3 8 11.4-4.7z" fill="none"/><path d="m40 96.7 7.8-3.3-11-4.5z" fill="none"/><path d="m16.5 39.9 3.4 8.1 4.7-11.4z" fill="none"/><path d="m73.4 96.7 3.2-7.8-11 4.5z" fill="none"/><path d="m80.1 33-23.4-9.7-23.4 9.7-9.8 23.7 9.6 23.3 23.6 9.8 23.6-9.8 9.6-23.3z" fill="none"/><path d="m16.6 73.2 7.8 3.2-4.5-11z" fill="none"/><path d="m19.9 65.4 4.5 11 1.4.5-5.4-12.8z" fill="#eccc01"/><path d="m76.4 9.2 7.6 18.4 1.3.5-8.4-20.2-20.2 8.4 1.3.5z" fill="#eccc01"/><path d="m65.6 93.4 11-4.5.5-1.3-12.8 5.3z" fill="#eccc01"/><path d="m48.2 19.8-11.4 4.7-.5 1.3 13.2-5.5z" fill="#eccc01"/><path d="m9.2 37 18.4-7.6.5-1.3-20.2 8.4 8.4 20.2.5-1.3z" fill="#eccc01"/><path d="m37 104.2-7.6-18.4-1.3-.5 8.4 20.2 20.2-8.4-1.3-.5z" fill="#eccc01"/><path d="m97.1 56.7-.5 1.3 7.6 18.4-18.4 7.6-.5 1.3 20.2-8.4z" fill="#eccc01"/><path d="m93.5 48-4.7-11.4-1.3-.5 5.5 13.2z" fill="#eccc01"/><path d="m39.5 97.9-4-9.5-6.1-2.6 7.6 18.4 18.4-7.6-6.3-2.6z" fill="#ffe046"/><path d="m73.8 15.2 4.1 9.8 6.1 2.6-7.6-18.4-18.4 7.6 5.9 2.5z" fill="#ffe046"/><path d="m49.5 20.3-13.2 5.5-2.5 6 21.6-9z" fill="#ffe046"/><path d="m15.3 39.4 9.8-4 2.5-6-18.4 7.6 7.6 18.4 2.6-6.1z" fill="#ffe046"/><path d="m20.4 64.1 5.4 12.8 6.1 2.6-8.9-21.5z" fill="#ffe046"/><path d="m93 49.3-5.5-13.2-6.1-2.6 9 21.9z" fill="#ffe046"/><path d="m64.3 92.9 12.8-5.3 2.7-6.3-21.8 9z" fill="#ffe046"/><path d="m98 73.7-9.6 4-2.6 6.3 18.4-7.6-7.6-18.4-2.6 6.1z" fill="#ffe046"/><g fill="#eccc01"><path d="m90.4 55.4-9-21.9-1.3-.5 9.8 23.7z"/><path d="m58 90.3 21.8-9 .5-1.3-23.6 9.8z"/><path d="m55.4 22.8-21.6 9-.5 1.2 23.4-9.7z"/><path d="m96.8 73.2-7.8 3.2-.6 1.3 9.6-4-4-9.6-.5 1.3z"/><path d="m40 96.7-3.2-7.8-1.3-.5 4 9.5 9.6-3.9-1.3-.6z"/><path d="m16.5 39.9 8.1-3.3.5-1.2-9.8 4 4.1 9.9.5-1.3z"/><path d="m73.3 16.5 3.3 8 1.3.5-4.1-9.8-9.9 4.1 1.3.5z"/><path d="m23 58 8.9 21.5 1.2.5-9.6-23.3z"/><path d="m76.4 104.2-18.4-7.6-1.3.5 20.2 8.4 8.4-20.2-1.3.5z"/><path d="m9.2 76.4 7.6-18.4-.5-1.3-8.4 20.2 20.2 8.4-.5-1.3z"/><path d="m104.2 37-7.6 18.4.5 1.3 8.4-20.2-20.2-8.4.5 1.3z"/><path d="m89 76.4 4.5-11-.5-1.3-5.4 12.8z"/><path d="m76.6 24.5-11.4-4.7-1.3.5 13.2 5.5z"/><path d="m36.8 88.9 11 4.5 1.3-.5-12.8-5.3z"/><path d="m37 9.2 18.4 7.6 1.3-.5-20.2-8.4-8.4 20.2 1.3-.5z"/><path d="m24.6 36.6-4.7 11.4.5 1.3 5.5-13.2z"/><path d="m17.4 56.7-.6-1.3-.5 1.3.5 1.3z"/><path d="m84.5 84.5-.5 1.3 1.3-.5.5-1.3z"/><path d="m84.5 28.9 1.3.5-.5-1.3-1.3-.5z"/><path d="m56.7 17.4 1.3-.6-1.3-.5-1.3.5z"/><path d="m96 56.7.6 1.3.5-1.3-.5-1.3z"/><path d="m28.9 84.5-1.3-.5.5 1.3 1.3.5z"/><path d="m28.9 28.9.5-1.3-1.3.5-.5 1.3z"/><path d="m56.7 96-1.3.6 1.3.5 1.3-.5z"/><path d="m63.9 19.3-5.9-2.5-1.3.6 5.9 2.4z"/><path d="m19.4 49.3-2.6 6.1.6 1.3 2.5-6.1z"/></g><path d="m26.4 34.8 2.5-5.9-1.3.5-2.5 6z" fill="#ffe046"/><path d="m49.1 94 6.3 2.6 1.3-.6-6.3-2.6z" fill="#eccc01"/><path d="m35 87-6.1-2.5.5 1.3 6.1 2.6z" fill="#ffe046"/><path d="m78.4 26.4 6.1 2.5-.5-1.3-6.1-2.6z" fill="#ffe046"/><path d="m87.1 78.2-2.6 6.3 1.3-.5 2.6-6.3z" fill="#ffe046"/><path d="m93.5 62.8.5 1.3 2.6-6.1-.6-1.3z" fill="#eccc01"/><path d="m87.6 76.9-.5 1.3 1.3-.5.6-1.3z" fill="#eccc01"/><path d="m65.2 19.8-1.3-.5-1.3.5 1.3.5z" fill="#eccc01"/><path d="m77.1 25.8 1.3.6-.5-1.4-1.3-.5z" fill="#eccc01"/><path d="m19.9 48-.5 1.3.5 1.3.5-1.3z" fill="#eccc01"/><path d="m36.3 87.6-1.3-.6.5 1.4 1.3.5z" fill="#eccc01"/><path d="m25.9 36.1.5-1.3-1.3.6-.5 1.2z" fill="#eccc01"/><path d="m93.5 65.4.5-1.3-.5-1.3-.5 1.3z" fill="#eccc01"/><path d="m47.8 93.4 1.3.6 1.3-.6-1.3-.5z" fill="#eccc01"/><path d="m39.6 15.2 9.9 4.1 5.9-2.5-18.4-7.6-7.6 18.4 6.1-2.6z" fill="#ffe046"/><path d="m15.4 73.7 4-9.6-2.6-6.1-7.6 18.4 18.4 7.6-2.6-6.3z" fill="#ffe046"/><path d="m77.1 25.8-13.2-5.5-5.9 2.5 21.6 9z" fill="#ffe046"/><path d="m36.3 87.6 12.8 5.3 6.3-2.6-21.8-9z" fill="#ffe046"/><path d="m98.1 39.4-4.1 9.9 2.6 6.1 7.6-18.4-18.4-7.6 2.5 6z" fill="#ffe046"/><path d="m73.9 97.9-9.6-3.9-6.3 2.6 18.4 7.6 7.6-18.4-6.1 2.6z" fill="#ffe046"/><path d="m25.9 36.1-5.5 13.2 2.6 6.1 9-21.9z" fill="#ffe046"/><path d="m87.6 76.9 5.4-12.8-2.6-6.1-8.9 21.5z" fill="#ffe046"/><path d="m19.9 62.8-2.5-6.1-.6 1.3 2.6 6.1z" fill="#ffe046"/><path d="m88.3 35.4-2.5-6-1.3-.5 2.5 5.9z" fill="#eccc01"/><path d="m93.5 50.6 2.5 6.1.6-1.3-2.6-6.1z" fill="#ffe046"/><path d="m35.5 25-6.1 2.6-.5 1.3 6.1-2.5z" fill="#eccc01"/><path d="m25 77.7 2.6 6.3 1.3.5-2.6-6.3z" fill="#eccc01"/><path d="m50.8 19.8 5.9-2.4-1.3-.6-5.9 2.5z" fill="#ffe046"/><path d="m77.9 88.4 6.1-2.6.5-1.3-6.1 2.5z" fill="#eccc01"/><path d="m63 93.4-6.3 2.6 1.3.6 6.3-2.6z" fill="#ffe046"/><path d="m56.7 22.3 5.9-2.5-5.9-2.4-5.9 2.4z" fill="#ffe046"/><path d="m56.7 90.8-6.3 2.6 6.3 2.6 6.3-2.6z" fill="#ffe046"/><path d="m80.9 32.3 6.1 2.5-2.5-5.9-6.1-2.5z" fill="#ffe046"/><path d="m32.5 32.3 2.5-5.9-6.1 2.5-2.5 5.9z" fill="#ffe046"/><path d="m81 80.7-2.6 6.3 6.1-2.5 2.6-6.3z" fill="#ffe046"/><path d="m32.4 80.7-6.1-2.5 2.6 6.3 6.1 2.5z" fill="#ffe046"/><path d="m22.4 56.7-2.5-6.1-2.5 6.1 2.5 6.1z" fill="#ffe046"/><path d="m91 56.7 2.5 6.1 2.5-6.1-2.5-6.1z" fill="#ffe046"/><path d="m49.1 92.9 1.3.5 6.3-2.6-1.3-.5z" fill="#ffe046"/><path d="m32 33.5.5-1.2-6.1 2.5-.5 1.3z" fill="#eccc01"/><path d="m33.6 81.3-1.2-.6 2.6 6.3 1.3.6z" fill="#eccc01"/><path d="m90.4 58 2.6 6.1.5-1.3-2.5-6.1z" fill="#ffe046"/><path d="m79.6 31.8 1.3.5-2.5-5.9-1.3-.6z" fill="#eccc01"/><path d="m81.5 79.5-.5 1.2 6.1-2.5.5-1.3z" fill="#eccc01"/><path d="m20.4 49.3-.5 1.3 2.5 6.1.6-1.3z" fill="#ffe046"/><path d="m63.9 20.3-1.3-.5-5.9 2.5 1.3.5z" fill="#ffe046"/><path d="m73.4 96.7-7.8-3.3-1.3.6 9.6 3.9 4-9.5-1.3.5z" fill="#eccc01"/><path d="m40.1 16.5 8.1 3.3 1.3-.5-9.9-4.1-4.1 9.8 1.3-.5z" fill="#eccc01"/><path d="m79.6 31.8-21.6-9-1.3.5 23.4 9.7z" fill="#eccc01"/><path d="m16.6 73.2 3.3-7.8-.5-1.3-4 9.6 9.6 4-.6-1.3z" fill="#eccc01"/><path d="m33.6 81.3 21.8 9 1.3-.5-23.6-9.8z" fill="#eccc01"/><path d="m80.3 80 1.2-.5 8.9-21.5-.5-1.3z" fill="#eccc01"/><path d="m96.9 39.9-3.4 8.1.5 1.3 4.1-9.9-9.8-4 .5 1.2z" fill="#eccc01"/><path d="m32 33.5-9 21.9.5 1.3 9.8-23.7z" fill="#eccc01"/><path d="m20.4 64.1-.5-1.3-.5 1.3.5 1.3z" fill="#eccc01"/><path d="m49.5 20.3 1.3-.5-1.3-.5-1.3.5z" fill="#eccc01"/><path d="m24.4 76.4.6 1.3 1.3.5-.5-1.3z" fill="#eccc01"/><path d="m36.8 24.5-1.3.5-.5 1.4 1.3-.6z" fill="#eccc01"/><path d="m64.3 92.9-1.3.5 1.3.6 1.3-.6z" fill="#eccc01"/><path d="m76.6 88.9 1.3-.5.5-1.4-1.3.6z" fill="#eccc01"/><path d="m88.8 36.6-.5-1.2-1.3-.6.5 1.3z" fill="#eccc01"/><path d="m93 49.3.5 1.3.5-1.3-.5-1.3z" fill="#eccc01"/><path d="m55.4 22.8 1.3-.5-5.9-2.5-1.3.5z" fill="#eccc01"/><path d="m23 58-.6-1.3-2.5 6.1.5 1.3z" fill="#eccc01"/><path d="m25.8 76.9.5 1.3 6.1 2.5-.5-1.2z" fill="#ffe046"/><path d="m90.4 55.4.6 1.3 2.5-6.1-.5-1.3z" fill="#eccc01"/><path d="m58 90.3-1.3.5 6.3 2.6 1.3-.5z" fill="#eccc01"/><path d="m87.5 36.1-.5-1.3-6.1-2.5.5 1.2z" fill="#ffe046"/><path d="m77.1 87.6 1.3-.6 2.6-6.3-1.2.6z" fill="#ffe046"/><path d="m36.3 25.8-1.3.6-2.5 5.9 1.3-.5z" fill="#ffe046"/><path d="m56.7 89.8-1.3.5 1.3.5 1.3-.5z" fill="#eccc01"/><path d="m80.3 80-.5 1.3 1.2-.6.5-1.2z" fill="#eccc01"/><path d="m56.7 23.3 1.3-.5-1.3-.5-1.3.5z" fill="#eccc01"/><path d="m33.3 33 .5-1.2-1.3.5-.5 1.2z" fill="#eccc01"/><path d="m80.1 33 1.3.5-.5-1.2-1.3-.5z" fill="#eccc01"/><path d="m33.1 80-1.2-.5.5 1.2 1.2.6z" fill="#eccc01"/><path d="m89.9 56.7.5 1.3.6-1.3-.6-1.3z" fill="#eccc01"/><path d="m23.5 56.7-.5-1.3-.6 1.3.6 1.3z" fill="#eccc01"/><path d="m45 64.1c.5.1 1.1.2 1.6.3 3.6.7 7.8-1.5 9.2-4.9.7-1.6.1-3.1-.9-4.3-.9-1-.7-1.8-.1-2.7 1.5 1.1 1.8 1.8 2.2 5 .3 0 .7.1 1 .1h9.6c.8 0 1.2-.3 1.6-1 .7-1.3 1.5-2.6 2.4-3.7 1-1.1 1.8-.7 2.1.7.4 2-.5 3.1-2.2 3.9h11.4c-.3-.9-.3-2-.8-2.5-1.1-1.2-.8-2.1 0-3.2 1.4 1.5 1.9 4.3 1.5 7.9-3.7 0-7.3 0-11.3 0 .5.4.7.6.9.8 1.1 1 1.5 2.2 1.1 3.6-.3.9-.9 1.4-1.9 1.2-2.4-.3-4-2.1-4.1-4.6 0-.3 0-.6 0-.9-.3 0-.5-.1-.7-.1-3.5 0-7.1 0-10.7 0-.8 3.2-2.9 5.1-5.9 6.2-1.1.6-4.6-.5-6-1.8zm24.6-4.4c-.4 1.9.9 3.6 2.7 3.6.3 0 .8-.1.9-.4.1-.2 0-.8-.2-1-.8-1.3-2-1.8-3.4-2.2zm.2-2.6c.1.1.2.2.3.3.8-.4 1.7-.8 2.3-1.4.3-.3.1-1.2.2-1.8-.5.2-1.1.2-1.4.6-.5.7-.9 1.5-1.4 2.3z" fill="#fff"/><path d="m31.6 56.8c.7-2.5 2.7-3.3 4.5-1.7 1.3 1.2 2.5 2.5 1.9 4.6-1.3.1-2.7.1-4 .3-3.3.5-3.7 1.2-2.8 4.4.4 1.4.9 2.8.3 4.7-.8-2.6-1.5-4.8-2.1-7-.3-1.3.8-3 2.3-3.5.7-.3 1.4-.4 2-.6.6-.1 1.3-.2 2-.3-.7-1.7-1.5-1.9-4.1-.9z" fill="#fff"/><path d="m41.7 59.7c-.4-3.8-.8-7.7-1.3-11.6-.2-1.4.1-2.5 1.1-3.8.3 2.9.7 5.6 1 8.3.1 1.1.2 2.2.2 3.4.1 1.4-.3 2.7-1 3.7z" fill="#fff"/><path d="m80.2 62c .7.4 1.3.7 2 1-.3.6-.6 1.1-1 1.7-.7-.3-1.3-.6-2-1 .4-.6.7-1.1 1-1.7z" fill="#fff"/></svg>