<svg enable-background="new 0 0 113.4 113.4" viewBox="0 0 113.4 113.4" xmlns="http://www.w3.org/2000/svg"><circle cx="56.7" cy="56.7" fill="#e57817" r="56.7"/><circle cx="56.7" cy="56.7" fill="#1f1a17" r="54"/><circle cx="56.7" cy="56.7" fill="#e57817" r="44.4"/><g stroke="#fff" stroke-miterlimit="10" stroke-width="1.2148"><path d="m38.9 57.1s-1.5-11.2 11-18.3c-15.4-4.1-24.7-6.6-24.7-6.6s-3.6 4.5-4.1 7.3c5.1 5 17.8 17.6 17.8 17.6z"/><path d="m74.9 57.1s1.5-11.2-11-18.3c15.4-4.1 24.7-6.6 24.7-6.6s3.6 4.5 4.1 7.3c-5.1 5-17.8 17.6-17.8 17.6z"/><path d="m46 71s9 6.9 21.3-.4c-4.1 15.4-6.5 24.7-6.5 24.7s-5.7.9-8.4 0c-1.8-7-6.4-24.3-6.4-24.3z"/><circle cx="56.7" cy="56.7" r="12.7"/></g><g fill="#fff"><path d="m28.8 20.2c-1.3.9-2.2 1-2.8.2l-1.6-2.2c-.6-.8-.2-1.6 1-2.6l3.1-2.3c.1-.1.2-.1.3-.1s.2.1.2.2c.1.1.1.2.1.3s0 .2-.1.2l-3.1 2.3c-.4.3-.6.5-.7.7s-.1.4 0 .5l1.6 2.2c.1.1.3.2.5.2s.5-.2.9-.5l3.1-2.3c.1-.1.2-.1.3-.1s.1.1.2.2.1.2.1.3 0 .2-.1.2z"/><path d="m34.5 16.4c-1.4.7-2.3.6-2.8-.2l-1.3-2.5c-.4-.9 0-1.7 1.4-2.4l2-1.1c1.4-.7 2.3-.6 2.8.2l1.3 2.5c.5.9 0 1.7-1.4 2.4zm1.6-1.8c.4-.2.7-.4.8-.6s.2-.4.1-.5l-1.2-2.5c-.1-.2-.2-.2-.5-.2-.2 0-.6.1-1 .3l-2 1c-.4.2-.7.4-.8.6s-.2.4-.1.5l1.3 2.5c.1.1.2.2.5.2.2 0 .6-.1 1-.3z"/><path d="m37.4 9c-.1-.2 0-.4.2-.5l4.2-1.4c.3-.1.7-.2.9-.2h.8c.2 0 .4.1.6.2s.3.3.3.5l.3.9c.1.2.1.4 0 .6s-.2.4-.3.5c-.2.2-.4.3-.6.5-.3.1-.6.3-.9.4l-.3.1c-.2.1-.4.1-.6.2s-.3.1-.4.1-.2.1-.3.1-.2.1-.3.1h.3s.2 0 .4 0 .3 0 .6 0c .2 0 .5 0 .8.1l2 .1c.2 0 .3.1.3.3v.3c-.1.1-.2.1-.4.2h-.1c-.1 0-.1 0-.2 0s-.1 0-.2 0-.1 0-.2 0l-5-.5.5 1.7v.3c-.1.1-.2.1-.4.2s-.3.1-.4.1-.2-.1-.2-.2zm1.2.1.6 1.8 3.5-1.1c.3-.1.5-.2.6-.2.2-.1.3-.2.4-.2.1-.1.1-.1.2-.2 0-.1 0-.1 0-.2l-.3-.8c0-.1-.1-.1-.1-.2-.1 0-.1-.1-.3-.1-.1 0-.3 0-.4 0-.2 0-.4.1-.6.2z"/><path d="m45.5 6.5c0-.2.1-.4.3-.4l4.4-.7c.4-.1.7-.1 1-.1s.5.1.8.1.4.2.5.3.2.3.2.5l.1 1c0 .2 0 .4-.1.5-.1.2-.2.3-.4.5-.2.1-.4.3-.7.4s-.6.2-.9.2h-.3c-.2 0-.4.1-.6.1s-.3 0-.4.1c-.1 0-.2 0-.4 0-.1 0-.2 0-.3 0 .1 0 .2 0 .3.1.1 0 .2 0 .4.1.1 0 .3.1.5.1s.5.1.8.2l2 .5c.2 0 .3.1.3.3 0 .1 0 .2-.1.3s-.2.1-.4.1h-.1c-.1 0-.1 0-.2 0s-.1 0-.2 0-.1 0-.2 0l-4.9-1.3.3 1.7c0 .2 0 .3-.1.3-.1.1-.2.1-.4.1s-.3 0-.4 0-.2-.1-.2-.3zm1.1.3.3 1.8 3.6-.5c.3 0 .5-.1.7-.1.2-.1.3-.1.4-.2s.2-.1.2-.2 0-.1 0-.2l-.1-.8c0-.1 0-.1-.1-.2s-.1-.1-.2-.1-.3 0-.4 0c-.2 0-.4 0-.7.1z"/><path d="m54.8 8.3v.9c0 .2.1.3.3.4s.5.2 1 .2h3.8c.1 0 .2 0 .2.1s.1.2.1.3 0 .2-.1.3c0 .1-.1.1-.3.1h-3.8c-1.6 0-2.3-.5-2.3-1.5v-2.8c0-1 .8-1.5 2.3-1.5h1.2c.1 0 .2 0 .2.1s.1.2.1.3 0 .2-.1.3c0 .1-.1.1-.2.1h-1.1c-.5 0-.8.1-1 .2s-.3.3-.3.4v1h5.1c.1 0 .2 0 .2.1s.1.2.1.3 0 .2-.1.3c0 .1-.1.1-.3.1z"/><path d="m67.7 10.4c-.1.5-.3.8-.8 1-.4.2-1 .2-1.8.1l-2.3-.4c-1.5-.2-2.2-.9-2.1-1.8l.4-2.8c.2-1 1-1.3 2.5-1.1l1.1.2c.1 0 .2.1.2.1v.3c0 .1-.1.2-.1.3s-.1.1-.3.1l-1.1-.2c-.5-.1-.8-.1-1 0s-.4.2-.4.4l-.2 2.9c0 .2.1.3.2.5.2.2.5.3 1 .3l2.3.4c.5.1.8.1 1 0s .4-.2.4-.4l.2-1.4c0-.1.1-.2.2-.3h.4c.2 0 .3.1.4.1.1.1.1.2.1.3z"/><path d="m69.1 12.1c0 .1-.1.2-.2.3-.1 0-.2 0-.4 0s-.3-.1-.4-.2-.1-.2-.1-.3l1.3-4.9c0-.1.1-.2.2-.3h.4c.2 0 .3.1.4.2s.1.2.1.3z"/><path d="m76.9 13.6c-.3.9-1.3 1.1-2.7.5l-4.2-1.6c-.2-.1-.3-.2-.2-.5l1.8-4.7c.1-.2.2-.3.5-.2l4.2 1.6c1.5.6 2 1.3 1.7 2.2zm-6-1.6 3.5 1.3c.4.2.8.2 1 .2s.4-.1.5-.3l1-2.6c.1-.2 0-.3-.1-.5-.2-.2-.5-.4-.9-.5l-3.5-1.3z"/><path d="m78.7 16.4c-1.3-.8-1.8-1.6-1.3-2.4l1.4-2.4c.5-.8 1.4-.9 2.8-.1l2 1.2c1.3.8 1.8 1.6 1.3 2.4l-1.4 2.4c-.5.8-1.4.9-2.8.1zm2.4.4c.4.2.7.3 1 .4s.4-.1.5-.2l1.4-2.4c.1-.2.1-.3-.1-.5-.1-.2-.4-.4-.8-.7l-1.9-1.1c-.4-.2-.7-.4-1-.4-.2 0-.4.1-.5.2l-1.4 2.4c-.1.1-.1.3.1.5.1.2.4.4.8.7z"/><path d="m86.5 14.8c.2-.2.3-.2.5 0l3.4 2.8c.3.2.5.5.7.7s.3.4.4.7c.1.2.1.4.1.6s-.1.4-.2.5l-.6.7c-.1.1-.3.3-.5.3-.2.1-.4.1-.6 0s-.5-.1-.7-.3c-.3-.1-.5-.3-.8-.5l-.2-.2c-.2-.1-.3-.3-.5-.4-.1-.1-.2-.2-.3-.3s-.2-.2-.3-.2c-.1-.1-.2-.1-.2-.2 0 .1.1.2.1.2s.1.2.2.3.2.3.3.5.2.4.4.7l1 1.8c.1.2.1.3 0 .4s-.2.2-.3.1c-.1 0-.2-.1-.4-.2l-.1-.1-.1-.1-.1-.1-.1-.1-2.3-4.5-1.1 1.3c-.1.1-.2.2-.3.1-.1 0-.2-.1-.4-.2-.1-.1-.2-.2-.3-.3 0-.1 0-.2.1-.3zm.5 1-1.2 1.4 2.8 2.3c.2.2.4.3.5.4.2.1.3.2.4.2h.3s.1-.1.2-.1l.5-.7c0-.1.1-.1.1-.2s0-.2-.1-.3-.1-.2-.3-.3c-.1-.1-.3-.3-.5-.5z"/><path d="m101.8 48.1c-.3-1.5.1-2.4 1.1-2.5l2.7-.5c1-.2 1.6.5 1.8 2.1l.6 3.8c0 .1 0 .2-.1.3s-.2.1-.3.1-.2 0-.3 0-.1-.1-.1-.2l-.6-3.8c-.1-.5-.2-.8-.3-1-.2-.2-.3-.3-.5-.2l-2.7.5c-.2 0-.3.2-.4.4s-.1.6 0 1l .6 3.8c0 .1 0 .2-.1.3-.1 0-.2.1-.3.1s-.2 0-.3 0-.1-.1-.1-.2z"/><path d="m102.6 54.9c0-1.6.5-2.3 1.4-2.4h2.8c1 0 1.5.8 1.5 2.3v2.3c0 1.6-.5 2.3-1.4 2.4h-2.8c-1 0-1.5-.8-1.5-2.3zm.9 2.3c0 .5.1.8.2 1s .3.3.4.3h2.8c.2 0 .3-.1.4-.3s.2-.5.2-1v-2.2c0-.5-.1-.8-.2-1s-.3-.3-.4-.3h-2.8c-.2 0-.3.1-.4.3s-.2.6-.2 1z"/><path d="m107.9 60.8c.2 0 .3.2.3.4l-.7 4.4c-.1.4-.1.7-.2.9-.1.3-.2.5-.4.7-.1.2-.3.3-.5.4s-.4.1-.5.1l-1-.1c-.2 0-.4-.1-.5-.2s-.3-.3-.3-.5c-.1-.2-.1-.5-.1-.8s0-.6.1-1v-.3c0-.2.1-.4.1-.6s0-.3.1-.4c0-.1 0-.2.1-.3 0-.1 0-.2.1-.3 0 .1-.1.2-.1.3s-.1.2-.2.3-.2.3-.3.5-.2.4-.4.7l-1 1.8c-.1.2-.2.2-.4.2-.1 0-.2-.1-.3-.2 0-.1 0-.2 0-.4v-.1c0-.1 0-.1 0-.2s0-.1.1-.2c0-.1 0-.1.1-.1l2.7-4.3-1.7-.3c-.2 0-.2-.1-.3-.2s0-.2 0-.4.1-.3.1-.4c.1-.1.2-.1.3-.1zm-.6 1-1.8-.3-.5 3.6c0 .3-.1.5-.1.7s0 .3 0 .4.1.2.1.2c.1.1.1.1.2.1l.8.1h.2c.1 0 .1-.1.2-.2s.1-.2.2-.4.1-.4.1-.7z"/><path d="m106.5 69.2c.2.1.3.2.2.5l-1.4 4.2c-.1.3-.2.6-.4.9-.1.3-.3.5-.5.6-.2.2-.3.3-.5.3-.2.1-.4.1-.6 0l-.9-.3c-.2-.1-.3-.2-.5-.3-.1-.2-.2-.3-.2-.6 0-.2 0-.5 0-.8s.1-.6.2-.9l.1-.3c.1-.2.1-.4.2-.6s.1-.3.1-.4.1-.2.1-.3.1-.2.1-.3c-.1.1-.1.1-.2.2s-.1.2-.2.3-.2.3-.3.4c-.1.2-.3.4-.5.6l-1.3 1.6c-.1.1-.3.2-.4.1-.1 0-.2-.1-.2-.2s0-.2 0-.4v-.1c0-.1 0-.1.1-.2s.1-.1.1-.2l.1-.1 3.3-3.8-1.7-.5c-.1 0-.2-.1-.2-.2s0-.2.1-.4.1-.3.2-.3c.1-.1.2-.1.3 0zm-.8.8-1.8-.6-1.1 3.5c-.1.3-.1.5-.2.6s0 .3 0 .4 0 .2.1.3.1.1.2.1l.8.3h.2c.1 0 .1-.1.2-.2s.2-.2.2-.4c.1-.2.2-.4.2-.6z"/><path d="m100.7 76.6-.8-.4c-.2-.1-.3 0-.5.1s-.4.4-.6.8l-1.7 3.4c-.1.1-.1.2-.2.2s-.2 0-.3-.1-.2-.1-.3-.2c0-.1 0-.2 0-.3l1.7-3.4c.7-1.4 1.5-1.9 2.4-1.4l2.5 1.3c.9.4 1 1.4.3 2.7l-.5 1c-.1.1-.1.2-.2.2s-.2 0-.3-.1-.2-.1-.3-.2c0-.1 0-.2 0-.3l.5-1c .2-.4.3-.7.3-1 0-.2-.1-.4-.2-.5l-.9-.5-2.3 4.6c-.1.1-.1.2-.2.2s-.2 0-.3-.1-.2-.1-.3-.2c0-.1 0-.2 0-.3z"/><path d="m93 87.3c-.4-.3-.6-.7-.6-1.1 0-.5.3-1 .7-1.6l1.4-1.9c.9-1.3 1.8-1.6 2.6-1l2.3 1.6c.8.6.7 1.5-.2 2.8l-.7.9c-.1.1-.2.1-.2.1-.1 0-.2-.1-.3-.1-.1-.1-.2-.2-.2-.2 0-.1 0-.2.1-.3l.6-.9c.3-.4.4-.7.4-.9s0-.4-.2-.5l-2.3-1.6c-.1-.1-.3-.1-.5 0s-.5.3-.7.7l-1.4 1.9c-.3.4-.4.7-.4.9s0 .4.2.5l1.1.8c.1.1.2.2.2.3s-.1.2-.2.4-.2.2-.3.3-.2 0-.3-.1z"/><path d="m90.9 87.8c-.1-.1-.2-.2-.1-.3 0-.1.1-.2.2-.3s.2-.2.3-.2.2 0 .3.1l3.8 3.4c.1.1.2.2.1.3 0 .1-.1.2-.2.3s-.2.2-.3.2-.2 0-.3-.1z"/><path d="m86.1 94c-.7-.7-.4-1.6.7-2.7l3.3-3c .2-.2.3-.2.5 0l3.4 3.7c.2.2.2.3 0 .5l-3.3 3c-1.1 1.1-2.1 1.2-2.7.5zm4.1-4.6-2.8 2.5c-.3.3-.6.6-.6.8-.1.2-.1.4.1.5l1.9 2.1c.1.1.3.2.5.1s.5-.2.9-.6l2.8-2.5z"/><path d="m82.8 94.4c1.3-.9 2.2-.9 2.8-.1l1.5 2.3c.5.8.2 1.7-1.2 2.5l-1.9 1.3c-1.3.9-2.2.9-2.8.1l-1.5-2.3c-.5-.8-.2-1.7 1.2-2.5zm-1.4 2c-.4.3-.6.5-.7.7s-.1.4 0 .5l1.5 2.3c.1.1.3.2.5.2s.6-.2.9-.4l1.9-1.2c.4-.3.6-.5.7-.7s.1-.4 0-.5l-1.5-2.3c-.1-.1-.3-.2-.5-.2s-.6.1-.9.4z"/><path d="m80.7 102.1c.1.2 0 .4-.2.5l-4.1 1.8c-.3.1-.6.2-.9.3s-.5.1-.8.1c-.2 0-.4-.1-.6-.2s-.3-.2-.4-.4l-.4-.9c-.1-.2-.1-.4-.1-.5 0-.2.1-.4.3-.6.1-.2.3-.4.6-.5s.5-.3.8-.5l.3-.1c.2-.1.4-.2.6-.2.2-.1.3-.1.4-.2s.2-.1.3-.1.2-.1.3-.1c-.1 0-.2 0-.3 0s-.2 0-.4 0-.3 0-.6 0c-.2 0-.5 0-.8 0l-2 .1c-.2 0-.3-.1-.4-.2s-.1-.2 0-.3.2-.2.3-.2c0 0 .1 0 .1-.1.1 0 .1 0 .2-.1h.2.2l5-.1-.7-1.6c-.1-.1-.1-.2 0-.3s.2-.2.3-.2c.2-.1.3-.1.4-.1s.2.1.2.2zm-1.1 0-.8-1.7-3.3 1.5c-.2.1-.4.2-.6.3s-.3.2-.3.3c-.1.1-.1.2-.1.2v.2l.3.8c0 .1.1.1.1.2.1 0 .2.1.3.1s.3 0 .4-.1c.2 0 .4-.1.6-.2z"/><path d="m39.2 99.2c1.4.6 1.9 1.4 1.6 2.3l-1.1 2.6c-.4.9-1.3 1-2.7.4l-3.6-1.5c-.1 0-.2-.1-.2-.2s0-.2.1-.3.1-.2.2-.3.2 0 .3 0l3.5 1.5c.4.2.8.3 1 .2.2 0 .4-.1.5-.3l1.1-2.6c.1-.2 0-.3-.1-.5s-.4-.4-.9-.6l-3.5-1.5c-.1-.1-.2-.1-.2-.2s0-.2.1-.3.1-.2.2-.3.2-.1.3 0z"/><path d="m33.1 96.1c1.3.8 1.7 1.7 1.2 2.5l-1.5 2.4c-.5.8-1.4.8-2.8 0l-1.9-1.2c-1.3-.8-1.7-1.7-1.2-2.5l1.5-2.4c.5-.8 1.4-.8 2.8 0zm-2.4-.5c-.4-.2-.7-.4-1-.4-.2 0-.4.1-.5.2l-1.5 2.4c-.1.1-.1.3 0 .5s.4.4.8.7l1.9 1.2c.4.2.7.4.9.4s.4-.1.5-.2l1.5-2.4c.1-.1.1-.3 0-.5s-.4-.4-.8-.7z"/><path d="m25.2 97.3c-.2.2-.3.2-.5 0l-3.3-3c-.3-.2-.5-.5-.7-.7s-.3-.5-.4-.7-.1-.4-.1-.6.1-.4.2-.5l.7-.7c.1-.1.3-.2.5-.3h.6c.2.1.5.1.7.3.3.1.5.3.8.6l.2.2c.2.2.3.3.5.4.1.1.2.2.3.3s.2.2.3.2c.1.1.1.1.2.2 0-.1-.1-.2-.1-.3-.1-.1-.1-.2-.2-.3s-.2-.3-.3-.5-.2-.4-.4-.7l-.9-1.8c-.1-.2-.1-.3 0-.4s.2-.1.3-.1.2.1.4.2l.1.1.1.1.1.1.1.1 2.1 4.6 1.2-1.3c.1-.1.2-.2.3-.1.1 0 .2.1.3.2s.2.2.2.3 0 .2-.1.3zm-.4-1 1.2-1.4-2.7-2.4c-.2-.2-.4-.3-.5-.4s-.3-.2-.4-.2-.2 0-.3 0-.1.1-.2.1l-.6.6c0 .1-.1.1-.1.2s0 .2.1.3.1.2.2.4l.5.5z"/><path d="m19 91.6c-.2.2-.4.1-.5-.1l-2.8-3.5c-.2-.3-.4-.5-.5-.8s-.2-.5-.3-.7c0-.2 0-.4 0-.6.1-.2.2-.3.3-.5l.8-.6c.2-.1.3-.2.5-.2s.4 0 .6.1.4.2.7.4c.2.2.5.4.7.7l.2.2c.1.2.3.3.4.5.1.1.2.3.3.4s.2.2.2.3c.1.1.1.2.2.3 0-.1-.1-.2-.1-.3s-.1-.2-.1-.4-.1-.3-.2-.5-.1-.5-.2-.8l-.6-2c-.1-.2 0-.3.1-.4s.2-.1.3-.1.2.1.3.3l.1.1.1.1c0 .1.1.1.1.2v.2l1.3 4.8 1.4-1.1c.1-.1.2-.1.3-.1s.2.1.3.3c.1.1.2.2.2.3s0 .2-.1.3zm-.3-1.1 1.5-1.2-2.3-2.9c-.2-.2-.3-.4-.5-.5-.1-.1-.2-.2-.3-.3s-.2-.1-.3-.1-.1 0-.2.1l-.7.5c-.1 0-.1.1-.1.2v.3s.1.2.2.4.2.3.4.5z"/><path d="m15.9 82.7.8-.5c.1-.1.2-.2.2-.5s-.1-.6-.3-1l-1.9-3.3c-.1-.1-.1-.2 0-.3s.1-.1.2-.2.2-.1.3-.1.2.1.2.2l1.9 3.3c.8 1.3.7 2.3-.1 2.8l-2.4 1.4c-.8.5-1.7.1-2.4-1.3l-.6-1c-.1-.1-.1-.2 0-.3 0-.1.1-.1.2-.2s.2-.1.3-.1.2.1.2.2l.6 1c .2.4.5.7.7.8s.4.1.5.1l.9-.5-2.6-4.4c-.1-.1-.1-.2 0-.3 0-.1.1-.1.2-.2s.2-.1.3-.1.2.1.2.2z"/><path d="m11.2 70.4c.5-.2.9-.1 1.3.2s.7.8 1 1.5l.9 2.2c.6 1.5.4 2.4-.5 2.7l-2.6 1c-.9.4-1.7-.2-2.2-1.7l-.4-1c0-.1 0-.2 0-.3.1-.1.1-.1.3-.2.1-.1.2-.1.3-.1s.1.1.2.2l.4 1c .2.4.3.7.5.9s.4.2.5.1l2.6-1c .2-.1.3-.2.3-.5 0-.2 0-.6-.2-1l-.8-2.2c-.2-.4-.3-.7-.5-.9s-.4-.2-.5-.1l-1.3.5c-.1.1-.3.1-.3 0-.4.1-.4 0-.5-.1-.1-.2-.1-.3-.1-.4s.1-.2.2-.2z"/><path d="m11.9 68.4h.3c.1.1.1.2.2.4 0 .2.1.3 0 .4 0 .1-.1.2-.3.2l-4.8 1.4c-.1 0-.3 0-.3 0-.1-.1-.1-.2-.2-.4 0-.2-.1-.3 0-.4 0-.1.1-.2.3-.2z"/><path d="m9.3 60.9c1-.2 1.6.5 1.8 2.1l.7 4.4c0 .2-.1.4-.3.4l-4.9.8c-.2 0-.4-.1-.4-.3l-.7-4.4c-.3-1.5.1-2.4 1.1-2.5zm1.6 6-.6-3.7c-.1-.5-.2-.8-.3-1-.2-.2-.3-.3-.5-.2l-2.8.5c-.2 0-.3.2-.4.4s-.1.6 0 1l .6 3.7z"/><path d="m10.7 58c0 1.6-.5 2.3-1.5 2.3h-2.8c-1 0-1.5-.8-1.5-2.3v-2.3c0-1.6.5-2.3 1.5-2.3h2.8c1 0 1.5.8 1.5 2.3zm-.8-2.3c0-.5-.1-.8-.2-1s-.3-.3-.4-.3h-2.8c-.2 0-.3.1-.4.3s-.2.5-.2 1v2.2c0 .5.1.8.2 1s .3.3.4.3h2.8c.2 0 .3-.1.4-.3s.2-.5.2-1z"/><path d="m5.5 52c-.2 0-.3-.2-.3-.4l.7-4.4c.1-.4.1-.7.2-.9.1-.3.2-.5.4-.7.1-.2.3-.3.5-.4s.4-.1.5-.1l1 .2c.2 0 .4.1.5.2s.2.3.3.5.1.5.1.8 0 .6-.1 1l-.1.3c0 .2-.1.4-.1.6s-.1.3-.1.4 0 .2-.1.3c0 .1 0 .2-.1.3 0-.1.1-.2.1-.3s.1-.2.2-.3.2-.3.3-.5.2-.4.4-.7l1.1-1.8c.1-.2.2-.2.4-.2.1 0 .2.1.3.2v.4.1.2c0 .1 0 .1-.1.2 0 .1 0 .1-.1.1l-2.7 4.2 1.7.3c.2 0 .2.1.3.2v.4c0 .2-.1.3-.1.4-.1.1-.2.1-.3.1zm.6-.9 1.8.3.6-3.6c0-.3.1-.5.1-.7s0-.3 0-.4-.1-.2-.1-.2c-.1-.1-.1-.1-.2-.1l-.8-.1c-.1 0-.1 0-.2 0s-.1.1-.2.2-.1.2-.2.4-.1.4-.1.7z"/></g></svg>