<svg enable-background="new 0 0 113.3 113.4" viewBox="0 0 113.3 113.4" xmlns="http://www.w3.org/2000/svg"><path d="m56.7 113.4c-31.5-.3-55-25-56.6-53.5-1.8-34 25.6-60 56.6-59.9 31.7.1 55.4 25.2 56.6 54 1.5 33.7-25.6 59.4-56.6 59.4zm-15.5-61.3c.1-1.7 0-3.4.5-5.1 1.6-4.7 4.2-8.4 8.6-10.8 2.2-1.2 4.5-1.8 7.1-1.4 3.2.4 6 1.5 8.6 3.3 3.6 2.6 5.7 6.1 6.3 10.4.3 2 .4 4.1.4 6.2-.1 8.1 0 16.2 0 24.3v1.4c5.8 3.3 11.7 6.5 17.6 9.9 0-.4.1-.6.1-.8 0-13.3 0-26.5 0-39.8 0-2.7-.4-5.4-1.3-7.9-1.8-5.4-4.7-10.2-8.7-14.3-8.6-9-19.3-11.4-31.2-9.3-6.9 1.2-12.7 4.9-17 10.2-6.6 8-10 17.3-8.4 27.9.4 2.7 1.4 5.1 2.5 7.6 5.1-4.1 10-8 14.9-11.8zm-17.1 39.1c5.3-4 10.3-7.8 15.6-11.7 4.3 3 9.3 4.3 14.4 4.9 5.2.6 10.1-.6 14.9-2.4 0-7 0-13.7 0-20.5-4.4 3.7-9.1 6.4-14.9 5-5.6-1.3-9.6-4.8-12-10.2-6.1 4.7-12.1 9.3-18 13.9z" fill="#413273"/><path d="m41.2 52.1c-4.9 3.8-9.8 7.7-14.9 11.8-1.1-2.5-2.1-5-2.5-7.6-1.6-10.6 1.8-19.9 8.4-27.9 4.3-5.3 10.1-9 17-10.2 11.9-2.1 22.6.4 31.2 9.3 3.9 4.1 6.8 8.9 8.7 14.3.8 2.5 1.3 5.2 1.3 7.9.1 13.3 0 26.5 0 39.8 0 .2 0 .4-.1.8-6-3.3-11.8-6.6-17.6-9.9 0-.5 0-1 0-1.4 0-8.1 0-16.2 0-24.3 0-2.1-.1-4.2-.4-6.2-.6-4.3-2.7-7.8-6.3-10.4-2.6-1.9-5.4-2.9-8.6-3.3-2.6-.3-4.9.3-7.1 1.4-4.4 2.3-7.1 6.1-8.6 10.8-.5 1.7-.4 3.3-.5 5.1z" fill="#f8e339"/><path d="m24.1 91.2c0-7.2 0-14 0-21 5.9-4.5 11.9-9.1 18-13.9 2.4 5.4 6.4 8.9 12 10.2 5.8 1.4 10.5-1.4 14.9-5v20.5c-4.7 1.7-9.6 2.9-14.9 2.4-5.2-.6-10.1-1.8-14.4-4.9-5.2 3.9-10.3 7.7-15.6 11.7z" fill="#f8e339"/></svg>