<?xml version="1.0" encoding="utf-8"?>
<!-- Generator: Adobe Illustrator 23.0.1, SVG Export Plug-In . SVG Version: 6.00 Build 0)  -->
<svg version="1.1" id="Capa_1" xmlns="http://www.w3.org/2000/svg" xmlns:xlink="http://www.w3.org/1999/xlink" x="0px" y="0px"
	 viewBox="0 0 538.6 538.6" style="enable-background:new 0 0 538.6 538.6;" xml:space="preserve">
<style type="text/css">
	.st0{fill:#57989A;}
	.st1{fill:#F3F6DB;}
	.st2{fill:#F19502;}
</style>
<path class="st0" d="M269.3,533.6C123.3,533.6,5,415.2,5,269.3C5,199.2,32.9,132,82.4,82.4C186.2-20.2,353.6-19.2,456.2,84.6
	c101.7,103,101.7,268.6,0,371.5C406.7,505.9,339.4,533.8,269.3,533.6L269.3,533.6z"/>
<path class="st1" d="M269.3,10c143.2,0.1,259.3,116.3,259.2,259.5c-0.1,104.1-62.4,198.1-158.3,238.7C238,563.4,86.1,500.9,31,368.7
	C-23.8,237.3,37.5,86.4,168.4,30.4C200.3,16.9,234.6,9.9,269.3,10 M269.3,0C120.6,0,0,120.6,0,269.3s120.6,269.3,269.3,269.3
	S538.6,418,538.6,269.3S418,0,269.3,0z"/>
<path class="st1" d="M132.8,67.4l-5.4,3.6l5.1,7.6l4.8-3.2l2.3,3.4l-4.8,3.2l9.1,13.5l-6.2,4.2l-18.9-28.1l11.6-7.8L132.8,67.4z"/>
<path class="st1" d="M149.3,85l-10.6-19c-2.1-3.8-0.7-7.1,4.3-9.9s8.5-2.2,10.5,1.6l10.6,19c1,1.6,1,3.5,0.2,5.1
	c-1,1.9-2.6,3.4-4.6,4.4C154.7,89,151.3,88.6,149.3,85z M157.9,80.6l-11.2-20.1c-0.3-0.6-0.8-0.7-1.5-0.3s-0.9,0.9-0.6,1.5
	l11.2,20.1c0.3,0.6,0.9,0.7,1.6,0.3S158.3,81.2,157.9,80.6z"/>
<path class="st1" d="M187.1,72.8l-6.8,3c-1.1-0.6-2.6-2.9-4.4-7l-0.8-1.9c-1.1-2.6-1.6-3.9-1.7-4c-0.5-1-1.4-1.3-2.8-0.7l6.5,14.9
	l-6.8,3l-13.6-31l8.4-3.7c1.7-0.8,3.7-1.1,5.6-0.9c1.8,0.3,3.4,1.5,4,3.2l1.6,3.7c1.1,2.4,0.4,4.7-2.1,6.7c3.1-0.6,5.3,0.5,6.5,3.3
	l1.4,3.5C184.2,70,185.9,72.6,187.1,72.8L187.1,72.8z M170.3,56l-2.2-5.1c-0.5-1.1-1.4-1.3-2.8-0.7l3.7,8.4
	C170.3,57.9,170.8,57.1,170.3,56L170.3,56z"/>
<path class="st1" d="M203.8,67.1l-13.7,4.7l-10.8-32l13.7-4.6l1.4,4.1l-6.6,2.2l2.9,8.7l6-2l1.3,3.9l-6,2l3.8,11.3l6.7-2.3
	L203.8,67.1z"/>
<path class="st1" d="M214.3,64.3l-7.2,1.9l-8.7-32.7l7.2-1.9L214.3,64.3z"/>
<path class="st1" d="M234,60.2l-3.5,0.7l-1.3-1.6c-1.1,1.6-2.8,2.7-4.7,3.1c-1.6,0.3-3.3,0.2-4.8-0.5c-1.5-0.7-2.6-2.2-2.8-3.9
	l-4.2-21.7c-0.8-4.3,1.5-7,7-8.1c5.2-1,8.2,0.4,9,4.4l1.2,6.2l-6.6,1.3l-1.3-6.7c-0.1-0.5-0.5-0.7-1.2-0.6c-0.7,0.1-1,0.5-0.9,1
	l4.5,23c0.1,0.5,0.5,0.7,1.2,0.6s1-0.5,0.9-1l-1.2-6.2l-1.5,0.3l-1-5.1l8.1-1.6L234,60.2z"/>
<path class="st1" d="M256.5,57.7l-7.6,0.8L242.1,41l1.8,17.9l-6.2,0.6l-3.3-33.7l8.4-0.8l5.7,14.9L247,24.7l6.2-0.6L256.5,57.7z"/>
<path class="st1" d="M288.6,36.1l-6.7-0.3l0.3-6.7c0-0.5-0.3-0.8-1-0.9S280,28.5,280,29l-1,23.5c0,0.5,0.3,0.8,1,0.9s1-0.2,1.1-0.8
	l0.4-8.3l6.7,0.3l-0.4,8.6c-0.1,1.6-1.1,3.1-2.5,3.8c-1.6,0.9-3.5,1.3-5.4,1.2c-5.7-0.2-8.5-2.4-8.3-6.5l1-21.7
	c0.2-4.4,3.2-6.4,8.9-6.2c5.1,0.2,7.6,2.3,7.4,6.3L288.6,36.1z"/>
<path class="st1" d="M292.1,52.7l2.9-21.6c0.6-4.4,3.7-6.1,9.3-5.4s8.1,3.3,7.5,7.6l-2.9,21.6c-0.2,1.8-1.3,3.4-2.9,4.2
	c-2,0.9-4.2,1.1-6.3,0.8C294.1,59.1,291.5,56.8,292.1,52.7L292.1,52.7z M301.6,54.4l3.1-22.8c0.1-0.7-0.2-1.1-1-1.2
	c-0.8-0.1-1.2,0.2-1.4,0.8L299.3,54c-0.1,0.7,0.3,1.1,1.1,1.2C301.1,55.3,301.6,55,301.6,54.4L301.6,54.4z"/>
<path class="st1" d="M336.8,67.4l-6.4-1.6l4.6-18.4l-8.4,17.4l-5-1.2l0.3-19.5l-4.6,18.4l-5.6-1.4l8.2-32.8l9.3,2.3l-1,17.8
	l7.1-16.3l9.7,2.4L336.8,67.4z"/>
<path class="st1" d="M351.3,59.6L347,71.3l-6.8-2.5L352,37l7.3,2.7c2.9,1.1,4.9,2.2,6.1,3.5c1.1,1.3,1.3,3,0.4,5.3l-3.3,8.8
	c-0.8,2.1-1.9,3.3-3.4,3.8S355.1,61,351.3,59.6L351.3,59.6z M355.9,54.2l2.8-7.6c0.4-1.1-0.1-2-1.7-2.5l-4.1,11
	C354.5,55.6,355.5,55.3,355.9,54.2L355.9,54.2z"/>
<path class="st1" d="M377.3,84.7l-6.6-3.2l2.9-8.7l-3-1.4l-5.1,7.6l-6.6-3.2l19.8-28l8.5,4.1L377.3,84.7z M375.1,68.3l3.5-9.5
	l-5.3,8.6L375.1,68.3z"/>
<path class="st1" d="M396.2,96.3l-6.5-4l5.2-18l-9.5,15.3l-5.3-3.3L398,57.6l7.2,4.4l-4.5,15.3l8.1-13.1l5.3,3.3L396.2,96.3z"/>
<path class="st1" d="M436,84l-12.2,7.8l-6.1,3.9l-8.2,10.6l-5.9-4.5l8-10.4c1.1-2.2,2-4.4,2.8-6.7c1-2.9,2.7-7.4,5-13.5l5.6,4.3
	l-4.7,11.5l10.3-7.2L436,84z"/>
<path class="st1" d="M269.3,74.6c107.2,0.1,194,87.2,193.9,194.4S376,463,268.8,462.8s-194-87.2-193.9-194.4
	c0.1-77.9,46.8-148.3,118.6-178.6C217.5,79.7,243.3,74.5,269.3,74.6 M269.3,64.6c-113.1,0-204.7,91.7-204.7,204.7
	S156.2,474,269.3,474S474,382.4,474,269.3S382.4,64.6,269.3,64.6L269.3,64.6z"/>
<path class="st2" d="M520.9,213.6L411.6,348l-85.2,1.4c-1,0-2,0.5-2.7,1.3l-54.5,62.4l-54.5-62.4c-0.7-0.8-1.7-1.2-2.7-1.3
	l-85.2-1.4L17.7,213.6h157.1l12.1,14.4c0.7,0.8,1.8,1.3,2.9,1.3c1.1,0,2.1-0.6,2.8-1.5L269.3,126l76.6,101.8
	c0.7,0.9,1.7,1.4,2.8,1.5c1.1,0,2.2-0.5,2.9-1.3l12.2-14.4L520.9,213.6z"/>
<path class="st1" d="M268.1,422.1l-0.1,0c-0.2-0.1-0.4-0.1-0.5-0.3c-0.2-0.1-0.3-0.2-0.5-0.3h0c0,0-0.1-0.1-0.1-0.1
	c-0.1,0-0.1-0.1-0.2-0.2l-56.1-64.4l-85.4-1.5c-1.1,0-2.1-0.5-2.8-1.4L7.2,212.3c-1.3-1.6-1.1-3.9,0.5-5.2c0.7-0.6,1.5-0.9,2.4-0.8
	h166.4c1.1,0,2.1,0.5,2.8,1.3l10.3,12.3l76.8-102l0,0c0,0,0-0.1,0-0.1l0.2-0.2l0.1-0.1c0,0,0.1-0.1,0.1-0.1c0.1-0.1,0.1-0.1,0.2-0.1
	c0,0,0,0,0.1-0.1l0.2-0.1l0.1-0.1c0.1,0,0.1-0.1,0.2-0.1c0.1,0,0.1-0.1,0.1-0.1h0.1c0.1,0,0.1-0.1,0.2-0.1h0c0.1,0,0.2-0.1,0.3-0.1
	l0.3-0.1h0.3h0.3h0.2h0.2h0.2h0.1h0.2h0.1l0.2,0.1l0.2,0.1c0,0,0.1,0.1,0.1,0.1c0.1,0,0.1,0.1,0.2,0.1h0.1l0.2,0.1l0.1,0.1
	c0.1,0,0.1,0.1,0.2,0.1c0,0,0.1,0.1,0.1,0.1c0,0,0.1,0.1,0.1,0.1c0.1,0.1,0.1,0.1,0.2,0.2l0,0.1l0,0l76.8,102l10.3-12.2
	c0.7-0.8,1.7-1.3,2.8-1.3h166.6c2,0,3.7,1.6,3.7,3.6c0,0.9-0.3,1.7-0.8,2.4L416.2,353.9c-0.7,0.8-1.7,1.3-2.8,1.4l-85.3,1.4
	L272.1,421l-0.2,0.2l-0.1,0.1c-0.2,0.1-0.3,0.2-0.5,0.3c-0.2,0.1-0.3,0.2-0.5,0.3l-0.1,0l-0.5,0.1H270c-0.2,0-0.4,0-0.6,0
	c-0.2,0-0.4,0-0.6,0h-0.1C268.4,422.2,268.3,422.1,268.1,422.1L268.1,422.1z M411.6,348l109.2-134.4H363.8L351.6,228
	c-0.7,0.8-1.8,1.3-2.9,1.3c-1.1,0-2.1-0.6-2.8-1.5L269.3,126l-76.6,101.8c-0.7,0.9-1.7,1.4-2.8,1.5c-1.1,0-2.2-0.5-2.9-1.3
	l-12.1-14.4H17.7L126.9,348l85.2,1.4c1,0,2,0.5,2.7,1.3l54.5,62.4l54.5-62.4c0.7-0.8,1.7-1.2,2.7-1.3L411.6,348z"/>
<path class="st1" d="M469.9,258.1l22.3-29.7H369.4l-19.9,22l-80.3-98.8L189,250.4l-19.9-22H46.3l22.3,29.7h83.7l10.5,14.1H83
	l17.4,20.8H181l8.7,12.6h-79.6l22,28.3h90l47.1,59l47.1-59h90l22-28.3h-79.6l8.7-12.6h80.6l17.5-20.8h-79.9l10.5-14.1H469.9z"/>
<path class="st2" d="M272.1,209.8l58.1,73.6l-58.1,59.6l29.1-59.6L272.1,209.8z"/>
<path class="st2" d="M266.5,209.8l-58.1,73.6l58.1,59.6l-29.1-59.6L266.5,209.8z"/>
<g>
	<path class="st1" d="M83,413.5l-8.8,6.8l-4-5.1l23.9-18.6l4.3,5.5c1.4,1.6,2.4,3.5,2.9,5.5c0.3,1.5-0.4,2.9-2.2,4.2l-6.6,5.1
		c-1.6,1.2-3,1.7-4.3,1.3C86.9,418,85.2,416.4,83,413.5L83,413.5z M89,411.6l5.7-4.5c0.8-0.7,0.8-1.6-0.1-2.7l-8.2,6.4
		C87.4,412,88.2,412.3,89,411.6L89,411.6z"/>
	<path class="st1" d="M94.1,443.4l-4.5-4.9c0.1-1.1,1.7-3,4.6-5.8l1.4-1.2l2.9-2.6c0.8-0.7,0.7-1.5-0.3-2.6l-10.7,9.8l-4.4-4.9
		l22.2-20.5l5.6,6c1.2,1.2,2,2.8,2.4,4.5c0.3,1.6-0.3,3.3-1.6,4.3L109,428c-1.7,1.6-3.8,1.7-6.3,0.2c1.4,2.5,1.1,4.6-0.9,6.4
		l-2.5,2.2C95.7,440.2,94,442.3,94.1,443.4L94.1,443.4z M103.5,424.3l3.7-3.4c0.8-0.7,0.7-1.6-0.2-2.6l-6,5.5
		C101.9,424.9,102.7,425.1,103.5,424.3z"/>
	<path class="st1" d="M107.3,455.7l-9.6-8.9l20.6-22.2l9.5,8.8l-2.6,2.9l-4.6-4.3l-5.6,6l4.1,3.9l-2.5,2.7l-4.2-3.9l-7.2,7.8
		l4.7,4.3L107.3,455.7z"/>
	<path class="st1" d="M111.1,459l18.7-23.8l6.5,5.1c1.4,1,2.4,2.5,2.9,4.1c0.5,1.7,0.1,3.5-1.1,4.9l-11.3,14.4
		c-1,1.4-2.6,2.2-4.3,2.2c-1.8,0-3.5-0.7-4.8-1.8L111.1,459z M121.2,460l12-15.2c0.6-0.8,0.5-1.6-0.5-2.4l-13.9,17.7
		C119.7,460.9,120.6,460.8,121.2,460L121.2,460z"/>
	<path class="st1" d="M132.8,475.1l-5.5-3.8l17.1-25l5.5,3.8L132.8,475.1z"/>
	<path class="st1" d="M159.6,468.5l-5.2-3.1l3.1-5.1c0.3-0.4,0.1-0.8-0.4-1.1s-0.9-0.3-1.2,0.1l-10.8,18c-0.3,0.4-0.1,0.8,0.4,1.1
		s0.9,0.3,1.2-0.2l3.8-6.4l5.2,3.1l-3.9,6.6c-0.8,1.2-2.1,2-3.6,1.9c-1.7,0-3.3-0.4-4.8-1.3c-4.4-2.6-5.7-5.5-3.8-8.6l10-16.8
		c2-3.4,5.2-3.8,9.6-1.1c4,2.4,5,5.1,3.2,8.1L159.6,468.5z"/>
	<path class="st1" d="M178.5,470.6l-3.3-1.6l-11.6,23.6l-6-2.9l11.6-23.6l-3.3-1.6l1.8-3.5l12.6,6.2L178.5,470.6z"/>
	<path class="st1" d="M188.7,503l-6.1-2.4l1.9-8l-2.8-1.1l-4,7.2l-6.1-2.4l15.6-26.4l7.9,3L188.7,503z M185.4,488.5l2.4-8.8
		l-4.1,8.1L185.4,488.5z"/>
	<path class="st1" d="M193.7,504.6l8.4-29.1l7.5,2.2c1.7,0.4,3.2,1.3,4.3,2.6c1.1,1.2,1.4,3,0.9,4.5l-1.2,4c-0.6,2-2.3,3.1-5,3.3
		c2.4,1.4,3.3,3.2,2.7,5.3l-1.6,5.6c-0.4,1.7-1.5,3.1-3.1,3.8c-1.6,0.6-3.3,0.6-4.9,0.1L193.7,504.6z M203.4,501.7l2.1-7.4
		c0.3-1-0.1-1.7-1.3-2l-3,10.4C202.4,503,203.1,502.7,203.4,501.7z M207.3,488.1l1.4-5c0.3-1-0.2-1.7-1.4-2l-2.3,8
		C206.3,489.4,207,489.1,207.3,488.1L207.3,488.1z"/>
	<path class="st1" d="M225.7,512.5l-12.2-2.5l6.1-29.7l6.5,1.3l-5.3,25.9l5.7,1.2L225.7,512.5z"/>
	<path class="st1" d="M243.6,515.1l-12.9-1.7l4-30l12.8,1.7l-0.5,3.9l-6.2-0.8l-1.1,8.1l5.6,0.7l-0.5,3.6l-5.6-0.7l-1.4,10.6
		l6.3,0.8L243.6,515.1z"/>
	<path class="st1" d="M266,516.3l-6.6-0.2l0.8-30.3l6.6,0.2L266,516.3z"/>
	<path class="st1" d="M270.7,504.3l6-0.2l0.3,7c0,0.7,0.5,1,1.3,1s1.2-0.4,1.2-1.1l-0.1-3.6c0-1.1-0.8-2.3-2.3-3.8
		c-1.9-1.7-3.8-3.4-5.5-5.3c-0.7-0.9-1.1-1.9-1.2-3.1l-0.1-3.4c-0.1-3.9,2.3-6,7.5-6.2c4.6-0.2,7,1.5,7.1,5.1l0.2,5.2l-6,0.2
		l-0.2-5.6c0-0.6-0.4-0.9-1-0.9c-0.8,0-1.2,0.6-1.1,1.8l0.2,2c0,1.1,0.8,2.4,2.4,3.8c2,1.6,3.8,3.4,5.5,5.4c0.8,1,1.2,2.3,1.3,3.5
		l0.1,3.9c0.2,4-2.3,6.1-7.5,6.3c-5,0.2-7.5-1.6-7.6-5.2L270.7,504.3z"/>
	<path class="st1" d="M302,509l-3.2-19.2c-0.7-3.9,1.5-6.2,6.5-7.1s7.8,0.7,8.4,4.5l3.3,19.2c0.3,1.6-0.2,3.3-1.4,4.3
		c-1.4,1.3-3.2,2.1-5.1,2.3C305.4,514,302.6,512.6,302,509L302,509z M310.6,507.9l-3.4-20.4c-0.1-0.6-0.5-0.8-1.2-0.7
		s-1.1,0.5-1,1.1l3.4,20.3c0.1,0.6,0.5,0.8,1.3,0.7S310.7,508.5,310.6,507.9L310.6,507.9z"/>
	<path class="st1" d="M315.7,481.1l6.5-1.7l6.4,24.6c0.1,0.6,0.6,0.8,1.3,0.6s1-0.6,0.8-1.2l-6.4-24.6l6.5-1.7l6.3,24.3
		c0.5,1.6,0,3.3-1.1,4.5c-1.4,1.4-3.1,2.4-5,2.8c-1.8,0.5-3.8,0.6-5.6,0.1c-1.7-0.4-3-1.8-3.3-3.5L315.7,481.1z"/>
	<path class="st1" d="M359.3,499.5l-6.3,2.2c-1-0.6-2.1-2.7-3.5-6.5l-0.6-1.7l-1.2-3.7c-0.3-1-1.2-1.2-2.5-0.8l4.8,13.7l-6.3,2.2
		l-10.1-28.6l7.8-2.7c1.6-0.6,3.3-0.7,5-0.4c1.6,0.4,2.9,1.6,3.3,3.1l1.2,3.4c0.8,2.2,0,4.2-2.3,5.9c2.8-0.3,4.7,0.8,5.6,3.3l1,3.2
		C357,496.7,358.3,499.2,359.3,499.5L359.3,499.5z M345.5,483.3l-1.7-4.7c-0.3-1-1.2-1.3-2.5-0.8l2.7,7.7
		C345.3,485.1,345.8,484.3,345.5,483.3z"/>
	<path class="st1" d="M368.7,482.2l5.4-2.8l3.2,6.2c0.3,0.6,0.9,0.7,1.6,0.4s0.9-0.9,0.6-1.5l-1.6-3.2c-0.5-1-1.7-1.8-3.7-2.5
		c-2.5-0.7-4.9-1.5-7.2-2.5c-1-0.5-1.8-1.3-2.3-2.3l-1.5-3c-1.8-3.5-0.4-6.4,4.2-8.8c4.1-2.1,7-1.5,8.6,1.6l2.4,4.7l-5.4,2.8l-2.5-5
		c-0.2-0.4-0.7-0.6-1.1-0.5c-0.1,0-0.1,0.1-0.2,0.1c-0.7,0.4-0.8,1.1-0.3,2.1l1,1.7c0.5,1,1.8,1.8,3.8,2.5c2.5,0.7,4.9,1.5,7.3,2.5
		c1.1,0.6,2.1,1.5,2.6,2.7l1.8,3.4c1.8,3.6,0.5,6.6-4.1,8.9c-4.4,2.3-7.5,1.8-9.1-1.5L368.7,482.2z"/>
	<path class="st1" d="M390.5,453.6l-3.2,2l13.9,22.4l-5.7,3.5l-13.9-22.4l-3.2,2l-2.1-3.4l12-7.4L390.5,453.6z"/>
	<path class="st1" d="M423.3,462.3l-5.3,3.9l-5.8-5.9l-2.4,1.8l3.9,7.2l-5.3,3.9L394.5,446l6.8-5L423.3,462.3z M409.3,457.3
		l-6.2-6.7l4.7,7.8L409.3,457.3z"/>
	<path class="st1" d="M440.1,447.5l-5.1,4.6l-14.1-9l10.8,12l-4.2,3.7l-20.2-22.5l5.6-5l12.1,7.7l-9.2-10.3l4.1-3.7L440.1,447.5z"/>
	<path class="st1" d="M444.1,443.6l-22.1-20.7l5.7-6.1c1.2-1.3,2.7-2.2,4.4-2.5c1.7-0.3,3.5,0.2,4.7,1.5l13.4,12.5
		c1.3,1.1,2,2.8,1.9,4.5c-0.2,1.8-1,3.4-2.2,4.7L444.1,443.6z M445.9,433.6l-14.1-13.2c-0.8-0.7-1.6-0.6-2.5,0.3l16.5,15.4
		C446.6,435.1,446.6,434.3,445.9,433.6L445.9,433.6z"/>
	<path class="st1" d="M469.2,414l-4,5.2l-7.1-4.1l-1.8,2.3l5.7,5.9l-4,5.2L437.1,406l5.2-6.7L469.2,414z M454.4,412.9l-7.7-4.8
		l6.6,6.3L454.4,412.9z"/>
	<path class="st1" d="M481.1,395.7l-3.6,5.6c-1.1,0.1-3.4-0.9-6.7-3l-1.5-1l-3.2-2.2c-0.9-0.5-1.7-0.3-2.4,0.9l12.2,7.8l-3.6,5.6
		l-25.5-16.3l4.4-6.9c0.9-1.5,2.2-2.7,3.7-3.4c1.5-0.7,3.2-0.5,4.6,0.5l3.1,2c2,1.3,2.6,3.3,1.8,6c2-2,4.2-2.2,6.5-0.8l2.7,1.9
		C477.6,394.9,480.1,396.1,481.1,395.7L481.1,395.7z M460.3,391.5l-4.2-2.7c-0.9-0.6-1.7-0.3-2.4,0.9l6.9,4.4
		C461.3,392.9,461.2,392,460.3,391.5z"/>
	<path class="st1" d="M483.6,391.3l-26.8-14.1l3.9-7.4c0.8-1.5,2-2.8,3.5-3.6c1.6-0.8,3.5-0.7,5,0.2l16.2,8.5c1.5,0.7,2.7,2.1,3,3.8
		c0.3,1.7,0,3.5-0.9,5.1L483.6,391.3z M482.7,381.2l-17.1-9c-0.9-0.5-1.7-0.2-2.3,1l19.9,10.5C483.8,382.5,483.6,381.7,482.7,381.2
		L482.7,381.2z"/>
	<path class="st1" d="M72.6,363.9l3.5,5.6L54.5,383c-0.5,0.3-0.6,0.8-0.2,1.4s0.8,0.8,1.3,0.5l21.6-13.4l3.5,5.6l-21.3,13.2
		c-1.4,0.9-3.1,1-4.6,0.3c-1.8-0.9-3.2-2.3-4.2-4c-1-1.6-1.7-3.4-1.8-5.3c-0.1-1.7,0.8-3.3,2.3-4.2L72.6,363.9z"/>
	<path class="st1" d="M66.8,410.5l-3.7-5.8l11.1-12.5l-13.6,8.7l-3-4.7l25.5-16.4l4.1,6.4l-9.6,10.7l11.6-7.5l3,4.7L66.8,410.5z"/>
</g>
</svg>
