<svg enable-background="new 0 0 114.8 114.8" viewBox="0 0 114.8 114.8" xmlns="http://www.w3.org/2000/svg" xmlns:xlink="http://www.w3.org/1999/xlink"><circle cx="57.4" cy="57.4" fill="#f5af1c" r="56.7"/><circle cx="57.4" cy="57.4" fill="#2f2762" r="54.7"/><circle cx="57.4" cy="57.4" fill="none" r="56.7" stroke="#f5af1c" stroke-miterlimit="10" stroke-width="1.4286"/><g opacity=".15"><image height="454" opacity=".9" overflow="visible" transform="matrix(.2379 0 0 .2374 3.7638 4.2005)" width="454" xlink:href="2B5A0475.png"/><g fill="#dadada"><path d="m31 88.1-.2-.1 13.4-40.4h.2z"/><path d="m29 80.1h34.7v.2h-34.7z" transform="matrix(.892 -.4521 .4521 .892 -31.2546 29.6212)"/><path d="m61.7 72.4-17.5-24.8.2-.1 17.5 24.8z"/><path d="m69.6 42.3-25.3 5.4v-.2l25.2-5.4z"/><path d="m62.4 72.8h-.2l7.2-30.7.2.1z"/><path d="m78 92.5-15.8-19.6.2-.2 15.8 19.7z"/><path d="m78.6 92.9-47.7-4.7v-.2l47.7 4.7z"/><path d="m59.5 108.2-28.7-20 .1-.2 28.7 20z"/><path d="m87.5 98.1-27.2 10.1-.1-.2 27.2-10.1z"/><path d="m82.7 89.8h.2v10.9h-.2z" transform="matrix(.5101 -.8601 .8601 .5101 -41.3513 117.8688)"/><path d="m70.6 78.3h33.9v.2h-33.9z" transform="matrix(.5554 -.8316 .8316 .5554 -26.2348 107.6545)"/><path d="m75 81.1h35v.2h-35z" transform="matrix(.2559 -.9667 .9667 .2559 -9.6653 149.8131)"/><path d="m97 64.4-34.6 7.9v-.1l34.5-8z"/><path d="m82.9 35.9h.2v35.1h-.2z" transform="matrix(.6425 -.7663 .7663 .6425 -11.2714 82.717)"/><path d="m95.9 60.7h13.1v.2h-13.1z" transform="matrix(.8472 -.5312 .5312 .8472 -16.6641 63.7224)"/><path d="m101.2 79.7h-.2l6.4-22.9.2.1z"/><path d="m87.5 98.1-.1-.1 13.7-18.3.1.1z"/><path d="m98.9 64h.2v16h-.2z" transform="matrix(.9657 -.2598 .2598 .9657 -15.3102 28.1978)"/><path d="m69.6 42.2-.1-.1 27.7-12.4.1.2z"/><path d="m96.5 64.7h-.2l.9-35.5h.3z"/><path d="m108.1 57.3-.2.1-10.6-28.2h.1z"/><path d="m97.3 29.3-23.9-15.8.1-.1 23.9 15.7z"/><path d="m69.6 42.2-.2-.1 4-28.7.2.1z"/><path d="m43.8 47.6-.1-.2 29.7-34 .2.1z"/><path d="m44.4 47.6h-.2l-7.4-25.3h.2z"/><path d="m73.5 13.6-36.6 8.3v-.2l36.6-8.3z"/><path d="m63.8.8h.2v19.9h-.2z" transform="matrix(.2709 -.9626 .9626 .2709 36.2075 69.3792)"/><path d="m36.8 21.3-.1-.2 17.6-13.1.1.2z"/><path d="m53.7 8.3-25 11-.1-.2 25.1-11z"/><path d="m37.7 21-9-1.7v-.2l9 1.7z"/><path d="m13.8 36.8-.1-.2 14.8-17.9.2.1z"/><path d="m7.2 57.6h-.2l6.6-20.9h.2z"/><path d="m16.2 86.8h-.2l-9-29.2h.2z"/><path d="m36.3 104.1-20.5-16.7.1-.2 20.5 16.7z"/><path d="m59.1 108.4-22.8-4.3v-.2l22.8 4.3z"/><path d="m33.6 87.5h.2v16.5h-.2z" transform="matrix(.9371 -.3491 .3491 .9371 -31.3168 17.7935)"/><path d="m23.2 79.7h.2v15.4h-.2z" transform="matrix(.08953891 -.996 .996 .08953891 -65.896 102.7451)"/><path d="m9.4 77.1h22.2v.2h-22.2z" transform="matrix(.4179 -.9085 .9085 .4179 -58.1793 63.5367)"/><path d="m16.1 53.1h.2v20.1h-.2z" transform="matrix(.4482 -.8939 .8939 .4482 -47.5562 49.3283)"/><path d="m34 47.4-26.8 11.3-.1-.2 26.8-11.3z"/><path d="m33.9 47.4-20.2-10.6.1-.2 20.2 10.6z"/><path d="m31.2 19h.2v28.6h-.2z" transform="matrix(.9825 -.1861 .1861 .9825 -5.6527 6.4111)"/><path d="m44.3 47.7-10.5-.7v-.2l10.5.7z"/><path d="m22.2 34.2h26.3v.2h-26.3z" transform="matrix(.1063 -.9943 .9943 .1063 -2.4936 65.7805)"/><path d="m25.2 67.7-.2-.1 8.7-20.8.2.1z"/><path d="m31 88-.2.1-6-19.8.2-.1z"/><path d="m25 68.3-.2-.1 19.7-21.2.2.2z"/><path d="m73 42.5h.2v19.3h-.2z" transform="matrix(.9525 -.3046 .3046 .9525 -12.4205 24.7443)"/><path d="m60.3 67h17.9v.2h-17.9z" transform="matrix(.7709 -.6369 .6369 .7709 -26.8717 59.4683)"/><path d="m55.1 62.7h.2v15.2h-.2z" transform="matrix(.3222 -.9467 .9467 .3222 -29.1683 99.9473)"/><path d="m48.1 68-.2-.1 20.7-25 .2.1z"/><path d="m61 24.1h.2v21.9h-.2z" transform="matrix(.7238 -.69 .69 .7238 -7.3153 51.8761)"/><path d="m43.8 47.5-.2-.1 9.9-20.3h.2z"/><path d="m45.8 47.3h.2v20.9h-.2z" transform="matrix(.9792 -.2028 .2028 .9792 -10.758 10.5131)"/><path d="m53.5 27.2-16.6-5.3v-.2l16.7 5.3z"/><path d="m53.6 27.2-.1-.2 19.9-13.6.1.1z"/><path d="m70.3 41.6-.1-.2 18.9-21.6.1.2z"/><path d="m100.3 47.4-.2.1-11.1-27.6h.2z"/><path d="m85.1 30.1h.2v30.3h-.2z" transform="matrix(.1474 -.9891 .9891 .1474 27.8958 122.8492)"/><path d="m76.1 61.5-.1-.2 24.1-13.9.1.2z"/><path d="m57.1 86.4-9.2-18.4.2-.1 9.2 18.4z"/><path d="m57.3 86.4-.2-.1 5.1-13.5h.2z"/><path d="m83.1 77.3-25.9 9.1v-.1l25.8-9.2z"/><path d="m79.5 60.7h.2v17.2h-.2z" transform="matrix(.9148 -.404 .404 .9148 -21.2094 38.0704)"/><path d="m83.1 77.2-.1-.1 17.1-29.7.2.1z"/><path d="m107.4 56.9-7.3-9.4.2-.1 7.3 9.4z"/><path d="m87.3 96.7h-.2l-4.2-19.5h.2z"/><path d="m59.2 108.3-.1-.1 18.9-15.8.1.2z"/><path d="m67.8 79.3h.2v21.1h-.2z" transform="matrix(.246 -.9693 .9693 .246 -35.9074 133.4999)"/><path d="m58.3 86.3h.2v21.8h-.2z" transform="matrix(.9942 -.1073 .1073 .9942 -10.0937 6.8288)"/><path d="m37.3 103-.1-.2 20.4-15.6.1.2z"/><path d="m36.4 56.3h.2v22.9h-.2z" transform="matrix(.01356997 -.9999 .9999 .01356997 -31.683 103.363)"/><path d="m27 77.1h25.1v.2h-25.1z" transform="matrix(.6751 -.7378 .7378 .6751 -44.0905 54.2756)"/><path d="m30.8 88.1-22.8-28.7.1-.1 22.8 28.7z"/><path d="m80.5 7.4h.2v17.7h-.2z" transform="matrix(.3725 -.928 .928 .3725 35.5115 84.9555)"/><path d="m21.3 46.5-.2-.1 7.5-27.2.2.1z"/><path d="m7.2 58.7-.1-.2 14-12.1.1.1z"/><path d="m27.4 40.2h.2v13.1h-.2z" transform="matrix(.08722217 -.9962 .9962 .08722217 -21.4356 70.0364)"/><ellipse cx="13.7" cy="36.6" rx="1.5" ry="1.5" transform="matrix(.915 -.4035 .4035 .915 -13.6028 8.6443)"/><ellipse cx="7.7" cy="58.5" rx="1.5" ry="1.5" transform="matrix(.915 -.4035 .4035 .915 -22.9504 8.0823)"/><ellipse cx="21.1" cy="47" rx="1.5" ry="1.5" transform="matrix(.915 -.4035 .4035 .915 -17.1791 12.5202)"/><ellipse cx="34" cy="47.3" rx="1.5" ry="1.5" transform="matrix(.9149 -.4036 .4036 .9149 -16.197 17.751)"/><ellipse cx="44.3" cy="47.6" rx="1.5" ry="1.5" transform="matrix(.915 -.4035 .4035 .915 -15.4412 21.9304)"/><ellipse cx="37.3" cy="21.7" rx="1.5" ry="1.5" transform="matrix(.915 -.4035 .4035 .915 -5.592 16.9115)"/><ellipse cx="29.1" cy="19.1" rx="1.5" ry="1.5" transform="matrix(.9149 -.4036 .4036 .9149 -5.2361 13.382)"/><ellipse cx="25.1" cy="67.3" rx="1.5" ry="1.5" transform="matrix(.915 -.4035 .4035 .915 -25.0338 15.8567)"/><ellipse cx="16.1" cy="86.8" rx="1.5" ry="1.5" transform="matrix(.915 -.4035 .4035 .915 -33.6575 13.8814)"/><ellipse cx="31.2" cy="87.8" rx="1.5" ry="1.5" transform="matrix(.9149 -.4036 .4036 .9149 -32.7824 20.0724)"/><ellipse cx="62.3" cy="72.4" rx="1.5" ry="1.5" transform="matrix(.915 -.4034 .4034 .915 -23.9138 31.2807)"/><ellipse cx="48.3" cy="68.1" rx="1.5" ry="1.5" transform="matrix(.915 -.4035 .4035 .915 -23.385 25.2914)"/><ellipse cx="69.7" cy="42.5" rx="1.5" ry="1.5" transform="matrix(.915 -.4035 .4035 .915 -11.2356 31.7509)"/><ellipse cx="56.8" cy="49.4" rx="1.5" ry="1.5" transform="matrix(.915 -.4035 .4035 .915 -15.1098 27.1279)"/><ellipse cx="79" cy="25.2" rx="1.5" ry="1.5" transform="matrix(.9149 -.4036 .4036 .9149 -3.4527 34.0391)"/><ellipse cx="53.1" cy="26.6" rx="1.5" ry="1.5" transform="matrix(.915 -.4035 .4035 .915 -6.2289 23.7023)"/><ellipse cx="73.1" cy="13.8" rx="1.5" ry="1.5" transform="matrix(.9149 -.4036 .4036 .9149 .6464 30.6817)"/><ellipse cx="54.2" cy="8.1" rx="1.5" ry="1.5" transform="matrix(.915 -.4035 .4035 .915 1.3367 22.5647)"/><ellipse cx="82.7" cy="76.7" rx="1.5" ry="1.5" transform="matrix(.915 -.4035 .4035 .915 -23.9275 39.8898)"/><ellipse cx="57.3" cy="86.9" rx="1.5" ry="1.5" transform="matrix(.915 -.4035 .4035 .915 -30.1936 30.5212)"/><ellipse cx="59.6" cy="107.8" rx="1.5" ry="1.5" transform="matrix(.915 -.4035 .4035 .915 -38.443 33.2175)"/><ellipse cx="37.1" cy="103.7" rx="1.5" ry="1.5" transform="matrix(.915 -.4034 .4034 .915 -38.6905 23.7875)"/><ellipse cx="87.6" cy="97.9" rx="1.5" ry="1.5" transform="matrix(.915 -.4035 .4035 .915 -32.0561 43.677)"/><ellipse cx="78.1" cy="92.5" rx="1.5" ry="1.5" transform="matrix(.915 -.4035 .4035 .915 -30.6869 39.387)"/><ellipse cx="96.4" cy="64.7" rx="1.5" ry="1.5" transform="matrix(.915 -.4035 .4035 .915 -17.9188 44.4079)"/><ellipse cx="100.8" cy="47.5" rx="1.5" ry="1.5" transform="matrix(.915 -.4035 .4035 .915 -10.6029 44.7147)"/><ellipse cx="76" cy="61.9" rx="1.5" ry="1.5" transform="matrix(.915 -.4035 .4035 .915 -18.5152 35.9352)"/><ellipse cx="97.6" cy="29.7" rx="1.5" ry="1.5" transform="matrix(.915 -.4035 .4035 .915 -3.6974 41.9192)"/><ellipse cx="89.3" cy="20.2" rx="1.5" ry="1.5" transform="matrix(.9149 -.4036 .4036 .9149 -.5635 37.7662)"/><ellipse cx="107.6" cy="56.8" rx="1.5" ry="1.5" transform="matrix(.915 -.4035 .4035 .915 -13.7802 48.258)"/><ellipse cx="101.1" cy="79.7" rx="1.5" ry="1.5" transform="matrix(.915 -.4035 .4035 .915 -23.5784 47.5774)"/><ellipse cx="86" cy="55.7" rx="1.5" ry="1.5" transform="matrix(.915 -.4035 .4035 .915 -15.1676 39.4505)"/><path d="m54.7 26.5h.2v22.7h-.2z" transform="matrix(.9896 -.1437 .1437 .9896 -4.8719 8.2704)"/><path d="m56.9 49.8-.1-.2 12.6-7.3.1.2z"/><path d="m61.7 71.1h-.1l-5.7-21.5.2-.1z"/><path d="m50.7 42.9h.2v11.5h-.2z" transform="matrix(.08203596 -.9966 .9966 .08203596 -1.8183 95.234)"/><path d="m78.7 25.1-24.1 1.6v-.2l24.1-1.6z"/><path d="m69.6 42.2-.1-.1 9.1-17.2.2.1z"/><path d="m89.9 20.7h.2v31.1h-.2z" transform="matrix(.7239 -.6899 .6899 .7239 -.1872 72.1307)"/><path d="m82.6 24.6h.2v30.7h-.2z" transform="matrix(.9763 -.2162 .2162 .9763 -6.6827 18.827)"/><path d="m65.7 44h.2v22.6h-.2z" transform="matrix(.5521 -.8338 .8338 .5521 -16.6479 79.6854)"/></g></g><path d="m28.5 76.8 14.9-29.7c-4.5 2.2-9.7 4-15.9 5.4l5.1-10c3.6-.8 7.3-2.2 11.3-4.1 3.8-1.8 7.1-4.1 9.8-7.1h10.5l-22.9 45.5z" fill="#efce00"/><path d="m42.8 76.8c2.5-4 5.5-7.3 9-10.1 3.3-2.6 9-6.1 17-10.5 6.2-3.4 10.1-5.7 11.7-6.8 3.1-2.3 4.6-4.4 4.6-6.4 0-1.5-1.3-2.3-4-2.3-2.2 0-4.1.6-5.6 1.9-1.1.9-2.4 2.6-3.8 4.9l-12.3-1c3.7-5.7 7.8-9.6 12.3-11.8 4.6-2.2 9.3-3.2 14.3-3.2 5.6 0 9.4 1.2 11.4 3.7 1 1.3 1.6 2.8 1.6 4.5 0 1.5-.4 3.2-1.3 5-1.7 3.5-4.8 6.8-9.1 10-2.8 2.1-6.9 4.6-12.3 7.4-4.4 2.4-7.2 3.9-8.3 4.7l-.3.1h18.7l-5.1 10h-38.5z" fill="#efce00"/><g fill="#f5af1c"><path d="m86.6 65.4c-1.1-1.8-2.8-4.1-4.8-6.6l-.4.2c1.3 1.7 2.4 3.2 3.2 4.5 4.3 7.1 6.5 13.2 6.5 18.2 0 2.9-.8 5.1-2.4 6.7s-3.8 2.4-6.7 2.4c-8 0-27.8-14.8-39.2-24.4v6.6c12.9 10.8 32 22.6 41 22.6 3.2 0 5.6-.9 7.4-2.6 1.8-1.8 2.6-4.2 2.6-7.4-.1-5.5-2.4-12.3-7.2-20.2z"/><path d="m61.4 36.8-.1.2 3 3 .2-.2c-1-1-2.2-2.1-3.1-3z"/><path d="m71.7 47.4-.4.1c1.5 1.6 3 3.3 4.4 4.9l.3-.2c-1.4-1.7-2.8-3.3-4.3-4.8z"/><path d="m28.9 20.9c-3.2 0-5.6.9-7.3 2.6s-2.6 4.2-2.6 7.3c0 5.6 2.3 12.2 6.8 19.8 4.2 7.1 10.5 15.8 17.4 22.7l6.8.8c-6-6.2-16.6-18.1-20.3-24.3-3.9-6.7-5.9-12.5-5.9-17.4 0-2.9.8-5.1 2.4-6.7s3.8-2.4 6.7-2.4c5.9 0 12.7 2.6 20.6 7.9h1.1c-10-6.8-18.5-10.3-25.7-10.3z"/><ellipse cx="35.1" cy="22.3" rx="3" ry="5.8" transform="matrix(.7798 -.626 .626 .7798 -6.2388 26.9034)"/><ellipse cx="90.3" cy="73.5" rx="2" ry="3.9" transform="matrix(.7798 -.626 .626 .7798 -26.1585 72.6879)"/><ellipse cx="67.2" cy="86.9" rx="3.9" ry="7.7" transform="matrix(.7798 -.626 .626 .7798 -39.6271 61.2021)"/></g></svg>