<?xml version="1.0" encoding="utf-8"?>
<!-- Generator: Adobe Illustrator 22.0.1, SVG Export Plug-In . SVG Version: 6.00 Build 0)  -->
<svg version="1.1" id="Capa_1" xmlns="http://www.w3.org/2000/svg" xmlns:xlink="http://www.w3.org/1999/xlink" x="0px" y="0px"
	 viewBox="0 0 387.4 387.4" style="enable-background:new 0 0 387.4 387.4;" xml:space="preserve">
<style type="text/css">
	.st0{display:none;fill:#FFED00;}
	.st1{fill:#D51317;stroke:#FFFFFF;stroke-width:5.6693;stroke-miterlimit:10;}
	.st2{fill:#FFFFFF;}
</style>
<ellipse class="st0" cx="202.6" cy="128.4" rx="184.3" ry="138.3"/>
<g>
	<path d="M193.7,0C86.7,0,0,86.7,0,193.7s86.7,193.7,193.7,193.7s193.7-86.7,193.7-193.7S300.7,0,193.7,0z"/>
</g>
<circle class="st1" cx="193.7" cy="193.7" r="158.3"/>
<path class="st2" d="M72.3,160.9c0,0,29.9,2.6,62.3,29.5c19.8,16.5,14.1,39.3,10.3,51.8c-3.8,12.5-10.9,36.9-63,96.8
	c-11,12.7,0.4-12.9,0.4-12.9s34.4-82.4,30.6-105.5c0,0,0.8-18.9-39.9-54.9C65.6,159,72.3,160.9,72.3,160.9z"/>
<path class="st2" d="M124.5,312.2c0,0,8-28.9,40.4-55.8c19.9-16.4,41.2-6.6,52.8-0.6s34.3,17.5,83.6,79.7
	c10.5,13.2-12.6-2.8-12.6-2.8s-74.7-49-98.1-49.5c0,0-18.4-4.2-61.3,29.1C121.4,318.4,124.5,312.2,124.5,312.2z"/>
<path class="st2" d="M286,295.5c0,0-25.1-16.5-40.6-55.7c-9.5-24,6.4-41.2,15.7-50.4c9.3-9.2,27.2-27.2,101.6-54.9
	c15.8-5.9-6.6,11.1-6.6,11.1s-69.6,56-77.3,78c0,0-9.7,16.2,8.8,67.3C291,300.4,286,295.5,286,295.5z"/>
<path class="st2" d="M321.5,139.9c0,0-23.9,18.2-65.9,20c-25.8,1.1-36.8-19.6-42.4-31.4s-16.8-34.6-18.4-114
	c-0.4-16.8,8.3,9.9,8.3,9.9s30,84.2,48.3,98.7c0,0,12.1,14.5,66.5,13.8C327.8,136.8,321.5,139.9,321.5,139.9z"/>
<path class="st2" d="M184.6,64c0,0,8,28.9-6.1,68.6c-8.6,24.3-32,26.8-45,27.6s-38.4,2.6-112.6-25.5c-15.7-6,12.3-4.1,12.3-4.1
	s89.3,3.7,109.6-7.8c0,0,18-5.8,37.7-56.4C184,57,184.6,64,184.6,64z"/>
</svg>
