<svg enable-background="new 0 0 113.4 113.4" viewBox="0 0 113.4 113.4" xmlns="http://www.w3.org/2000/svg"><circle cx="56.7" cy="56.7" fill="#111" r="56.7"/><g fill="#fff"><circle cx="56.7" cy="56.7" r="45.7"/><path d="m22.7 95.1 1 .9c-.1.2-.2.3-.3.3-.2.2-.5.4-.7.5s-.5 0-.8-.1c-.3-.2-.7-.5-1.3-1.1s-1-1-1.3-1.3c-.2-.3-.4-.5-.5-.7s-.1-.3 0-.5c0-.2.1-.3.3-.5.1-.2.4-.4.7-.8s.6-.6.8-.8.3-.3.4-.3c.3-.1.6-.1.9.1s.9.7 1.7 1.5c.4.4.7.7.9.9s.3.4.4.5c.1.2.1.4 0 .6s-.2.4-.5.7c0 0-.1.1-.2.2l-1-.9c.1-.1.2-.2.2-.2v-.1c0-.1-.1-.2-.2-.3-.1-.2-.4-.4-.7-.7s-.5-.5-.7-.6c-.1-.1-.2-.1-.3-.2-.1 0-.2 0-.3.1s-.3.3-.5.5-.4.4-.5.5-.1.2-.1.3.1.2.2.3.3.3.6.6c.4.4.6.6.8.7.1.1.2.2.3.2.4 0 .5-.1.7-.3z"/><path d="m26.8 96.4c.4.3.7.6.9.8s.3.4.4.6.1.4 0 .5c-.1.2-.2.4-.4.7-.2.2-.3.4-.4.5s-.2.2-.3.3c-.3.2-.6.2-.9 0-.3-.1-.7-.4-1.2-.8s-.8-.6-1-.8-.3-.4-.3-.6 0-.4 0-.5c.1-.2.3-.5.5-.8.2-.2.3-.4.4-.5s.2-.2.3-.2c.2-.1.5-.1.8 0 .2.2.6.4 1.2.8zm-.6.7c-.3-.2-.5-.4-.7-.4-.1 0-.2 0-.3.1s-.2.2-.3.3c-.1.2-.2.3-.2.4v.3l.6.6c.4.3.6.4.8.4s.3-.1.5-.4c.1-.2.2-.3.2-.4s0-.2 0-.3c-.1-.2-.3-.3-.6-.6z"/><path d="m30.2 101.4 1 .6c-.2.3-.4.4-.6.5-.2 0-.4 0-.7-.1s-.6-.3-1.1-.6c-.4-.2-.7-.4-.9-.6s-.3-.3-.4-.5-.1-.4 0-.6.2-.5.4-.8.3-.4.4-.6c.1-.1.2-.2.3-.3.2-.1.5-.2.8-.1s.7.3 1.2.6c.4.3.7.5.9.6.3.3.4.5.4.8s-.1.6-.4 1.1c0 0-.1.1-.2.3l-2.6-1.6c-.1.1-.1.2-.2.3s0 .1 0 .2c.1.1.3.3.6.5.2.1.4.2.5.3s.2.1.3.1c.2 0 .3 0 .3-.1zm.6-.8c.1-.1.1-.2.1-.2v-.1c0-.1-.2-.3-.6-.6-.3-.2-.6-.3-.7-.3s-.3.1-.4.3z"/><path d="m33.4 99.3 1 .5-2.1 3.9-1-.5z"/><path d="m34.3 101.2 1.1.5-1.4 2.8-1.1-.5zm.6-1.1 1.1.5-.4.8-1.1-.5z"/><path d="m37.8 101.5 1.3.5-1.1 3.1 2.9 1.1-.4 1.1-4.3-1.6z"/><path d="m45.2 108.4-1.1-.3.1-.5h-.1c-.1.2-.3.3-.5.3s-.5 0-.9-.1-.6-.2-.8-.3-.3-.3-.4-.4c-.1-.2-.1-.4-.1-.5 0-.2.1-.5.2-.9l.4-1.4 1.1.3-.4 1.4c-.1.2-.1.4-.1.5s0 .2.1.3c0 .1.1.1.2.2s.3.1.5.2c.4.1.6.1.8 0 .1 0 .2-.1.2-.2.1-.1.1-.3.2-.6l.3-1.2 1.1.3z"/><path d="m46.3 105.5 1.6.3.4.9.8-.7 1.5.2-1.5 1.2 1.1 1.9-1.5-.2-.6-1.2h-.1l-.9.9-1.4-.2 1.6-1.4z"/><path d="m52.7 105.1h2.4l2.2 3.3h.1v-3.3h1.4l-.1 4.4h-2.3l-2.3-3.3h-.1v3.3h-1.4z"/><path d="m61.5 106.2c.5-.1.9-.1 1.2-.1s.5.1.6.2c.2.1.3.2.4.4s.1.5.2.8v.7s0 .3-.1.4c-.1.3-.3.5-.6.6s-.7.2-1.4.2c-.6.1-1 .1-1.3.1s-.5-.1-.6-.2c-.2-.1-.3-.3-.3-.4-.1-.2-.1-.5-.2-1 0-.3 0-.5 0-.6s0-.3.1-.4c.1-.2.3-.4.6-.5s.7-.1 1.4-.2zm.1.9c-.4 0-.6.1-.8.2-.1.1-.2.1-.2.2v.5s.1.3.1.4.1.1.2.2c.2.1.4.1.8 0 .4 0 .7-.1.8-.2s.2-.3.1-.6c0-.2-.1-.4-.1-.4s-.1-.2-.2-.2c-.1-.2-.3-.2-.7-.1z"/><path d="m64.5 108.1 1.2-.2c0 .1.1.2.3.2.1 0 .4 0 .8-.1s.6-.1.7-.2.2-.2.2-.3-.1-.2-.2-.2-.4 0-1 .2c-.6.1-.9.2-1 .2-.4 0-.6 0-.8-.2-.1-.1-.2-.3-.3-.5-.1-.5 0-.8.3-1 .2-.2.8-.3 1.6-.5.5-.1.9-.2 1.2-.2s.4 0 .6.1c.1.1.2.1.2.2.1.1.1.2.2.4l-1.2.2c0-.1-.1-.1-.1-.1-.1 0-.4 0-.7.1-.4.1-.6.1-.7.2s-.2.1-.2.2.1.2.3.2c.1 0 .7-.1 1.6-.3.4-.1.8-.1 1 0s .4.3.4.7v.6s-.1.3-.3.4c-.2.2-.8.4-1.7.5-.6.1-1 .2-1.2.2-.3 0-.5 0-.6-.1-.4-.1-.6-.4-.6-.7z"/><path d="m68.8 104.3 1.1-.3.2.7 1.8-.5.2.8-1.8.5.3.9c.1.2.1.4.2.4.1.1.2.1.4 0s .3-.1.4-.3v-.1s0-.1-.1-.3l1-.3c.1.3.1.5.1.6s0 .3-.1.4c-.1.2-.2.3-.4.4s-.5.2-.9.3-.6.2-.8.2-.4 0-.5-.1-.2-.1-.2-.2c-.1-.1-.1-.2-.2-.4 0-.1-.1-.2-.1-.5l-.2-.9-.6.2-.2-.8.6-.2z"/><path d="m72.4 104 1-.4.2.4h.1c0-.2.1-.4.3-.6.1-.1.4-.3.7-.4.4-.2.8-.2 1-.1s.4.4.6.8c0 0 0 .1.1.2l-1 .4c-.1-.2-.1-.3-.2-.3-.1-.1-.3-.1-.6 0s-.4.2-.5.4v.3s.1.3.2.5l.5 1.2-1.1.4z"/><path d="m77.6 103-1.1.5c-.1-.2-.1-.4-.1-.6s.2-.5.4-.6c.2-.2.7-.4 1.3-.7.5-.2.8-.4 1-.4s.4 0 .5 0 .3.1.3.2c.1.1.2.3.3.6l.8 1.7-1 .5-.2-.4c0 .2-.1.4-.2.5s-.2.2-.3.3c-.2.1-.4.2-.8.4-.3.1-.5.2-.7.3-.2 0-.3 0-.5 0-.2-.1-.4-.2-.5-.5-.2-.3-.2-.6-.1-.8s.2-.3.4-.5c.2-.1.6-.3 1.1-.6.2-.1.4-.2.5-.2h.4l-.1-.1c-.1-.2-.2-.3-.3-.4-.1 0-.3 0-.6.2-.4.2-.6.3-.7.4.1-.1.1.1.2.2zm1 .4c-.4.2-.6.3-.6.4-.1.1-.1.2 0 .3s.1.2.3.2.3-.1.6-.2c.4-.2.6-.3.7-.4s.1-.2.1-.3c-.1-.1-.1-.2-.3-.2-.1-.1-.4 0-.8.2z"/><path d="m83.5 102.4-2.4-3.7 2.7-1.8c.5-.3.8-.5.9-.6.2-.1.3-.2.5-.2.4-.2.8-.1 1.1.1l.4.4c.1.1.3.4.5.7s.4.6.5.8.2.4.2.5c.1.4 0 .7-.3 1-.1.1-.3.3-.5.4s-.5.3-.9.6zm.5-1.7 1.6-1c .3-.2.5-.3.6-.4s.2-.2.2-.3 0-.2 0-.3-.2-.3-.3-.5c-.2-.2-.3-.4-.4-.5s-.2-.2-.3-.2-.2 0-.4 0c-.1.1-.4.2-.7.4l-1.5 1z"/><path d="m92.2 96-.8.7-.3-.4c.1.2 0 .4-.1.6s-.3.4-.6.7c-.3.2-.5.4-.7.5s-.4.1-.6.1-.4-.1-.5-.2-.4-.3-.6-.7l-.9-1.1.9-.8.9 1.1c.1.2.3.3.3.4.1.1.2.1.3.1s.2 0 .3-.1.2-.1.4-.3c.3-.2.5-.5.5-.6s0-.2-.1-.3-.2-.3-.4-.5l-.8-1 .9-.8z"/><path d="m90.4 93.4 1.1-1.1 1 .2-.1-1 1.1-1.1.1 1.9 2.2.2-1.1 1.1-1.3-.2.2 1.3-1 1-.2-2.1z"/><path d="m10.3 71.8-4.8 1.2-.8-3.2c-.2-.6-.3-1.1-.3-1.3-.1-.5 0-.8.2-1.1.2-.2.6-.4 1.2-.6s1-.2 1.3-.1c.2.1.3.1.5.3s.2.4.4.6c.1.2.2.6.3 1.1l.5 1.8 1.2-.3zm-2.7-.9-.5-1.8c-.1-.3-.1-.5-.2-.6 0-.1-.1-.1-.1-.2-.1-.1-.1-.1-.2-.1s-.2 0-.4.1c-.2 0-.3.1-.4.1-.1.1-.1.1-.1.2s0 .3.2.8l.5 1.8z"/><path d="m8.1 60.5-.8.5.4 3.2.9.3.2 1.7-5.2-2-.3-2.3 4.6-3.2zm-1.8 1.2-1.7 1.2v.3l2 .7z"/><path d="m3 58.5.1-2.6 3.7-2.5v-.2l-3.7-.1v-1.5l4.9.1-.1 2.6-3.7 2.5v.2l3.7.1v1.5z"/><path d="m3.9 47c .2-1 .4-1.8.5-2.1.2-.6.5-.8 1-.9.3 0 .9 0 1.6.2.8.1 1.3.3 1.6.4.4.2.6.6.6 1.2 0 .4-.1 1.1-.3 2.2s-.4 1.8-.5 2.2c-.2.6-.5.8-1 .9-.3 0-.9 0-1.7-.2-.7-.1-1.3-.3-1.6-.4-.4-.2-.6-.6-.6-1.2.1-.6.2-1.3.4-2.3zm1.2.2c-.1.8-.2 1.3-.2 1.4 0 .2.1.3.3.4s.5.2 1 .3c.3.1.5.1.7.1.3 0 .4-.2.5-.5.1-.2.2-.6.3-1.3.1-.6.2-1 .2-1.2s0-.4-.1-.5-.1-.2-.3-.2c-.1-.1-.3-.1-.6-.2s-.6-.1-.8-.1-.3 0-.4.1-.2.2-.3.4c0 .2-.1.6-.3 1.3z"/><path d="m9.3 38.9.5-1.4c.2.1.4.1.4.1.4.1.6.3.8.4.2.2.3.5.2.9 0 .4-.2 1-.5 1.8-.3.9-.5 1.5-.7 1.9s-.3.6-.5.8c-.1.1-.3.2-.5.3-.2 0-.4 0-.7 0-.2-.1-.6-.2-1.2-.4-.5-.2-.9-.3-1.2-.4-.2-.1-.4-.2-.5-.3-.3-.2-.4-.6-.3-1 0-.4.3-1.2.7-2.4.2-.6.4-1 .5-1.3s.2-.5.4-.6c.2-.2.4-.3.6-.3s.5 0 .9.2c0 0 .1 0 .2.1l-.5 1.4c-.2 0-.3-.1-.3-.1-.1 0-.1 0-.2 0s-.1.2-.2.4-.2.5-.4 1c-.2.4-.2.8-.3.9v.4c0 .1.1.2.3.3s.4.2.8.3.6.2.8.2.3 0 .4-.1.2-.2.3-.3c.1-.2.2-.5.3-.9.2-.5.3-.9.3-1.1s0-.3 0-.4c.1-.2-.1-.3-.4-.4z"/><path d="m7.4 35.4 2.4-4.9 1 .5-1.8 3.6.6.3 1.7-3.4 1 .5-1.7 3.4.7.3 1.8-3.6 1.1.5-2.4 5z"/><path d="m17.4 27.8-.9-.1-1.8 2.7.5.8-1 1.4-2.6-4.9 1.3-1.9 5.5.6zm-2.1-.3-2.1-.3-.2.2 1 1.8z"/><path d="m15 22.8 1.8-1.9 4.4.6.1-.1-2.7-2.5 1-1.1 3.6 3.3-1.8 1.9-4.5-.6-.1.1 2.7 2.5-1 1.1z"/><path d="m20.6 17 1.2-1 3.3 3.7-1.2 1z"/><path d="m29.9 16-.8-.4-2.6 1.9.1.9-1.4 1-.8-5.6 1.9-1.4 5 2.5zm-1.9-1-1.9-1-.2.2.3 2.1z"/><path d="m29.2 10.6 4.8-2.6.5 1-3.5 1.9.3.6 3.3-1.8.5 1-3.3 1.8.4.7 3.5-1.9.6 1-4.8 2.6z"/><path d="m42.5 8.1 1.4-.5c.1.2.1.4.2.4.1.4.2.7.1.9 0 .3-.2.5-.5.7s-.9.4-1.7.7c-.9.3-1.5.5-1.9.6s-.7.1-.9.1-.4-.1-.5-.2-.3-.3-.4-.6c-.1-.2-.2-.6-.4-1.1s-.3-.9-.4-1.2c-.1-.2-.1-.4-.1-.6 0-.3.2-.6.6-.8s1.2-.5 2.4-.9c.6-.2 1-.3 1.3-.4s.5-.1.7-.1.4.1.6.3.3.4.4.8c0 0 0 .1.1.2l-1.4.5c-.1-.2-.1-.3-.1-.3l-.1-.1c-.1 0-.2 0-.4 0-.2.1-.6.1-1 .3-.4.1-.8.3-.9.3-.2.1-.3.2-.3.2-.1.1-.1.2-.1.4s.1.4.2.8.2.6.3.7.2.2.3.3h.4s.5-.1.9-.3c.5-.2.9-.3 1.1-.4s.3-.2.3-.2c-.1 0-.1-.2-.2-.5z"/><path d="m44.2 4.4 1.6-.3.3 1.7 3.3-.6-.3-1.7 1.6-.3.9 4.8-1.6.3-.3-1.8-3.3.6.3 1.8-1.6.3z"/><path d="m52.2 8.1-.2-4.9 3.6-.1h1.5s.3.1.5.2.3.3.4.5.1.5.1.9 0 .6 0 .8-.1.3-.2.4-.3.2-.6.2c.3 0 .5.1.7.2.1.1.1.2.2.3 0 .1 0 .4.1.8v.5h-1.5v-.3c0-.3 0-.5 0-.6s-.1-.2-.1-.3c-.1.1-.2.1-.3.1s-.3 0-.6 0h-2.1v1.3zm1.4-2.5 2.1-.1h.7s.1 0 .2-.1c.1 0 .1-.1.1-.2s0-.2 0-.4 0-.3-.1-.4c0-.1-.1-.1-.2-.2-.1 0-.1 0-.2 0s-.3 0-.6 0l-2.1.1z"/><path d="m59.2 3.1 1.6.1-.3 4.9-1.6-.1z"/><path d="m61.3 6.5 1.4.2c0 .2 0 .4.1.5s.2.1.3.1.5.1 1.1.2 1 .1 1.1.2h.3c.1 0 .2-.1.2-.3 0-.1 0-.2-.1-.3s-.2-.1-.5-.2c-.2 0-.6-.1-1.2-.2s-1-.2-1.2-.2c-.4-.1-.6-.1-.8-.2s-.3-.2-.4-.3c-.2-.2-.2-.6-.1-1.1s.3-.9.5-1.1.4-.2.8-.2 1 .1 2 .2c.7.1 1.2.2 1.5.3.4.1.7.3.9.5.1.2.2.5.1 1v .2l-1.4-.2c0-.1 0-.2 0-.3s0-.1-.1-.1-.2-.1-.3-.1c-.2 0-.5-.1-1-.2-.6-.1-1-.1-1.2-.1-.1 0-.2.1-.3.3 0 .2 0 .3.2.3.1 0 .6.2 1.6.3.8.1 1.3.3 1.6.3.3.1.5.2.6.3.2.1.3.3.3.5s0 .5 0 .8c-.1.5-.2.8-.3 1-.1.1-.3.3-.4.3-.2.1-.4.1-.7.1s-.9-.1-1.8-.2c-.7-.1-1.3-.2-1.6-.3s-.6-.2-.8-.3-.3-.3-.3-.5 0-.4 0-.8z"/><path d="m68.7 4.4 5.7 1.7-.4 1.2-2.1-.6-1 3.5-1.5-.4 1-3.5-2.1-.6z"/><path d="m75.2 6.4 1.5.6-1.8 4.6-1.5-.6z"/><path d="m79.9 8.2 2.4 1.4-.3 3.5 2.9-2 2.3 1.4-2.5 4.3-1.3-.7 1.9-3.2-.2-.1-3.5 2.3-1.1-.6.2-4.1-.2-.1-1.8 3.2-1.3-.7z"/><path d="m88.1 13.3 1.3.9-2.9 3.9-1.3-.9z"/><path d="m90.4 14.9 1.2 1-2.4 2.8 2.6 2.3-.8.9-3.8-3.4z"/><path d="m94.7 18.9 1.1 1.1-3.5 3.4-1.1-1.1z"/><path d="m96.5 20.6 3.7 4.6-1 .8-1.4-1.7-2.9 2.3-1-1.2 2.9-2.3-1.4-1.7z"/><path d="m100.8 26.1.8 1.3-1.9 1.2c-.4.3-.7.5-.8.6s-.2.3-.1.5.3.6.6 1.1c.3.4.5.7.6.9s.3.2.4.3h.3s.2-.1.4-.2.4-.2.5-.3l1.9-1.2.8 1.3-1.9 1.2c-.7.4-1.1.6-1.4.7-.4.2-.7.2-1.1 0-.2-.1-.4-.3-.6-.6s-.5-.8-.9-1.4c-.3-.5-.5-.9-.7-1.2s-.3-.5-.3-.8c-.2-.5-.1-.9.3-1.3.1-.1.3-.2.4-.3s.4-.3.9-.6z"/><path d="m104.8 32.8 1 2.5-2.4 2.5 3.5.2 1 2.5-4.6 1.8-.5-1.4 3.4-1.3-.1-.2-4.1-.4-.5-1.2 2.7-3.1-.1-.2-3.4 1.4-.5-1.4z"/><path d="m109.5 47.4c.2 1 .3 1.8.3 2.2 0 .6-.2 1-.6 1.2-.3.1-.8.3-1.6.4s-1.3.2-1.6.2c-.5 0-.8-.3-1-.9-.1-.4-.3-1.1-.5-2.1-.2-1.1-.3-1.8-.3-2.2 0-.6.2-1 .6-1.2.3-.1.8-.3 1.6-.4.7-.1 1.3-.2 1.6-.1.5 0 .8.3 1 .9.2.2.3.9.5 2zm-1.2.2c-.1-.8-.2-1.3-.3-1.4-.1-.2-.2-.3-.4-.3s-.5 0-1 .1c-.3.1-.5.1-.6.2-.2.1-.3.3-.3.6 0 .2.1.7.2 1.3s.2 1 .2 1.2c.1.2.1.3.2.4s.2.1.3.1.3 0 .6-.1.6-.1.8-.2.3-.1.3-.2c.1-.1.1-.2.1-.4s0-.6-.1-1.3z"/><path d="m105.2 52.2 4.9-.2.1 3.6v1.5c0 .2-.1.3-.2.5s-.3.3-.5.4-.5.1-.9.1-.6 0-.8 0-.3-.1-.4-.2-.2-.3-.2-.6c0 .3-.1.5-.2.7-.1.1-.2.1-.3.2-.1 0-.4 0-.8.1h-.5v-1.5h.3.6c.1 0 .2-.1.3-.1.1-.1.1-.1.1-.2s0-.3 0-.6l-.1-2.1h-1.3zm2.5 1.4.1 2.1v.7s0 .1.1.2c0 .1.1.1.2.1h.4c.2 0 .3 0 .4-.1.1 0 .1-.1.2-.2 0-.1 0-.1 0-.2s0-.3 0-.6l-.1-2.1z"/><path d="m105.4 58.9 4.9.5-.4 3.5c-.1.6-.1 1-.1 1.2s-.1.4-.1.6c-.2.5-.5.8-.9.9-.2 0-.4.1-.6 0-.2 0-.5 0-.9-.1-.4 0-.8-.1-1-.1s-.4-.1-.6-.2c-.4-.2-.6-.5-.7-1 0-.2 0-.4 0-.7 0-.2 0-.6.1-1.2zm1.1 1.6-.2 2.1c0 .4-.1.7-.1.8 0 .2 0 .3.1.4s.2.2.3.2.4.1.7.1.5 0 .7 0 .3 0 .4-.1.2-.2.2-.3c0-.2.1-.5.1-.9l.2-2.1z"/><path d="m108.5 70.4c-.3 1-.5 1.7-.6 2.1-.2.5-.6.8-1.1.8-.3 0-.9-.1-1.6-.3s-1.3-.4-1.5-.5c-.4-.2-.6-.7-.5-1.2.1-.4.2-1.1.5-2.1s.5-1.7.6-2.1c.2-.5.6-.8 1.1-.8.3 0 .9.1 1.6.3s1.2.4 1.5.5c.4.2.6.7.5 1.2 0 .4-.2 1.1-.5 2.1zm-1.2-.3c.2-.8.3-1.2.3-1.4s-.1-.3-.2-.4-.5-.2-.9-.3c-.3-.1-.5-.1-.6-.1-.3 0-.4.1-.6.4-.1.2-.2.6-.4 1.2s-.2 1-.3 1.2v.5c0 .1.1.2.2.2.1.1.3.1.6.2s.6.1.8.2.3 0 .4 0 .2-.2.3-.3c.1-.3.2-.7.4-1.4z"/></g><circle cx="56.7" cy="28.8" fill="#201f22" r="15"/><path d="m56.7 21.7-3.1-1.4 3.1 8.5 3-8.5z" fill="#fff"/><path d="m63.7 28.8 1.4-3.1-8.4 3.1 8.4 3z" fill="#fff"/><path d="m56.7 35.8 3 1.4-3-8.4-3.1 8.4z" fill="#fff"/><path d="m49.6 28.8-1.4 3 8.5-3-8.5-3.1z" fill="#fff"/><circle cx="40.8" cy="78.8" fill="#040404" r="15"/><circle cx="40.8" cy="78.8" fill="#fff" r="12.1"/><g fill="#c10e20"><path d="m38.2 73.9h-1.2v-1.2h-1.2v1.2h-1.2v1.2h1.2v1.2h1.2v-1.2h1.2z"/><path d="m46.9 73.9h-1.2v-1.2h-1.2v1.2h-1.2v1.2h1.2v1.2h1.2v-1.2h1.2z"/><path d="m38.2 82.5h-1.2v-1.2h-1.2v1.2h-1.2v1.2h1.2v1.2h1.2v-1.2h1.2z"/><path d="m47 82.5h-1.3v-1.2h-1.2v1.2h-1.2v1.2h1.2v1.2h1.2v-1.2h1.3z"/><path d="m50.8 82.5v-7.4h-2.5v2.5h-6.3v-6.3h2.5v-2.5h-7.4v2.5h2.5v6.3h-6.4v-2.5h-2.4v7.4h2.4v-2.5h6.4v6.4h-2.5v2.4h7.4v-2.4h-2.5v-6.4h6.3v2.5z"/></g><circle cx="73.5" cy="78.8" r="15"/><circle cx="73.5" cy="78.8" fill="#029bd8" r="14.7"/><circle cx="73.5" cy="78.8" r="11.7"/><circle cx="73.5" cy="78.8" fill="#fff" r="11.4"/><path d="m83.6 78.8-2.1-1.2h-.9s.5-.3.5-1.1-.8-1.3-1.6-1.3-1.4.4-1.5 1.3c.3-.1.6-.4.8.2.2.8-.3.7-.8.7-.4 0-2.7 0-3.2 0 0-.5 0-2.8 0-3.2 0-.5-.1-1 .7-.8.6.2.3.6.2.8.9-.1 1.3-.7 1.3-1.5s-.5-1.6-1.3-1.6-1.1.5-1.1.5v-.9l-1.1-1.9-1.2 2.1v.9s-.3-.5-1.1-.5-1.3.8-1.3 1.6.4 1.4 1.3 1.5c-.1-.3-.4-.6.2-.8.8-.2.7.3.7.8v3.2c-.5 0-2.8 0-3.2 0-.5 0-1 .1-.8-.7.2-.6.6-.3.8-.2-.1-.9-.7-1.3-1.5-1.3s-1.6.5-1.6 1.3.5 1.1.5 1.1h-.9l-1.9 1 2.1 1.2h.9s-.5.3-.5 1.1.8 1.3 1.6 1.3 1.4-.4 1.5-1.3c-.3.1-.6.4-.8-.2-.2-.8.3-.7.8-.7h3.2v3.2c0 .5.1 1-.7.8-.6-.2-.3-.6-.2-.8-.9.1-1.3.7-1.3 1.5s.5 1.6 1.3 1.6 1.1-.5 1.1-.5v.9l1.2 2.1 1.2-2.1v-.9s.3.5 1.1.5 1.3-.8 1.3-1.6-.4-1.4-1.3-1.5c.1.3.4.6-.2.8-.8.2-.7-.3-.7-.8 0-.4 0-2.7 0-3.2h3.2c.5 0 1-.1.8.7-.2.6-.6.3-.8.2.1.9.7 1.3 1.5 1.3s1.6-.5 1.6-1.3-.5-1.1-.5-1.1h.9z"/><path d="m78.5 78.1h-4.2v-4.3h-1.5v4.3h-4.3v1.5h4.3v4.2h1.5v-4.2h4.2z" fill="#c84142"/><circle cx="82.7" cy="48" fill="#101111" r="15"/><circle cx="82.7" cy="48" fill="#fff" r="14.7"/><circle cx="82.7" cy="48" fill="#101111" r="12"/><circle cx="82.7" cy="48" fill="#fff" r="11.7"/><path d="m84.8 45.8v-.4-8.8c-.7-.1-1.4-.2-2.2-.2s-1.5.1-2.2.2v8.8.4h-.4-8.8c-.1.7-.2 1.4-.2 2.2s.1 1.5.2 2.2h8.8.4v.4 8.8c.7.1 1.4.2 2.2.2s1.5-.1 2.2-.2v-8.8-.4h.4 8.8c.1-.7.2-1.4.2-2.2s-.1-1.5-.2-2.2h-8.8z" fill="#101111"/><path d="m85.3 45.4h8.8c-.1-.5-.2-.9-.4-1.4h-7v-7c-.4-.2-.9-.3-1.4-.4z" fill="#101111"/><path d="m85.3 50.6v8.8c.5-.1.9-.2 1.4-.4v-7h7c .2-.4.3-.9.4-1.4z" fill="#101111"/><path d="m80.1 50.6h-8.8c.1.5.2.9.4 1.4h7v7c .4.2.9.3 1.4.4z" fill="#101111"/><path d="m80.1 45.4v-8.8c-.5.1-.9.2-1.4.4v7h-7c-.2.4-.3.9-.4 1.4z" fill="#101111"/><circle cx="30.7" cy="48" fill="#241e1b" r="15"/><path d="m30.7 33.2c8.2 0 14.8 6.6 14.8 14.8-.1 8.2-6.7 14.8-14.8 14.8s-14.8-6.6-14.8-14.8c0-8.1 6.6-14.8 14.8-14.8zm14.5 14.8c0-8-6.6-14.5-14.6-14.5-8.1.1-14.5 6.4-14.5 14.5 0 8 6.5 14.5 14.5 14.5 8.1 0 14.6-6.5 14.6-14.5z" fill="#c31f27"/><path d="m30 39.7c-.2.1-.4.2-.6.1-.2-.2-.4-.5-.3-.8.1-.4.3-.9.7-1.1.4-.3.7-.7.9-1.2.2.6.6.9 1 1.3.6.5.7 1.2.4 1.7-.1 0-.2.1-.3.1-.2 0-.3 0-.5-.1-.1-.2.1-.4.1-.6-.2-.1-.3.1-.3.2v.6 3.8h1.9c.4 0 .6-.3.6-.6 0-.4-.1-.5-.6-.6.2-.4.5-.5.8-.5s.7.1.7.4c.2.9.9 1.3 1.6 1.6-.3.2-.4.3-.6.4-.4.3-.7.5-.9 1-.1.3-.3.6-.7.6s-.7-.1-1-.5c.3-.1.5-.1.6-.4.2-.4-.1-.8-.5-.8-.6 0-1.2 0-1.9 0-.2.8.2 1.2.8 1.5-.4 4.4-.8 8.9-1.2 13.3h-.1c-.4-4.4-.8-8.9-1.2-13.3.6-.3 1-.7.8-1.5-.6 0-1.3 0-2 0-.3 0-.5.2-.5.5s.1.5.4.6c.1 0 .1 0 .2.1-.3.4-.6.5-1 .5-.3 0-.6-.2-.7-.5-.2-.7-.7-1.1-1.3-1.4-.1 0-.1-.1-.2-.2.2-.1.4-.3.7-.4.4-.2.7-.5.8-1 .1-.4.4-.6.8-.7.4 0 .7.1.9.4 0 .1-.1.1-.2.1-.3.1-.4.2-.4.5s.1.5.3.6.3.1.5.1h1.6c.1-.1.1-.2.1-.3 0-1.3 0-2.5 0-3.8 0-.2 0-.5-.3-.7-.1.6.2.8.1 1z" fill="#c42b2e"/><path d="m31.1 57.5c0-.3.1-.5.1-.8.1-.1.3 0 .4 0h5.9c1.1 0 1.8-.7 1.8-1.8 0-4.5 0-9 0-13.6 0-1-.7-1.7-1.7-1.7-1.6 0-3.2 0-4.8 0-.1 0-.3 0-.4 0 .1-.3.1-.5.1-.8h.3 5.4c1.1 0 1.8.7 1.8 1.8v15.2c0 1-.7 1.7-1.7 1.7-2.3 0-4.6 0-6.9 0-.1 0-.2 0-.3 0z" fill="#c4292c"/><path d="m30.1 56.7c.1.3.1.5.1.8-.1.1-.3 0-.4 0-2.2 0-4.5 0-6.7 0-1.1 0-1.8-.7-1.8-1.8 0-5 0-10 0-15 0-1.2.7-1.9 1.9-1.9h5.2.4c0 .3 0 .6.1.9-.2 0-.4 0-.6 0-1.5 0-3 0-4.5 0-1 0-1.7.7-1.7 1.7v13.6c0 1 .7 1.7 1.7 1.7h5.8z" fill="#c4292c"/></svg>