<svg enable-background="new 0 0 113.4 113.3" viewBox="0 0 113.4 113.3" xmlns="http://www.w3.org/2000/svg"><circle cx="56.8" cy="56.7" fill="#fff" r="55.6"/><g fill="#e67817"><path d="m56.8 0c30.1-.2 56.7 24.2 56.6 56.7-.1 32.3-26.2 56.5-56.4 56.6-32.6.1-57.2-26.5-57-57 .3-31.1 25.9-56.6 56.8-56.3zm28 56.3c.1.1.2.3.3.4-1 1.5-1.9 3.1-2.9 4.5-.7 1-.5 1.5.6 2.1 7.7 4 15.4 8 23 12.1 1.1.6 1.5.2 1.9-.8 3-8.5 3.9-17.2 2.5-26.1-2.1-13.7-8.5-24.9-19.2-33.8-7.6-6.3-16.3-10.1-26-11.7-1.2-.2-1.5.2-1.6 1.4-.1 5.6-.5 11-.7 16.4-.2 3.2-.2 6.4-.4 9.6-.1 1.1.4 1.5 1.5 1.5h3.2c.4 0 1-.2 1.2.3s-.4.7-.7 1c-3.5 2.6-7 5.3-10.4 7.9-.5.4-1 .6-1.6.1-3.7-2.9-7.5-5.7-11.2-8.5-.3-.2-.7-.4-.5-.8.1-.3.5-.3.8-.3h4.6c1 0 1.4-.4 1.4-1.4 0-.4 0-.9 0-1.3-.3-5.5-.5-11-.9-16.4-.2-2.5-.2-5.1-.3-7.6 0-1-.2-1.6-1.6-1.4-10.8 1.9-20.3 6.6-28.2 14.2-8.9 8.5-14.3 18.8-16.1 31-1.4 9.4-.5 18.6 2.9 27.5.3.8.6 1.1 1.5.6 7.9-4.4 15.7-8.8 23.6-13.2.8-.5.9-.9.4-1.6-.9-1.3-1.8-2.6-2.6-3.9-.2-.3-.6-.7-.3-1 .3-.4.7 0 1.1.1 3.7 1.4 7.3 2.8 11 4.3 2.9 1.1 2.9 1.1 2.8 4.2-.2 3.9-.6 7.7-.9 11.6 0 .3 0 .8-.4.8-.3.1-.5-.3-.7-.5-.7-1-1.5-2-2.1-3-.7-1.1-1.4-1.2-2.5-.4-7.2 5-14.5 10-21.7 14.9-1 .7-1.1 1.2-.3 2.2 10.2 12.1 23.3 18.8 39 19.7 10.3.6 20.1-1.7 29.1-6.8 6.3-3.5 11.6-8 16-13.6.5-.6 1.2-1.1 0-1.9-7.6-4.9-15.3-9.8-22.9-14.8-.8-.5-1.2-.4-1.6.4-.5 1-1.1 1.9-1.8 2.9-.2.4-.4.9-.9.9-.5-.1-.4-.7-.5-1.1-.6-4.1-1-8.3-1.7-12.4-.2-1.3.2-1.9 1.3-2.3 3.1-1.2 6.2-2.5 9.3-3.8 1.3-1 2.7-1.6 4.2-2.2z"/><path d="m57 104.1c-12.2.1-22.2-4.1-30.9-11.4-1.4-1.1-2.4-2.5-3.7-3.8-.6-.6-.5-1.1.1-1.6 2.6-1.9 5.2-3.7 7.7-5.6.7-.5 1.2-.4 1.8.2 8 7.8 17.6 11.2 28.8 10.1 5-.5 9.6-2 13.9-4.4 2.6-1.4 4.9-3.5 7-5.5.9-.9 1.6-1 2.6-.2 2.1 1.5 4.4 3 6.6 4.4 1.6 1.1 1.5 1.2.4 2.7-2.1 2.8-5.1 4.5-7.8 6.6-5.1 4-11 6.1-17.2 7.5-3.3.8-6.6.8-9.3 1z"/><path d="m9.5 53.9c.4-7.7 2.9-16.8 8.7-24.8 6.6-9.1 15.5-15.1 26.3-18.3 1.6-.5 1.8-.3 1.9 1.4.2 2.9.3 5.8.5 8.7.1 1.1-.4 1.7-1.4 2-7.9 2.6-13.9 7.7-18.4 14.4-2.7 4-4.4 8.5-5.3 13.4-.9 4.5-.3 8.9.3 13.2.1.9-.2 1.5-1 1.9-2.7 1.5-5.4 3-8.1 4.6-1.1.6-1.4.2-1.7-.8-1.3-4.5-1.7-9.1-1.8-15.7z"/><path d="m104.2 57.3c.3 3.7-.5 7.7-1.6 11.6-.3 1.2-.8 1.2-1.7.7-2.7-1.4-5.4-2.8-8.1-4.2-.8-.4-1-.9-.8-1.8 1.4-7.6.7-14.9-2.5-22-2.6-5.6-6.7-10-11.6-13.7-3.3-2.5-6.9-4.5-10.9-5.6-1.3-.3-1.8-1-1.7-2.4.2-2.8.7-5.5.7-8.4 0-1.2.7-1.4 1.7-1.2 3.3.7 6.3 2.1 9.4 3.4 7.7 3.3 13.8 8.5 18.4 15.4 1.6 2.4 3.3 4.8 4.6 7.4 2 4.3 4.4 13.8 4.1 20.8z"/></g><path d="m16.8 52.4c.3 0 .6.1.8.2s.4.3.5.5.2.5.2.7c0 .3.1.6.1.9l-.1 4.4c0 .2-.1.4-.4.4l-5-.1c-.2 0-.4-.1-.4-.4l.1-4.4c0-.3 0-.7.1-.9.1-.3.1-.5.3-.7.1-.2.3-.4.5-.5s.5-.2.8-.2.5.1.7.2.4.3.5.6c.1-.2.2-.4.4-.6.2-.1.5-.2.9-.1zm-1.8 6 .1-3.7c0-.2 0-.4 0-.6s-.1-.3-.1-.4c-.1-.1-.1-.2-.2-.2s-.2-.1-.4-.1c-.1 0-.3 0-.4 0s-.2.1-.2.2c-.1.1-.1.2-.1.4s0 .4-.1.6l-.1 3.8zm1.8-5c-.2 0-.3 0-.4 0s-.2.1-.3.2-.1.2-.2.4c0 .2-.1.4-.1.7l-.1 3.7h1.6l.1-3.8c0-.3 0-.5 0-.6 0-.2-.1-.3-.1-.4-.1-.1-.1-.1-.2-.2-.1 0-.2 0-.3 0z"/><path d="m13.5 47.6c0-.1.1-.3.1-.4l.2-.2 5.5-2.3h.2c.1 0 .1 0 .2.1 0 0 .1.1.1.2v.2.2c0 .1 0 .1-.1.2 0 .1-.1.1-.1.1l-1.5.6-.9 4.3 1.1 1.1s.1.1.1.2 0 .1 0 .2 0 .1-.1.2c0 .1-.1.1-.1.2-.1 0-.1.1-.2.1s-.1 0-.2 0-.1 0-.2-.1l-4.1-4.2c-.1-.1-.1-.2-.2-.3.2-.1.2-.2.2-.4zm3 2.3.7-3.2-2.7 1.1z"/><path d="m17.4 42.3-.5-4.7c0-.1 0-.2 0-.3s.1-.2.1-.4c0-.1.1-.2.2-.2.1-.1.2-.1.3 0s .2.2.2.4l.3 4.7 3.7-3.1c.1-.1.3-.2.4-.1.1 0 .2.1.2.2v.3c-.1.2-.1.3-.2.4 0 .1-.1.1-.2.2l-3.8 3.1 1.9.8c.1.1.2.1.2.2s0 .2-.1.4-.1.3-.2.3c-.1.1-.2.1-.3 0l-4.6-1.9c-.1-.1-.2-.1-.2-.2s0-.2.1-.4.1-.3.2-.3c.1-.1.2-.1.3 0z"/><path d="m23.9 36.6c-.8 1.3-1.7 1.7-2.5 1.1l-3.3-2.1c-.1-.1-.2-.2-.2-.3s.1-.2.2-.4l.3-.3c.1 0 .2 0 .3.1l3.3 2.1c.1.1.3.1.5 0s .4-.4.7-.7l1.3-2c .3-.4.4-.7.4-.9s-.1-.4-.2-.5l-3.3-2.1c-.1-.1-.2-.2-.2-.3s.1-.2.2-.4c.1-.1.2-.2.3-.3.1 0 .2 0 .3.1l3.3 2.1c.8.5.8 1.4 0 2.7z"/><path d="m31.4 27.7c-.1.1-.1.1 0 0l-.2.2s-.1 0-.2 0-.1 0-.2 0l-6.4.6 2.9 2.8c.1.1.1.2.1.3s-.1.2-.2.3-.2.2-.3.2-.2 0-.3-.1l-3.7-3.4c-.1-.1-.1-.2-.1-.3s.1-.2.2-.3.2-.2.3-.2.2-.1.4-.1l6.3-.6-2.9-2.8c-.1-.1-.1-.2-.1-.3s.1-.2.2-.3.2-.2.3-.2.2 0 .3.1l3.6 3.5c.1.1.1.2.1.3.1 0 0 .1-.1.3z"/><path d="m32.9 26.1c.1.1.1.2.1.3s-.1.2-.3.3c-.1.1-.2.2-.3.2s-.2 0-.3-.1l-3.2-4c-.1-.1-.1-.2-.1-.3s.1-.2.3-.3c.1-.1.3-.2.4-.2s.2 0 .3.1z"/><path d="m39.1 22.4c-.1 0-.1.1-.2.1h-.1s-.1 0-.2 0-.1 0-.2 0l-6.3-.9 2.1 3.4c.1.1.1.2 0 .3s-.1.2-.3.3c-.1.1-.3.1-.4.1s-.2-.1-.3-.2l-2.7-4.3c-.1-.1-.1-.2 0-.3 0-.1.1-.2.3-.3.1-.1.3-.1.4-.2h.4l6.3.9-2.1-3.4c-.1-.1-.1-.2 0-.3s.1-.2.3-.3c.1-.1.3-.1.4-.1s.2.1.3.2l2.7 4.3c.1.1.1.2 0 .3-.2.2-.3.3-.4.4z"/><path d="m80.7 24.3c-.2.3-.4.5-.6.6s-.5.2-.7.2-.5-.1-.8-.2-.5-.2-.8-.4l-3.8-2.3c-.2-.1-.2-.3-.1-.5l2.6-4.2c.1-.2.3-.2.5-.1l3.7 2.3c.3.2.5.4.8.5.2.2.4.4.5.6s.2.4.1.7c0 .2-.1.5-.3.8-.1.2-.3.4-.5.5s-.4.2-.8.1c.2.2.3.4.3.6.1.2.1.5-.1.8zm-.9-.5c.1-.1.1-.2.2-.4 0-.1 0-.2 0-.3s-.1-.2-.3-.3c-.1-.1-.3-.2-.5-.4l-3.3-1.9-.8 1.3 3.3 2c .2.1.4.2.6.3.1.1.3.1.4.1s.2 0 .3-.1c-.1-.1 0-.2.1-.3zm-3.4-4.1 3.2 1.9c.2.1.4.2.5.3s.3.1.4.1.2 0 .3-.1.2-.2.3-.3.1-.2.1-.3 0-.2 0-.3-.1-.2-.2-.3-.3-.2-.5-.4l-3.2-2z"/><path d="m86.4 23.9c.1.1.2.2.2.3s.1.2 0 .3l-.7 5.9c0 .1 0 .1-.1.2l-.1.1s-.1 0-.2 0-.1 0-.2-.1c-.1 0-.1-.1-.2-.1s-.1-.1-.1-.2 0-.1 0-.2l.2-1.6-3.2-2.9-1.6.4c-.1 0-.1 0-.2 0s-.1-.1-.2-.1c0 0-.1-.1-.1-.2s0 0 0-.1 0-.1 0-.2 0-.1.1-.2c0 0 .1-.1.2-.1l5.7-1.5h.3c0 .1.1.2.2.3zm-3.5 1.5 2.4 2.2.4-2.9z"/><path d="m89 29.9 4.3 2c .1 0 .1.1.2.1.1.1.2.2.3.3s.1.2.1.3 0 .2-.1.3-.3.1-.4 0l-4.2-2.1.8 4.8c0 .2 0 .3-.1.4s-.2.1-.3.1-.2-.1-.3-.2-.2-.3-.2-.3c0-.1-.1-.2-.1-.2l-.8-4.8-1.6 1.2c-.1.1-.2.1-.3.1s-.2-.1-.3-.3c-.1-.1-.2-.3-.2-.4s0-.2.2-.3l4-3c .1-.1.2-.1.3-.1s.2.1.3.3c.1.1.2.3.2.4s0 .2-.2.3z"/><path d="m90.6 38.4c-.7-1.4-.6-2.3.3-2.7l3.5-1.7c.1-.1.2-.1.3 0s .2.2.2.3c.1.2.1.3.1.4s-.1.2-.2.3l-3.5 1.7c-.1.1-.2.2-.2.5 0 .2.1.6.3 1l1.1 2.1c.2.4.4.7.6.8s.4.2.5.1l3.5-1.7c.1-.1.2-.1.3 0s .2.2.2.3c.1.1.1.3.1.4s-.1.2-.2.3l-3.5 1.7c-.9.4-1.7 0-2.3-1.4z"/><path d="m94.6 49.4c0-.1 0-.1 0-.2v-.1s0-.1 0-.2 0-.1.1-.2l2.7-5.8-3.9 1.1c-.1 0-.3 0-.3 0-.1-.1-.1-.2-.2-.4 0-.2-.1-.3 0-.4 0-.1.1-.2.3-.2l4.8-1.3h.3s.1.2.2.3c0 .2.1.3 0 .4 0 .1-.1.2-.1.4l-2.7 5.7 3.9-1.1h.3s.1.2.2.4c0 .2.1.3 0 .4 0 .1-.1.2-.3.2l-4.8 1.3c-.1 0-.3 0-.3 0-.1 0-.1-.2-.2-.3z"/><path d="m95.2 51.5c-.2 0-.3 0-.3-.1-.1-.1-.1-.2-.1-.4s0-.3 0-.4.1-.2.3-.2l5-.7c.2 0 .3 0 .3.1.1.1.1.2.1.4s0 .3 0 .4-.1.2-.3.2z"/><path d="m95.3 58.6c0-.1 0-.1 0-.2v-.1s0-.1.1-.1c0 0 .1-.1.1-.2l4-5-4 .1c-.2 0-.3 0-.3-.1s-.1-.2-.1-.4 0-.3.1-.4c0-.1.1-.1.3-.1l5-.1c.1 0 .2 0 .3.1s.1.2.1.4 0 .3-.1.4-.1.2-.2.3l-4 4.9 4-.1c.2 0 .3 0 .3.1s.1.2.1.4 0 .3-.1.4c0 .1-.1.1-.3.1l-5 .1c-.2 0-.3 0-.3-.1s0-.2 0-.4z"/><path d="m71.3 94.2c-.1-.3-.2-.6-.2-.8s.1-.5.3-.7.3-.4.6-.5c.2-.2.5-.3.7-.4l4-2c .2-.1.4 0 .5.2l2.2 4.5c.1.2.1.4-.2.5l-3.9 1.9c-.3.2-.6.3-.9.3-.3.1-.5.1-.8.1-.2 0-.5-.1-.6-.2-.2-.1-.4-.4-.5-.7-.1-.2-.2-.5-.2-.7s.1-.5.3-.7c-.3 0-.5 0-.7-.1-.3-.2-.5-.4-.6-.7zm.9-.5c.1.1.1.2.2.3s.2.1.3.1h.4c.2 0 .4-.1.6-.3l3.3-1.6-.7-1.4-3.4 1.7c-.2.1-.4.2-.5.3s-.2.2-.3.3c0 .1-.1.2 0 .3 0 .1.1.2.1.3zm5.2-.7-3.4 1.7c-.2.1-.4.2-.5.3s-.2.2-.3.3-.1.2-.1.3.1.2.1.4c.1.1.1.2.2.3s.2.1.3.1.2 0 .4 0 .3-.1.6-.2l3.4-1.7z"/><path d="m68.5 99.3c-.1 0-.3.1-.4 0-.1 0-.2-.1-.3-.1l-4.6-3.8s-.1-.1-.1-.2 0-.1 0-.2 0-.1.1-.2c0 0 .1-.1.2-.1s.1-.1.2-.1.1 0 .2 0 .1 0 .2.1l1.3 1.1 4.2-1.2.5-1.5c0-.1.1-.1.1-.2.1 0 .1-.1.2-.1s.1 0 .2 0 .1 0 .2 0 .1.1.2.1l.1.1v.2l-1.8 5.6c0 .1-.1.2-.2.3-.2.1-.3.1-.5.2zm.6-3.7-3.1.9 2.3 1.9z"/><path d="m62.1 98.2-4 2.5c-.1 0-.1.1-.2.1s-.2 0-.4.1c-.1 0-.2 0-.3-.1s-.1-.1-.1-.3.1-.3.2-.4l4-2.4-4.5-1.9c-.2-.1-.3-.2-.3-.3s0-.2.1-.3.2-.1.3-.1h.4s.2 0 .2.1l4.4 1.9-.2-2c0-.2 0-.3.1-.3.1-.1.2-.1.4-.1h.4s.1.1.2.3l.4 5c0 .2 0 .3-.1.3-.1.1-.2.1-.4.1s-.3 0-.4 0-.1-.1-.2-.3z"/><path d="m54 95c1.5.2 2.3.7 2.2 1.7l-.4 3.9c0 .2-.1.2-.2.3-.1 0-.2 0-.4 0s-.3-.1-.4-.1c-.1-.1-.1-.2-.1-.3l.4-3.9c0-.2-.1-.3-.3-.5-.2-.1-.5-.2-1-.3l-2.3-.2c-.5 0-.8 0-1 .1s-.3.2-.4.4l-.4 3.9c0 .2-.1.2-.2.3-.1 0-.2 0-.4 0s-.3-.1-.4-.1c-.1-.1-.1-.2-.1-.3l.4-3.9c.1-1 .9-1.4 2.5-1.2z"/><path d="m42.6 92.5c.1 0 .1 0 .2.1 0 0 .1 0 .1.1l.1.1s.1.1.1.2l3.5 5.4 1.2-3.8c0-.1.1-.2.2-.2s.2 0 .4 0 .3.1.3.2c.1.1.1.2 0 .3l-1.5 4.8c0 .1-.1.2-.2.2s-.2 0-.4 0c-.2-.1-.3-.1-.4-.2s-.2-.2-.2-.3l-3.4-5.3-1.2 3.8c0 .1-.1.2-.2.2s-.2 0-.4 0c-.2-.1-.3-.1-.4-.2s-.1-.2 0-.3l1.5-4.8c0-.1.1-.2.2-.2.2-.2.4-.1.5-.1z"/><path d="m40.5 91.9c.1-.1.1-.2.2-.2s.2 0 .4.1.3.1.3.2c.1.1.1.2 0 .3l-2 4.6c-.1.1-.1.2-.2.2s-.2 0-.4-.1-.3-.1-.3-.2-.1-.2 0-.3z"/><path d="m34.5 88.1c.1 0 .1.1.2.1l.1.1s0 .1.1.1c0 .1 0 .1.1.2l2.1 6 2.1-3.4c.1-.1.2-.2.3-.2s.2.1.4.1l.3.3c.1.1 0 .2 0 .3l-2.6 4.3c-.1.1-.2.2-.3.2s-.2 0-.4-.1c-.1-.1-.3-.2-.3-.3-.1-.1-.1-.2-.2-.4l-2-6-2.1 3.5c-.1.1-.2.2-.3.2s-.2 0-.4-.1c-.1-.1-.2-.2-.3-.3s0-.2 0-.3l2.6-4.3c.1-.1.2-.2.3-.2 0 .1.1.1.3.2z"/></svg>