<svg enable-background="new 0 0 113.4 113.3" viewBox="0 0 113.4 113.3" xmlns="http://www.w3.org/2000/svg"><path d="m56.6 113.3c-31.3.1-56.9-25.6-56.6-57.2.3-31 25.8-56.5 57.3-56.1 31 .3 56.5 25.8 56.1 57.5-.4 30.8-25.7 56-56.8 55.8zm46.4-34.1c8.1-16.1 7.2-36.7-4.6-52.8-9.3-12.7-22-19.6-37.8-21.2v9.1c0 .7 0 1.4-.2 2-.6 1.8-2.4 2.9-4.5 2.6-1.7-.3-3.1-1.9-3.1-3.7 0-3.3 0-6.6 0-9.8-14.1.8-31.5 8.8-41.1 26.4-8.4 15.5-8.5 31.4-1.3 47.5 2.9-1.7 5.5-3.3 8.2-4.9 1.3-.8 2.8-.9 4.1-.1 1.4.8 2 2 1.9 3.6s-.9 2.6-2.2 3.4c-2.6 1.6-5.3 3.1-8.1 4.8 10.4 14 24.2 21.8 41.7 22 18 .2 32.2-7.6 43-22-2.8-1.7-5.5-3.2-8.2-4.8-2.1-1.2-2.8-3.5-1.7-5.5 1.1-1.9 3.4-2.5 5.5-1.3 2.9 1.5 5.6 3.1 8.4 4.7z" fill="#0d0907"/><path d="m103 79.2c-2.8-1.6-5.5-3.2-8.2-4.8-2.1-1.2-4.4-.6-5.5 1.3s-.4 4.3 1.7 5.5c2.7 1.6 5.3 3.2 8.2 4.8-10.8 14.4-25 22.2-43 22-17.4-.2-31.2-8-41.7-22 2.8-1.7 5.5-3.2 8.1-4.8 1.3-.8 2.1-1.8 2.2-3.4s-.5-2.8-1.9-3.6-2.8-.7-4.1.1c-2.7 1.6-5.4 3.2-8.2 4.9-7.3-16.1-7.1-32 1.3-47.5 9.6-17.6 27-25.6 41.2-26.4v9.8c0 1.9 1.4 3.5 3.1 3.7 2 .3 3.8-.7 4.5-2.6.2-.7.2-1.3.2-2 0-2.9 0-5.9 0-9.1 15.7 1.6 28.4 8.5 37.8 21.2 11.5 16.2 12.3 36.8 4.3 52.9zm-70.9-32.5v19.8c.2-.1.4-.1.5-.2 3.6-2.2 7.3-4.3 10.9-6.6 2.6-1.6 5.4-.5 6.1 2.3.4 1.6-.6 3.4-2.5 4.5-3.7 2.2-7.4 4.3-11.2 6.6 5.7 3.3 11.3 6.5 16.9 9.8v15.8c0 2 1.5 3.6 3.4 3.7 2.3.1 4-1.2 4.2-3.3.1-.6.1-1.3.1-1.9 0-4.8 0-9.6 0-14.4 5.6-3.2 11.1-6.4 16.8-9.7-3.9-2.3-7.6-4.5-11.3-6.6-1.8-1.1-2.8-2.7-2.5-4.3.6-2.9 3.5-4 6.2-2.4 3.5 2.1 6.9 4.2 10.4 6.2.3.2.6.6 1.1.3 0-6.5 0-13 0-19.5.4-.3.8-.5 1.2-.7 3.9-2.3 7.8-4.5 11.7-6.8 2.2-1.3 2.9-3.7 1.7-5.7-1.1-1.8-3.6-2.4-5.4-1.2-3.4 2.2-7 4.2-10.5 6.3-.9.5-1.8 1-2.6 1.5-5.6-3.2-11.2-6.4-16.8-9.7v13.3c0 2.6-1.6 4.3-3.9 4.3s-3.8-1.7-3.8-4.2c0-1.4 0-2.7 0-4.1 0-3 0-6 0-9.2-5.7 3.3-11.3 6.5-16.8 9.7-4.3-2.6-8.6-5.1-12.9-7.6-2-1.2-4.3-.8-5.6 1-1.4 2-.6 4.5 1.8 5.9 4.3 2.2 8.6 4.7 12.8 7.1z" fill="#fefefe"/><path d="m32.1 46.7c-4.3-2.5-8.5-5-12.7-7.4-2.4-1.4-3.2-3.9-1.8-5.9 1.2-1.8 3.5-2.2 5.6-1 4.3 2.5 8.6 5.1 12.9 7.6 5.6-3.2 11.1-6.4 16.8-9.7v9.2 4.1c0 2.5 1.6 4.2 3.8 4.2 2.3 0 3.9-1.7 3.9-4.3 0-4.4 0-8.7 0-13.3 5.7 3.3 11.2 6.5 16.8 9.7.9-.5 1.8-1 2.6-1.5 3.5-2.1 7.1-4 10.5-6.3 1.8-1.2 4.3-.6 5.4 1.2 1.2 2 .5 4.4-1.7 5.7-3.9 2.3-7.8 4.6-11.7 6.8-.4.2-.8.5-1.2.7v19.5c-.5.2-.8-.2-1.1-.3-3.5-2.1-6.9-4.1-10.4-6.2-2.7-1.6-5.5-.5-6.2 2.4-.3 1.6.6 3.3 2.5 4.3 3.7 2.2 7.4 4.3 11.3 6.6-5.7 3.3-11.3 6.5-16.8 9.7v14.4c0 .6 0 1.3-.1 1.9-.2 2.1-2 3.5-4.2 3.3-1.9-.1-3.4-1.7-3.4-3.7 0-5.3 0-10.5 0-15.8-5.6-3.2-11.1-6.4-16.9-9.8 3.8-2.2 7.5-4.4 11.2-6.6 1.9-1.1 2.8-2.9 2.5-4.5-.7-2.9-3.5-3.9-6.1-2.3-3.6 2.2-7.3 4.4-10.9 6.6-.1.1-.3.1-.5.2-.1-6.3-.1-12.9-.1-19.5z" fill="#030200"/></svg>