<svg enable-background="new 0 0 113.5 113.2" viewBox="0 0 113.5 113.2" xmlns="http://www.w3.org/2000/svg"><path d="m .3 59.7c0-2.1 0-4.1 0-6.2.1-.8.1-1.5.1-2.3.1-1.2.3-2.4.5-3.7.1-.6.2-1.2.3-1.7.2-1.2.5-2.4.8-3.6s.7-2.4 1.1-3.6c.9-2.6 2-5.1 3.2-7.6 1.4-2.8 3.1-5.4 4.9-8 1-1.3 2-2.6 3.1-3.9 1-1.1 2-2.2 3.1-3.2 1.5-1.5 3.1-2.9 4.8-4.2 1.5-1.1 3-2.2 4.6-3.2 1.5-.9 3.1-1.8 4.6-2.6 1.8-.9 3.6-1.7 5.4-2.4 1.4-.5 2.8-1 4.2-1.4s2.8-.7 4.2-1 2.7-.5 4.1-.7c1.2-.2 2.5-.4 3.7-.3.5 0 1 0 1.5-.1h4.5c.6.1 1.3.1 1.9.1 1.5 0 3 .3 4.4.5 1.2.2 2.3.4 3.5.6s2.4.6 3.6.9c1.3.4 2.6.9 3.9 1.3 1.2.4 2.4.9 3.6 1.4 2.2 1 4.3 2.1 6.4 3.4 1.6.9 3.1 2 4.5 3.1.9.7 1.8 1.4 2.7 2.2.8.7 1.6 1.4 2.4 2.1.6.5 1.1 1.1 1.6 1.7 1.2 1.1 2.2 2.4 3.2 3.6.7.9 1.4 1.8 2.1 2.7 1.4 1.8 2.5 3.7 3.6 5.6.9 1.6 1.7 3.2 2.4 4.9.5 1.1 1 2.2 1.4 3.4.4 1.3.9 2.6 1.3 3.9.4 1.4.7 2.8 1 4.2s.5 2.8.7 4.3.3 3 .3 4.5c.1 1.6 0 3.3 0 4.9 0 .7-.1 1.4-.1 2s-.1 1.2-.2 1.8c-.1.4 0 .8-.1 1.1-.2 1.5-.5 3.1-.8 4.6-.7 3-1.5 5.9-2.7 8.7-.8 2.1-1.8 4-2.8 6-.9 1.8-2.1 3.5-3.2 5.3-1.1 1.7-2.4 3.1-3.6 4.6-1.6 2-3.4 3.8-5.3 5.4-2 1.7-4 3.4-6.2 4.8-1.5 1-3 2-4.6 2.8-1.4.8-2.8 1.5-4.3 2.1-1.1.5-2.2 1-3.3 1.3-1.3.5-2.6.9-4 1.3-.8.2-1.6.4-2.4.6-1.2.3-2.4.6-3.7.8-1 .2-2 .3-3 .4-1.2.2-2.5.3-3.7.3-1.8 0-3.6 0-5.4 0-1.5 0-3-.2-4.5-.3-1.5-.2-2.9-.4-4.4-.7-1.8-.4-3.5-.8-5.2-1.4-1.7-.5-3.5-1.1-5.1-1.9-3.3-1.4-6.5-3-9.4-5.1-1.4-1-2.8-1.9-4.2-3-1-.8-2.1-1.7-3-2.6-1.3-1.3-2.6-2.5-3.8-3.8-.6-.6-1-1.2-1.6-1.9-1-1.3-2.1-2.5-3-3.9-1.7-2.5-3.2-5.1-4.5-7.8-.9-1.9-1.7-3.8-2.4-5.7s-1.2-3.8-1.7-5.7c-.4-1.8-.7-3.5-1-5.3-.2-1.5-.3-3-.3-4.5.3.1.3.1.3.1z" fill="#010202"/><g fill="#9c96c9"><path d="m26.6 43.7c0 .2-.2.2-.4.3.1-.3.2-.5.3-.7.9-1.9 1.7-3.7 2.6-5.6 1.6-3.5 2.8-7.2 3.2-11 .1-1 .1-2.1.1-3.1.2-2.7-.3-5.4-.6-8 0-.3 0-.4.4-.3 4.6.8 9 2 13.3 3.8 3.7 1.6 7.1 3.6 10.1 6.3 3.6 3.2 6.4 6.9 8.1 11.4.4 1 .7 2.1.9 3.2 0 .2.2.4 0 .5s-.3-.1-.5-.2c.2-.1.1-.3 0-.5-.4-.7-.9-1.3-1.6-1.9-.9-.8-1.8-1.6-2.8-2.4-3.7-2.8-7.9-4.6-12.4-5.6-1.3-.3-2.5-.5-3.8-.7-.2 0-.4 0-.6.2-2.5 2.2-5.3 4.2-7.9 6.4-1.3 1.1-2.6 2.2-3.9 3.4-1.5 1.4-2.9 2.9-4.4 4.3-.1.1-.1.2-.1.2z"/><path d="m35.7 80.8c.1.1.1.3.2.5-.4-.2-.6-.5-.8-.7-2-2-4-4-6.2-5.8-2.7-2.3-5.7-4.2-9-5.5-2.2-.9-4.5-1.5-6.9-1.9-.7-.1-1.4-.3-2.1-.4-.3 0-.3-.1-.2-.4 1.3-2.4 2.7-4.8 4.3-7 1.7-2.4 3.7-4.6 5.8-6.7 2.2-2.1 4.7-3.9 7.4-5.4 3.1-1.7 6.4-2.9 9.9-3.4 2.3-.3 4.6-.3 6.9.1.1 0 .2 0 .3.1 0 .1 0 .2-.2.2-1.8.1-3.4.7-5 1.6-2.7 1.6-5.1 3.6-7.3 5.8-1.9 2.1-3.5 4.4-4.8 6.8-.2.4-.5.8-.7 1.2-.1.3-.2.5 0 .8 1.7 3.8 2.9 7.8 4.5 11.6 1 2.4 2.1 4.9 3.4 7.2.2.3.3.6.5.9 0 .3-.1.4 0 .4z"/><path d="m58.8 22.8c1.1 0 2.1.2 3.1.3 3.2.3 6.4.7 9.7.6 2.9-.1 5.7-.6 8.5-1.4 2.7-.8 5.2-1.9 7.7-3.1.2.7.3 1.4.4 2.1.5 3.6.7 7.3.4 11-.2 2.3-.5 4.6-1 6.9-.4 1.9-1 3.8-1.8 5.6-2 4.8-5 9-9.3 12.1-.6.4-1.2.7-1.8 1.1-.1.1-.3.1-.4.2-.1-.2-.1-.4 0-.6 1.6-1.7 2.8-3.6 3.6-5.7.7-1.9 1-3.9 1.3-5.9.2-1.4.2-2.8.2-4.2 0-2.4-.4-4.7-.8-7-.1-.5-.2-.9-.3-1.4-.1-.3-.2-.5-.5-.6-2.9-1.5-5.6-3.1-8.5-4.7-1.4-.8-2.8-1.5-4.2-2.2-1.9-1-3.9-1.8-5.8-2.6-.2-.3-.5-.3-.5-.5z"/><path d="m72.7 83.8h2.2c0 .3-.2.3-.3.3-2.6 1.4-5.3 2.8-7.9 4.4-3.1 1.9-5.9 4-8.3 6.8-2 2.4-3.7 5-5.1 7.8-.3.6-.4.6-.9.1-3.1-3.2-5.8-6.7-8-10.5-1.6-2.8-2.9-5.8-3.8-8.9s-1.3-6.2-1.1-9.5c.2-3.5 1-6.9 2.6-10 .1-.1.1-.4.3-.4s.2.2.3.4c-.2-.1-.2-.1-.2.2-.1.9-.2 1.7-.2 2.6 0 3 .7 5.9 1.8 8.6 1.4 3.3 3.4 6.2 5.8 8.9.5.5.9 1 1.4 1.5.3.3.6.4 1 .3 1.9-.2 3.9-.4 5.8-.5 3.6-.2 7.2-.5 10.8-1 1.4-.2 2.8-.5 4.2-.8.3-.1.5-.1.7-.1s.1-.1.1 0c-.3 0-.6.1-.9.1 0-.1-.2 0-.3-.3z"/><path d="m89.1 47.3c.1-.2.1 0 0 0 .3.8.4 1.6.6 2.3.7 3.5 1.4 7 2.4 10.4.9 2.8 2.2 5.4 3.8 7.8 1.4 2.2 3.2 4.1 5 6 .2.3.2.4-.1.5-2.1 1.1-4.3 2-6.5 2.9-2.7 1-5.4 1.7-8.2 2.2-3.1.5-6.3.7-9.5.5-4.2-.4-8.2-1.5-11.9-3.6-1.6-.9-3-2-4.3-3.4-.2-.2-.2-.2 0-.4 1.8 1.1 3.8 1.7 5.9 2 1.6.2 3.3.2 5 .1 3.1-.3 6.1-1.2 8.9-2.4 1.2-.6 2.4-1.2 3.6-1.9.2-.2.4-.4.5-.6.8-3.5 1.9-6.9 2.7-10.4.8-3.2 1.4-6.4 1.8-9.6.1-.8.3-1.6.3-2.4z"/></g><g fill="#d8d2ea"><path d="m72.7 83.8c.5.2 1 0 1.6.1-.9.2-1.6.3-2.3.5-1.9.4-3.9.7-5.9.9-1.5.2-3.1.3-4.7.4-2.1.1-4.2.3-6.2.4-1 .1-2 .2-3 .3-.3 0-.6 0-.9-.3-2.7-2.6-4.9-5.6-6.6-8.9-1.1-2.3-2-4.7-2.3-7.3-.3-1.8-.3-3.7 0-5.6 0-.2.1-.4.4-.2 1.3 2.4 2.6 4.7 4.3 6.8 2 2.5 4.2 4.6 6.8 6.5 2.5 2 5.2 3.4 8.2 4.4 2.2.8 4.4 1.3 6.7 1.6 1.3.2 2.6.3 3.9.4z"/><path d="m89.1 47.3c.2.5 0 1.1 0 1.6-.2 1.6-.4 3.1-.7 4.7-.4 2.4-1 4.8-1.6 7.2-.6 2.5-1.3 4.9-2 7.3-.1.5-.2 1-.3 1.4s-.2.7-.6.9c-2.1 1.3-4.2 2.3-6.5 3.1-1.9.6-3.9 1.1-5.9 1.3-3.2.3-6.2 0-9.2-1.2-.5-.2-1-.5-1.5-.7-.1-.1-.2-.1-.2-.3 2.2-.3 4.3-.8 6.4-1.5 3.3-1.1 6.4-2.7 9.2-4.8 4.6-3.4 8.1-7.8 10.6-13 .9-1.9 1.6-3.9 2.3-6z"/><path d="m59.2 23c2.6 1 5.1 2.2 7.6 3.5 3.1 1.6 6 3.4 9 5 .7.4 1.3.7 2 1 .3.1.4.4.5.7.6 2.1.9 4.2 1.1 6.4.1 1.6.1 3.2.1 4.7-.1 2.2-.4 4.5-1.1 6.6s-1.7 4-3.1 5.8c-.2.3-.4.5-.7.8-.1.1-.1.2-.2.1.2-1.9.4-3.7.4-5.6 0-4.6-.9-9-2.7-13.1-2-4.6-4.8-8.5-8.5-12-1.3-1.3-2.7-2.4-4.2-3.5-.1-.1-.2-.1-.2-.2-.2-.2-.1-.2 0-.2z"/><path d="m35.6 80.7c-1.9-3.5-3.5-7.2-5-11-1-2.5-1.9-5.1-2.9-7.6-.1-.2-.1-.4-.3-.6-.5-.8-.3-1.5.1-2.3 1-1.7 1.9-3.4 3.1-5 1.5-1.9 3.2-3.7 5-5.3 1.8-1.5 3.7-2.7 5.8-3.8 1.1-.5 2.2-.7 3.4-.8.1 0 .1 0 .1.1-.8.9-1.6 1.7-2.4 2.6-2.5 2.8-4.5 6-6 9.4-1.1 2.7-1.9 5.4-2.3 8.3s-.4 5.7-.2 8.6c.2 2.1.6 4.3 1.2 6.3.1.2 0 .5.1.7.4.3.5.4.3.4z"/><path d="m26.6 43.7c-.1-.2.1-.2.1-.3 2.3-2.3 4.6-4.6 7.1-6.6 2.2-1.8 4.4-3.5 6.6-5.3.8-.7 1.6-1.3 2.4-2 .4-.4.8-.2 1.1-.2 2.5.3 4.9.9 7.3 1.7 3.5 1.2 6.7 3 9.6 5.3 1 .8 2 1.7 2.8 2.7.3.4.5.8.7 1.3-.2 0-.3 0-.4-.1-1.5-.6-2.9-1.3-4.5-1.8-3.5-1.2-7-1.9-10.7-1.9-4.5-.1-8.9.7-13.1 2.3-2.9 1.1-5.7 2.6-8.2 4.3-.3.3-.6.5-.8.6z"/></g><path d="m59.2 23c-.1 0-.2 0-.2.1-.2-.1-.4-.2-.5-.4.1-.1.2-.1.3 0 .1.2.3.2.4.3z" fill="#c5bfde"/><path d="m35.6 80.7c.1-.1.1-.2.1-.2.1.1.1.2.1.3 0 0 0 .1-.1.1s-.1-.1-.1-.2z" fill="#bcb5d6"/></svg>